<svg xmlns="http://www.w3.org/2000/svg" xmlns:xlink="http://www.w3.org/1999/xlink" viewBox="0 0 14712.25 1080"><defs><style>.cls-1,.cls-24,.cls-25,.cls-28{fill:none;}.cls-2{fill:#666;}.cls-3,.cls-6{fill:#333;}.cls-3{opacity:0.15;}.cls-4{fill:#999;}.cls-5{fill:#fff8ed;}.cls-7{fill:#fff;}.cls-8{fill:#58585a;}.cls-9{fill:#ccc;}.cls-10{fill:#975a45;}.cls-11{fill:#e8d9bc;}.cls-12{fill:#5b5b5d;}.cls-13{clip-path:url(#clip-path);}.cls-14{clip-path:url(#clip-path-2);}.cls-15{clip-path:url(#clip-path-3);}.cls-16{fill:#506391;}.cls-17{fill:#393e70;}.cls-17,.cls-18,.cls-22,.cls-23{stroke:#393e70;}.cls-17,.cls-18,.cls-22,.cls-23,.cls-28{stroke-miterlimit:10;}.cls-18{fill:#2e315e;}.cls-19{fill:#e6e6e6;}.cls-20{fill:#2e325b;}.cls-21{fill:#0d0d34;}.cls-22{fill:#ed1c24;}.cls-23{fill:#39b54a;}.cls-24,.cls-25{stroke:#fff;stroke-linecap:round;stroke-linejoin:round;stroke-width:5.45px;}.cls-25{stroke-dasharray:68.06 68.06;}.cls-26{fill:#fbb03b;}.cls-27{font-size:36px;fill:#f7931e;font-family:Karma-Regular, Karma;}.cls-28{stroke:#f7931e;stroke-width:3px;}</style><clipPath id="clip-path"><rect class="cls-1" x="543.52" y="751" width="14" height="26"/></clipPath><clipPath id="clip-path-2"><rect class="cls-1" x="546.52" y="270" width="249" height="570" transform="translate(1342.05 1110) rotate(-180)"/></clipPath><clipPath id="clip-path-3"><rect class="cls-1" x="279.52" y="751" width="14" height="26" transform="translate(573.05 1528) rotate(-180)"/></clipPath></defs><title>Asset 11</title><g id="Layer_2" data-name="Layer 2"><g id="Layer_1-2" data-name="Layer 1"><rect class="cls-2" x="0.52" y="798" width="14707.14" height="282"/><rect class="cls-3" x="0.52" width="14707.76" height="798"/><path class="cls-4" d="M14203.32,726.39V667.63h-11.66V616.24h-61.93V335.81H14089v131.9h-105.86V427.18h-61.94v40.53h-10.1v-49.5h-35.23V527h-21.47V308.15h-107.25v89.17h-33V206.75h-31.71V561.67h-9.65V395.4h-15.94V259.16h-70.52v97.35h-35V311.74h-27.45v44.77h-16.22V265.15h5.88c6.49,0,11.75-5.81,11.75-13v-8.48c0-7.17-5.26-13-11.75-13h-7.24c0-13.23-9.71-24-21.7-24s-21.7,10.73-21.7,24h-7.23c-6.49,0-11.76,5.81-11.76,13v8.48c0,7.17,5.27,13,11.76,13h7.23V355h-22.24v80.31h-32.53v15.6h32.53V561.67h-42.86V451.23h-40.69V555.66h-23.31v48.89H13324V320.14h-119v85.14h-57.36v-8h-41.76v31.45H13095v16.47h-14.24v22.47H13095V629.07h-.7v38.56h-23.37V527h12.74V508.49h-12.74V494.9h-10.1V469h-3.94V397.32h-16.15l5.19-21.91h-67.81v21.91h-11v53.57h-7.28V443h-22.6v7.9h-23.19V469h-9.49v35.88h-31.3V667.63h-11v-110h-7.37V471.44h-29.84V418.28h-74.24v68h-33.53v8.41h-31.53v54.6H12661v101h-83.07v75.87H12515v.28h-25.52V671.74a30.31,30.31,0,0,0,3.65-6.39,31.29,31.29,0,1,0,54.7-28.75,17.59,17.59,0,0,0,2.43-27.92,34.93,34.93,0,0,0-34.2-58.48c0-.57.05-1.14.05-1.71a37.61,37.61,0,1,0-73.88,9.94,33.62,33.62,0,0,0-7.09,60.76,23,23,0,0,0,1.42,24.58,30.29,30.29,0,0,0,39.61,38.11v44.51h-72.85V667.63h-11.66V616.24h-61.93V335.81H12289v131.9h-105.86V427.18h-61.94v40.53h-10.1v-49.5h-35.23V527h-21.47V308.15h-107.25v89.17h-33V206.75h-31.71V561.67h-9.65V395.4h-15.94V259.16h-70.52v97.35h-35V311.74h-27.45v44.77h-16.22V265.15h5.88c6.49,0,11.75-5.81,11.75-13v-8.48c0-7.17-5.26-13-11.75-13h-7.24c0-13.23-9.71-24-21.7-24s-21.7,10.73-21.7,24h-7.23c-6.49,0-11.76,5.81-11.76,13v8.48c0,7.17,5.27,13,11.76,13h7.23V355h-22.24v80.31h-32.53v15.6h32.53V561.67h-42.86V451.23h-40.69V555.66h-23.31v48.89H11524V320.14h-119v85.14h-57.36v-8h-41.76v31.45H11295v16.47h-14.24v22.47H11295V629.07h-.7v38.56h-23.37V527h12.74V508.49h-12.74V494.9h-10.1V469h-3.94V397.32h-16.15l5.19-21.91h-67.81v21.91h-11v53.57h-7.28V443h-22.6v7.9h-23.19V469h-9.49v35.88h-31.3V667.63h-11v-110h-7.37V471.44h-29.84V418.28h-74.24v68h-33.53v8.41h-31.53v54.6H10861v101h-83.07v76.15h-124.58V667.63h-11.66V616.24h-61.93V335.81H10539v131.9h-105.86V427.18h-61.94v40.53h-10.1v-49.5h-35.23V527h-21.47V308.15h-107.25v89.17h-33V206.75h-31.71V561.67h-9.65V395.4h-15.94V259.16h-70.52v97.35h-35V311.74h-27.45v44.77h-16.22V265.15h5.88c6.49,0,11.75-5.81,11.75-13v-8.48c0-7.17-5.26-13-11.75-13h-7.24c0-13.23-9.71-24-21.7-24s-21.7,10.73-21.7,24h-7.23c-6.49,0-11.76,5.81-11.76,13v8.48c0,7.17,5.27,13,11.76,13h7.23V355h-22.24v80.31h-32.53v15.6h32.53V561.67h-42.86V451.23h-40.69V555.66h-23.31v48.89H9774V320.14h-119v85.14h-57.36v-8h-41.76v31.45H9545v16.47h-14.24v22.47H9545V629.07h-.7v38.56H9520.9V527h12.74V508.49H9520.9V494.9h-10.1V469h-3.94V397.32h-16.15l5.19-21.91h-67.81v21.91h-11v53.57h-7.28V443h-22.6v7.9h-23.19V469h-9.49v35.88h-31.3V667.63h-11v-110h-7.37V471.44h-29.84V418.28h-74.24v68H9167.3v8.41h-31.53v54.6H9111v101H9027.9v75.87H8965v.28h-16.52V671.74a30.31,30.31,0,0,0,3.65-6.39,31.29,31.29,0,1,0,54.7-28.75,17.59,17.59,0,0,0,2.43-27.92,34.93,34.93,0,0,0-34.2-58.48c0-.57.05-1.14.05-1.71a37.61,37.61,0,1,0-73.88,9.94,33.62,33.62,0,0,0-7.09,60.76,23,23,0,0,0,1.42,24.58,30.29,30.29,0,0,0,39.61,38.11v44.51h-81.85V667.63h-11.66V616.24h-61.93V335.81H8739v131.9H8633.18V427.18h-61.94v40.53h-10.1v-49.5h-35.23V527h-21.47V308.15H8397.19v89.17h-33V206.75h-31.71V561.67h-9.65V395.4h-15.94V259.16h-70.52v97.35h-35V311.74h-27.45v44.77h-16.22V265.15h5.88c6.49,0,11.75-5.81,11.75-13v-8.48c0-7.17-5.26-13-11.75-13h-7.24c0-13.23-9.71-24-21.7-24s-21.7,10.73-21.7,24h-7.23c-6.49,0-11.76,5.81-11.76,13v8.48c0,7.17,5.27,13,11.76,13h7.23V355h-22.24v80.31h-32.53v15.6h32.53V561.67h-42.86V451.23h-40.69V555.66h-23.31v48.89H7974V320.14H7854.94v85.14h-57.36v-8h-41.76v31.45H7745v16.47h-14.24v22.47H7745V629.07h-.7v38.56H7720.9V527h12.74V508.49H7720.9V494.9h-10.1V469h-3.94V397.32h-16.15l5.19-21.91h-67.81v21.91h-11v53.57h-7.28V443h-22.6v7.9h-23.19V469h-9.49v35.88h-31.3V667.63h-11v-110h-7.37V471.44h-29.84V418.28h-74.24v68H7367.3v8.41h-31.53v54.6H7311v101H7227.9v80.87H7165V797h140.36v2.57H8624.85l193.33-.29H8983v-.21l122.34.5h1319.49v-1.5h193.33v1.21H10783V797h72.34v2.57h1319.49l193.33-.29H12533v-.21l122.34.5h1319.49v-1.5h193.33v1.21H14333v-72.9ZM7329.29,688h-11.78V675.09h11.78Zm.53-23.89h-12.31V651.21h12.31Zm0-23.88h-12.31V627.32h12.31Zm0-23.89h-12.31v-13h12.31Zm0-23.88h-12.31v-13h12.31Zm0-23.89h-12.31v-13h12.31Zm22.71,94.27h-9.21V651.21h9.21Zm0-29h-9.21v-6.61h9.21Zm0-28.95h-9.21v-1.55h9.21Zm0-12.48h-9.21v-3.22h9.21Zm0-23.89h-9.21v-8.28h9.21Zm5-21.54h-14.22v-15.7h14.22Zm0-29h-14.22v-15.7h14.22ZM7383.28,600h-8.62v-9.06h8.62Zm0-52.88h-8.62v-2.32h8.62Zm0-39.41h-8.62v-5.25h8.62Zm17.55,158.63h-7v-9.07h7Zm0-46.15h-7v-9.07h7Zm0-46.16h-7v-9.06h7Zm0-46.15h-7v-9.06h7ZM7419.28,548H7413v-2.89h6.25Zm0-103.79h-9.95v-11h9.95Zm22.15,80.4h-9.85v-11h9.85Zm0-55.94h-9.94v-11h9.94ZM7463.59,661h-6.18V650h6.18Zm0-55.94h-6.18v-11h6.18Zm0-55.94h-6.18v-11h6.18Zm0-55.94h-9.95v-11h9.95Zm22.15,129.22H7478v-3.86h7.74Zm0-48.82h0Zm0-55.94h-9.94v-11h9.94Zm19.67,147.14h-.5v-6.42h.5Zm0-14.12h-.5V644.2h.5Zm0-14.13h-.5v-6.43h.5Zm0-14.13h-.5v-6.43h.5Zm0-14.13h-.5v-6.43h.5Zm0-14.13h-.5v-6.43h.5Zm0-14.13h-.5v-6.43h.5Zm23.29,71.8h0V644h0Zm0-17.12h0v-7.8h0Zm0-17.13h0v-7.79h0Zm0-17.13h0v-7.79h0Zm0-17.12h0v-7.8h0Zm0-17.13h0v-7.79h0Zm0-17.13h0v-7.79h0Zm0-17.12h0v-7.8h0Zm25.87,119.88h-6.3V644h6.3Zm0-17.12h-6.3v-7.8h6.3Zm0-17.13h-6.3v-7.79h6.3Zm0-17.13h-6.3v-7.79h6.3Zm0-17.12h-6.3v-7.8h6.3Zm0-17.13h-6.3v-7.79h6.3Zm0-17.13h-6.3v-7.79h6.3Zm0-17.12h-6.3v-7.8h6.3ZM7579,576.46h-10.72v-14H7579Zm0-77.87h-13.31v-14H7579Zm38.13,0h-7.28v-14h7.28Zm28.21,29h-13.08v-17h13.08Zm0-94.39H7630v-17h15.37Zm19.91,137.82h-8.83v-17h8.83ZM7679.48,469h-4.83v2H7664.1V454h15.38Zm15.37-35.72h-15.37v-17h15.37Zm144,72.36h-13.31v-14h13.31Zm0-47.78h-13.31v-14h13.31Zm32.69-99.46h15.37v17h-15.37Zm0,104.09h15.37v17h-15.37Zm20.65,159.67h-13v-17h13Zm17.12-108.69H7894v-2.78h15.37Zm36.17-71.7h-15.37v-17h15.37Zm0-57.91h-15.37v-17h15.37Zm38.3,282H7974V646.1h9.82Zm66.6,2.16h-1.7V656h1.7Zm59.32-155.35h-13.31v-14h13.31Zm3.18-61.78h-3.18v-14h3.18Zm0-60.95h-9.83v-14h9.83Zm61,171.8h-16.22V375.41h16.22Zm62.45-49.07H8217v-14h19.3Zm0-117.2h-6.4V469h-28.6V375.41h35Zm14.32-110.92H8266v17h-15.38Zm23.06,90.85h-15.37v-17h15.37Zm140,74.89h-31.41v-17h31.41Zm20.14-91.86h31.4v17h-31.4Zm47.1,125.57h-31.4V467h31.4Zm35.31,77.74h-11.81V540.41h11.81ZM8577,649.56h-15.86V571.37H8577Zm1.3-138.91h-17.16V483.93h17.16Zm73.25,140.76h-24.2V624.69h24.2ZM8663.65,541h-24.2V514.26h24.2Zm64.23-30.34h-24.2V483.93h24.2ZM8759.38,627h-24.2V600.27h24.2Zm369.91,61h-11.78V675.09h11.78Zm.53-23.89h-12.31V651.21h12.31Zm0-23.88h-12.31V627.32h12.31Zm0-23.89h-12.31v-13h12.31Zm0-23.88h-12.31v-13h12.31Zm0-23.89h-12.31v-13h12.31Zm22.71,94.27h-9.21V651.21h9.21Zm0-29h-9.21v-6.61h9.21Zm0-28.95h-9.21v-1.55h9.21Zm0-12.48h-9.21v-3.22h9.21Zm0-23.89h-9.21v-8.28h9.21Zm5-21.54h-14.22v-15.7h14.22Zm0-29h-14.22v-15.7h14.22ZM9183.28,600h-8.62v-9.06h8.62Zm0-52.88h-8.62v-2.32h8.62Zm0-39.41h-8.62v-5.25h8.62Zm17.55,158.63h-7v-9.07h7Zm0-46.15h-7v-9.07h7Zm0-46.16h-7v-9.06h7Zm0-46.15h-7v-9.06h7ZM9219.28,548H9213v-2.89h6.25Zm0-103.79h-10v-11h10Zm22.16,80.4h-9.86v-11h9.86Zm0-55.94h-10v-11h10ZM9263.59,661h-6.18V650h6.18Zm0-55.94h-6.18v-11h6.18Zm0-55.94h-6.18v-11h6.18Zm0-55.94h-10v-11h10Zm22.15,129.22H9278v-3.86h7.74Zm0-48.82h0Zm0-55.94h-9.94v-11h9.94Zm19.67,147.14h-.5v-6.42h.5Zm0-14.12h-.5V644.2h.5Zm0-14.13h-.5v-6.43h.5Zm0-14.13h-.5v-6.43h.5Zm0-14.13h-.5v-6.43h.5Zm0-14.13h-.5v-6.43h.5Zm0-14.13h-.5v-6.43h.5Zm23.29,71.8h0V644h0Zm0-17.12h0v-7.8h0Zm0-17.13h0v-7.79h0Zm0-17.13h0v-7.79h0Zm0-17.12h0v-7.8h0Zm0-17.13h0v-7.79h0Zm0-17.13h0v-7.79h0Zm0-17.12h0v-7.8h0Zm25.87,119.88h-6.3V644h6.3Zm0-17.12h-6.3v-7.8h6.3Zm0-17.13h-6.3v-7.79h6.3Zm0-17.13h-6.3v-7.79h6.3Zm0-17.12h-6.3v-7.8h6.3Zm0-17.13h-6.3v-7.79h6.3Zm0-17.13h-6.3v-7.79h6.3Zm0-17.12h-6.3v-7.8h6.3ZM9379,576.46h-10.72v-14H9379Zm0-77.87h-13.31v-14H9379Zm38.13,0h-7.28v-14h7.28Zm28.21,29h-13.08v-17h13.08Zm0-94.39H9430v-17h15.37Zm19.91,137.82h-8.83v-17h8.83ZM9479.48,469h-4.83v2H9464.1V454h15.38Zm15.37-35.72h-15.37v-17h15.37Zm144,72.36h-13.31v-14h13.31Zm0-47.78h-13.31v-14h13.31Zm32.69-99.46h15.37v17h-15.37Zm0,104.09h15.37v17h-15.37Zm20.65,159.67h-13v-17h13Zm17.12-108.69H9694v-2.78h15.37Zm36.17-71.7h-15.37v-17h15.37Zm0-57.91h-15.37v-17h15.37Zm38.3,282H9774V646.1h9.82Zm66.6,2.16h-1.7V656h1.7Zm59.32-155.35h-13.31v-14h13.31Zm3.18-61.78h-3.18v-14h3.18Zm0-60.95h-9.83v-14h9.83Zm61,171.8h-16.22V375.41h16.22Zm62.45-49.07H10017v-14h19.3Zm0-117.2h-6.4V469h-28.6V375.41h35Zm14.32-110.92H10066v17h-15.38Zm23.06,90.85h-15.37v-17h15.37Zm140,74.89h-31.41v-17h31.41Zm20.14-91.86h31.4v17h-31.4Zm47.1,125.57h-31.4V467h31.4Zm35.31,77.74h-11.81V540.41h11.81Zm60.75,87.89h-15.86V571.37H10377Zm1.3-138.91h-17.16V483.93h17.16Zm73.25,140.76h-24.2V624.69h24.2Zm12.1-110.42h-24.2V514.26h24.2Zm64.23-30.34h-24.2V483.93h24.2Zm31.5,116.34h-24.2V600.27h24.2Zm319.91,61h-11.78V675.09h11.78Zm.53-23.89h-12.31V651.21h12.31Zm0-23.88h-12.31V627.32h12.31Zm0-23.89h-12.31v-13h12.31Zm0-23.88h-12.31v-13h12.31Zm0-23.89h-12.31v-13h12.31Zm22.71,94.27h-9.21V651.21h9.21Zm0-29h-9.21v-6.61h9.21Zm0-28.95h-9.21v-1.55h9.21Zm0-12.48h-9.21v-3.22h9.21Zm0-23.89h-9.21v-8.28h9.21Zm5-21.54h-14.22v-15.7h14.22Zm0-29h-14.22v-15.7h14.22Zm25.74,81.84h-8.62v-9.06h8.62Zm0-52.88h-8.62v-2.32h8.62Zm0-39.41h-8.62v-5.25h8.62Zm17.55,158.63h-7v-9.07h7Zm0-46.15h-7v-9.07h7Zm0-46.16h-7v-9.06h7Zm0-46.15h-7v-9.06h7Zm18.45,20.19H10963v-2.89h6.25Zm0-103.79h-10v-11h10Zm22.16,80.4h-9.86v-11h9.86Zm0-55.94h-10v-11h10ZM11013.59,661h-6.18V650h6.18Zm0-55.94h-6.18v-11h6.18Zm0-55.94h-6.18v-11h6.18Zm0-55.94h-10v-11h10Zm22.15,129.22H11028v-3.86h7.74Zm0-48.82h0Zm0-55.94h-9.94v-11h9.94Zm19.67,147.14h-.5v-6.42h.5Zm0-14.12h-.5V644.2h.5Zm0-14.13h-.5v-6.43h.5Zm0-14.13h-.5v-6.43h.5Zm0-14.13h-.5v-6.43h.5Zm0-14.13h-.5v-6.43h.5Zm0-14.13h-.5v-6.43h.5Zm23.29,71.8h0V644h0Zm0-17.12h0v-7.8h0Zm0-17.13h0v-7.79h0Zm0-17.13h0v-7.79h0Zm0-17.12h0v-7.8h0Zm0-17.13h0v-7.79h0Zm0-17.13h0v-7.79h0Zm0-17.12h0v-7.8h0Zm25.87,119.88h-6.3V644h6.3Zm0-17.12h-6.3v-7.8h6.3Zm0-17.13h-6.3v-7.79h6.3Zm0-17.13h-6.3v-7.79h6.3Zm0-17.12h-6.3v-7.8h6.3Zm0-17.13h-6.3v-7.79h6.3Zm0-17.13h-6.3v-7.79h6.3Zm0-17.12h-6.3v-7.8h6.3Zm24.43,44.56h-10.72v-14H11129Zm0-77.87h-13.31v-14H11129Zm38.13,0h-7.28v-14h7.28Zm28.21,29h-13.08v-17h13.08Zm0-94.39H11180v-17h15.37Zm19.91,137.82h-8.83v-17h8.83Zm14.23-102.1h-4.83v2h-10.55V454h15.38Zm15.37-35.72h-15.37v-17h15.37Zm144,72.36h-13.31v-14h13.31Zm0-47.78h-13.31v-14h13.31Zm32.69-99.46h15.37v17h-15.37Zm0,104.09h15.37v17h-15.37Zm20.65,159.67h-13v-17h13Zm17.12-108.69H11444v-2.78h15.37Zm36.17-71.7h-15.37v-17h15.37Zm0-57.91h-15.37v-17h15.37Zm38.3,282H11524V646.1h9.82Zm66.6,2.16h-1.7V656h1.7Zm59.32-155.35h-13.31v-14h13.31Zm3.18-61.78h-3.18v-14h3.18Zm0-60.95h-9.83v-14h9.83Zm61,171.8h-16.22V375.41h16.22Zm62.45-49.07H11767v-14h19.3Zm0-117.2h-6.4V469h-28.6V375.41h35Zm14.32-110.92H11816v17h-15.38Zm23.06,90.85h-15.37v-17h15.37Zm140,74.89h-31.41v-17h31.41Zm20.14-91.86h31.4v17h-31.4Zm47.1,125.57h-31.4V467h31.4Zm35.31,77.74h-11.81V540.41h11.81Zm60.75,87.89h-15.86V571.37H12127Zm1.3-138.91h-17.16V483.93h17.16Zm73.25,140.76h-24.2V624.69h24.2Zm12.1-110.42h-24.2V514.26h24.2Zm64.23-30.34h-24.2V483.93h24.2Zm31.5,116.34h-24.2V600.27h24.2Zm369.91,61h-11.78V675.09h11.78Zm.53-23.89h-12.31V651.21h12.31Zm0-23.88h-12.31V627.32h12.31Zm0-23.89h-12.31v-13h12.31Zm0-23.88h-12.31v-13h12.31Zm0-23.89h-12.31v-13h12.31Zm22.71,94.27h-9.21V651.21h9.21Zm0-29h-9.21v-6.61h9.21Zm0-28.95h-9.21v-1.55h9.21Zm0-12.48h-9.21v-3.22h9.21Zm0-23.89h-9.21v-8.28h9.21Zm5-21.54h-14.22v-15.7h14.22Zm0-29h-14.22v-15.7h14.22Zm25.74,81.84h-8.62v-9.06h8.62Zm0-52.88h-8.62v-2.32h8.62Zm0-39.41h-8.62v-5.25h8.62Zm17.55,158.63h-7v-9.07h7Zm0-46.15h-7v-9.07h7Zm0-46.16h-7v-9.06h7Zm0-46.15h-7v-9.06h7Zm18.45,20.19H12763v-2.89h6.25Zm0-103.79h-10v-11h10Zm22.16,80.4h-9.86v-11h9.86Zm0-55.94h-10v-11h10ZM12813.59,661h-6.18V650h6.18Zm0-55.94h-6.18v-11h6.18Zm0-55.94h-6.18v-11h6.18Zm0-55.94h-10v-11h10Zm22.15,129.22H12828v-3.86h7.74Zm0-48.82h0Zm0-55.94h-9.94v-11h9.94Zm19.67,147.14h-.5v-6.42h.5Zm0-14.12h-.5V644.2h.5Zm0-14.13h-.5v-6.43h.5Zm0-14.13h-.5v-6.43h.5Zm0-14.13h-.5v-6.43h.5Zm0-14.13h-.5v-6.43h.5Zm0-14.13h-.5v-6.43h.5Zm23.29,71.8h0V644h0Zm0-17.12h0v-7.8h0Zm0-17.13h0v-7.79h0Zm0-17.13h0v-7.79h0Zm0-17.12h0v-7.8h0Zm0-17.13h0v-7.79h0Zm0-17.13h0v-7.79h0Zm0-17.12h0v-7.8h0Zm25.87,119.88h-6.3V644h6.3Zm0-17.12h-6.3v-7.8h6.3Zm0-17.13h-6.3v-7.79h6.3Zm0-17.13h-6.3v-7.79h6.3Zm0-17.12h-6.3v-7.8h6.3Zm0-17.13h-6.3v-7.79h6.3Zm0-17.13h-6.3v-7.79h6.3Zm0-17.12h-6.3v-7.8h6.3Zm24.43,44.56h-10.72v-14H12929Zm0-77.87h-13.31v-14H12929Zm38.13,0h-7.28v-14h7.28Zm28.21,29h-13.08v-17h13.08Zm0-94.39H12980v-17h15.37Zm19.91,137.82h-8.83v-17h8.83Zm14.23-102.1h-4.83v2h-10.55V454h15.38Zm15.37-35.72h-15.37v-17h15.37Zm144,72.36h-13.31v-14h13.31Zm0-47.78h-13.31v-14h13.31Zm32.69-99.46h15.37v17h-15.37Zm0,104.09h15.37v17h-15.37Zm20.65,159.67h-13v-17h13Zm17.12-108.69H13244v-2.78h15.37Zm36.17-71.7h-15.37v-17h15.37Zm0-57.91h-15.37v-17h15.37Zm38.3,282H13324V646.1h9.82Zm66.6,2.16h-1.7V656h1.7Zm59.32-155.35h-13.31v-14h13.31Zm3.18-61.78h-3.18v-14h3.18Zm0-60.95h-9.83v-14h9.83Zm61,171.8h-16.22V375.41h16.22Zm62.45-49.07H13567v-14h19.3Zm0-117.2h-6.4V469h-28.6V375.41h35Zm14.32-110.92H13616v17h-15.38Zm23.06,90.85h-15.37v-17h15.37Zm140,74.89h-31.41v-17h31.41Zm20.14-91.86h31.4v17h-31.4Zm47.1,125.57h-31.4V467h31.4Zm35.31,77.74h-11.81V540.41h11.81Zm60.75,87.89h-15.86V571.37H13927Zm1.3-138.91h-17.16V483.93h17.16Zm73.25,140.76h-24.2V624.69h24.2Zm12.1-110.42h-24.2V514.26h24.2Zm64.23-30.34h-24.2V483.93h24.2Zm31.5,116.34h-24.2V600.27h24.2Z"/><path class="cls-5" d="M3011.16,243.49a24.75,24.75,0,0,0-6.6.92,38.74,38.74,0,0,0-76.76-.79,24.75,24.75,0,0,0,2.48,49.38h80.88a24.76,24.76,0,1,0,0-49.51Z"/><path class="cls-5" d="M2683.8,159.64a12.5,12.5,0,0,0,.67-3.89,12.57,12.57,0,0,0-18.39-11.23,30.1,30.1,0,0,0-53.53,14.09,19.24,19.24,0,0,0,1.93,38.39h62.88a19.23,19.23,0,0,0,6.44-37.36Z"/><path class="cls-5" d="M76.24,141.49a24.88,24.88,0,0,1,6.61.92,38.74,38.74,0,0,1,76.76-.79A24.75,24.75,0,0,1,157.12,191H76.24a24.76,24.76,0,0,1,0-49.51Z"/><path class="cls-5" d="M952.68,241.08a19.33,19.33,0,0,0-5.14.71,30.12,30.12,0,0,0-59.67-.62,19.24,19.24,0,0,0,1.93,38.39h62.88a19.24,19.24,0,1,0,0-38.48Z"/><path class="cls-5" d="M604.61,173.64a12.5,12.5,0,0,1-.67-3.89,12.56,12.56,0,0,1,18.38-11.23,30.1,30.1,0,0,1,53.53,14.09A19.24,19.24,0,0,1,673.92,211H611.05a19.23,19.23,0,0,1-6.44-37.36Z"/><path class="cls-4" d="M7037.83,726.89V668.18h-11.66V616.84h-61.93V336.68h-40.69V468.45H6817.7V428h-61.93v40.49h-10.1V419h-35.23v108.7H6689V309.05H6581.73v89.08h-33V207.75H6517V562.33h-9.65V396.21h-15.94V260.11h-70.52v97.25h-35V312.64h-27.45v44.72h-16.22V266.1h5.87c6.49,0,11.76-5.81,11.76-13v-8.48c0-7.16-5.27-13-11.76-13h-7.23c0-13.22-9.71-23.94-21.7-23.94s-21.7,10.72-21.7,23.94h-7.23c-6.49,0-11.75,5.8-11.75,13v8.48c0,7.16,5.26,13,11.75,13h7.23v89.74h-22.23v80.23H6242.7v15.58h32.54V562.33h-42.87V452h-40.68V556.32h-23.31v48.84h-9.82V321h-119v85.06h-57.36v-8h-41.75v31.42h-10.85V446h-14.25v22.44h14.25V629.66h-.71v38.52h-23.36V527.71h12.74V509.2h-12.74V495.62h-10.1V469.7h-3.94V398.13H5875.3l5.19-21.88h-67.81v21.88h-11v53.52h-7.28v-7.89h-22.6v7.89h-23.19V469.7h-9.49v35.85h-31.3V668.18h-11V558.32h-7.37V472.18h-29.84v-53.1h-74.23V487h-33.53v8.4h-31.53v54.55h-24.79V650.81h-83.07v75.8h-62.89v.28h-25.52v-54.6a30.31,30.31,0,0,0,3.65-6.39,31.28,31.28,0,1,0,54.69-28.72,17.56,17.56,0,0,0,2.44-27.89,34.92,34.92,0,0,0-34.2-58.43c0-.56,0-1.13,0-1.7a37.61,37.61,0,1,0-73.87,9.93,33.58,33.58,0,0,0-7.09,60.7,22.92,22.92,0,0,0,1.42,24.55,30.28,30.28,0,0,0,39.61,38.08v44.47H5238V668.18H5226.3V616.84h-61.94V336.68h-40.68V468.45H5017.83V428h-61.94v40.49h-10.1V419h-35.22v108.7H4889.1V309.05H4781.86v89.08h-33V207.75h-31.7V562.33h-9.66V396.21h-15.94V260.11H4621v97.25h-35V312.64h-27.44v44.72h-16.23V266.1h5.88c6.49,0,11.75-5.81,11.75-13v-8.48c0-7.16-5.26-13-11.75-13H4541c0-13.22-9.72-23.94-21.7-23.94s-21.7,10.72-21.7,23.94h-7.23c-6.5,0-11.76,5.8-11.76,13v8.48c0,7.16,5.26,13,11.76,13h7.23v89.74h-22.24v80.23h-32.53v15.58h32.53V562.33H4432.5V452h-40.69V556.32h-23.3v48.84h-9.82V321h-119v85.06h-57.36v-8h-41.76v31.42h-10.85V446h-14.24v22.44h14.24V629.66h-.7v38.52h-23.36V527.71h12.73V509.2h-12.73V495.62h-10.1V469.7h-3.95V398.13h-16.15l5.2-21.88h-67.81v21.88h-11v53.52h-7.28v-7.89H3972v7.89h-23.19V469.7h-9.48v35.85H3908V668.18h-11V558.32h-7.37V472.18H3859.8v-53.1h-74.23V487H3752v8.4h-31.53v54.55h-24.8V650.81h-83.06v76.08H3488.08V668.18h-11.66V616.84h-61.93V336.68H3373.8V468.45H3268V428H3206v40.49h-10.1V419h-35.22v108.7h-21.46V309.05H3032v89.08h-33V207.75h-31.7V562.33h-9.66V396.21h-15.93V260.11h-70.52v97.25h-35V312.64H2808.7v44.72h-16.22V266.1h5.87c6.49,0,11.75-5.81,11.75-13v-8.48c0-7.16-5.26-13-11.75-13h-7.23c0-13.22-9.72-23.94-21.7-23.94s-21.7,10.72-21.7,23.94h-7.23c-6.49,0-11.76,5.8-11.76,13v8.48c0,7.16,5.27,13,11.76,13h7.23v89.74h-22.24v80.23H2693v15.58h32.53V562.33h-42.86V452h-40.68V556.32h-23.31v48.84h-9.82V321h-119v85.06h-57.36v-8h-41.76v31.42H2379.8V446h-14.24v22.44h14.24V629.66h-.7v38.52h-23.36V527.71h12.74V509.2h-12.74V495.62h-10.1V469.7h-3.94V398.13h-16.16l5.2-21.88h-67.81v21.88h-11v53.52h-7.27v-7.89h-22.61v7.89h-23.18V469.7h-9.49v35.85h-31.3V668.18h-11V558.32h-7.37V472.18h-29.84v-53.1h-74.23V487h-33.53v8.4h-31.53v54.55h-24.8V650.81h-83.06v75.8h-62.9v.28h-16.51v-54.6a30.31,30.31,0,0,0,3.65-6.39,31.28,31.28,0,1,0,54.69-28.72,17.56,17.56,0,0,0,2.43-27.89,34.92,34.92,0,0,0-34.19-58.43c0-.56,0-1.13,0-1.7a37.61,37.61,0,1,0-73.87,9.93,33.58,33.58,0,0,0-7.09,60.7,22.92,22.92,0,0,0,1.42,24.55,30.28,30.28,0,0,0,39.61,38.08v44.47H1688.2V668.18h-11.65V616.84h-61.94V336.68h-40.68V468.45H1468.08V428h-61.94v40.49H1396V419h-35.23v108.7h-21.46V309.05H1232.11v89.08h-33V207.75h-31.7V562.33h-9.65V396.21h-15.94V260.11h-70.52v97.25h-35V312.64h-27.45v44.72H992.6V266.1h5.88c6.49,0,11.75-5.81,11.75-13v-8.48c0-7.16-5.26-13-11.75-13h-7.24c0-13.22-9.71-23.94-21.7-23.94s-21.7,10.72-21.7,23.94h-7.23c-6.49,0-11.75,5.8-11.75,13v8.48c0,7.16,5.26,13,11.75,13h7.24v89.74H925.61v80.23H893.07v15.58h32.54V562.33H882.75V452H842.06V556.32h-23.3v48.84h-9.82V321H689.89v85.06H632.53v-8H590.78v31.42H579.93V446H565.69v22.44h14.24V629.66h-.7v38.52H555.86V527.71H568.6V509.2H555.86V495.62h-10.1V469.7h-3.94V398.13H525.67l5.2-21.88H463.06v21.88h-11v53.52h-7.28v-7.89h-22.6v7.89H399V469.7h-9.48v35.85h-31.3V668.18h-11V558.32h-7.37V472.18H310.05v-53.1H235.81V487H202.29v8.4H170.76v54.55H146V650.81H62.89V731.6H0v65.83H140.35V800h1319.4l193.32-.29H1817.9v-.2l122.33.49h1319.4v-1.49h193.31v1.2h164.83v-2.28h72.34V800H5009.5l193.32-.29h164.83v-.2L5490,800h1319.4v-1.49h193.31v1.2h164.83V726.89ZM307.28,682.58H295.5V669.64h11.78Zm.53-23.87H295.5V645.77h12.31Zm0-23.86H295.5V621.91h12.31Zm0-23.87H295.5V598.05h12.31Zm0-23.86H295.5V574.18h12.31Zm0-23.86H295.5V550.32h12.31Zm22.7,94.18h-9.2V645.77h9.2Zm0-28.92h-9.2v-6.61h9.2Zm0-28.93h-9.2v-1.54h9.2Zm0-12.47h-9.2v-3.21h9.2Zm0-23.86h-9.2V555h9.2Zm5-21.52H321.31V526.05h14.22Zm0-28.93H321.31V497.13h14.22Zm25.73,81.76h-8.61v-9.05h8.61Zm0-52.83h-8.61v-2.32h8.61Zm0-39.38h-8.61v-5.23h8.61Zm17.55,158.48h-7v-9.05h7Zm0-46.11h-7v-9.05h7Zm0-46.1h-7v-9h7Zm0-46.11h-7v-9h7Zm18.45,20.16H391V539.8h6.25Zm0-103.68h-9.94V428h9.94Zm22.16,80.32h-9.86v-11h9.86Zm0-55.89h-9.95v-11h9.95Zm22.15,192.1h-6.18v-11h6.18Zm0-55.88h-6.18v-11h6.18Zm0-55.89h-6.18v-11h6.18Zm0-55.89h-9.95v-11h9.95ZM463.72,617H456v-3.85h7.74Zm0-48.76h0Zm0-55.89h-10v-11h10Zm19.66,147h-.5v-6.42h.5Zm0-14.12h-.5v-6.42h.5Zm0-14.11h-.5v-6.42h.5Zm0-14.12h-.5v-6.42h.5Zm0-14.11h-.5v-6.43h.5Zm0-14.12h-.5v-6.42h.5Zm0-14.11h-.5V568.2h.5Zm23.29,71.73h0v-7.79h0Zm0-17.11h0v-7.79h0Zm0-17.11h0v-7.79h0Zm0-17.11h0v-7.78h0Zm0-17.11h0v-7.79h0Zm0-17.11h0V553h0Zm0-17.11h0V535.9h0Zm0-17.11h0V518.8h0Zm25.88,119.77h-6.31v-7.79h6.31Zm0-17.11h-6.31v-7.79h6.31Zm0-17.11h-6.31v-7.79h6.31Zm0-17.11h-6.31v-7.78h6.31Zm0-17.11h-6.31v-7.79h6.31Zm0-17.11h-6.31V553h6.31Zm0-17.11h-6.31V535.9h6.31Zm0-17.11h-6.31V518.8h6.31ZM557,571.1H546.25v-14H557Zm0-77.79H543.66v-14H557Zm38.13,0h-7.28v-14h7.28Zm28.21,29H610.23V505.36h13.08Zm0-94.29H607.94V411.07h15.37ZM643.22,565.7h-8.84v-17h8.84Zm14.22-102h-4.83v2H642.07v-17h15.37ZM672.81,428H657.44V411.07h15.37Zm144,72.29H803.52v-14h13.31Zm0-47.73H803.52v-14h13.31Zm32.69-99.37h15.37v17H849.52Zm0,104h15.37v17H849.52Zm20.65,159.52h-13v-17h13Zm17.12-108.58H871.92v-2.78h15.37Zm36.16-71.64H908.08V419.55h15.37Zm0-57.85H908.08v-17h15.37Zm38.31,281.69h-9.82V640.68h9.82Zm66.59,2.16h-1.7v-12h1.7Zm59.32-155.2h-13.31v-14h13.31Zm3.18-61.71h-3.18v-14h3.18Zm0-60.9H1081v-14h9.84Zm61,171.64H1135.6V370.25h16.22Zm62.44-49H1195v-14h19.29Zm0-117.09h-6.39V463.7h-28.6V370.25h35Zm14.33-110.81H1244v17h-15.37Zm23.05,90.77h-15.37v-17h15.37Zm140,74.81h-31.4V428h31.4Zm20.14-91.77h31.4v17h-31.4Zm47.1,125.45h-31.4v-17h31.4Zm35.31,77.67h-11.81V535.08h11.81Zm60.74,87.8H1539V566h15.86Zm1.3-138.77H1539v-26.7h17.16ZM1629.45,646h-24.2V619.29h24.2Zm12.1-110.32h-24.2V509h24.2Zm64.22-30.3h-24.2v-26.7h24.2Zm31.5,116.23h-24.2v-26.7h24.2Zm369.88,61h-11.77V669.64h11.77Zm.53-23.87h-12.3V645.77h12.3Zm0-23.86h-12.3V621.91h12.3Zm0-23.87h-12.3V598.05h12.3Zm0-23.86h-12.3V574.18h12.3Zm0-23.86h-12.3V550.32h12.3Zm22.71,94.18h-9.2V645.77h9.2Zm0-28.92h-9.2v-6.61h9.2Zm0-28.93h-9.2v-1.54h9.2Zm0-12.47h-9.2v-3.21h9.2Zm0-23.86h-9.2V555h9.2Zm5-21.52h-14.21V526.05h14.21Zm0-28.93h-14.21V497.13h14.21Zm25.74,81.76h-8.62v-9.05h8.62Zm0-52.83h-8.62v-2.32h8.62Zm0-39.38h-8.62v-5.23h8.62Zm17.55,158.48h-7v-9.05h7Zm0-46.11h-7v-9.05h7Zm0-46.1h-7v-9h7Zm0-46.11h-7v-9h7Zm18.45,20.16h-6.26V539.8h6.26Zm0-103.68h-9.95V428h9.95Zm22.15,80.32h-9.86v-11h9.86Zm0-55.89h-9.95v-11h9.95Zm22.15,192.1h-6.18v-11h6.18Zm0-55.88h-6.18v-11h6.18Zm0-55.89h-6.18v-11h6.18Zm0-55.89h-9.94v-11h9.94ZM2263.59,617h-7.73v-3.85h7.73Zm0-48.76h0Zm0-55.89h-9.94v-11h9.94Zm19.67,147h-.5v-6.42h.5Zm0-14.12h-.5v-6.42h.5Zm0-14.11h-.5v-6.42h.5Zm0-14.12h-.5v-6.42h.5Zm0-14.11h-.5v-6.43h.5Zm0-14.12h-.5v-6.42h.5Zm0-14.11h-.5V568.2h.5Zm23.29,71.73h0v-7.79h0Zm0-17.11h0v-7.79h0Zm0-17.11h0v-7.79h0Zm0-17.11h0v-7.78h0Zm0-17.11h0v-7.79h0Zm0-17.11h0V553h0Zm0-17.11h0V535.9h0Zm0-17.11h0V518.8h0Zm25.87,119.77h-6.3v-7.79h6.3Zm0-17.11h-6.3v-7.79h6.3Zm0-17.11h-6.3v-7.79h6.3Zm0-17.11h-6.3v-7.78h6.3Zm0-17.11h-6.3v-7.79h6.3Zm0-17.11h-6.3V553h6.3Zm0-17.11h-6.3V535.9h6.3Zm0-17.11h-6.3V518.8h6.3Zm24.42,44.52h-10.72v-14h10.72Zm0-77.79h-13.31v-14h13.31Zm38.13,0h-7.27v-14H2395Zm28.21,29H2410.1V505.36h13.08Zm0-94.29h-15.37V411.07h15.37Zm19.91,137.68h-8.83v-17h8.83Zm14.22-102h-4.82v2h-10.55v-17h15.37ZM2472.69,428h-15.38V411.07h15.38Zm144,72.29H2603.4v-14h13.31Zm0-47.73H2603.4v-14h13.31Zm32.68-99.37h15.37v17h-15.37Zm0,104h15.37v17h-15.37Zm20.66,159.52h-13v-17h13Zm17.11-108.58h-15.37v-2.78h15.37Zm36.17-71.64H2708V419.55h15.37Zm0-57.85H2708v-17h15.37Zm38.3,281.69h-9.82V640.68h9.82Zm66.59,2.16h-1.69v-12h1.69Zm59.32-155.2h-13.31v-14h13.31Zm3.18-61.71h-3.18v-14h3.18Zm0-60.9h-9.83v-14h9.83Zm61,171.64h-16.22V370.25h16.22Zm62.44-49h-19.3v-14h19.3Zm0-117.09h-6.4V463.7h-28.6V370.25h35Zm14.32-110.81h15.37v17h-15.37Zm23.06,90.77h-15.37v-17h15.37Zm140,74.81h-31.4V428h31.4Zm20.15-91.77H3243v17h-31.4Zm47.1,125.45h-31.4v-17h31.4Zm35.3,77.67h-11.8V535.08H3294Zm60.75,87.8h-15.87V566h15.87Zm1.3-138.77h-17.17v-26.7h17.17ZM3429.32,646h-24.2V619.29h24.2Zm12.1-110.32h-24.2V509h24.2Zm64.23-30.3h-24.2v-26.7h24.2Zm31.49,116.23H3513v-26.7h24.19Zm319.89,61h-11.77V669.64H3857Zm.53-23.87h-12.3V645.77h12.3Zm0-23.86h-12.3V621.91h12.3Zm0-23.87h-12.3V598.05h12.3Zm0-23.86h-12.3V574.18h12.3Zm0-23.86h-12.3V550.32h12.3Zm22.71,94.18h-9.21V645.77h9.21Zm0-28.92h-9.21v-6.61h9.21Zm0-28.93h-9.21v-1.54h9.21Zm0-12.47h-9.21v-3.21h9.21Zm0-23.86h-9.21V555h9.21Zm5-21.52h-14.22V526.05h14.22Zm0-28.93h-14.22V497.13h14.22ZM3911,594.57h-8.61v-9.05H3911Zm0-52.83h-8.61v-2.32H3911Zm0-39.38h-8.61v-5.23H3911Zm17.56,158.48h-7v-9.05h7Zm0-46.11h-7v-9.05h7Zm0-46.1h-7v-9h7Zm0-46.11h-7v-9h7ZM3947,542.68h-6.26V539.8H3947ZM3947,439h-9.95V428H3947Zm22.15,80.32h-9.86v-11h9.86Zm0-55.89h-10v-11h10Zm22.15,192.1h-6.18v-11h6.18Zm0-55.88h-6.18v-11h6.18Zm0-55.89h-6.18v-11h6.18Zm0-55.89h-10v-11h10ZM4013.47,617h-7.73v-3.85h7.73Zm0-48.76h0Zm0-55.89h-9.94v-11h9.94Zm19.66,147h-.5v-6.42h.5Zm0-14.12h-.5v-6.42h.5Zm0-14.11h-.5v-6.42h.5Zm0-14.12h-.5v-6.42h.5Zm0-14.11h-.5v-6.43h.5Zm0-14.12h-.5v-6.42h.5Zm0-14.11h-.5V568.2h.5Zm23.3,71.73h0v-7.79h0Zm0-17.11h0v-7.79h0Zm0-17.11h0v-7.79h0Zm0-17.11h0v-7.78h0Zm0-17.11h0v-7.79h0Zm0-17.11h0V553h0Zm0-17.11h0V535.9h0Zm0-17.11h0V518.8h0Zm25.87,119.77H4076v-7.79h6.3Zm0-17.11H4076v-7.79h6.3Zm0-17.11H4076v-7.79h6.3Zm0-17.11H4076v-7.78h6.3Zm0-17.11H4076v-7.79h6.3Zm0-17.11H4076V553h6.3Zm0-17.11H4076V535.9h6.3Zm0-17.11H4076V518.8h6.3Zm24.42,44.52H4096v-14h10.72Zm0-77.79h-13.31v-14h13.31Zm38.13,0h-7.28v-14h7.28Zm28.21,29H4160V505.36h13.08Zm0-94.29h-15.37V411.07h15.37ZM4193,565.7h-8.83v-17H4193Zm14.22-102h-4.82v2h-10.55v-17h15.37ZM4222.56,428h-15.37V411.07h15.37Zm144,72.29h-13.3v-14h13.3Zm0-47.73h-13.3v-14h13.3Zm32.69-99.37h15.37v17h-15.37Zm0,104h15.37v17h-15.37Zm20.65,159.52h-13v-17h13ZM4437,508.14h-15.37v-2.78H4437Zm36.17-71.64h-15.37V419.55h15.37Zm0-57.85h-15.37v-17h15.37Zm38.3,281.69h-9.82V640.68h9.82Zm66.59,2.16h-1.7v-12h1.7Zm59.32-155.2h-13.31v-14h13.31Zm3.18-61.71h-3.18v-14h3.18Zm0-60.9h-9.83v-14h9.83Zm61,171.64h-16.23V370.25h16.23Zm62.43-49h-19.29v-14H4764Zm0-117.09h-6.39V463.7H4729V370.25h35Zm14.33-110.81h15.37v17h-15.37Zm23.06,90.77H4786v-17h15.37Zm140,74.81H4910V428h31.4Zm20.15-91.77h31.4v17h-31.4Zm47.1,125.45h-31.4v-17h31.4Zm35.3,77.67H5032.1V535.08h11.81Zm60.75,87.8h-15.87V566h15.87Zm1.3-138.77h-17.17v-26.7H5106ZM5179.2,646H5155V619.29h24.2Zm12.1-110.32h-24.2V509h24.2Zm64.23-30.3h-24.2v-26.7h24.2ZM5287,621.59h-24.2v-26.7H5287Zm369.89,61h-11.78V669.64h11.78Zm.53-23.87h-12.31V645.77h12.31Zm0-23.86h-12.31V621.91h12.31Zm0-23.87h-12.31V598.05h12.31Zm0-23.86h-12.31V574.18h12.31Zm0-23.86h-12.31V550.32h12.31Zm22.7,94.18h-9.2V645.77h9.2Zm0-28.92h-9.2v-6.61h9.2Zm0-28.93h-9.2v-1.54h9.2Zm0-12.47h-9.2v-3.21h9.2Zm0-23.86h-9.2V555h9.2Zm5-21.52h-14.21V526.05h14.21Zm0-28.93h-14.21V497.13h14.21Zm25.74,81.76h-8.61v-9.05h8.61Zm0-52.83h-8.61v-2.32h8.61Zm0-39.38h-8.61v-5.23h8.61Zm17.55,158.48h-7v-9.05h7Zm0-46.11h-7v-9.05h7Zm0-46.1h-7v-9h7Zm0-46.11h-7v-9h7Zm18.45,20.16h-6.26V539.8h6.26Zm0-103.68h-10V428h10ZM5769,519.32h-9.86v-11H5769Zm0-55.89h-9.94v-11H5769Zm22.15,192.1H5785v-11h6.17Zm0-55.88H5785v-11h6.17Zm0-55.89H5785v-11h6.17Zm0-55.89h-9.94v-11h9.94ZM5813.35,617h-7.74v-3.85h7.74Zm0-48.76h0Zm0-55.89h-10v-11h10Zm19.66,147h-.5v-6.42h.5Zm0-14.12h-.5v-6.42h.5Zm0-14.11h-.5v-6.42h.5Zm0-14.12h-.5v-6.42h.5Zm0-14.11h-.5v-6.43h.5Zm0-14.12h-.5v-6.42h.5Zm0-14.11h-.5V568.2h.5Zm23.29,71.73h0v-7.79h0Zm0-17.11h0v-7.79h0Zm0-17.11h0v-7.79h0Zm0-17.11h0v-7.78h0Zm0-17.11h0v-7.79h0Zm0-17.11h0V553h0Zm0-17.11h0V535.9h0Zm0-17.11h0V518.8h0Zm25.87,119.77h-6.3v-7.79h6.3Zm0-17.11h-6.3v-7.79h6.3Zm0-17.11h-6.3v-7.79h6.3Zm0-17.11h-6.3v-7.78h6.3Zm0-17.11h-6.3v-7.79h6.3Zm0-17.11h-6.3V553h6.3Zm0-17.11h-6.3V535.9h6.3Zm0-17.11h-6.3V518.8h6.3Zm24.42,44.52h-10.71v-14h10.71Zm0-77.79h-13.3v-14h13.3Zm38.14,0h-7.28v-14h7.28Zm28.2,29h-13.08V505.36h13.08Zm0-94.29h-15.37V411.07h15.37Zm19.92,137.68H5984v-17h8.84Zm14.22-102h-4.83v2H5991.7v-17h15.37ZM6022.44,428h-15.37V411.07h15.37Zm144,72.29h-13.31v-14h13.31Zm0-47.73h-13.31v-14h13.31Zm32.69-99.37h15.37v17h-15.37Zm0,104h15.37v17h-15.37Zm20.65,159.52h-13v-17h13Zm17.11-108.58h-15.37v-2.78h15.37Zm36.17-71.64h-15.37V419.55h15.37Zm0-57.85h-15.37v-17h15.37Zm38.3,281.69h-9.82V640.68h9.82ZM6378,662.5h-1.69v-12H6378Zm59.32-155.2H6424v-14h13.3Zm3.18-61.71h-3.18v-14h3.18Zm0-60.9h-9.83v-14h9.83Zm61,171.64h-16.22V370.25h16.22Zm62.44-49H6544.6v-14h19.29Zm0-117.09h-6.39V463.7h-28.6V370.25h35Zm14.32-110.81h15.38v17h-15.38Zm23.06,90.77H6585.9v-17h15.37Zm140,74.81h-31.4V428h31.4Zm20.14-91.77h31.4v17h-31.4Zm47.1,125.45h-31.4v-17h31.4Zm35.31,77.67H6832V535.08h11.81Zm60.74,87.8h-15.86V566h15.86Zm1.3-138.77h-17.16v-26.7h17.16ZM6979.07,646h-24.2V619.29h24.2Zm12.1-110.32H6967V509h24.2Zm64.23-30.3h-24.2v-26.7h24.2Zm31.5,116.23h-24.2v-26.7h24.2Z"/><rect class="cls-6" x="14365.52" y="513" width="245" height="40"/><rect class="cls-7" x="14321.52" y="541" width="328" height="287"/><rect class="cls-7" x="14357.52" y="498" width="268" height="27"/><rect class="cls-6" x="14334.52" y="553" width="302" height="26"/><rect class="cls-6" x="14334.52" y="593" width="302" height="26"/><rect class="cls-6" x="14334.52" y="633" width="302" height="26"/><rect class="cls-6" x="14334.52" y="673" width="302" height="26"/><rect class="cls-6" x="14334.52" y="713" width="302" height="26"/><rect class="cls-6" x="14334.52" y="753" width="302" height="26"/><rect class="cls-6" x="14334.52" y="793" width="37" height="26"/><rect class="cls-6" x="14384.52" y="793" width="37" height="26"/><rect class="cls-6" x="14438.52" y="793" width="37" height="26"/><rect class="cls-6" x="14491.52" y="793" width="37" height="26"/><rect class="cls-6" x="14545.52" y="793" width="37" height="26"/><rect class="cls-6" x="14600.52" y="793" width="37" height="26"/><polygon class="cls-6" points="76.02 470.5 69.02 489.5 80.02 489.5 80.02 507.5 86.02 489.5 93.02 470.5 76.02 470.5"/><path class="cls-8" d="M144.71,415.5h-.19V382c-9,0-9-9-9-9h3v-4h-3V344H129V327.75a5,5,0,0,0,0-9.5V285h-3v33.25a5,5,0,0,0,0,9.5V344h-4.5v25h-3v4h3s0,9-9,9v33.5h-.13L74.26,523H182.79Z"/><polygon class="cls-6" points="181.52 471 188.52 490 177.52 490 177.52 508 171.52 490 164.52 471 181.52 471"/><rect class="cls-9" x="124.52" y="492" width="8" height="13"/><polygon class="cls-6" points="128.52 469 142.52 487 114.52 487 128.52 469"/><path class="cls-6" d="M138.44,511.91H119.61V486.09h18.83Zm-16-2.82h13.17V488.91H122.44Z"/><polygon class="cls-10" points="279.78 583 279.78 628 185.52 628 185.52 523 72.52 523 72.52 841 185.52 841 209.52 841 558.52 841 558.52 748 558.52 628 558.52 583 279.78 583"/><rect class="cls-11" x="184.52" y="627" width="373" height="4"/><rect class="cls-11" x="279.52" y="607" width="278" height="4"/><rect class="cls-11" x="199.02" y="662.5" width="163" height="4" transform="translate(945.02 383.98) rotate(90)"/><rect class="cls-11" x="69.52" y="652" width="488" height="4"/><rect class="cls-11" x="184.52" y="676" width="373" height="4"/><rect class="cls-11" x="184.52" y="701" width="373" height="4"/><path class="cls-6" d="M325,620h0a25.5,25.5,0,0,1,25.5,25.5V748a0,0,0,0,1,0,0h-51a0,0,0,0,1,0,0V645.5A25.5,25.5,0,0,1,325,620Z"/><path class="cls-6" d="M418,620h0a25.5,25.5,0,0,1,25.5,25.5V748a0,0,0,0,1,0,0h-51a0,0,0,0,1,0,0V645.5A25.5,25.5,0,0,1,418,620Z"/><path class="cls-6" d="M512,620h0a25.5,25.5,0,0,1,25.5,25.5V748a0,0,0,0,1,0,0h-51a0,0,0,0,1,0,0V645.5A25.5,25.5,0,0,1,512,620Z"/><rect class="cls-7" x="228.52" y="780" width="1" height="59"/><rect class="cls-7" x="228.52" y="790" width="1" height="27" transform="translate(1032.52 574.48) rotate(90)"/><path class="cls-6" d="M248,692v-2h2.5v-4H248v-2h-4.5v-5H239a4,4,0,0,0-4-4H222.58a3.56,3.56,0,0,0-3.56,3.56V679h-4.5v5H210v2h-2.5v4H210v2h4.5v10H210v2h-2.5v4H210v2h4.5v8H210v2h-2.5v4H210v2h4.5v8H210v2h-2.5v4H210v2h38v-2h2.5v-4H248v-2h-4.5v-8H248v-2h2.5v-4H248v-2h-4.5v-8H248v-2h2.5v-4H248v-2h-4.5V692Z"/><rect class="cls-7" x="325.02" y="779.5" width="1" height="59"/><rect class="cls-7" x="325.02" y="789.5" width="1" height="27" transform="translate(1128.52 477.48) rotate(90)"/><rect class="cls-7" x="418.02" y="779.5" width="1" height="59"/><rect class="cls-7" x="418.02" y="789.5" width="1" height="27" transform="translate(1221.52 384.48) rotate(90)"/><rect class="cls-7" x="511.02" y="778.5" width="1" height="59"/><rect class="cls-7" x="511.02" y="788.5" width="1" height="27" transform="translate(1313.52 290.48) rotate(90)"/><rect class="cls-11" x="69.52" y="745" width="488" height="4"/><rect class="cls-11" x="186.52" y="778" width="372" height="4"/><rect class="cls-11" x="186.52" y="800" width="372" height="4"/><polygon class="cls-12" points="543.52 583 280.52 583 351.52 478 484.52 478 543.52 583"/><path class="cls-6" d="M464.52,536v3h-7l-24-41V459c-9,0-9-9-9-9h3v-4h-3V421H418V404.75a5,5,0,0,0,0-9.5V362h-3v33.25a5,5,0,0,0,0,9.5V421h-4.5v25h-3v4h3s0,9-9,9v39l-24,41h-7v-3h-3v44h100V536Z"/><path class="cls-9" d="M437.51,552.5c-.14-3.07-1-10-5.89-15.1-3.73-3.91-9-5.9-15.6-5.9-6.79,0-12,2-15.61,5.94-4.34,4.8-4.93,11.11-4.94,14.06h-12v25h68v-24Zm11,21H427v-18a11.5,11.5,0,0,0-23,0v18h-17.5v-19h12.16l-.16-1.65c0-.08-.74-8,4.11-13.39,3-3.29,7.48-5,13.39-5s10.27,1.67,13.41,5c5.42,5.66,5.1,14.38,5.1,14.47l-.08,1.57h14.07Z"/><rect class="cls-11" x="270.52" y="581" width="295" height="4"/><circle class="cls-11" cx="278.52" cy="764" r="3"/><path class="cls-11" d="M278.52,771.37a7.37,7.37,0,1,1,7.37-7.37A7.37,7.37,0,0,1,278.52,771.37Zm0-13a5.63,5.63,0,1,0,5.64,5.63A5.64,5.64,0,0,0,278.52,758.37Z"/><path class="cls-11" d="M278.52,775.5A11.5,11.5,0,1,1,290,764,11.51,11.51,0,0,1,278.52,775.5Zm0-20.3a8.8,8.8,0,1,0,8.8,8.8A8.8,8.8,0,0,0,278.52,755.2Z"/><circle class="cls-11" cx="372.52" cy="764" r="3"/><path class="cls-11" d="M372.52,771.37a7.37,7.37,0,1,1,7.37-7.37A7.37,7.37,0,0,1,372.52,771.37Zm0-13a5.63,5.63,0,1,0,5.64,5.63A5.64,5.64,0,0,0,372.52,758.37Z"/><path class="cls-11" d="M372.52,775.5A11.5,11.5,0,1,1,384,764,11.51,11.51,0,0,1,372.52,775.5Zm0-20.3a8.8,8.8,0,1,0,8.8,8.8A8.8,8.8,0,0,0,372.52,755.2Z"/><circle class="cls-11" cx="465.52" cy="764" r="3"/><path class="cls-11" d="M465.52,771.37a7.37,7.37,0,1,1,7.37-7.37A7.37,7.37,0,0,1,465.52,771.37Zm0-13a5.63,5.63,0,1,0,5.64,5.63A5.64,5.64,0,0,0,465.52,758.37Z"/><path class="cls-11" d="M465.52,775.5A11.5,11.5,0,1,1,477,764,11.51,11.51,0,0,1,465.52,775.5Zm0-20.3a8.8,8.8,0,1,0,8.8,8.8A8.8,8.8,0,0,0,465.52,755.2Z"/><g class="cls-13"><circle class="cls-11" cx="557.52" cy="764" r="3"/><path class="cls-11" d="M557.52,771.37a7.37,7.37,0,1,1,7.37-7.37A7.37,7.37,0,0,1,557.52,771.37Zm0-13a5.63,5.63,0,1,0,5.64,5.63A5.64,5.64,0,0,0,557.52,758.37Z"/><path class="cls-11" d="M557.52,775.5A11.5,11.5,0,1,1,569,764,11.51,11.51,0,0,1,557.52,775.5Zm0-20.3a8.8,8.8,0,1,0,8.8,8.8A8.8,8.8,0,0,0,557.52,755.2Z"/></g><path class="cls-6" d="M153,668a12.5,12.5,0,0,0-12.5,12.5,12.5,12.5,0,1,0-25,0,12.5,12.5,0,0,0-25,0V745h75V680.5A12.5,12.5,0,0,0,153,668Z"/><path class="cls-6" d="M153,763a12.5,12.5,0,0,0-12.5,12.5,12.5,12.5,0,1,0-25,0,12.5,12.5,0,0,0-25,0V840h75V775.5A12.5,12.5,0,0,0,153,763Z"/><rect class="cls-6" x="100.52" y="562" width="57" height="57"/><circle class="cls-9" cx="129.02" cy="590.5" r="25.5"/><path class="cls-11" d="M98.75,575.47H85.28V562H98.75ZM87.81,573h8.42v-8.42H87.8Z"/><path class="cls-11" d="M98.76,590H85.29V576.51H98.75Zm-11-2.52h8.42V579H87.81Z"/><path class="cls-11" d="M98.77,604.49H85.29V591H98.76Zm-11-2.52h8.42v-8.42H87.82Z"/><path class="cls-11" d="M98.77,619H85.3V605.53H98.77Zm-10.94-2.52h8.42v-8.42H87.82Z"/><path class="cls-11" d="M98,644H86V621H98Zm-9.71-4.31h7.47V625.31H88.29Z"/><path class="cls-11" d="M172.75,575.47H159.28V562h13.48ZM161.81,573h8.42v-8.42H161.8Z"/><path class="cls-11" d="M172.76,590H159.29V576.51h13.47Zm-10.95-2.52h8.42V579h-8.42Z"/><path class="cls-11" d="M172.77,604.49H159.29V591h13.47Zm-11-2.52h8.42v-8.42h-8.42Z"/><path class="cls-11" d="M172.77,619H159.3V605.53h13.48Zm-10.94-2.52h8.42v-8.42h-8.42Z"/><path class="cls-11" d="M172,644H160V621h12Zm-9.71-4.31h7.47V625.31h-7.47Z"/><path class="cls-11" d="M158,644H146V621h12Zm-9.71-4.31h7.47V625.31h-7.47Z"/><path class="cls-11" d="M144,644H132V621h12Zm-9.71-4.31h7.47V625.31h-7.47Z"/><path class="cls-11" d="M129,644H117V621h12Zm-9.71-4.31h7.47V625.31h-7.47Z"/><path class="cls-11" d="M113,644H101V621h12Zm-9.71-4.31h7.47V625.31h-7.47Z"/><path class="cls-11" d="M98,560H86V537H98Zm-9.71-4.31h7.47V541.31H88.29Z"/><path class="cls-11" d="M172,560H160V537h12Zm-9.71-4.31h7.47V541.31h-7.47Z"/><path class="cls-11" d="M158,560H146V537h12Zm-9.71-4.31h7.47V541.31h-7.47Z"/><path class="cls-11" d="M144,560H132V537h12Zm-9.71-4.31h7.47V541.31h-7.47Z"/><path class="cls-11" d="M129,560H117V537h12Zm-9.71-4.31h7.47V541.31h-7.47Z"/><path class="cls-11" d="M113,560H101V537h12Zm-9.71-4.31h7.47V541.31h-7.47Z"/><rect class="cls-11" x="80.02" y="733.5" width="213" height="4" transform="translate(922.02 548.98) rotate(90)"/><path class="cls-6" d="M248,791v-2h2.5v-4H248v-2h-4.5v-5H239a4,4,0,0,0-4-4H222.58a3.56,3.56,0,0,0-3.56,3.56V778h-4.5v5H210v2h-2.5v4H210v2h4.5v10H210v2h-2.5v4H210v2h4.5v8H210v2h-2.5v4H210v2h4.5v8H210v2h-2.5v4H210v2h38v-2h2.5v-4H248v-2h-4.5v-8H248v-2h2.5v-4H248v-2h-4.5v-8H248v-2h2.5v-4H248v-2h-4.5V791Z"/><path class="cls-6" d="M344.52,790.5v-2H347v-4h-2.5v-2H340v-5h-4.5a4,4,0,0,0-4-4H319.08a3.56,3.56,0,0,0-3.56,3.56v.44H311v5h-4.5v2H304v4h2.5v2H311v10h-4.5v2H304v4h2.5v2H311v8h-4.5v2H304v4h2.5v2H311v8h-4.5v2H304v4h2.5v2h38v-2H347v-4h-2.5v-2H340v-8h4.5v-2H347v-4h-2.5v-2H340v-8h4.5v-2H347v-4h-2.5v-2H340v-10Z"/><path class="cls-6" d="M437.52,790.5v-2H440v-4h-2.5v-2H433v-5h-4.5a4,4,0,0,0-4-4H412.08a3.56,3.56,0,0,0-3.56,3.56v.44H404v5h-4.5v2H397v4h2.5v2H404v10h-4.5v2H397v4h2.5v2H404v8h-4.5v2H397v4h2.5v2H404v8h-4.5v2H397v4h2.5v2h38v-2H440v-4h-2.5v-2H433v-8h4.5v-2H440v-4h-2.5v-2H433v-8h4.5v-2H440v-4h-2.5v-2H433v-10Z"/><path class="cls-6" d="M530.52,789.5v-2H533v-4h-2.5v-2H526v-5h-4.5a4,4,0,0,0-4-4H505.08a3.56,3.56,0,0,0-3.56,3.56v.44H497v5h-4.5v2H490v4h2.5v2H497v10h-4.5v2H490v4h2.5v2H497v8h-4.5v2H490v4h2.5v2H497v8h-4.5v2H490v4h2.5v2h38v-2H533v-4h-2.5v-2H526v-8h4.5v-2H533v-4h-2.5v-2H526v-8h4.5v-2H533v-4h-2.5v-2H526v-10Z"/><g class="cls-14"><polygon class="cls-6" points="761.02 470.5 768.02 489.5 757.02 489.5 757.02 507.5 751.02 489.5 744.02 470.5 761.02 470.5"/><path class="cls-8" d="M692.34,415.5h.18V382c9,0,9-9,9-9h-3v-4h3V344H708V327.75a5,5,0,0,1,0-9.5V285h3v33.25a5,5,0,0,1,0,9.5V344h4.5v25h3v4h-3s0,9,9,9v33.5h.14L762.79,523H654.26Z"/><polygon class="cls-6" points="655.52 471 648.52 490 659.52 490 659.52 508 665.52 490 672.52 471 655.52 471"/><rect class="cls-9" x="704.52" y="492" width="8" height="13" transform="translate(1417.05 997) rotate(-180)"/><polygon class="cls-6" points="708.52 469 694.52 487 722.52 487 708.52 469"/><path class="cls-6" d="M698.61,486.09h18.83v25.82H698.61Zm16,2.82H701.44v20.18h13.17Z"/><polygon class="cls-10" points="557.27 583 557.27 628 651.52 628 651.52 523 764.52 523 764.52 841 651.52 841 627.52 841 278.52 841 278.52 748 278.52 628 278.52 583 557.27 583"/><rect class="cls-11" x="279.52" y="627" width="373" height="4" transform="translate(932.05 1258) rotate(-180)"/><rect class="cls-11" x="279.52" y="607" width="278" height="4" transform="translate(837.05 1218) rotate(-180)"/><rect class="cls-11" x="475.02" y="662.5" width="163" height="4" transform="translate(1221.02 107.98) rotate(90)"/><rect class="cls-11" x="279.52" y="652" width="488" height="4" transform="translate(1047.05 1308) rotate(-180)"/><rect class="cls-11" x="279.52" y="676" width="373" height="4" transform="translate(932.05 1356) rotate(-180)"/><rect class="cls-11" x="279.52" y="701" width="373" height="4" transform="translate(932.05 1406) rotate(-180)"/><path class="cls-6" d="M486.52,620h51a0,0,0,0,1,0,0V722.5A25.5,25.5,0,0,1,512,748h0a25.5,25.5,0,0,1-25.5-25.5V620a0,0,0,0,1,0,0Z" transform="translate(1024.05 1368) rotate(-180)"/><path class="cls-6" d="M393.52,620h51a0,0,0,0,1,0,0V722.5A25.5,25.5,0,0,1,419,748h0a25.5,25.5,0,0,1-25.5-25.5V620a0,0,0,0,1,0,0Z" transform="translate(838.05 1368) rotate(-180)"/><path class="cls-6" d="M299.52,620h51a0,0,0,0,1,0,0V722.5A25.5,25.5,0,0,1,325,748h0a25.5,25.5,0,0,1-25.5-25.5V620A0,0,0,0,1,299.52,620Z" transform="translate(650.05 1368) rotate(-180)"/><rect class="cls-7" x="607.52" y="780" width="1" height="59" transform="translate(1216.05 1619) rotate(-180)"/><rect class="cls-7" x="607.52" y="790" width="1" height="27" transform="translate(1411.52 195.48) rotate(90)"/><path class="cls-6" d="M589,692v-2h-2.5v-4H589v-2h4.5v-5H598a4,4,0,0,1,4-4h12.45a3.55,3.55,0,0,1,3.55,3.56V679h4.5v5H627v2h2.5v4H627v2h-4.5v10H627v2h2.5v4H627v2h-4.5v8H627v2h2.5v4H627v2h-4.5v8H627v2h2.5v4H627v2H589v-2h-2.5v-4H589v-2h4.5v-8H589v-2h-2.5v-4H589v-2h4.5v-8H589v-2h-2.5v-4H589v-2h4.5V692Z"/><rect class="cls-7" x="511.02" y="779.5" width="1" height="59" transform="translate(1023.05 1618) rotate(-180)"/><rect class="cls-7" x="511.02" y="789.5" width="1" height="27" transform="translate(1314.52 291.48) rotate(90)"/><rect class="cls-7" x="418.02" y="779.5" width="1" height="59" transform="translate(837.05 1618) rotate(-180)"/><rect class="cls-7" x="418.02" y="789.5" width="1" height="27" transform="translate(1221.52 384.48) rotate(90)"/><rect class="cls-7" x="325.02" y="778.5" width="1" height="59" transform="translate(651.05 1616) rotate(-180)"/><rect class="cls-7" x="325.02" y="788.5" width="1" height="27" transform="translate(1127.52 476.48) rotate(90)"/><rect class="cls-11" x="279.52" y="745" width="488" height="4" transform="translate(1047.05 1494) rotate(-180)"/><rect class="cls-11" x="278.52" y="778" width="372" height="4" transform="translate(929.05 1560) rotate(-180)"/><rect class="cls-11" x="278.52" y="800" width="372" height="4" transform="translate(929.05 1604) rotate(-180)"/><polygon class="cls-12" points="293.52 583 556.52 583 485.52 478 352.52 478 293.52 583"/><path class="cls-6" d="M372.52,536v3h7l24-41V459c9,0,9-9,9-9h-3v-4h3V421H419V404.75a5,5,0,0,1,0-9.5V362h3v33.25a5,5,0,0,1,0,9.5V421h4.5v25h3v4h-3s0,9,9,9v39l24,41h7v-3h3v44h-100V536Z"/><path class="cls-9" d="M385.52,552.5v24h68v-25H441.58c0-3-.6-9.26-4.94-14.06-3.57-3.94-8.82-5.94-15.62-5.94-6.61,0-11.86,2-15.59,5.9-4.87,5.11-5.75,12-5.89,15.1Zm3,3H402.6l-.08-1.57c0-.09-.33-8.81,5.09-14.47,3.15-3.29,7.66-5,13.41-5,5.91,0,10.42,1.67,13.4,5,4.85,5.36,4.12,13.31,4.11,13.39l-.16,1.65h12.15v19H433v-18a11.5,11.5,0,0,0-23,0v18h-21.5Z"/><rect class="cls-11" x="271.52" y="581" width="295" height="4" transform="translate(838.05 1166) rotate(-180)"/><circle class="cls-11" cx="558.52" cy="764" r="3"/><path class="cls-11" d="M551.16,764a7.37,7.37,0,1,1,7.36,7.37A7.37,7.37,0,0,1,551.16,764Zm1.73,0a5.64,5.64,0,1,0,5.63-5.63A5.64,5.64,0,0,0,552.89,764Z"/><path class="cls-11" d="M547,764a11.5,11.5,0,1,1,11.5,11.5A11.51,11.51,0,0,1,547,764Zm2.71,0a8.8,8.8,0,1,0,8.79-8.8A8.8,8.8,0,0,0,549.73,764Z"/><circle class="cls-11" cx="464.52" cy="764" r="3"/><path class="cls-11" d="M457.16,764a7.37,7.37,0,1,1,7.36,7.37A7.37,7.37,0,0,1,457.16,764Zm1.73,0a5.64,5.64,0,1,0,5.63-5.63A5.64,5.64,0,0,0,458.89,764Z"/><path class="cls-11" d="M453,764a11.5,11.5,0,1,1,11.5,11.5A11.51,11.51,0,0,1,453,764Zm2.71,0a8.8,8.8,0,1,0,8.79-8.8A8.8,8.8,0,0,0,455.73,764Z"/><circle class="cls-11" cx="371.52" cy="764" r="3"/><path class="cls-11" d="M364.16,764a7.37,7.37,0,1,1,7.36,7.37A7.37,7.37,0,0,1,364.16,764Zm1.73,0a5.64,5.64,0,1,0,5.63-5.63A5.64,5.64,0,0,0,365.89,764Z"/><path class="cls-11" d="M360,764a11.5,11.5,0,1,1,11.5,11.5A11.51,11.51,0,0,1,360,764Zm2.71,0a8.8,8.8,0,1,0,8.79-8.8A8.8,8.8,0,0,0,362.73,764Z"/><g class="cls-15"><circle class="cls-11" cx="279.52" cy="764" r="3"/><path class="cls-11" d="M272.16,764a7.37,7.37,0,1,1,7.36,7.37A7.37,7.37,0,0,1,272.16,764Zm1.73,0a5.64,5.64,0,1,0,5.63-5.63A5.64,5.64,0,0,0,273.89,764Z"/><path class="cls-11" d="M268,764a11.5,11.5,0,1,1,11.5,11.5A11.51,11.51,0,0,1,268,764Zm2.71,0a8.8,8.8,0,1,0,8.79-8.8A8.8,8.8,0,0,0,270.73,764Z"/></g><path class="cls-6" d="M684,668a12.5,12.5,0,0,1,12.5,12.5,12.5,12.5,0,0,1,25,0,12.5,12.5,0,0,1,25,0V745h-75V680.5A12.5,12.5,0,0,1,684,668Z"/><path class="cls-6" d="M684,763a12.5,12.5,0,0,1,12.5,12.5,12.5,12.5,0,0,1,25,0,12.5,12.5,0,0,1,25,0V840h-75V775.5A12.5,12.5,0,0,1,684,763Z"/><rect class="cls-6" x="679.52" y="562" width="57" height="57" transform="translate(1416.05 1181) rotate(-180)"/><circle class="cls-9" cx="708.02" cy="590.5" r="25.5"/><path class="cls-11" d="M738.3,562h13.47v13.48H738.29Zm11,2.53h-8.42v8.42h8.42Z"/><path class="cls-11" d="M738.29,576.51h13.48V590H738.29Zm11,2.53h-8.42v8.42h8.42Z"/><path class="cls-11" d="M738.29,591h13.47v13.47H738.28Zm10.94,2.53h-8.42V602h8.42Z"/><path class="cls-11" d="M738.28,605.52h13.47V619H738.27Zm11,2.54h-8.42v8.42h8.42Z"/><path class="cls-11" d="M739,621h12v23H739Zm9.72,4.31h-7.47v14.38h7.47Z"/><path class="cls-11" d="M664.3,562h13.47v13.48H664.29Zm11,2.53h-8.42v8.42h8.42Z"/><path class="cls-11" d="M664.29,576.51h13.48V590H664.29Zm11,2.53h-8.42v8.42h8.42Z"/><path class="cls-11" d="M664.29,591h13.47v13.47H664.28Zm10.94,2.53h-8.42V602h8.42Z"/><path class="cls-11" d="M664.28,605.52h13.47V619H664.27Zm11,2.54h-8.42v8.42h8.42Z"/><path class="cls-11" d="M665,621h12v23H665Zm9.72,4.31h-7.47v14.38h7.47Z"/><path class="cls-11" d="M679,621h12v23H679Zm9.72,4.31h-7.47v14.38h7.47Z"/><path class="cls-11" d="M693,621h12v23H693Zm9.72,4.31h-7.47v14.38h7.47Z"/><path class="cls-11" d="M708,621h12v23H708Zm9.72,4.31h-7.47v14.38h7.47Z"/><path class="cls-11" d="M724,621h12v23H724Zm9.72,4.31h-7.47v14.38h7.47Z"/><path class="cls-11" d="M739,537h12v23H739Zm9.72,4.31h-7.47v14.38h7.47Z"/><path class="cls-11" d="M665,537h12v23H665Zm9.72,4.31h-7.47v14.38h7.47Z"/><path class="cls-11" d="M679,537h12v23H679Zm9.72,4.31h-7.47v14.38h7.47Z"/><path class="cls-11" d="M693,537h12v23H693Zm9.72,4.31h-7.47v14.38h7.47Z"/><path class="cls-11" d="M708,537h12v23H708Zm9.72,4.31h-7.47v14.38h7.47Z"/><path class="cls-11" d="M724,537h12v23H724Zm9.72,4.31h-7.47v14.38h7.47Z"/><rect class="cls-11" x="544.02" y="733.5" width="213" height="4" transform="translate(1386.02 84.98) rotate(90)"/><path class="cls-6" d="M589,791v-2h-2.5v-4H589v-2h4.5v-5H598a4,4,0,0,1,4-4h12.45a3.55,3.55,0,0,1,3.55,3.56V778h4.5v5H627v2h2.5v4H627v2h-4.5v10H627v2h2.5v4H627v2h-4.5v8H627v2h2.5v4H627v2h-4.5v8H627v2h2.5v4H627v2H589v-2h-2.5v-4H589v-2h4.5v-8H589v-2h-2.5v-4H589v-2h4.5v-8H589v-2h-2.5v-4H589v-2h4.5V791Z"/><path class="cls-6" d="M492.52,790.5v-2H490v-4h2.5v-2H497v-5h4.5a4,4,0,0,1,4-4H518a3.55,3.55,0,0,1,3.55,3.56v.44H526v5h4.5v2H533v4h-2.5v2H526v10h4.5v2H533v4h-2.5v2H526v8h4.5v2H533v4h-2.5v2H526v8h4.5v2H533v4h-2.5v2h-38v-2H490v-4h2.5v-2H497v-8h-4.5v-2H490v-4h2.5v-2H497v-8h-4.5v-2H490v-4h2.5v-2H497v-10Z"/><path class="cls-6" d="M399.52,790.5v-2H397v-4h2.5v-2H404v-5h4.5a4,4,0,0,1,4-4H425a3.55,3.55,0,0,1,3.55,3.56v.44H433v5h4.5v2H440v4h-2.5v2H433v10h4.5v2H440v4h-2.5v2H433v8h4.5v2H440v4h-2.5v2H433v8h4.5v2H440v4h-2.5v2h-38v-2H397v-4h2.5v-2H404v-8h-4.5v-2H397v-4h2.5v-2H404v-8h-4.5v-2H397v-4h2.5v-2H404v-10Z"/><path class="cls-6" d="M306.52,789.5v-2H304v-4h2.5v-2H311v-5h4.5a4,4,0,0,1,4-4H332a3.55,3.55,0,0,1,3.55,3.56v.44H340v5h4.5v2H347v4h-2.5v2H340v10h4.5v2H347v4h-2.5v2H340v8h4.5v2H347v4h-2.5v2H340v8h4.5v2H347v4h-2.5v2h-38v-2H304v-4h2.5v-2H311v-8h-4.5v-2H304v-4h2.5v-2H311v-8h-4.5v-2H304v-4h2.5v-2H311v-10Z"/></g><rect class="cls-16" x="10719.03" y="869.09" width="21.97" height="7.49"/><rect class="cls-16" x="10712.92" y="874.83" width="34.2" height="5.74"/><rect class="cls-16" x="10723.69" y="430.96" width="13.98" height="438.23"/><rect class="cls-17" x="10718.44" y="445.34" width="22.96" height="153.03"/><rect class="cls-18" x="10741.4" y="459.59" width="40.27" height="12.65"/><rect class="cls-18" x="10741.4" y="573.41" width="40.27" height="12.65"/><rect class="cls-19" x="10762.12" y="430.96" width="48.92" height="177.72"/><rect class="cls-17" x="10758.37" y="435.5" width="56.41" height="168.65"/><path class="cls-20" d="M10817.73,480.41c0,17.21-13.95,28-31.16,28s-31.16-10.83-31.16-28a31.16,31.16,0,1,1,62.32,0Z"/><path class="cls-21" d="M10786.57,465.49c13.17,0,24.71,5.28,31.11,13.19a31.16,31.16,0,0,0-62.22,0C10761.86,470.77,10773.4,465.49,10786.57,465.49Z"/><path class="cls-22" d="M10814.62,480.41a28.05,28.05,0,1,1-28.05-28.05A28,28,0,0,1,10814.62,480.41Z"/><path class="cls-20" d="M10817.73,558.49c0,17.21-13.95,28-31.16,28s-31.16-10.83-31.16-28a31.16,31.16,0,1,1,62.32,0Z"/><path class="cls-21" d="M10786.57,543.57c13.17,0,24.71,5.28,31.11,13.19a31.16,31.16,0,0,0-62.22,0C10761.86,548.85,10773.4,543.57,10786.57,543.57Z"/><path class="cls-23" d="M10814.62,558.49a28.05,28.05,0,1,1-28.05-28A28,28,0,0,1,10814.62,558.49Z"/><rect class="cls-18" x="10680.07" y="459.59" width="40.27" height="12.65"/><rect class="cls-18" x="10680.07" y="573.41" width="40.27" height="12.65"/><polygon class="cls-21" points="10669.19 486.32 10649.6 486.32 10635.07 449.69 10669.19 449.69 10669.19 486.32"/><rect class="cls-20" x="10665.28" y="448.48" width="8.34" height="39.06"/><polygon class="cls-21" points="10669.19 538.14 10649.6 538.14 10635.07 501.51 10669.19 501.51 10669.19 538.14"/><rect class="cls-20" x="10665.28" y="500.29" width="8.34" height="39.06"/><polygon class="cls-21" points="10669.19 589.77 10649.6 589.77 10635.07 553.14 10669.19 553.14 10669.19 589.77"/><rect class="cls-20" x="10665.28" y="551.92" width="8.34" height="39.06"/><rect class="cls-19" x="10673.62" y="430.96" width="27.63" height="177.72"/><rect class="cls-17" x="10671.51" y="435.5" width="31.86" height="168.65"/><rect class="cls-16" x="7162.03" y="869.09" width="21.97" height="7.49"/><rect class="cls-16" x="7155.92" y="874.83" width="34.2" height="5.74"/><rect class="cls-16" x="7166.69" y="430.96" width="13.98" height="438.23"/><rect class="cls-17" x="7161.44" y="445.34" width="22.96" height="153.03"/><rect class="cls-18" x="7184.4" y="459.59" width="40.27" height="12.65"/><rect class="cls-18" x="7184.4" y="573.41" width="40.27" height="12.65"/><rect class="cls-19" x="7205.12" y="430.96" width="48.92" height="177.72"/><rect class="cls-17" x="7201.37" y="435.5" width="56.41" height="168.65"/><path class="cls-20" d="M7260.73,480.41c0,17.21-13.95,28-31.16,28s-31.16-10.83-31.16-28a31.16,31.16,0,1,1,62.32,0Z"/><path class="cls-21" d="M7229.57,465.49c13.17,0,24.71,5.28,31.11,13.19a31.16,31.16,0,0,0-62.22,0C7204.86,470.77,7216.4,465.49,7229.57,465.49Z"/><path class="cls-22" d="M7257.62,480.41a28.05,28.05,0,1,1-28.05-28.05A28,28,0,0,1,7257.62,480.41Z"/><path class="cls-20" d="M7260.73,558.49c0,17.21-13.95,28-31.16,28s-31.16-10.83-31.16-28a31.16,31.16,0,1,1,62.32,0Z"/><path class="cls-21" d="M7229.57,543.57c13.17,0,24.71,5.28,31.11,13.19a31.16,31.16,0,0,0-62.22,0C7204.86,548.85,7216.4,543.57,7229.57,543.57Z"/><path class="cls-23" d="M7257.62,558.49a28.05,28.05,0,1,1-28.05-28A28,28,0,0,1,7257.62,558.49Z"/><rect class="cls-18" x="7123.07" y="459.59" width="40.27" height="12.65"/><rect class="cls-18" x="7123.07" y="573.41" width="40.27" height="12.65"/><polygon class="cls-21" points="7112.19 486.32 7092.6 486.32 7078.07 449.69 7112.19 449.69 7112.19 486.32"/><rect class="cls-20" x="7108.28" y="448.48" width="8.34" height="39.06"/><polygon class="cls-21" points="7112.19 538.14 7092.6 538.14 7078.07 501.51 7112.19 501.51 7112.19 538.14"/><rect class="cls-20" x="7108.28" y="500.29" width="8.34" height="39.06"/><polygon class="cls-21" points="7112.19 589.77 7092.6 589.77 7078.07 553.14 7112.19 553.14 7112.19 589.77"/><rect class="cls-20" x="7108.28" y="551.92" width="8.34" height="39.06"/><rect class="cls-19" x="7116.62" y="430.96" width="27.63" height="177.72"/><rect class="cls-17" x="7114.51" y="435.5" width="31.86" height="168.65"/><rect class="cls-16" x="12390.03" y="869.09" width="21.97" height="7.49"/><rect class="cls-16" x="12383.92" y="874.83" width="34.2" height="5.74"/><rect class="cls-16" x="12394.69" y="430.96" width="13.98" height="438.23"/><rect class="cls-17" x="12389.44" y="445.34" width="22.96" height="153.03"/><rect class="cls-18" x="12412.4" y="459.59" width="40.27" height="12.65"/><rect class="cls-18" x="12412.4" y="573.41" width="40.27" height="12.65"/><rect class="cls-19" x="12433.12" y="430.96" width="48.92" height="177.72"/><rect class="cls-17" x="12429.37" y="435.5" width="56.41" height="168.65"/><path class="cls-20" d="M12488.73,480.41c0,17.21-13.95,28-31.16,28s-31.16-10.83-31.16-28a31.16,31.16,0,1,1,62.32,0Z"/><path class="cls-21" d="M12457.57,465.49c13.17,0,24.71,5.28,31.11,13.19a31.16,31.16,0,0,0-62.22,0C12432.86,470.77,12444.4,465.49,12457.57,465.49Z"/><path class="cls-22" d="M12485.62,480.41a28.05,28.05,0,1,1-28.05-28.05A28,28,0,0,1,12485.62,480.41Z"/><path class="cls-20" d="M12488.73,558.49c0,17.21-13.95,28-31.16,28s-31.16-10.83-31.16-28a31.16,31.16,0,1,1,62.32,0Z"/><path class="cls-21" d="M12457.57,543.57c13.17,0,24.71,5.28,31.11,13.19a31.16,31.16,0,0,0-62.22,0C12432.86,548.85,12444.4,543.57,12457.57,543.57Z"/><path class="cls-23" d="M12485.62,558.49a28.05,28.05,0,1,1-28.05-28A28,28,0,0,1,12485.62,558.49Z"/><rect class="cls-18" x="12351.07" y="459.59" width="40.27" height="12.65"/><rect class="cls-18" x="12351.07" y="573.41" width="40.27" height="12.65"/><polygon class="cls-21" points="12340.19 486.32 12320.6 486.32 12306.07 449.69 12340.19 449.69 12340.19 486.32"/><rect class="cls-20" x="12336.28" y="448.48" width="8.34" height="39.06"/><polygon class="cls-21" points="12340.19 538.14 12320.6 538.14 12306.07 501.51 12340.19 501.51 12340.19 538.14"/><rect class="cls-20" x="12336.28" y="500.29" width="8.34" height="39.06"/><polygon class="cls-21" points="12340.19 589.77 12320.6 589.77 12306.07 553.14 12340.19 553.14 12340.19 589.77"/><rect class="cls-20" x="12336.28" y="551.92" width="8.34" height="39.06"/><rect class="cls-19" x="12344.62" y="430.96" width="27.63" height="177.72"/><rect class="cls-17" x="12342.51" y="435.5" width="31.86" height="168.65"/><line class="cls-24" x1="53.52" y1="901" x2="99.96" y2="901"/><line class="cls-25" x1="192.72" y1="901" x2="14616.71" y2="901"/><line class="cls-24" x1="14663.09" y1="901" x2="14709.52" y2="901"/><path class="cls-5" d="M1702.49,117.94a24.77,24.77,0,0,0-6.61.92,38.74,38.74,0,0,0-76.76-.79,24.75,24.75,0,0,0,2.48,49.38h80.89a24.76,24.76,0,0,0,0-49.51Z"/><path class="cls-5" d="M2105.49,144.49a24.77,24.77,0,0,0-6.61.92,38.74,38.74,0,0,0-76.76-.79A24.75,24.75,0,0,0,2024.6,194h80.89a24.76,24.76,0,0,0,0-49.51Z"/><path class="cls-5" d="M1473.05,292.08a19.39,19.39,0,0,1,5.14.71,30.11,30.11,0,0,1,59.66-.62,19.24,19.24,0,0,1-1.93,38.39h-62.87a19.24,19.24,0,1,1,0-38.48Z"/><path class="cls-5" d="M1765.12,293.2a12.5,12.5,0,0,0,.67-3.89,12.66,12.66,0,0,0-12.66-12.66,12.52,12.52,0,0,0-5.72,1.43,30.11,30.11,0,0,0-53.54,14.09,19.24,19.24,0,0,0,1.93,38.39h62.88a19.23,19.23,0,0,0,6.44-37.36Z"/><path class="cls-5" d="M3658.49,103.94a24.77,24.77,0,0,0-6.61.92,38.74,38.74,0,0,0-76.76-.79,24.75,24.75,0,0,0,2.48,49.38h80.89a24.76,24.76,0,0,0,0-49.51Z"/><path class="cls-5" d="M4061.49,130.49a24.77,24.77,0,0,0-6.61.92,38.74,38.74,0,0,0-76.76-.79A24.75,24.75,0,0,0,3980.6,180h80.89a24.76,24.76,0,0,0,0-49.51Z"/><path class="cls-5" d="M3251.05,161.51a19.39,19.39,0,0,1,5.14.72,30.11,30.11,0,0,1,59.66-.62,19.24,19.24,0,0,1-1.93,38.39h-62.87a19.25,19.25,0,0,1,0-38.49Z"/><path class="cls-5" d="M3721.12,279.2a12.5,12.5,0,0,0,.67-3.89,12.66,12.66,0,0,0-12.66-12.66,12.52,12.52,0,0,0-5.72,1.43,30.11,30.11,0,0,0-53.54,14.09,19.24,19.24,0,0,0,1.93,38.39h62.88a19.23,19.23,0,0,0,6.44-37.36Z"/><path class="cls-5" d="M4965.16,128.49a24.75,24.75,0,0,0-6.6.92,38.74,38.74,0,0,0-76.76-.79,24.75,24.75,0,0,0,2.48,49.38h80.88a24.76,24.76,0,1,0,0-49.51Z"/><path class="cls-5" d="M4663.8,157.64a12.5,12.5,0,0,0,.67-3.89,12.57,12.57,0,0,0-18.39-11.23,30.1,30.1,0,0,0-53.53,14.09,19.24,19.24,0,0,0,1.93,38.39h62.88a19.23,19.23,0,0,0,6.44-37.36Z"/><path class="cls-5" d="M5639.49,173.94a24.77,24.77,0,0,0-6.61.92,38.74,38.74,0,0,0-76.76-.79,24.75,24.75,0,0,0,2.48,49.38h80.89a24.76,24.76,0,0,0,0-49.51Z"/><path class="cls-5" d="M6042.49,200.49a24.77,24.77,0,0,0-6.61.92,38.74,38.74,0,0,0-76.76-.79A24.75,24.75,0,0,0,5961.6,250h80.89a24.76,24.76,0,0,0,0-49.51Z"/><path class="cls-5" d="M5232.05,231.51a19.39,19.39,0,0,1,5.14.72,30.11,30.11,0,0,1,59.66-.62,19.24,19.24,0,0,1-1.93,38.39h-62.87a19.25,19.25,0,0,1,0-38.49Z"/><path class="cls-5" d="M5702.12,349.2a12.5,12.5,0,0,0,.67-3.89,12.66,12.66,0,0,0-12.66-12.66,12.52,12.52,0,0,0-5.72,1.43,30.11,30.11,0,0,0-53.54,14.09,19.24,19.24,0,0,0,1.93,38.39h62.88a19.23,19.23,0,0,0,6.44-37.36Z"/><path class="cls-5" d="M7155.49,104.94a24.77,24.77,0,0,0-6.61.92,38.74,38.74,0,0,0-76.76-.79,24.75,24.75,0,0,0,2.48,49.38h80.89a24.76,24.76,0,0,0,0-49.51Z"/><path class="cls-5" d="M7558.49,131.49a24.77,24.77,0,0,0-6.61.92,38.74,38.74,0,0,0-76.76-.79A24.75,24.75,0,0,0,7477.6,181h80.89a24.76,24.76,0,0,0,0-49.51Z"/><path class="cls-5" d="M6748.05,162.51a19.39,19.39,0,0,1,5.14.72,30.11,30.11,0,0,1,59.66-.62,19.24,19.24,0,0,1-1.93,38.39h-62.87a19.25,19.25,0,0,1,0-38.49Z"/><path class="cls-5" d="M7218.12,280.2a12.5,12.5,0,0,0,.67-3.89,12.66,12.66,0,0,0-12.66-12.66,12.52,12.52,0,0,0-5.72,1.43,30.11,30.11,0,0,0-53.54,14.09,19.24,19.24,0,0,0,1.93,38.39h62.88a19.23,19.23,0,0,0,6.44-37.36Z"/><path class="cls-5" d="M8982.49,148.94a24.77,24.77,0,0,0-6.61.92,38.74,38.74,0,0,0-76.76-.79,24.75,24.75,0,0,0,2.48,49.38h80.89a24.76,24.76,0,0,0,0-49.51Z"/><path class="cls-5" d="M9385.49,175.49a24.77,24.77,0,0,0-6.61.92,38.74,38.74,0,0,0-76.76-.79A24.75,24.75,0,0,0,9304.6,225h80.89a24.76,24.76,0,0,0,0-49.51Z"/><path class="cls-5" d="M8575.05,206.51a19.39,19.39,0,0,1,5.14.72,30.11,30.11,0,0,1,59.66-.62,19.24,19.24,0,0,1-1.93,38.39h-62.87a19.25,19.25,0,0,1,0-38.49Z"/><path class="cls-5" d="M9045.12,324.2a12.5,12.5,0,0,0,.67-3.89,12.66,12.66,0,0,0-12.66-12.66,12.52,12.52,0,0,0-5.72,1.43,30.11,30.11,0,0,0-53.54,14.09,19.24,19.24,0,0,0,1.93,38.39h62.88a19.23,19.23,0,0,0,6.44-37.36Z"/><path class="cls-5" d="M10729.49,118.94a24.77,24.77,0,0,0-6.61.92,38.74,38.74,0,0,0-76.76-.79,24.75,24.75,0,0,0,2.48,49.38h80.89a24.76,24.76,0,0,0,0-49.51Z"/><path class="cls-5" d="M11132.49,145.49a24.77,24.77,0,0,0-6.61.92,38.74,38.74,0,0,0-76.76-.79,24.75,24.75,0,0,0,2.48,49.38h80.89a24.76,24.76,0,0,0,0-49.51Z"/><path class="cls-5" d="M10322.05,176.51a19.39,19.39,0,0,1,5.14.72,30.11,30.11,0,0,1,59.66-.62,19.24,19.24,0,0,1-1.93,38.39h-62.87a19.25,19.25,0,0,1,0-38.49Z"/><path class="cls-5" d="M10792.12,294.2a12.5,12.5,0,0,0,.67-3.89,12.66,12.66,0,0,0-12.66-12.66,12.52,12.52,0,0,0-5.72,1.43,30.11,30.11,0,0,0-53.54,14.09,19.24,19.24,0,0,0,1.93,38.39h62.88a19.23,19.23,0,0,0,6.44-37.36Z"/><path class="cls-5" d="M12604.49,154.94a24.77,24.77,0,0,0-6.61.92,38.74,38.74,0,0,0-76.76-.79,24.75,24.75,0,0,0,2.48,49.38h80.89a24.76,24.76,0,0,0,0-49.51Z"/><path class="cls-5" d="M13007.49,181.49a24.77,24.77,0,0,0-6.61.92,38.74,38.74,0,0,0-76.76-.79,24.75,24.75,0,0,0,2.48,49.38h80.89a24.76,24.76,0,0,0,0-49.51Z"/><path class="cls-5" d="M12197.05,212.51a19.39,19.39,0,0,1,5.14.72,30.11,30.11,0,0,1,59.66-.62,19.24,19.24,0,0,1-1.93,38.39h-62.87a19.25,19.25,0,0,1,0-38.49Z"/><path class="cls-5" d="M12667.12,330.2a12.5,12.5,0,0,0,.67-3.89,12.66,12.66,0,0,0-12.66-12.66,12.52,12.52,0,0,0-5.72,1.43,30.11,30.11,0,0,0-53.54,14.09,19.24,19.24,0,0,0,1.93,38.39h62.88a19.23,19.23,0,0,0,6.44-37.36Z"/><path class="cls-26" d="M389.13,154.68c0,17.84-14.46,57.75-32.3,57.75s-32.31-39.91-32.31-57.75a32.31,32.31,0,1,1,64.61,0Z"/><circle class="cls-7" cx="356.83" cy="154.65" r="20.06"/><text class="cls-27" transform="translate(270.73 256.27)">Amsterdam <tspan x="-35.59" y="43.2">Centraal Station</tspan></text><line class="cls-28" x1="363.52" y1="312" x2="363.52" y2="508.5"/><path class="cls-26" d="M14410.13,216.68c0,17.84-14.46,57.75-32.3,57.75s-32.31-39.91-32.31-57.75a32.31,32.31,0,1,1,64.61,0Z"/><circle class="cls-7" cx="14377.83" cy="216.65" r="20.06"/><text class="cls-27" transform="translate(14301.88 318.27)">Volkshotel</text><line class="cls-28" x1="14384.52" y1="331" x2="14384.52" y2="525.5"/></g></g></svg>