<svg id="Layer_1" data-name="Layer 1" xmlns="http://www.w3.org/2000/svg" xmlns:xlink="http://www.w3.org/1999/xlink" viewBox="0 0 11509 1080"><defs><style>.cls-1,.cls-15,.cls-16,.cls-28{fill:none;}.cls-2{fill:#666;}.cls-3,.cls-5{fill:#333;}.cls-3{opacity:0.15;}.cls-4{fill:#999;}.cls-6{fill:#fff;}.cls-7{fill:#506391;}.cls-8{fill:#393e70;}.cls-13,.cls-14,.cls-8,.cls-9{stroke:#393e70;}.cls-13,.cls-14,.cls-28,.cls-8,.cls-9{stroke-miterlimit:10;}.cls-9{fill:#2e315e;}.cls-10{fill:#e6e6e6;}.cls-11{fill:#2e325b;}.cls-12{fill:#0d0d34;}.cls-13{fill:#ed1c24;}.cls-14{fill:#39b54a;}.cls-15,.cls-16{stroke:#fff;stroke-linecap:round;stroke-linejoin:round;stroke-width:5.45px;}.cls-15{stroke-dasharray:68.06 68.06;}.cls-17{fill:#fff8ed;}.cls-18{fill:#58585a;}.cls-19{fill:#ccc;}.cls-20{fill:#975a45;}.cls-21{fill:#e8d9bc;}.cls-22{fill:#5b5b5d;}.cls-23{clip-path:url(#clip-path);}.cls-24{clip-path:url(#clip-path-2);}.cls-25{clip-path:url(#clip-path-3);}.cls-26{fill:#fbb03b;}.cls-27{font-size:36px;fill:#f7931e;font-family:Karma-Regular, Karma;}.cls-28{stroke:#f7931e;stroke-width:3px;}</style><clipPath id="clip-path"><rect class="cls-1" x="605" y="751" width="14" height="26"/></clipPath><clipPath id="clip-path-2"><rect class="cls-1" x="608" y="270" width="249" height="570" transform="translate(1465 1110) rotate(-180)"/></clipPath><clipPath id="clip-path-3"><rect class="cls-1" x="341" y="751" width="14" height="26" transform="translate(696 1528) rotate(-180)"/></clipPath></defs><title>BG01a-01</title><rect class="cls-2" x="-3199" y="798" width="14707.14" height="282"/><rect class="cls-3" x="-3199" width="14707.76" height="798"/><path class="cls-4" d="M11003.8,726.39V667.63h-11.66V616.24h-61.94V335.81h-40.69v131.9h-105.85V427.18h-62v40.53h-10.1v-49.5h-35.23V527h-21.46V308.15h-107.25v89.17h-33V206.75h-31.7V561.67h-9.65V395.4h-15.94V259.16h-70.53v97.35h-35V311.74h-27.45v44.77h-16.22V265.15h5.87c6.49,0,11.76-5.81,11.76-13v-8.48c0-7.17-5.27-13-11.76-13h-7.23c0-13.23-9.72-24-21.7-24s-21.7,10.73-21.7,24h-7.23c-6.5,0-11.76,5.81-11.76,13v8.48c0,7.17,5.26,13,11.76,13h7.23V355h-22.24v80.31h-32.54v15.6h32.54V561.67h-42.86V451.23h-40.69V555.66h-23.31v48.89h-9.82V320.14h-119v85.14h-57.37v-8H9906.3v31.45h-10.85v16.47H9881.2v22.47h14.25V629.07h-.71v38.56h-23.36V527h12.74V508.49h-12.74V494.9h-10.1V469h-3.94V397.32h-16.16l5.2-21.91h-67.82v21.91h-10.95v53.57h-7.28V443h-22.61v7.9h-23.18V469h-9.49v35.88h-31.3V667.63h-11v-110h-7.37V471.44h-29.84V418.28h-74.23v68h-33.53v8.41h-31.54v54.6h-24.79v101h-83.08v75.87h-62.89v.28H9290V671.74a30.31,30.31,0,0,0,3.65-6.39,31.28,31.28,0,1,0,54.7-28.75,17.59,17.59,0,0,0,2.43-27.92,34.93,34.93,0,0,0-34.2-58.48c0-.57,0-1.14,0-1.71a37.61,37.61,0,1,0-73.88,9.94,33.62,33.62,0,0,0-7.08,60.76,22.91,22.91,0,0,0,1.42,24.58,30.29,30.29,0,0,0,39.61,38.11v44.51H9203.8V667.63h-11.66V616.24H9130.2V335.81h-40.69v131.9H8983.66V427.18h-62v40.53h-10.1v-49.5h-35.23V527h-21.46V308.15H8747.67v89.17h-33V206.75h-31.7V561.67h-9.65V395.4h-15.94V259.16h-70.53v97.35h-35V311.74h-27.45v44.77h-16.22V265.15H8514c6.49,0,11.76-5.81,11.76-13v-8.48c0-7.17-5.27-13-11.76-13h-7.23c0-13.23-9.72-24-21.7-24s-21.7,10.73-21.7,24h-7.23c-6.5,0-11.76,5.81-11.76,13v8.48c0,7.17,5.26,13,11.76,13h7.23V355h-22.24v80.31h-32.54v15.6h32.54V561.67h-42.86V451.23H8357.6V555.66h-23.31v48.89h-9.82V320.14h-119v85.14h-57.37v-8H8106.3v31.45h-10.85v16.47H8081.2v22.47h14.25V629.07h-.71v38.56h-23.36V527h12.74V508.49h-12.74V494.9h-10.1V469h-3.94V397.32h-16.16l5.2-21.91h-67.82v21.91h-11v53.57h-7.28V443h-22.61v7.9h-23.18V469h-9.49v35.88h-31.3V667.63h-11v-110h-7.37V471.44h-29.84V418.28h-74.23v68h-33.53v8.41h-31.54v54.6h-24.79v101h-83.08v76.15H7453.8V667.63h-11.66V616.24H7380.2V335.81h-40.69v131.9H7233.66V427.18h-61.95v40.53h-10.1v-49.5h-35.23V527h-21.46V308.15H6997.67v89.17h-33V206.75h-31.7V561.67h-9.65V395.4h-15.94V259.16h-70.53v97.35h-35V311.74h-27.45v44.77h-16.22V265.15H6764c6.49,0,11.76-5.81,11.76-13v-8.48c0-7.17-5.27-13-11.76-13h-7.23c0-13.23-9.72-24-21.7-24s-21.7,10.73-21.7,24h-7.23c-6.5,0-11.76,5.81-11.76,13v8.48c0,7.17,5.26,13,11.76,13h7.23V355h-22.24v80.31h-32.54v15.6h32.54V561.67h-42.86V451.23H6607.6V555.66h-23.31v48.89h-9.82V320.14H6455.42v85.14h-57.37v-8H6356.3v31.45h-10.85v16.47H6331.2v22.47h14.25V629.07h-.71v38.56h-23.36V527h12.74V508.49h-12.74V494.9h-10.1V469h-3.94V397.32h-16.16l5.2-21.91h-67.82v21.91h-11v53.57h-7.28V443h-22.61v7.9h-23.18V469h-9.49v35.88h-31.3V667.63h-11v-110h-7.37V471.44h-29.84V418.28h-74.23v68h-33.53v8.41h-31.54v54.6h-24.79v101h-83.08v75.87h-62.89v.28H5749V671.74a30.31,30.31,0,0,0,3.65-6.39,31.28,31.28,0,1,0,54.7-28.75,17.59,17.59,0,0,0,2.43-27.92,34.93,34.93,0,0,0-34.2-58.48c0-.57,0-1.14,0-1.71a37.61,37.61,0,1,0-73.88,9.94,33.62,33.62,0,0,0-7.08,60.76,22.91,22.91,0,0,0,1.42,24.58,30.29,30.29,0,0,0,39.61,38.11v44.51H5653.8V667.63h-11.66V616.24H5580.2V335.81h-40.69v131.9H5433.66V427.18h-61.95v40.53h-10.1v-49.5h-35.23V527h-21.46V308.15H5197.67v89.17h-33V206.75h-31.7V561.67h-9.65V395.4h-15.94V259.16h-70.53v97.35h-35V311.74h-27.45v44.77h-16.22V265.15H4964c6.49,0,11.76-5.81,11.76-13v-8.48c0-7.17-5.27-13-11.76-13h-7.23c0-13.23-9.72-24-21.7-24s-21.7,10.73-21.7,24h-7.23c-6.5,0-11.76,5.81-11.76,13v8.48c0,7.17,5.26,13,11.76,13h7.23V355h-22.24v80.31h-32.54v15.6h32.54V561.67h-42.86V451.23H4807.6V555.66h-23.31v48.89h-9.82V320.14H4655.42v85.14h-57.37v-8H4556.3v31.45h-10.85v16.47H4531.2v22.47h14.25V629.07h-.71v38.56h-23.36V527h12.74V508.49h-12.74V494.9h-10.1V469h-3.94V397.32h-16.16l5.2-21.91h-67.82v21.91h-11v53.57h-7.28V443h-22.61v7.9h-23.18V469h-9.49v35.88h-31.3V667.63h-11v-110h-7.37V471.44h-29.84V418.28h-74.23v68h-33.53v8.41h-31.54v54.6h-24.79v101h-83.08v80.87h-62.89V800h140.36v-.43H5425.33l193.33-.29H5783.5v-.21l122.34.5H7225.33v-1.5h193.33v1.21H7583.5V797h72.34v2.57H8975.33l193.33-.29H9333.5v-.21l122.34.5h1319.49v-1.5h193.33v1.21h164.84v-72.9ZM4129.77,688H4118V675.09h11.78Zm.53-23.89H4118V651.21h12.31Zm0-23.88H4118V627.32h12.31Zm0-23.89H4118v-13h12.31Zm0-23.88H4118v-13h12.31Zm0-23.89H4118v-13h12.31Zm22.7,94.27h-9.2V651.21h9.2Zm0-29h-9.2v-6.61h9.2Zm0-28.95h-9.2v-1.55h9.2Zm0-12.48h-9.2v-3.22h9.2Zm0-23.89h-9.2v-8.28h9.2Zm5-21.54H4143.8v-15.7H4158Zm0-29H4143.8v-15.7H4158ZM4183.75,600h-8.61v-9.06h8.61Zm0-52.88h-8.61v-2.32h8.61Zm0-39.41h-8.61v-5.25h8.61Zm17.56,158.63h-7v-9.07h7Zm0-46.15h-7v-9.07h7Zm0-46.16h-7v-9.06h7Zm0-46.15h-7v-9.06h7ZM4219.76,548h-6.26v-2.89h6.26Zm0-103.79h-9.95v-11h9.95Zm22.15,80.4h-9.86v-11h9.86Zm0-55.94H4232v-11h9.95ZM4264.06,661h-6.17V650h6.17Zm0-55.94h-6.17v-11h6.17Zm0-55.94h-6.17v-11h6.17Zm0-55.94h-9.94v-11h9.94Zm22.16,129.22h-7.74v-3.86h7.74Zm0-48.82h0Zm0-55.94h-9.95v-11h9.95Zm19.66,147.14h-.5v-6.42h.5Zm0-14.13h-.5V644.2h.5Zm0-14.12h-.5v-6.43h.5Zm0-14.13h-.5v-6.43h.5Zm0-14.13h-.5v-6.43h.5Zm0-14.13h-.5v-6.43h.5Zm0-14.13h-.5v-6.43h.5Zm23.3,71.8h0V644h0Zm0-17.12h0v-7.8h0Zm0-17.13h0v-7.79h0Zm0-17.13h0v-7.79h0Zm0-17.12h0v-7.8h0Zm0-17.13h0v-7.79h0Zm0-17.13h0v-7.79h0Zm0-17.12h0v-7.8h0Zm25.87,119.88h-6.3V644h6.3Zm0-17.12h-6.3v-7.8h6.3Zm0-17.13h-6.3v-7.79h6.3Zm0-17.13h-6.3v-7.79h6.3Zm0-17.12h-6.3v-7.8h6.3Zm0-17.13h-6.3v-7.79h6.3Zm0-17.13h-6.3v-7.79h6.3Zm0-17.12h-6.3v-7.8h6.3Zm24.42,44.56h-10.72v-14h10.72Zm0-77.87h-13.31v-14h13.31Zm38.14,0h-7.28v-14h7.28Zm28.21,29h-13.08v-17h13.08Zm0-94.39h-15.38v-17h15.38Zm19.91,137.82h-8.84v-17h8.84ZM4480,469h-4.83v2h-10.54V454H4480Zm15.37-35.72H4480v-17h15.37Zm144,72.36h-13.31v-14h13.31Zm0-47.78h-13.31v-14h13.31ZM4672,358.36h15.38v17H4672Zm0,104.09h15.38v17H4672Zm20.66,159.67h-13v-17h13Zm17.12-108.69h-15.38v-2.78h15.38Zm36.16-71.7h-15.37v-17H4746Zm0-57.91h-15.37v-17H4746Zm38.31,282h-9.82V646.1h9.82Zm66.59,2.16h-1.69V656h1.69Zm59.33-155.35H4896.9v-14h13.31Zm3.18-61.78h-3.18v-14h3.18Zm0-60.95h-9.84v-14h9.84Zm61,171.8h-16.22V375.41h16.22Zm62.44-49.07h-19.29v-14h19.29Zm0-117.2h-6.39V469h-28.6V375.41h35Zm14.33-110.92h15.37v17h-15.37Zm23.06,90.85h-15.37v-17h15.37Zm140,74.89h-31.4v-17h31.4Zm20.15-91.86h31.4v17h-31.4Zm47.1,125.57H5250V467h31.4Zm35.31,77.74h-11.81V540.41h11.81Zm60.75,87.89h-15.87V571.37h15.87Zm1.3-138.91h-17.17V483.93h17.17ZM5452,651.41h-24.2V624.69H5452ZM5464.13,541h-24.21V514.26h24.21Zm64.23-30.34h-24.2V483.93h24.2ZM5559.86,627h-24.2V600.27h24.2Zm369.91,61H5918V675.09h11.78Zm.53-23.89H5918V651.21h12.31Zm0-23.88H5918V627.32h12.31Zm0-23.89H5918v-13h12.31Zm0-23.88H5918v-13h12.31Zm0-23.89H5918v-13h12.31Zm22.7,94.27h-9.2V651.21h9.2Zm0-29h-9.2v-6.61h9.2Zm0-28.95h-9.2v-1.55h9.2Zm0-12.48h-9.2v-3.22h9.2Zm0-23.89h-9.2v-8.28h9.2Zm5-21.54H5943.8v-15.7H5958Zm0-29H5943.8v-15.7H5958ZM5983.75,600h-8.61v-9.06h8.61Zm0-52.88h-8.61v-2.32h8.61Zm0-39.41h-8.61v-5.25h8.61Zm17.56,158.63h-7v-9.07h7Zm0-46.15h-7v-9.07h7Zm0-46.16h-7v-9.06h7Zm0-46.15h-7v-9.06h7ZM6019.76,548h-6.26v-2.89h6.26Zm0-103.79h-9.95v-11h9.95Zm22.15,80.4h-9.86v-11h9.86Zm0-55.94H6032v-11h9.95ZM6064.06,661h-6.17V650h6.17Zm0-55.94h-6.17v-11h6.17Zm0-55.94h-6.17v-11h6.17Zm0-55.94h-9.94v-11h9.94Zm22.16,129.22h-7.74v-3.86h7.74Zm0-48.82h0Zm0-55.94h-9.95v-11h9.95Zm19.66,147.14h-.5v-6.42h.5Zm0-14.13h-.5V644.2h.5Zm0-14.12h-.5v-6.43h.5Zm0-14.13h-.5v-6.43h.5Zm0-14.13h-.5v-6.43h.5Zm0-14.13h-.5v-6.43h.5Zm0-14.13h-.5v-6.43h.5Zm23.3,71.8h0V644h0Zm0-17.12h0v-7.8h0Zm0-17.13h0v-7.79h0Zm0-17.13h0v-7.79h0Zm0-17.12h0v-7.8h0Zm0-17.13h0v-7.79h0Zm0-17.13h0v-7.79h0Zm0-17.12h0v-7.8h0Zm25.87,119.88h-6.3V644h6.3Zm0-17.12h-6.3v-7.8h6.3Zm0-17.13h-6.3v-7.79h6.3Zm0-17.13h-6.3v-7.79h6.3Zm0-17.12h-6.3v-7.8h6.3Zm0-17.13h-6.3v-7.79h6.3Zm0-17.13h-6.3v-7.79h6.3Zm0-17.12h-6.3v-7.8h6.3Zm24.42,44.56h-10.72v-14h10.72Zm0-77.87h-13.31v-14h13.31Zm38.14,0h-7.28v-14h7.28Zm28.21,29h-13.08v-17h13.08Zm0-94.39h-15.38v-17h15.38Zm19.91,137.82h-8.84v-17h8.84ZM6280,469h-4.83v2h-10.54V454H6280Zm15.37-35.72H6280v-17h15.37Zm144,72.36h-13.31v-14h13.31Zm0-47.78h-13.31v-14h13.31ZM6472,358.36h15.38v17H6472Zm0,104.09h15.38v17H6472Zm20.66,159.67h-13v-17h13Zm17.12-108.69h-15.38v-2.78h15.38Zm36.16-71.7h-15.37v-17H6546Zm0-57.91h-15.37v-17H6546Zm38.31,282h-9.82V646.1h9.82Zm66.59,2.16h-1.69V656h1.69Zm59.33-155.35H6696.9v-14h13.31Zm3.18-61.78h-3.18v-14h3.18Zm0-60.95h-9.84v-14h9.84Zm61,171.8h-16.22V375.41h16.22Zm62.44-49.07h-19.29v-14h19.29Zm0-117.2h-6.39V469h-28.6V375.41h35Zm14.33-110.92h15.37v17h-15.37Zm23.06,90.85h-15.37v-17h15.37Zm140,74.89h-31.4v-17h31.4Zm20.15-91.86h31.4v17h-31.4Zm47.1,125.57H7050V467h31.4Zm35.31,77.74h-11.81V540.41h11.81Zm60.75,87.89h-15.87V571.37h15.87Zm1.3-138.91h-17.17V483.93h17.17ZM7252,651.41h-24.2V624.69H7252ZM7264.13,541h-24.21V514.26h24.21Zm64.23-30.34h-24.2V483.93h24.2ZM7359.86,627h-24.2V600.27h24.2Zm319.91,61H7668V675.09h11.78Zm.53-23.89H7668V651.21h12.31Zm0-23.88H7668V627.32h12.31Zm0-23.89H7668v-13h12.31Zm0-23.88H7668v-13h12.31Zm0-23.89H7668v-13h12.31Zm22.7,94.27h-9.2V651.21h9.2Zm0-29h-9.2v-6.61h9.2Zm0-28.95h-9.2v-1.55h9.2Zm0-12.48h-9.2v-3.22h9.2Zm0-23.89h-9.2v-8.28h9.2Zm5-21.54H7693.8v-15.7H7708Zm0-29H7693.8v-15.7H7708ZM7733.75,600h-8.61v-9.06h8.61Zm0-52.88h-8.61v-2.32h8.61Zm0-39.41h-8.61v-5.25h8.61Zm17.56,158.63h-7v-9.07h7Zm0-46.15h-7v-9.07h7Zm0-46.16h-7v-9.06h7Zm0-46.15h-7v-9.06h7ZM7769.76,548h-6.26v-2.89h6.26Zm0-103.79h-9.95v-11h9.95Zm22.15,80.4h-9.86v-11h9.86Zm0-55.94H7782v-11h9.95ZM7814.06,661h-6.17V650h6.17Zm0-55.94h-6.17v-11h6.17Zm0-55.94h-6.17v-11h6.17Zm0-55.94h-9.94v-11h9.94Zm22.16,129.22h-7.74v-3.86h7.74Zm0-48.82h0Zm0-55.94h-9.95v-11h9.95Zm19.66,147.14h-.5v-6.42h.5Zm0-14.13h-.5V644.2h.5Zm0-14.12h-.5v-6.43h.5Zm0-14.13h-.5v-6.43h.5Zm0-14.13h-.5v-6.43h.5Zm0-14.13h-.5v-6.43h.5Zm0-14.13h-.5v-6.43h.5Zm23.3,71.8h0V644h0Zm0-17.12h0v-7.8h0Zm0-17.13h0v-7.79h0Zm0-17.13h0v-7.79h0Zm0-17.12h0v-7.8h0Zm0-17.13h0v-7.79h0Zm0-17.13h0v-7.79h0Zm0-17.12h0v-7.8h0Zm25.87,119.88h-6.3V644h6.3Zm0-17.12h-6.3v-7.8h6.3Zm0-17.13h-6.3v-7.79h6.3Zm0-17.13h-6.3v-7.79h6.3Zm0-17.12h-6.3v-7.8h6.3Zm0-17.13h-6.3v-7.79h6.3Zm0-17.13h-6.3v-7.79h6.3Zm0-17.12h-6.3v-7.8h6.3Zm24.42,44.56h-10.72v-14h10.72Zm0-77.87h-13.31v-14h13.31Zm38.14,0h-7.28v-14h7.28Zm28.21,29h-13.08v-17h13.08Zm0-94.39h-15.38v-17h15.38Zm19.91,137.82h-8.84v-17h8.84ZM8030,469h-4.83v2h-10.54V454H8030Zm15.37-35.72H8030v-17h15.37Zm144,72.36h-13.31v-14h13.31Zm0-47.78h-13.31v-14h13.31ZM8222,358.36h15.38v17H8222Zm0,104.09h15.38v17H8222Zm20.66,159.67h-13v-17h13Zm17.12-108.69h-15.38v-2.78h15.38Zm36.16-71.7h-15.37v-17H8296Zm0-57.91h-15.37v-17H8296Zm38.31,282h-9.82V646.1h9.82Zm66.59,2.16h-1.69V656h1.69Zm59.33-155.35H8446.9v-14h13.31Zm3.18-61.78h-3.18v-14h3.18Zm0-60.95h-9.84v-14h9.84Zm61,171.8h-16.22V375.41h16.22Zm62.44-49.07h-19.29v-14h19.29Zm0-117.2h-6.39V469h-28.6V375.41h35Zm14.33-110.92h15.37v17h-15.37Zm23.06,90.85h-15.37v-17h15.37Zm140,74.89h-31.4v-17h31.4Zm20.15-91.86h31.4v17h-31.4Zm47.1,125.57H8800V467h31.4Zm35.31,77.74h-11.81V540.41h11.81Zm60.75,87.89h-15.87V571.37h15.87Zm1.3-138.91h-17.17V483.93h17.17ZM9002,651.41h-24.2V624.69H9002ZM9014.13,541h-24.21V514.26h24.21Zm64.23-30.34h-24.2V483.93h24.2ZM9109.86,627h-24.2V600.27h24.2Zm369.91,61H9468V675.09h11.78Zm.53-23.89H9468V651.21h12.31Zm0-23.88H9468V627.32h12.31Zm0-23.89H9468v-13h12.31Zm0-23.88H9468v-13h12.31Zm0-23.89H9468v-13h12.31Zm22.7,94.27h-9.2V651.21h9.2Zm0-29h-9.2v-6.61h9.2Zm0-28.95h-9.2v-1.55h9.2Zm0-12.48h-9.2v-3.22h9.2Zm0-23.89h-9.2v-8.28h9.2Zm5-21.54H9493.8v-15.7H9508Zm0-29H9493.8v-15.7H9508ZM9533.75,600h-8.61v-9.06h8.61Zm0-52.88h-8.61v-2.32h8.61Zm0-39.41h-8.61v-5.25h8.61Zm17.56,158.63h-7v-9.07h7Zm0-46.15h-7v-9.07h7Zm0-46.16h-7v-9.06h7Zm0-46.15h-7v-9.06h7ZM9569.76,548h-6.26v-2.89h6.26Zm0-103.79h-10v-11h10Zm22.15,80.4h-9.86v-11h9.86Zm0-55.94h-10v-11h10ZM9614.06,661h-6.17V650h6.17Zm0-55.94h-6.17v-11h6.17Zm0-55.94h-6.17v-11h6.17Zm0-55.94h-9.94v-11h9.94Zm22.16,129.22h-7.74v-3.86h7.74Zm0-48.82h0Zm0-55.94h-9.95v-11h9.95Zm19.66,147.14h-.5v-6.42h.5Zm0-14.13h-.5V644.2h.5Zm0-14.12h-.5v-6.43h.5Zm0-14.13h-.5v-6.43h.5Zm0-14.13h-.5v-6.43h.5Zm0-14.13h-.5v-6.43h.5Zm0-14.13h-.5v-6.43h.5Zm23.3,71.8h0V644h0Zm0-17.12h0v-7.8h0Zm0-17.13h0v-7.79h0Zm0-17.13h0v-7.79h0Zm0-17.12h0v-7.8h0Zm0-17.13h0v-7.79h0Zm0-17.13h0v-7.79h0Zm0-17.12h0v-7.8h0Zm25.87,119.88h-6.3V644h6.3Zm0-17.12h-6.3v-7.8h6.3Zm0-17.13h-6.3v-7.79h6.3Zm0-17.13h-6.3v-7.79h6.3Zm0-17.12h-6.3v-7.8h6.3Zm0-17.13h-6.3v-7.79h6.3Zm0-17.13h-6.3v-7.79h6.3Zm0-17.12h-6.3v-7.8h6.3Zm24.42,44.56h-10.72v-14h10.72Zm0-77.87h-13.31v-14h13.31Zm38.14,0h-7.28v-14h7.28Zm28.21,29h-13.08v-17h13.08Zm0-94.39h-15.38v-17h15.38Zm19.91,137.82h-8.84v-17h8.84ZM9830,469h-4.83v2h-10.54V454H9830Zm15.37-35.72H9830v-17h15.37Zm144,72.36h-13.31v-14h13.31Zm0-47.78h-13.31v-14h13.31Zm32.68-99.46h15.38v17H10022Zm0,104.09h15.38v17H10022Zm20.66,159.67h-13v-17h13Zm17.12-108.69h-15.38v-2.78h15.38Zm36.16-71.7h-15.37v-17H10096Zm0-57.91h-15.37v-17H10096Zm38.31,282h-9.82V646.1h9.82Zm66.59,2.16h-1.69V656h1.69Zm59.33-155.35h-13.31v-14h13.31Zm3.18-61.78h-3.18v-14h3.18Zm0-60.95h-9.84v-14h9.84Zm61,171.8h-16.22V375.41h16.22Zm62.44-49.07h-19.29v-14h19.29Zm0-117.2h-6.39V469h-28.6V375.41h35Zm14.33-110.92h15.37v17h-15.37Zm23.06,90.85h-15.37v-17h15.37Zm140,74.89h-31.4v-17h31.4Zm20.15-91.86h31.4v17h-31.4Zm47.1,125.57H10600V467h31.4Zm35.31,77.74h-11.81V540.41h11.81Zm60.75,87.89h-15.87V571.37h15.87Zm1.3-138.91h-17.17V483.93h17.17ZM10802,651.41h-24.2V624.69h24.2Zm12.1-110.42h-24.21V514.26h24.21Zm64.23-30.34h-24.2V483.93h24.2Zm31.5,116.34h-24.2V600.27h24.2Z"/><path class="cls-4" d="M3898.31,726.89V668.18h-11.66V616.84h-61.93V336.68H3784V468.45H3678.18V428h-61.94v40.49h-10.1V419h-35.22v108.7h-21.47V309.05H3442.21v89.08h-33V207.75h-31.7V562.33h-9.66V396.21h-15.94V260.11h-70.52v97.25h-35V312.64h-27.44v44.72H3202.7V266.1h5.88c6.49,0,11.75-5.81,11.75-13v-8.48c0-7.16-5.26-13-11.75-13h-7.23c0-13.22-9.72-23.94-21.7-23.94s-21.7,10.72-21.7,23.94h-7.23c-6.5,0-11.76,5.8-11.76,13v8.48c0,7.16,5.26,13,11.76,13H3158v89.74h-22.24v80.23h-32.53v15.58h32.53V562.33h-42.86V452h-40.68V556.32h-23.31v48.84H3019V321H2900v85.06h-57.36v-8h-41.76v31.42H2790V446h-14.24v22.44H2790V629.66h-.7v38.52H2766V527.71h12.73V509.2H2766V495.62h-10.1V469.7h-3.95V398.13h-16.15l5.2-21.88h-67.81v21.88h-11v53.52h-7.28v-7.89h-22.6v7.89h-23.18V469.7h-9.49v35.85h-31.3V668.18h-11V558.32H2550V472.18h-29.84v-53.1h-74.23V487h-33.53v8.4h-31.53v54.55h-24.8V650.81H2273v75.8h-62.9v.28h-25.51v-54.6a29.84,29.84,0,0,0,3.64-6.39,31.28,31.28,0,1,0,54.7-28.72,17.56,17.56,0,0,0,2.43-27.89,34.92,34.92,0,0,0-34.19-58.43c0-.56,0-1.13,0-1.7a37.61,37.61,0,1,0-73.87,9.93,33.58,33.58,0,0,0-7.09,60.7,22.92,22.92,0,0,0,1.42,24.55,30.28,30.28,0,0,0,39.61,38.08v44.47h-72.85V668.18h-11.65V616.84h-61.94V336.68h-40.69V468.45H1878.31V428h-61.94v40.49h-10.1V419H1771v108.7h-21.46V309.05H1642.34v89.08h-33V207.75h-31.7V562.33H1568V396.21H1552V260.11h-70.52v97.25h-35V312.64h-27.45v44.72h-16.22V266.1h5.87c6.5,0,11.76-5.81,11.76-13v-8.48c0-7.16-5.26-13-11.76-13h-7.23c0-13.22-9.71-23.94-21.7-23.94s-21.7,10.72-21.7,23.94h-7.23c-6.49,0-11.75,5.8-11.75,13v8.48c0,7.16,5.26,13,11.75,13h7.23v89.74h-22.23v80.23H1303.3v15.58h32.54V562.33H1293V452h-40.69V556.32H1229v48.84h-9.83V321h-119v85.06h-57.36v-8H1001v31.42H990.16V446H975.91v22.44h14.25V629.66h-.71v38.52H966.09V527.71h12.74V509.2H966.09V495.62H956V469.7h-3.94V398.13H935.9l5.19-21.88H873.28v21.88H862.33v53.52h-7.28v-7.89h-22.6v7.89H809.26V469.7h-9.48v35.85h-31.3V668.18h-11V558.32h-7.37V472.18H720.27v-53.1H646V487H612.52v8.4H581v54.55H556.19V650.81H473.12v76.08H348.55V668.18H336.9V616.84H275V336.68H234.28V468.45H128.43V428H66.49v40.49H56.39V419H21.16v108.7H-.3V309.05H-107.54v89.08h-33V207.75h-31.7V562.33h-9.65V396.21h-15.94V260.11h-70.52v97.25h-35V312.64h-27.45v44.72H-347V266.1h5.88c6.49,0,11.75-5.81,11.75-13v-8.48c0-7.16-5.26-13-11.75-13h-7.24c0-13.22-9.71-23.94-21.7-23.94s-21.69,10.72-21.69,23.94H-399c-6.5,0-11.76,5.8-11.76,13v8.48c0,7.16,5.26,13,11.76,13h7.23v89.74H-414v80.23h-32.53v15.58H-414V562.33H-456.9V452h-40.69V556.32h-23.3v48.84h-9.82V321h-119v85.06h-57.36v-8h-41.75v31.42h-10.85V446H-774v22.44h14.24V629.66h-.7v38.52h-23.37V527.71H-771V509.2h-12.74V495.62h-10.1V469.7h-3.94V398.13H-814l5.2-21.88h-67.81v21.88h-11v53.52h-7.28v-7.89h-22.6v7.89h-23.19V469.7h-9.48v35.85h-31.3V668.18h-11V558.32h-7.37V472.18h-29.83v-53.1h-74.24V487h-33.52v8.4h-31.53v54.55h-24.8V650.81h-83.06v75.8h-62.9v.28h-16.52v-54.6a30.31,30.31,0,0,0,3.65-6.39,31.28,31.28,0,0,0,29.63,21.24,31.26,31.26,0,0,0,31.28-31.25,31.14,31.14,0,0,0-6.21-18.71,17.58,17.58,0,0,0,8.21-14.88,17.54,17.54,0,0,0-5.78-13,34.83,34.83,0,0,0,10.44-24.89,34.92,34.92,0,0,0-34.94-34.91,34.87,34.87,0,0,0-9.7,1.37c0-.56,0-1.13,0-1.7a37.59,37.59,0,0,0-37.61-37.57,37.58,37.58,0,0,0-37.6,37.57,37.83,37.83,0,0,0,1.33,9.93,33.6,33.6,0,0,0-23.3,32,33.57,33.57,0,0,0,16.22,28.74,22.76,22.76,0,0,0-2.91,11.16,22.8,22.8,0,0,0,4.33,13.39,30.21,30.21,0,0,0-1.66,9.88,30.27,30.27,0,0,0,30.28,30.26,30.31,30.31,0,0,0,11-2.06v44.47h-81.84V668.18H-1463V616.84h-61.93V336.68h-40.69V468.45h-105.85V428h-61.93v40.49h-10.1V419h-35.23v108.7h-21.46V309.05h-107.25v89.08h-33V207.75h-31.7V562.33h-9.65V396.21h-15.94V260.11h-70.52v97.25h-35V312.64h-27.45v44.72h-16.22V266.1h5.87c6.49,0,11.76-5.81,11.76-13v-8.48c0-7.16-5.27-13-11.76-13h-7.23c0-13.22-9.72-23.94-21.7-23.94s-21.7,10.72-21.7,23.94h-7.23c-6.49,0-11.75,5.8-11.75,13v8.48c0,7.16,5.26,13,11.75,13h7.23v89.74h-22.23v80.23h-32.54v15.58h32.54V562.33h-42.87V452h-40.68V556.32h-23.31v48.84h-9.82V321h-119v85.06H-2507v-8h-41.76v31.42h-10.84V446h-14.25v22.44h14.25V629.66h-.71v38.52h-23.36V527.71h12.74V509.2h-12.74V495.62h-10.1V469.7h-3.94V398.13h-16.16l5.2-21.88h-67.81v21.88h-11v53.52h-7.28v-7.89h-22.61v7.89h-23.18V469.7H-2750v35.85h-31.3V668.18h-11V558.32h-7.37V472.18h-29.84v-53.1h-74.23V487h-33.53v8.4h-31.53v54.55h-24.79V650.81h-83.07V731.6h-62.89v65.83h140.35V800h1319.4l193.31-.29h164.83v-.2l122.33.49H120.1v-1.49H313.42v1.2H478.25v-2.28h72.33V800H1870l193.31-.29h164.84v-.2l122.33.49h1319.4v-1.49h193.31v1.2H4028l5-72.82Zm-6730.55-44.31H-2844V669.64h11.78Zm.53-23.87H-2844V645.77h12.31Zm0-23.86H-2844V621.91h12.31Zm0-23.87H-2844V598.05h12.31Zm0-23.86H-2844V574.18h12.31Zm0-23.86H-2844V550.32h12.31Zm22.7,94.18h-9.2V645.77h9.2Zm0-28.92h-9.2v-6.61h9.2Zm0-28.93h-9.2v-1.54h9.2Zm0-12.47h-9.2v-3.21h9.2Zm0-23.86h-9.2V555h9.2Zm5-21.52h-14.21V526.05H-2804Zm0-28.93h-14.21V497.13H-2804Zm25.74,81.76h-8.61v-9.05h8.61Zm0-52.83h-8.61v-2.32h8.61Zm0-39.38h-8.61v-5.23h8.61Zm17.55,158.48h-7v-9.05h7Zm0-46.11h-7v-9.05h7Zm0-46.1h-7v-9h7Zm0-46.11h-7v-9h7Zm18.45,20.16h-6.26V539.8h6.26Zm0-103.68h-9.95V428h9.95Zm22.15,80.32H-2730v-11h9.86Zm0-55.89H-2730v-11h9.94Zm22.15,192.1h-6.17v-11h6.17Zm0-55.88h-6.17v-11h6.17Zm0-55.89h-6.17v-11h6.17Zm0-55.89h-9.94v-11h9.94ZM-2675.8,617h-7.74v-3.85h7.74Zm0-48.76h0Zm0-55.89h-9.95v-11h9.95Zm19.66,147h-.5v-6.42h.5Zm0-14.12h-.5v-6.42h.5Zm0-14.11h-.5v-6.42h.5Zm0-14.12h-.5v-6.42h.5Zm0-14.11h-.5v-6.43h.5Zm0-14.12h-.5v-6.42h.5Zm0-14.11h-.5V568.2h.5Zm23.29,71.73h0v-7.79h0Zm0-17.11h0v-7.79h0Zm0-17.11h0v-7.79h0Zm0-17.11h0v-7.78h0Zm0-17.11h0v-7.79h0Zm0-17.11h0V553h0Zm0-17.11h0V535.9h0Zm0-17.11h0V518.8h0ZM-2607,646.35h-6.3v-7.79h6.3Zm0-17.11h-6.3v-7.79h6.3Zm0-17.11h-6.3v-7.79h6.3Zm0-17.11h-6.3v-7.78h6.3Zm0-17.11h-6.3v-7.79h6.3Zm0-17.11h-6.3V553h6.3Zm0-17.11h-6.3V535.9h6.3Zm0-17.11h-6.3V518.8h6.3Zm24.42,44.52h-10.72v-14h10.72Zm0-77.79h-13.3v-14h13.3Zm38.14,0h-7.28v-14h7.28Zm28.2,29h-13.08V505.36h13.08Zm0-94.29h-15.37V411.07h15.37Zm19.92,137.68h-8.84v-17h8.84Zm14.22-102h-4.83v2h-10.54v-17h15.37Zm15.37-35.68h-15.37V411.07h15.37Zm144,72.29H-2336v-14h13.31Zm0-47.73H-2336v-14h13.31Zm32.68-99.37h15.38v17H-2290Zm0,104h15.38v17H-2290Zm20.66,159.52h-13v-17h13Zm17.11-108.58h-15.37v-2.78h15.37Zm36.17-71.64h-15.37V419.55h15.37Zm0-57.85h-15.37v-17h15.37Zm38.3,281.69h-9.82V640.68h9.82Zm66.59,2.16h-1.69v-12h1.69Zm59.32-155.2h-13.3v-14h13.3Zm3.18-61.71h-3.18v-14h3.18Zm0-60.9h-9.83v-14h9.83Zm61,171.64h-16.22V370.25h16.22Zm62.44-49h-19.29v-14h19.29Zm0-117.09h-6.39V463.7h-28.6V370.25h35Zm14.32-110.81h15.37v17h-15.37Zm23.06,90.77h-15.37v-17h15.37Zm140,74.81h-31.4V428h31.4Zm20.14-91.77h31.4v17h-31.4Zm47.1,125.45h-31.4v-17h31.4Zm35.3,77.67h-11.8V535.08h11.8Zm60.75,87.8h-15.86V566h15.86Zm1.3-138.77h-17.16v-26.7h17.16ZM-1510.08,646h-24.2V619.29h24.2Zm12.1-110.32h-24.2V509h24.2Zm64.23-30.3h-24.2v-26.7h24.2Zm31.5,116.23h-24.2v-26.7h24.2Zm369.88,61h-11.78V669.64h11.78Zm.53-23.87h-12.31V645.77h12.31Zm0-23.86h-12.31V621.91h12.31Zm0-23.87h-12.31V598.05h12.31Zm0-23.86h-12.31V574.18h12.31Zm0-23.86h-12.31V550.32h12.31Zm22.7,94.18h-9.2V645.77h9.2Zm0-28.92h-9.2v-6.61h9.2Zm0-28.93h-9.2v-1.54h9.2Zm0-12.47h-9.2v-3.21h9.2Zm0-23.86h-9.2V555h9.2Zm5-21.52h-14.22V526.05h14.22Zm0-28.93h-14.22V497.13h14.22Zm25.73,81.76H-987v-9.05h8.61Zm0-52.83H-987v-2.32h8.61Zm0-39.38H-987v-5.23h8.61Zm17.55,158.48h-7v-9.05h7Zm0-46.11h-7v-9.05h7Zm0-46.1h-7v-9h7Zm0-46.11h-7v-9h7Zm18.45,20.16h-6.25V539.8h6.25Zm0-103.68h-9.94V428h9.94Zm22.16,80.32h-9.86v-11h9.86Zm0-55.89h-9.95v-11h9.95Zm22.15,192.1h-6.18v-11h6.18Zm0-55.88h-6.18v-11h6.18Zm0-55.89h-6.18v-11h6.18Zm0-55.89H-908v-11h9.95ZM-875.93,617h-7.74v-3.85h7.74Zm0-48.76h0Zm0-55.89h-10v-11h10Zm19.66,147h-.5v-6.42h.5Zm0-14.12h-.5v-6.42h.5Zm0-14.11h-.5v-6.42h.5Zm0-14.12h-.5v-6.42h.5Zm0-14.11h-.5v-6.43h.5Zm0-14.12h-.5v-6.42h.5Zm0-14.11h-.5V568.2h.5Zm23.3,71.73h0v-7.79h0Zm0-17.11h0v-7.79h0Zm0-17.11h0v-7.79h0Zm0-17.11h0v-7.78h0Zm0-17.11h0v-7.79h0Zm0-17.11h0V553h0Zm0-17.11h0V535.9h0Zm0-17.11h0V518.8h0Zm25.87,119.77h-6.3v-7.79h6.3Zm0-17.11h-6.3v-7.79h6.3Zm0-17.11h-6.3v-7.79h6.3Zm0-17.11h-6.3v-7.78h6.3Zm0-17.11h-6.3v-7.79h6.3Zm0-17.11h-6.3V553h6.3Zm0-17.11h-6.3V535.9h6.3Zm0-17.11h-6.3V518.8h6.3Zm24.42,44.52H-793.4v-14h10.72Zm0-77.79H-796v-14h13.31Zm38.13,0h-7.28v-14h7.28Zm28.21,29h-13.08V505.36h13.08Zm0-94.29h-15.37V411.07h15.37Zm19.91,137.68h-8.84v-17h8.84Zm14.22-102H-687v2h-10.54v-17h15.37ZM-666.84,428h-15.37V411.07h15.37Zm144,72.29h-13.3v-14h13.3Zm0-47.73h-13.3v-14h13.3Zm32.69-99.37h15.37v17h-15.37Zm0,104h15.37v17h-15.37Zm20.65,159.52h-13v-17h13Zm17.12-108.58h-15.37v-2.78h15.37Zm36.16-71.64h-15.37V419.55h15.37Zm0-57.85h-15.37v-17h15.37Zm38.31,281.69h-9.82V640.68h9.82Zm66.59,2.16H-313v-12h1.7ZM-252,507.3h-13.31v-14H-252Zm3.18-61.71H-252v-14h3.18Zm0-60.9h-9.84v-14h9.84Zm61,171.64H-204V370.25h16.22Zm62.44-49h-19.29v-14h19.29Zm0-117.09h-6.39V463.7h-28.6V370.25h35Zm14.33-110.81h15.37v17h-15.37Zm23,90.77h-15.37v-17H-88ZM52,445H20.56V428H52ZM72.1,353.21h31.4v17H72.1Zm47.1,125.45H87.8v-17h31.4Zm35.31,77.67H142.7V535.08h11.81Zm60.74,87.8H199.39V566h15.86Zm1.3-138.77H199.39v-26.7h17.16ZM289.8,646H265.6V619.29h24.2Zm12.1-110.32H277.7V509h24.2Zm64.22-30.3h-24.2v-26.7h24.2Zm31.5,116.23h-24.2v-26.7h24.2Zm319.89,61H705.73V669.64h11.78Zm.53-23.87H705.73V645.77H718Zm0-23.86H705.73V621.91H718ZM718,611H705.73V598.05H718Zm0-23.86H705.73V574.18H718Zm0-23.86H705.73V550.32H718Zm22.7,94.18h-9.2V645.77h9.2Zm0-28.92h-9.2v-6.61h9.2Zm0-28.93h-9.2v-1.54h9.2Zm0-12.47h-9.2v-3.21h9.2Zm0-23.86h-9.2V555h9.2Zm5-21.52H731.54V526.05h14.22Zm0-28.93H731.54V497.13h14.22Zm25.73,81.76h-8.61v-9.05h8.61Zm0-52.83h-8.61v-2.32h8.61Zm0-39.38h-8.61v-5.23h8.61ZM789,660.84h-7v-9.05h7Zm0-46.11h-7v-9.05h7Zm0-46.1h-7v-9h7Zm0-46.11h-7v-9h7Zm18.45,20.16h-6.25V539.8h6.25Zm0-103.68h-9.94V428h9.94Zm22.15,80.32h-9.85v-11h9.85Zm0-55.89H819.7v-11h9.94Zm22.16,192.1h-6.18v-11h6.18Zm0-55.88h-6.18v-11h6.18Zm0-55.89h-6.18v-11h6.18Zm0-55.89h-9.95v-11h9.95ZM874,617h-7.74v-3.85H874Zm0-48.76h0Zm0-55.89H864v-11h10Zm19.66,147h-.5v-6.42h.5Zm0-14.12h-.5v-6.42h.5Zm0-14.11h-.5v-6.42h.5Zm0-14.12h-.5v-6.42h.5Zm0-14.11h-.5v-6.43h.5Zm0-14.12h-.5v-6.42h.5Zm0-14.11h-.5V568.2h.5Zm23.29,71.73h0v-7.79h0Zm0-17.11h0v-7.79h0Zm0-17.11h0v-7.79h0Zm0-17.11h0v-7.78h0Zm0-17.11h0v-7.79h0Zm0-17.11h0V553h0Zm0-17.11h0V535.9h0Zm0-17.11h0V518.8h0Zm25.88,119.77h-6.31v-7.79h6.31Zm0-17.11h-6.31v-7.79h6.31Zm0-17.11h-6.31v-7.79h6.31Zm0-17.11h-6.31v-7.78h6.31Zm0-17.11h-6.31v-7.79h6.31Zm0-17.11h-6.31V553h6.31Zm0-17.11h-6.31V535.9h6.31Zm0-17.11h-6.31V518.8h6.31ZM967.2,571.1H956.48v-14H967.2Zm0-77.79H953.89v-14H967.2Zm38.13,0h-7.28v-14h7.28Zm28.21,29h-13.08V505.36h13.08Zm0-94.29h-15.38V411.07h15.38Zm19.91,137.68h-8.84v-17h8.84Zm14.22-102h-4.83v2H1052.3v-17h15.37ZM1083,428h-15.37V411.07H1083Zm144,72.29h-13.31v-14h13.31Zm0-47.73h-13.31v-14h13.31Zm32.69-99.37h15.37v17h-15.37Zm0,104h15.37v17h-15.37Zm20.65,159.52h-13v-17h13Zm17.12-108.58h-15.38v-2.78h15.38Zm36.16-71.64h-15.37V419.55h15.37Zm0-57.85h-15.37v-17h15.37ZM1372,660.34h-9.83V640.68H1372Zm66.59,2.16h-1.7v-12h1.7Zm59.32-155.2h-13.31v-14h13.31Zm3.17-61.71h-3.17v-14h3.17Zm0-60.9h-9.83v-14h9.83Zm61,171.64h-16.22V370.25h16.22Zm62.44-49H1605.2v-14h19.29Zm0-117.09h-6.39V463.7h-28.6V370.25h35Zm14.33-110.81h15.37v17h-15.37Zm23,90.77H1646.5v-17h15.37Zm140,74.81h-31.4V428h31.4ZM1822,353.21h31.4v17H1822Zm47.1,125.45h-31.4v-17h31.4Zm35.31,77.67h-11.81V535.08h11.81Zm60.74,87.8h-15.86V566h15.86Zm1.3-138.77h-17.16v-26.7h17.16ZM2039.68,646h-24.2V619.29h24.2Zm12.09-110.32h-24.2V509h24.2Zm64.23-30.3h-24.2v-26.7H2116Zm31.5,116.23h-24.2v-26.7h24.2Zm369.88,61h-11.77V669.64h11.77Zm.53-23.87h-12.3V645.77h12.3Zm0-23.86h-12.3V621.91h12.3Zm0-23.87h-12.3V598.05h12.3Zm0-23.86h-12.3V574.18h12.3Zm0-23.86h-12.3V550.32h12.3Zm22.71,94.18h-9.2V645.77h9.2Zm0-28.92h-9.2v-6.61h9.2Zm0-28.93h-9.2v-1.54h9.2Zm0-12.47h-9.2v-3.21h9.2Zm0-23.86h-9.2V555h9.2Zm5-21.52h-14.21V526.05h14.21Zm0-28.93h-14.21V497.13h14.21Zm25.73,81.76h-8.61v-9.05h8.61Zm0-52.83h-8.61v-2.32h8.61Zm0-39.38h-8.61v-5.23h8.61Zm17.56,158.48h-7v-9.05h7Zm0-46.11h-7v-9.05h7Zm0-46.1h-7v-9h7Zm0-46.11h-7v-9h7Zm18.45,20.16h-6.26V539.8h6.26Zm0-103.68h-9.95V428h9.95Zm22.15,80.32h-9.86v-11h9.86Zm0-55.89h-9.95v-11h9.95Zm22.15,192.1h-6.18v-11h6.18Zm0-55.88h-6.18v-11h6.18Zm0-55.89h-6.18v-11h6.18Zm0-55.89h-10v-11h10ZM2673.82,617h-7.73v-3.85h7.73Zm0-48.76h0Zm0-55.89h-9.94v-11h9.94Zm19.66,147H2693v-6.42h.49Zm0-14.12H2693v-6.42h.49Zm0-14.11H2693v-6.42h.49Zm0-14.12H2693v-6.42h.49Zm0-14.11H2693v-6.43h.49Zm0-14.12H2693v-6.42h.49Zm0-14.11H2693V568.2h.49Zm23.3,71.73h0v-7.79h0Zm0-17.11h0v-7.79h0Zm0-17.11h0v-7.79h0Zm0-17.11h0v-7.78h0Zm0-17.11h0v-7.79h0Zm0-17.11h0V553h0Zm0-17.11h0V535.9h0Zm0-17.11h0V518.8h0Zm25.87,119.77h-6.3v-7.79h6.3Zm0-17.11h-6.3v-7.79h6.3Zm0-17.11h-6.3v-7.79h6.3Zm0-17.11h-6.3v-7.78h6.3Zm0-17.11h-6.3v-7.79h6.3Zm0-17.11h-6.3V553h6.3Zm0-17.11h-6.3V535.9h6.3Zm0-17.11h-6.3V518.8h6.3Zm24.42,44.52h-10.72v-14h10.72Zm0-77.79h-13.31v-14h13.31Zm38.13,0h-7.28v-14h7.28Zm28.21,29h-13.08V505.36h13.08Zm0-94.29H2818V411.07h15.37Zm19.91,137.68h-8.83v-17h8.83Zm14.22-102h-4.82v2h-10.55v-17h15.37ZM2882.91,428h-15.37V411.07h15.37Zm144,72.29h-13.31v-14h13.31Zm0-47.73h-13.31v-14h13.31Zm32.68-99.37H3075v17h-15.37Zm0,104H3075v17h-15.37Zm20.66,159.52h-13v-17h13Zm17.11-108.58H3082v-2.78h15.37Zm36.17-71.64h-15.37V419.55h15.37Zm0-57.85h-15.37v-17h15.37Zm38.3,281.69H3162V640.68h9.82Zm66.59,2.16h-1.7v-12h1.7Zm59.32-155.2h-13.31v-14h13.31Zm3.18-61.71h-3.18v-14H3301Zm0-60.9h-9.83v-14H3301Zm61,171.64H3345.7V370.25h16.23Zm62.43-49h-19.29v-14h19.29Zm0-117.09H3418V463.7h-28.6V370.25h35Zm14.33-110.81h15.37v17h-15.37Zm23.06,90.77h-15.37v-17h15.37Zm140,74.81h-31.4V428h31.4Zm20.15-91.77h31.4v17h-31.4ZM3669,478.66h-31.4v-17H3669Zm35.3,77.67h-11.81V535.08h11.81Zm60.75,87.8h-15.87V566H3765Zm1.3-138.77h-17.17v-26.7h17.17ZM3839.55,646h-24.2V619.29h24.2Zm12.1-110.32h-24.2V509h24.2Zm64.23-30.3h-24.2v-26.7h24.2Zm31.49,116.23h-24.2v-26.7h24.2Z"/><rect class="cls-5" x="11166" y="513" width="245" height="40"/><rect class="cls-6" x="11122" y="541" width="328" height="287"/><rect class="cls-6" x="11158" y="498" width="268" height="27"/><rect class="cls-5" x="11135" y="553" width="302" height="26"/><rect class="cls-5" x="11135" y="593" width="302" height="26"/><rect class="cls-5" x="11135" y="633" width="302" height="26"/><rect class="cls-5" x="11135" y="673" width="302" height="26"/><rect class="cls-5" x="11135" y="713" width="302" height="26"/><rect class="cls-5" x="11135" y="753" width="302" height="26"/><rect class="cls-5" x="11135" y="793" width="37" height="26"/><rect class="cls-5" x="11185" y="793" width="37" height="26"/><rect class="cls-5" x="11239" y="793" width="37" height="26"/><rect class="cls-5" x="11292" y="793" width="37" height="26"/><rect class="cls-5" x="11346" y="793" width="37" height="26"/><rect class="cls-5" x="11401" y="793" width="37" height="26"/><rect class="cls-7" x="7519.51" y="869.09" width="21.97" height="7.49"/><rect class="cls-7" x="7513.39" y="874.83" width="34.2" height="5.74"/><rect class="cls-7" x="7524.16" y="430.96" width="13.98" height="438.23"/><rect class="cls-8" x="7518.91" y="445.34" width="22.96" height="153.03"/><rect class="cls-9" x="7541.88" y="459.59" width="40.27" height="12.65"/><rect class="cls-9" x="7541.88" y="573.41" width="40.27" height="12.65"/><rect class="cls-10" x="7562.59" y="430.96" width="48.92" height="177.72"/><rect class="cls-8" x="7558.85" y="435.5" width="56.41" height="168.65"/><path class="cls-11" d="M7618.21,480.41c0,17.21-13.95,28-31.16,28s-31.17-10.83-31.17-28a31.17,31.17,0,1,1,62.33,0Z"/><path class="cls-12" d="M7587.05,465.49c13.17,0,24.71,5.28,31.11,13.19a31.16,31.16,0,0,0-62.23,0C7562.34,470.77,7573.87,465.49,7587.05,465.49Z"/><path class="cls-13" d="M7615.09,480.41a28,28,0,1,1-28-28.05A28,28,0,0,1,7615.09,480.41Z"/><path class="cls-11" d="M7618.21,558.49c0,17.21-13.95,28-31.16,28s-31.17-10.83-31.17-28a31.17,31.17,0,1,1,62.33,0Z"/><path class="cls-12" d="M7587.05,543.57c13.17,0,24.71,5.28,31.11,13.19a31.16,31.16,0,0,0-62.23,0C7562.34,548.85,7573.87,543.57,7587.05,543.57Z"/><path class="cls-14" d="M7615.09,558.49a28,28,0,1,1-28-28A28,28,0,0,1,7615.09,558.49Z"/><rect class="cls-9" x="7480.54" y="459.59" width="40.27" height="12.65"/><rect class="cls-9" x="7480.54" y="573.41" width="40.27" height="12.65"/><polygon class="cls-12" points="7469.67 486.32 7450.08 486.32 7435.54 449.69 7469.67 449.69 7469.67 486.32"/><rect class="cls-11" x="7465.76" y="448.48" width="8.34" height="39.06"/><polygon class="cls-12" points="7469.67 538.14 7450.08 538.14 7435.54 501.51 7469.67 501.51 7469.67 538.14"/><rect class="cls-11" x="7465.76" y="500.29" width="8.34" height="39.06"/><polygon class="cls-12" points="7469.67 589.77 7450.08 589.77 7435.54 553.14 7469.67 553.14 7469.67 589.77"/><rect class="cls-11" x="7465.76" y="551.92" width="8.34" height="39.06"/><rect class="cls-10" x="7474.1" y="430.96" width="27.63" height="177.72"/><rect class="cls-8" x="7471.99" y="435.5" width="31.86" height="168.65"/><rect class="cls-7" x="3962.51" y="869.09" width="21.97" height="7.49"/><rect class="cls-7" x="3956.39" y="874.83" width="34.2" height="5.74"/><rect class="cls-7" x="3967.16" y="430.96" width="13.98" height="438.23"/><rect class="cls-8" x="3961.91" y="445.34" width="22.96" height="153.03"/><rect class="cls-9" x="3984.88" y="459.59" width="40.27" height="12.65"/><rect class="cls-9" x="3984.88" y="573.41" width="40.27" height="12.65"/><rect class="cls-10" x="4005.59" y="430.96" width="48.92" height="177.72"/><rect class="cls-8" x="4001.85" y="435.5" width="56.41" height="168.65"/><path class="cls-11" d="M4061.21,480.41c0,17.21-13.95,28-31.16,28s-31.17-10.83-31.17-28a31.17,31.17,0,1,1,62.33,0Z"/><path class="cls-12" d="M4030.05,465.49c13.17,0,24.71,5.28,31.11,13.19a31.16,31.16,0,0,0-62.23,0C4005.34,470.77,4016.87,465.49,4030.05,465.49Z"/><path class="cls-13" d="M4058.09,480.41a28,28,0,1,1-28-28.05A28,28,0,0,1,4058.09,480.41Z"/><path class="cls-11" d="M4061.21,558.49c0,17.21-13.95,28-31.16,28s-31.17-10.83-31.17-28a31.17,31.17,0,1,1,62.33,0Z"/><path class="cls-12" d="M4030.05,543.57c13.17,0,24.71,5.28,31.11,13.19a31.16,31.16,0,0,0-62.23,0C4005.34,548.85,4016.87,543.57,4030.05,543.57Z"/><path class="cls-14" d="M4058.09,558.49a28,28,0,1,1-28-28A28,28,0,0,1,4058.09,558.49Z"/><rect class="cls-9" x="3923.54" y="459.59" width="40.27" height="12.65"/><rect class="cls-9" x="3923.54" y="573.41" width="40.27" height="12.65"/><polygon class="cls-12" points="3912.67 486.32 3893.08 486.32 3878.54 449.69 3912.67 449.69 3912.67 486.32"/><rect class="cls-11" x="3908.76" y="448.48" width="8.34" height="39.06"/><polygon class="cls-12" points="3912.67 538.14 3893.08 538.14 3878.54 501.51 3912.67 501.51 3912.67 538.14"/><rect class="cls-11" x="3908.76" y="500.29" width="8.34" height="39.06"/><polygon class="cls-12" points="3912.67 589.77 3893.08 589.77 3878.54 553.14 3912.67 553.14 3912.67 589.77"/><rect class="cls-11" x="3908.76" y="551.92" width="8.34" height="39.06"/><rect class="cls-10" x="3917.1" y="430.96" width="27.63" height="177.72"/><rect class="cls-8" x="3914.99" y="435.5" width="31.86" height="168.65"/><rect class="cls-7" x="9190.51" y="869.09" width="21.97" height="7.49"/><rect class="cls-7" x="9184.39" y="874.83" width="34.2" height="5.74"/><rect class="cls-7" x="9195.16" y="430.96" width="13.98" height="438.23"/><rect class="cls-8" x="9189.91" y="445.34" width="22.96" height="153.03"/><rect class="cls-9" x="9212.88" y="459.59" width="40.27" height="12.65"/><rect class="cls-9" x="9212.88" y="573.41" width="40.27" height="12.65"/><rect class="cls-10" x="9233.59" y="430.96" width="48.92" height="177.72"/><rect class="cls-8" x="9229.85" y="435.5" width="56.41" height="168.65"/><path class="cls-11" d="M9289.21,480.41c0,17.21-13.95,28-31.16,28s-31.17-10.83-31.17-28a31.17,31.17,0,1,1,62.33,0Z"/><path class="cls-12" d="M9258.05,465.49c13.17,0,24.71,5.28,31.11,13.19a31.16,31.16,0,0,0-62.23,0C9233.34,470.77,9244.87,465.49,9258.05,465.49Z"/><path class="cls-13" d="M9286.09,480.41a28,28,0,1,1-28-28.05A28,28,0,0,1,9286.09,480.41Z"/><path class="cls-11" d="M9289.21,558.49c0,17.21-13.95,28-31.16,28s-31.17-10.83-31.17-28a31.17,31.17,0,1,1,62.33,0Z"/><path class="cls-12" d="M9258.05,543.57c13.17,0,24.71,5.28,31.11,13.19a31.16,31.16,0,0,0-62.23,0C9233.34,548.85,9244.87,543.57,9258.05,543.57Z"/><path class="cls-14" d="M9286.09,558.49a28,28,0,1,1-28-28A28,28,0,0,1,9286.09,558.49Z"/><rect class="cls-9" x="9151.54" y="459.59" width="40.27" height="12.65"/><rect class="cls-9" x="9151.54" y="573.41" width="40.27" height="12.65"/><polygon class="cls-12" points="9140.67 486.32 9121.08 486.32 9106.54 449.69 9140.67 449.69 9140.67 486.32"/><rect class="cls-11" x="9136.76" y="448.48" width="8.34" height="39.06"/><polygon class="cls-12" points="9140.67 538.14 9121.08 538.14 9106.54 501.51 9140.67 501.51 9140.67 538.14"/><rect class="cls-11" x="9136.76" y="500.29" width="8.34" height="39.06"/><polygon class="cls-12" points="9140.67 589.77 9121.08 589.77 9106.54 553.14 9140.67 553.14 9140.67 589.77"/><rect class="cls-11" x="9136.76" y="551.92" width="8.34" height="39.06"/><rect class="cls-10" x="9145.1" y="430.96" width="27.63" height="177.72"/><rect class="cls-8" x="9142.99" y="435.5" width="31.86" height="168.65"/><line class="cls-15" x1="-3006.81" y1="901" x2="11417.19" y2="901"/><line class="cls-16" x1="11463.57" y1="901" x2="11510" y2="901"/><path class="cls-17" d="M542,130.49a24.88,24.88,0,0,0-6.61.92,38.74,38.74,0,0,0-76.75-.79A24.75,24.75,0,0,0,461.08,180H542a24.76,24.76,0,1,0,0-49.51Z"/><path class="cls-17" d="M862,130.49a24.88,24.88,0,0,0-6.61.92,38.74,38.74,0,0,0-76.75-.79A24.75,24.75,0,0,0,781.08,180H862a24.76,24.76,0,1,0,0-49.51Z"/><path class="cls-17" d="M51.53,161.51a19.26,19.26,0,0,1,5.13.72,30.12,30.12,0,0,1,59.67-.62A19.24,19.24,0,0,1,114.4,200H51.53a19.25,19.25,0,1,1,0-38.49Z"/><path class="cls-17" d="M1765.64,128.49a24.88,24.88,0,0,0-6.61.92,38.74,38.74,0,0,0-76.75-.79,24.75,24.75,0,0,0,2.48,49.38h80.88a24.76,24.76,0,0,0,0-49.51Z"/><path class="cls-17" d="M1464.27,157.64a12.51,12.51,0,0,0,.68-3.89,12.57,12.57,0,0,0-18.39-11.23A30.1,30.1,0,0,0,1393,156.61,19.24,19.24,0,0,0,1395,195h62.87a19.23,19.23,0,0,0,6.44-37.36Z"/><path class="cls-17" d="M2440,173.94a24.88,24.88,0,0,0-6.61.92,38.74,38.74,0,0,0-76.75-.79,24.75,24.75,0,0,0,2.48,49.38H2440a24.76,24.76,0,1,0,0-49.51Z"/><path class="cls-17" d="M2843,200.49a24.88,24.88,0,0,0-6.61.92,38.74,38.74,0,0,0-76.75-.79,24.75,24.75,0,0,0,2.48,49.38H2843a24.76,24.76,0,1,0,0-49.51Z"/><path class="cls-17" d="M2032.53,231.51a19.26,19.26,0,0,1,5.13.72,30.12,30.12,0,0,1,59.67-.62A19.24,19.24,0,0,1,2095.4,270h-62.87a19.25,19.25,0,1,1,0-38.49Z"/><path class="cls-17" d="M2502.59,349.2a12.51,12.51,0,0,0,.68-3.89,12.57,12.57,0,0,0-18.39-11.23,30.1,30.1,0,0,0-53.53,14.09,19.24,19.24,0,0,0,1.93,38.39h62.87a19.23,19.23,0,0,0,6.44-37.36Z"/><path class="cls-17" d="M3956,104.94a24.88,24.88,0,0,0-6.61.92,38.74,38.74,0,0,0-76.75-.79,24.75,24.75,0,0,0,2.48,49.38H3956a24.76,24.76,0,1,0,0-49.51Z"/><path class="cls-17" d="M4359,131.49a24.88,24.88,0,0,0-6.61.92,38.74,38.74,0,0,0-76.75-.79,24.75,24.75,0,0,0,2.48,49.38H4359a24.76,24.76,0,1,0,0-49.51Z"/><path class="cls-17" d="M3548.53,162.51a19.26,19.26,0,0,1,5.13.72,30.12,30.12,0,0,1,59.67-.62A19.24,19.24,0,0,1,3611.4,201h-62.87a19.25,19.25,0,1,1,0-38.49Z"/><path class="cls-17" d="M4018.59,280.2a12.51,12.51,0,0,0,.68-3.89,12.57,12.57,0,0,0-18.39-11.23,30.1,30.1,0,0,0-53.53,14.09,19.24,19.24,0,0,0,1.93,38.39h62.87a19.23,19.23,0,0,0,6.44-37.36Z"/><path class="cls-17" d="M5783,148.94a24.88,24.88,0,0,0-6.61.92,38.74,38.74,0,0,0-76.75-.79,24.75,24.75,0,0,0,2.48,49.38H5783a24.76,24.76,0,1,0,0-49.51Z"/><path class="cls-17" d="M6186,175.49a24.88,24.88,0,0,0-6.61.92,38.74,38.74,0,0,0-76.75-.79,24.75,24.75,0,0,0,2.48,49.38H6186a24.76,24.76,0,1,0,0-49.51Z"/><path class="cls-17" d="M5375.53,206.51a19.26,19.26,0,0,1,5.13.72,30.12,30.12,0,0,1,59.67-.62A19.24,19.24,0,0,1,5438.4,245h-62.87a19.25,19.25,0,1,1,0-38.49Z"/><path class="cls-17" d="M5845.59,324.2a12.51,12.51,0,0,0,.68-3.89,12.57,12.57,0,0,0-18.39-11.23,30.1,30.1,0,0,0-53.53,14.09,19.24,19.24,0,0,0,1.93,38.39h62.87a19.23,19.23,0,0,0,6.44-37.36Z"/><path class="cls-17" d="M7530,118.94a24.88,24.88,0,0,0-6.61.92,38.74,38.74,0,0,0-76.75-.79,24.75,24.75,0,0,0,2.48,49.38H7530a24.76,24.76,0,1,0,0-49.51Z"/><path class="cls-17" d="M7933,145.49a24.88,24.88,0,0,0-6.61.92,38.74,38.74,0,0,0-76.75-.79,24.75,24.75,0,0,0,2.48,49.38H7933a24.76,24.76,0,1,0,0-49.51Z"/><path class="cls-17" d="M7122.53,176.51a19.26,19.26,0,0,1,5.13.72,30.12,30.12,0,0,1,59.67-.62A19.24,19.24,0,0,1,7185.4,215h-62.87a19.25,19.25,0,1,1,0-38.49Z"/><path class="cls-17" d="M7592.59,294.2a12.51,12.51,0,0,0,.68-3.89,12.57,12.57,0,0,0-18.39-11.23,30.1,30.1,0,0,0-53.53,14.09,19.24,19.24,0,0,0,1.93,38.39h62.87a19.23,19.23,0,0,0,6.44-37.36Z"/><path class="cls-17" d="M9405,154.94a24.88,24.88,0,0,0-6.61.92,38.74,38.74,0,0,0-76.75-.79,24.75,24.75,0,0,0,2.48,49.38H9405a24.76,24.76,0,1,0,0-49.51Z"/><path class="cls-17" d="M9808,181.49a24.88,24.88,0,0,0-6.61.92,38.74,38.74,0,0,0-76.75-.79,24.75,24.75,0,0,0,2.48,49.38H9808a24.76,24.76,0,1,0,0-49.51Z"/><path class="cls-17" d="M8997.53,212.51a19.26,19.26,0,0,1,5.13.72,30.12,30.12,0,0,1,59.67-.62A19.24,19.24,0,0,1,9060.4,251h-62.87a19.25,19.25,0,1,1,0-38.49Z"/><path class="cls-17" d="M9467.59,330.2a12.51,12.51,0,0,0,.68-3.89,12.57,12.57,0,0,0-18.39-11.23,30.1,30.1,0,0,0-53.53,14.09,19.24,19.24,0,0,0,1.93,38.39h62.87a19.23,19.23,0,0,0,6.44-37.36Z"/><path class="cls-17" d="M11310,128.94a24.88,24.88,0,0,0-6.61.92,38.74,38.74,0,0,0-76.75-.79,24.75,24.75,0,0,0,2.48,49.38H11310a24.76,24.76,0,1,0,0-49.51Z"/><path class="cls-17" d="M10902.53,186.51a19.26,19.26,0,0,1,5.13.72,30.12,30.12,0,0,1,59.67-.62,19.24,19.24,0,0,1-1.93,38.39h-62.87a19.25,19.25,0,1,1,0-38.49Z"/><path class="cls-17" d="M11372.59,304.2a12.51,12.51,0,0,0,.68-3.89,12.57,12.57,0,0,0-18.39-11.23,30.1,30.1,0,0,0-53.53,14.09,19.24,19.24,0,0,0,1.93,38.39h62.87a19.23,19.23,0,0,0,6.44-37.36Z"/><polygon class="cls-5" points="137.5 470.5 130.5 489.5 141.5 489.5 141.5 507.5 147.5 489.5 154.5 470.5 137.5 470.5"/><path class="cls-18" d="M206.18,415.5H206V382c-9,0-9-9-9-9h3v-4h-3V344h-6.5V327.75a5,5,0,0,0,0-9.5V285h-3v33.25a5,5,0,0,0,0,9.5V344H183v25h-3v4h3s0,9-9,9v33.5h-.14L135.74,523H244.26Z"/><polygon class="cls-5" points="243 471 250 490 239 490 239 508 233 490 226 471 243 471"/><rect class="cls-19" x="186" y="492" width="8" height="13"/><polygon class="cls-5" points="190 469 204 487 176 487 190 469"/><path class="cls-5" d="M199.91,511.91H181.09V486.09h18.82Zm-16-2.82h13.18V488.91H183.91Z"/><polygon class="cls-20" points="341.25 583 341.25 628 247 628 247 523 134 523 134 841 247 841 271 841 620 841 620 748 620 628 620 583 341.25 583"/><rect class="cls-21" x="246" y="627" width="373" height="4"/><rect class="cls-21" x="341" y="607" width="278" height="4"/><rect class="cls-21" x="260.5" y="662.5" width="163" height="4" transform="translate(1006.5 322.5) rotate(90)"/><rect class="cls-21" x="131" y="652" width="488" height="4"/><rect class="cls-21" x="246" y="676" width="373" height="4"/><rect class="cls-21" x="246" y="701" width="373" height="4"/><path class="cls-5" d="M386.5,620h0A25.5,25.5,0,0,1,412,645.5V748a0,0,0,0,1,0,0H361a0,0,0,0,1,0,0V645.5A25.5,25.5,0,0,1,386.5,620Z"/><path class="cls-5" d="M479.5,620h0A25.5,25.5,0,0,1,505,645.5V748a0,0,0,0,1,0,0H454a0,0,0,0,1,0,0V645.5A25.5,25.5,0,0,1,479.5,620Z"/><path class="cls-5" d="M573.5,620h0A25.5,25.5,0,0,1,599,645.5V748a0,0,0,0,1,0,0H548a0,0,0,0,1,0,0V645.5A25.5,25.5,0,0,1,573.5,620Z"/><rect class="cls-6" x="290" y="780" width="1" height="59"/><rect class="cls-6" x="290" y="790" width="1" height="27" transform="translate(1094 513) rotate(90)"/><path class="cls-5" d="M309.5,692v-2H312v-4h-2.5v-2H305v-5h-4.5a4,4,0,0,0-4-4H284.06a3.56,3.56,0,0,0-3.56,3.56V679H276v5h-4.5v2H269v4h2.5v2H276v10h-4.5v2H269v4h2.5v2H276v8h-4.5v2H269v4h2.5v2H276v8h-4.5v2H269v4h2.5v2h38v-2H312v-4h-2.5v-2H305v-8h4.5v-2H312v-4h-2.5v-2H305v-8h4.5v-2H312v-4h-2.5v-2H305V692Z"/><rect class="cls-6" x="386.5" y="779.5" width="1" height="59"/><rect class="cls-6" x="386.5" y="789.5" width="1" height="27" transform="translate(1190 416) rotate(90)"/><rect class="cls-6" x="479.5" y="779.5" width="1" height="59"/><rect class="cls-6" x="479.5" y="789.5" width="1" height="27" transform="translate(1283 323) rotate(90)"/><rect class="cls-6" x="572.5" y="778.5" width="1" height="59"/><rect class="cls-6" x="572.5" y="788.5" width="1" height="27" transform="translate(1375 229) rotate(90)"/><rect class="cls-21" x="131" y="745" width="488" height="4"/><rect class="cls-21" x="248" y="778" width="372" height="4"/><rect class="cls-21" x="248" y="800" width="372" height="4"/><polygon class="cls-22" points="605 583 342 583 413 478 546 478 605 583"/><path class="cls-5" d="M526,536v3h-7l-24-41V459c-9,0-9-9-9-9h3v-4h-3V421h-6.5V404.75a5,5,0,0,0,0-9.5V362h-3v33.25a5,5,0,0,0,0,9.5V421H472v25h-3v4h3s0,9-9,9v39l-24,41h-7v-3h-3v44H529V536Z"/><path class="cls-19" d="M499,552.5c-.14-3.07-1-10-5.89-15.1-3.74-3.91-9-5.9-15.6-5.9-6.79,0-12.05,2-15.62,5.94-4.34,4.8-4.92,11.11-4.93,14.06H445v25h68v-24Zm11,21H488.5v-18a11.5,11.5,0,0,0-23,0v18H448v-19h12.16l-.17-1.65c0-.08-.74-8,4.12-13.39,3-3.29,7.48-5,13.39-5,5.75,0,10.27,1.67,13.41,5,5.42,5.66,5.1,14.38,5.09,14.47l-.07,1.57H510Z"/><rect class="cls-21" x="332" y="581" width="295" height="4"/><circle class="cls-21" cx="340" cy="764" r="3"/><path class="cls-21" d="M340,771.37a7.37,7.37,0,1,1,7.37-7.37A7.38,7.38,0,0,1,340,771.37Zm0-13a5.63,5.63,0,1,0,5.63,5.63A5.63,5.63,0,0,0,340,758.37Z"/><path class="cls-21" d="M340,775.5A11.5,11.5,0,1,1,351.5,764,11.51,11.51,0,0,1,340,775.5Zm0-20.3a8.8,8.8,0,1,0,8.8,8.8A8.81,8.81,0,0,0,340,755.2Z"/><circle class="cls-21" cx="434" cy="764" r="3"/><path class="cls-21" d="M434,771.37a7.37,7.37,0,1,1,7.37-7.37A7.38,7.38,0,0,1,434,771.37Zm0-13a5.63,5.63,0,1,0,5.63,5.63A5.63,5.63,0,0,0,434,758.37Z"/><path class="cls-21" d="M434,775.5A11.5,11.5,0,1,1,445.5,764,11.51,11.51,0,0,1,434,775.5Zm0-20.3a8.8,8.8,0,1,0,8.8,8.8A8.81,8.81,0,0,0,434,755.2Z"/><circle class="cls-21" cx="527" cy="764" r="3"/><path class="cls-21" d="M527,771.37a7.37,7.37,0,1,1,7.37-7.37A7.38,7.38,0,0,1,527,771.37Zm0-13a5.63,5.63,0,1,0,5.63,5.63A5.63,5.63,0,0,0,527,758.37Z"/><path class="cls-21" d="M527,775.5A11.5,11.5,0,1,1,538.5,764,11.51,11.51,0,0,1,527,775.5Zm0-20.3a8.8,8.8,0,1,0,8.8,8.8A8.81,8.81,0,0,0,527,755.2Z"/><g class="cls-23"><circle class="cls-21" cx="619" cy="764" r="3"/><path class="cls-21" d="M619,771.37a7.37,7.37,0,1,1,7.37-7.37A7.38,7.38,0,0,1,619,771.37Zm0-13a5.63,5.63,0,1,0,5.63,5.63A5.63,5.63,0,0,0,619,758.37Z"/><path class="cls-21" d="M619,775.5A11.5,11.5,0,1,1,630.5,764,11.51,11.51,0,0,1,619,775.5Zm0-20.3a8.8,8.8,0,1,0,8.8,8.8A8.81,8.81,0,0,0,619,755.2Z"/></g><path class="cls-5" d="M214.5,668A12.5,12.5,0,0,0,202,680.5a12.5,12.5,0,0,0-25,0,12.5,12.5,0,0,0-25,0V745h75V680.5A12.5,12.5,0,0,0,214.5,668Z"/><path class="cls-5" d="M214.5,763A12.5,12.5,0,0,0,202,775.5a12.5,12.5,0,0,0-25,0,12.5,12.5,0,0,0-25,0V840h75V775.5A12.5,12.5,0,0,0,214.5,763Z"/><rect class="cls-5" x="162" y="562" width="57" height="57"/><circle class="cls-19" cx="190.5" cy="590.5" r="25.5"/><path class="cls-21" d="M160.23,575.47H146.76V562h13.47ZM149.28,573h8.42v-8.42h-8.42Z"/><path class="cls-21" d="M160.24,590H146.76V576.51h13.47Zm-11-2.52h8.42V579h-8.43Z"/><path class="cls-21" d="M160.24,604.49H146.77V591h13.48Zm-11-2.52h8.43v-8.42h-8.42Z"/><path class="cls-21" d="M160.25,619H146.78V605.53h13.47Zm-10.95-2.52h8.42v-8.42H149.3Z"/><path class="cls-21" d="M159.48,644h-12V621h12Zm-9.72-4.31h7.48V625.31h-7.48Z"/><path class="cls-21" d="M234.23,575.47H220.76V562h13.47ZM223.28,573h8.42v-8.42h-8.42Z"/><path class="cls-21" d="M234.24,590H220.76V576.51h13.47Zm-11-2.52h8.42V579h-8.43Z"/><path class="cls-21" d="M234.24,604.49H220.77V591h13.48Zm-11-2.52h8.43v-8.42h-8.42Z"/><path class="cls-21" d="M234.25,619H220.78V605.53h13.47Zm-10.95-2.52h8.42v-8.42H223.3Z"/><path class="cls-21" d="M233.48,644h-12V621h12Zm-9.72-4.31h7.48V625.31h-7.48Z"/><path class="cls-21" d="M219.48,644h-12V621h12Zm-9.72-4.31h7.48V625.31h-7.48Z"/><path class="cls-21" d="M205.48,644h-12V621h12Zm-9.72-4.31h7.48V625.31h-7.48Z"/><path class="cls-21" d="M190.48,644h-12V621h12Zm-9.72-4.31h7.48V625.31h-7.48Z"/><path class="cls-21" d="M174.48,644h-12V621h12Zm-9.72-4.31h7.48V625.31h-7.48Z"/><path class="cls-21" d="M159.48,560h-12V537h12Zm-9.72-4.31h7.48V541.31h-7.48Z"/><path class="cls-21" d="M233.48,560h-12V537h12Zm-9.72-4.31h7.48V541.31h-7.48Z"/><path class="cls-21" d="M219.48,560h-12V537h12Zm-9.72-4.31h7.48V541.31h-7.48Z"/><path class="cls-21" d="M205.48,560h-12V537h12Zm-9.72-4.31h7.48V541.31h-7.48Z"/><path class="cls-21" d="M190.48,560h-12V537h12Zm-9.72-4.31h7.48V541.31h-7.48Z"/><path class="cls-21" d="M174.48,560h-12V537h12Zm-9.72-4.31h7.48V541.31h-7.48Z"/><rect class="cls-21" x="141.5" y="733.5" width="213" height="4" transform="translate(983.5 487.5) rotate(90)"/><path class="cls-5" d="M309.5,791v-2H312v-4h-2.5v-2H305v-5h-4.5a4,4,0,0,0-4-4H284.06a3.56,3.56,0,0,0-3.56,3.56V778H276v5h-4.5v2H269v4h2.5v2H276v10h-4.5v2H269v4h2.5v2H276v8h-4.5v2H269v4h2.5v2H276v8h-4.5v2H269v4h2.5v2h38v-2H312v-4h-2.5v-2H305v-8h4.5v-2H312v-4h-2.5v-2H305v-8h4.5v-2H312v-4h-2.5v-2H305V791Z"/><path class="cls-5" d="M406,790.5v-2h2.5v-4H406v-2h-4.5v-5H397a4,4,0,0,0-4-4H380.56a3.56,3.56,0,0,0-3.56,3.56v.44h-4.5v5H368v2h-2.5v4H368v2h4.5v10H368v2h-2.5v4H368v2h4.5v8H368v2h-2.5v4H368v2h4.5v8H368v2h-2.5v4H368v2h38v-2h2.5v-4H406v-2h-4.5v-8H406v-2h2.5v-4H406v-2h-4.5v-8H406v-2h2.5v-4H406v-2h-4.5v-10Z"/><path class="cls-5" d="M499,790.5v-2h2.5v-4H499v-2h-4.5v-5H490a4,4,0,0,0-4-4H473.56a3.56,3.56,0,0,0-3.56,3.56v.44h-4.5v5H461v2h-2.5v4H461v2h4.5v10H461v2h-2.5v4H461v2h4.5v8H461v2h-2.5v4H461v2h4.5v8H461v2h-2.5v4H461v2h38v-2h2.5v-4H499v-2h-4.5v-8H499v-2h2.5v-4H499v-2h-4.5v-8H499v-2h2.5v-4H499v-2h-4.5v-10Z"/><path class="cls-5" d="M592,789.5v-2h2.5v-4H592v-2h-4.5v-5H583a4,4,0,0,0-4-4H566.56a3.56,3.56,0,0,0-3.56,3.56v.44h-4.5v5H554v2h-2.5v4H554v2h4.5v10H554v2h-2.5v4H554v2h4.5v8H554v2h-2.5v4H554v2h4.5v8H554v2h-2.5v4H554v2h38v-2h2.5v-4H592v-2h-4.5v-8H592v-2h2.5v-4H592v-2h-4.5v-8H592v-2h2.5v-4H592v-2h-4.5v-10Z"/><g class="cls-24"><polygon class="cls-5" points="822.5 470.5 829.5 489.5 818.5 489.5 818.5 507.5 812.5 489.5 805.5 470.5 822.5 470.5"/><path class="cls-18" d="M753.82,415.5H754V382c9,0,9-9,9-9h-3v-4h3V344h6.5V327.75a5,5,0,0,1,0-9.5V285h3v33.25a5,5,0,0,1,0,9.5V344H777v25h3v4h-3s0,9,9,9v33.5h.14L824.26,523H715.74Z"/><polygon class="cls-5" points="717 471 710 490 721 490 721 508 727 490 734 471 717 471"/><rect class="cls-19" x="766" y="492" width="8" height="13" transform="translate(1540 997) rotate(-180)"/><polygon class="cls-5" points="770 469 756 487 784 487 770 469"/><path class="cls-5" d="M760.09,486.09h18.82v25.82H760.09Zm16,2.82H762.91v20.18h13.18Z"/><polygon class="cls-20" points="618.75 583 618.75 628 713 628 713 523 826 523 826 841 713 841 689 841 340 841 340 748 340 628 340 583 618.75 583"/><rect class="cls-21" x="341" y="627" width="373" height="4" transform="translate(1055 1258) rotate(-180)"/><rect class="cls-21" x="341" y="607" width="278" height="4" transform="translate(960 1218) rotate(-180)"/><rect class="cls-21" x="536.5" y="662.5" width="163" height="4" transform="translate(1282.5 46.5) rotate(90)"/><rect class="cls-21" x="341" y="652" width="488" height="4" transform="translate(1170 1308) rotate(-180)"/><rect class="cls-21" x="341" y="676" width="373" height="4" transform="translate(1055 1356) rotate(-180)"/><rect class="cls-21" x="341" y="701" width="373" height="4" transform="translate(1055 1406) rotate(-180)"/><path class="cls-5" d="M548,620h51a0,0,0,0,1,0,0V722.5A25.5,25.5,0,0,1,573.5,748h0A25.5,25.5,0,0,1,548,722.5V620A0,0,0,0,1,548,620Z" transform="translate(1147 1368) rotate(-180)"/><path class="cls-5" d="M455,620h51a0,0,0,0,1,0,0V722.5A25.5,25.5,0,0,1,480.5,748h0A25.5,25.5,0,0,1,455,722.5V620A0,0,0,0,1,455,620Z" transform="translate(961 1368) rotate(-180)"/><path class="cls-5" d="M361,620h51a0,0,0,0,1,0,0V722.5A25.5,25.5,0,0,1,386.5,748h0A25.5,25.5,0,0,1,361,722.5V620A0,0,0,0,1,361,620Z" transform="translate(773 1368) rotate(-180)"/><rect class="cls-6" x="669" y="780" width="1" height="59" transform="translate(1339 1619) rotate(-180)"/><rect class="cls-6" x="669" y="790" width="1" height="27" transform="translate(1473 134) rotate(90)"/><path class="cls-5" d="M650.5,692v-2H648v-4h2.5v-2H655v-5h4.5a4,4,0,0,1,4-4h12.44a3.56,3.56,0,0,1,3.56,3.56V679H684v5h4.5v2H691v4h-2.5v2H684v10h4.5v2H691v4h-2.5v2H684v8h4.5v2H691v4h-2.5v2H684v8h4.5v2H691v4h-2.5v2h-38v-2H648v-4h2.5v-2H655v-8h-4.5v-2H648v-4h2.5v-2H655v-8h-4.5v-2H648v-4h2.5v-2H655V692Z"/><rect class="cls-6" x="572.5" y="779.5" width="1" height="59" transform="translate(1146 1618) rotate(-180)"/><rect class="cls-6" x="572.5" y="789.5" width="1" height="27" transform="translate(1376 230) rotate(90)"/><rect class="cls-6" x="479.5" y="779.5" width="1" height="59" transform="translate(960 1618) rotate(-180)"/><rect class="cls-6" x="479.5" y="789.5" width="1" height="27" transform="translate(1283 323) rotate(90)"/><rect class="cls-6" x="386.5" y="778.5" width="1" height="59" transform="translate(774 1616) rotate(-180)"/><rect class="cls-6" x="386.5" y="788.5" width="1" height="27" transform="translate(1189 415) rotate(90)"/><rect class="cls-21" x="341" y="745" width="488" height="4" transform="translate(1170 1494) rotate(-180)"/><rect class="cls-21" x="340" y="778" width="372" height="4" transform="translate(1052 1560) rotate(-180)"/><rect class="cls-21" x="340" y="800" width="372" height="4" transform="translate(1052 1604) rotate(-180)"/><polygon class="cls-22" points="355 583 618 583 547 478 414 478 355 583"/><path class="cls-5" d="M434,536v3h7l24-41V459c9,0,9-9,9-9h-3v-4h3V421h6.5V404.75a5,5,0,0,1,0-9.5V362h3v33.25a5,5,0,0,1,0,9.5V421H488v25h3v4h-3s0,9,9,9v39l24,41h7v-3h3v44H431V536Z"/><path class="cls-19" d="M447,552.5v24h68v-25H503.05c0-3-.59-9.26-4.93-14.06-3.57-3.94-8.83-5.94-15.62-5.94-6.62,0-11.86,2-15.6,5.9-4.87,5.11-5.75,12-5.89,15.1Zm3,3h14.07l-.07-1.57c0-.09-.33-8.81,5.09-14.47,3.14-3.29,7.66-5,13.41-5,5.91,0,10.42,1.67,13.39,5,4.86,5.36,4.13,13.31,4.12,13.39l-.17,1.65H512v19H494.5v-18a11.5,11.5,0,0,0-23,0v18H450Z"/><rect class="cls-21" x="333" y="581" width="295" height="4" transform="translate(961 1166) rotate(-180)"/><circle class="cls-21" cx="620" cy="764" r="3"/><path class="cls-21" d="M612.63,764a7.37,7.37,0,1,1,7.37,7.37A7.38,7.38,0,0,1,612.63,764Zm1.74,0a5.63,5.63,0,1,0,5.63-5.63A5.63,5.63,0,0,0,614.37,764Z"/><path class="cls-21" d="M608.5,764A11.5,11.5,0,1,1,620,775.5,11.51,11.51,0,0,1,608.5,764Zm2.7,0a8.8,8.8,0,1,0,8.8-8.8A8.81,8.81,0,0,0,611.2,764Z"/><circle class="cls-21" cx="526" cy="764" r="3"/><path class="cls-21" d="M518.63,764a7.37,7.37,0,1,1,7.37,7.37A7.38,7.38,0,0,1,518.63,764Zm1.74,0a5.63,5.63,0,1,0,5.63-5.63A5.63,5.63,0,0,0,520.37,764Z"/><path class="cls-21" d="M514.5,764A11.5,11.5,0,1,1,526,775.5,11.51,11.51,0,0,1,514.5,764Zm2.7,0a8.8,8.8,0,1,0,8.8-8.8A8.81,8.81,0,0,0,517.2,764Z"/><circle class="cls-21" cx="433" cy="764" r="3"/><path class="cls-21" d="M425.63,764a7.37,7.37,0,1,1,7.37,7.37A7.38,7.38,0,0,1,425.63,764Zm1.74,0a5.63,5.63,0,1,0,5.63-5.63A5.63,5.63,0,0,0,427.37,764Z"/><path class="cls-21" d="M421.5,764A11.5,11.5,0,1,1,433,775.5,11.51,11.51,0,0,1,421.5,764Zm2.7,0a8.8,8.8,0,1,0,8.8-8.8A8.81,8.81,0,0,0,424.2,764Z"/><g class="cls-25"><circle class="cls-21" cx="341" cy="764" r="3"/><path class="cls-21" d="M333.63,764a7.37,7.37,0,1,1,7.37,7.37A7.38,7.38,0,0,1,333.63,764Zm1.74,0a5.63,5.63,0,1,0,5.63-5.63A5.63,5.63,0,0,0,335.37,764Z"/><path class="cls-21" d="M329.5,764A11.5,11.5,0,1,1,341,775.5,11.51,11.51,0,0,1,329.5,764Zm2.7,0a8.8,8.8,0,1,0,8.8-8.8A8.81,8.81,0,0,0,332.2,764Z"/></g><path class="cls-5" d="M745.5,668A12.5,12.5,0,0,1,758,680.5a12.5,12.5,0,0,1,25,0,12.5,12.5,0,0,1,25,0V745H733V680.5A12.5,12.5,0,0,1,745.5,668Z"/><path class="cls-5" d="M745.5,763A12.5,12.5,0,0,1,758,775.5a12.5,12.5,0,0,1,25,0,12.5,12.5,0,0,1,25,0V840H733V775.5A12.5,12.5,0,0,1,745.5,763Z"/><rect class="cls-5" x="741" y="562" width="57" height="57" transform="translate(1539 1181) rotate(-180)"/><circle class="cls-19" cx="769.5" cy="590.5" r="25.5"/><path class="cls-21" d="M799.78,562h13.47v13.48H799.77Zm10.94,2.53H802.3v8.42h8.42Z"/><path class="cls-21" d="M799.77,576.51h13.47V590H799.76Zm11,2.53h-8.43v8.42h8.42Z"/><path class="cls-21" d="M799.76,591h13.48v13.47H799.76Zm11,2.53h-8.42V602h8.43Z"/><path class="cls-21" d="M799.76,605.52h13.47V619H799.75Zm10.94,2.54h-8.42v8.42h8.42Z"/><path class="cls-21" d="M800.52,621h12v23h-12Zm9.72,4.31h-7.48v14.38h7.48Z"/><path class="cls-21" d="M725.78,562h13.47v13.48H725.77Zm10.94,2.53H728.3v8.42h8.42Z"/><path class="cls-21" d="M725.77,576.51h13.47V590H725.76Zm11,2.53h-8.43v8.42h8.42Z"/><path class="cls-21" d="M725.76,591h13.48v13.47H725.76Zm11,2.53h-8.42V602h8.43Z"/><path class="cls-21" d="M725.76,605.52h13.47V619H725.75Zm10.94,2.54h-8.42v8.42h8.42Z"/><path class="cls-21" d="M726.52,621h12v23h-12Zm9.72,4.31h-7.48v14.38h7.48Z"/><path class="cls-21" d="M740.52,621h12v23h-12Zm9.72,4.31h-7.48v14.38h7.48Z"/><path class="cls-21" d="M754.52,621h12v23h-12Zm9.72,4.31h-7.48v14.38h7.48Z"/><path class="cls-21" d="M769.52,621h12v23h-12Zm9.72,4.31h-7.48v14.38h7.48Z"/><path class="cls-21" d="M785.52,621h12v23h-12Zm9.72,4.31h-7.48v14.38h7.48Z"/><path class="cls-21" d="M800.52,537h12v23h-12Zm9.72,4.31h-7.48v14.38h7.48Z"/><path class="cls-21" d="M726.52,537h12v23h-12Zm9.72,4.31h-7.48v14.38h7.48Z"/><path class="cls-21" d="M740.52,537h12v23h-12Zm9.72,4.31h-7.48v14.38h7.48Z"/><path class="cls-21" d="M754.52,537h12v23h-12Zm9.72,4.31h-7.48v14.38h7.48Z"/><path class="cls-21" d="M769.52,537h12v23h-12Zm9.72,4.31h-7.48v14.38h7.48Z"/><path class="cls-21" d="M785.52,537h12v23h-12Zm9.72,4.31h-7.48v14.38h7.48Z"/><rect class="cls-21" x="605.5" y="733.5" width="213" height="4" transform="translate(1447.5 23.5) rotate(90)"/><path class="cls-5" d="M650.5,791v-2H648v-4h2.5v-2H655v-5h4.5a4,4,0,0,1,4-4h12.44a3.56,3.56,0,0,1,3.56,3.56V778H684v5h4.5v2H691v4h-2.5v2H684v10h4.5v2H691v4h-2.5v2H684v8h4.5v2H691v4h-2.5v2H684v8h4.5v2H691v4h-2.5v2h-38v-2H648v-4h2.5v-2H655v-8h-4.5v-2H648v-4h2.5v-2H655v-8h-4.5v-2H648v-4h2.5v-2H655V791Z"/><path class="cls-5" d="M554,790.5v-2h-2.5v-4H554v-2h4.5v-5H563a4,4,0,0,1,4-4h12.44a3.56,3.56,0,0,1,3.56,3.56v.44h4.5v5H592v2h2.5v4H592v2h-4.5v10H592v2h2.5v4H592v2h-4.5v8H592v2h2.5v4H592v2h-4.5v8H592v2h2.5v4H592v2H554v-2h-2.5v-4H554v-2h4.5v-8H554v-2h-2.5v-4H554v-2h4.5v-8H554v-2h-2.5v-4H554v-2h4.5v-10Z"/><path class="cls-5" d="M461,790.5v-2h-2.5v-4H461v-2h4.5v-5H470a4,4,0,0,1,4-4h12.44a3.56,3.56,0,0,1,3.56,3.56v.44h4.5v5H499v2h2.5v4H499v2h-4.5v10H499v2h2.5v4H499v2h-4.5v8H499v2h2.5v4H499v2h-4.5v8H499v2h2.5v4H499v2H461v-2h-2.5v-4H461v-2h4.5v-8H461v-2h-2.5v-4H461v-2h4.5v-8H461v-2h-2.5v-4H461v-2h4.5v-10Z"/><path class="cls-5" d="M368,789.5v-2h-2.5v-4H368v-2h4.5v-5H377a4,4,0,0,1,4-4h12.44a3.56,3.56,0,0,1,3.56,3.56v.44h4.5v5H406v2h2.5v4H406v2h-4.5v10H406v2h2.5v4H406v2h-4.5v8H406v2h2.5v4H406v2h-4.5v8H406v2h2.5v4H406v2H368v-2h-2.5v-4H368v-2h4.5v-8H368v-2h-2.5v-4H368v-2h4.5v-8H368v-2h-2.5v-4H368v-2h4.5v-10Z"/></g><path class="cls-26" d="M450.61,154.68c0,17.84-14.47,57.75-32.31,57.75S386,172.52,386,154.68a32.31,32.31,0,1,1,64.61,0Z"/><circle class="cls-6" cx="418.3" cy="154.65" r="20.06"/><text class="cls-27" transform="translate(332.2 256.27)">Amsterdam <tspan x="-35.59" y="43.2">Centraal Station</tspan></text><line class="cls-28" x1="425" y1="312" x2="425" y2="508.5"/><path class="cls-26" d="M11210.61,216.68c0,17.84-14.47,57.75-32.31,57.75s-32.3-39.91-32.3-57.75a32.31,32.31,0,1,1,64.61,0Z"/><circle class="cls-6" cx="11178.3" cy="216.65" r="20.06"/><text class="cls-27" transform="translate(11102.35 318.27)">Volkshotel</text><line class="cls-28" x1="11185" y1="331" x2="11185" y2="525.5"/></svg>