<svg xmlns="http://www.w3.org/2000/svg" viewBox="0 0 238.49 151.68"><defs><style>.cls-1{fill:#fff;}.cls-2{fill:#333;}.cls-3{fill:#fe5f55;}.cls-4{fill:#f7b029;}.cls-5{fill:#e8e8e8;}.cls-6{fill:#fc3732;}</style></defs><title>Asset 2</title><g id="Layer_2" data-name="Layer 2"><g id="Layer_1-2" data-name="Layer 1"><path class="cls-1" d="M157.2,22.11,153.39,10.2a7.82,7.82,0,0,1,8-10.18l19,1.32-.69,10-15.77-1.1,2.83,8.84Z"/><path class="cls-2" d="M195.35,111.52a2.68,2.68,0,0,1-2.49-1.73L160,21.76a2.64,2.64,0,0,1,.07-2,2.67,2.67,0,0,1,1.49-1.39,2.73,2.73,0,0,1,.93-.17,2.65,2.65,0,0,1,2.49,1.73l32.91,88a2.65,2.65,0,0,1-.07,2,2.61,2.61,0,0,1-1.49,1.39A2.69,2.69,0,0,1,195.35,111.52Z"/><path class="cls-3" d="M42.46,112.93a3.08,3.08,0,0,1-1.56-.42,3.14,3.14,0,0,1-1.16-4.28L80.56,37.05A3.14,3.14,0,1,1,86,40.18L45.19,111.35A3.15,3.15,0,0,1,42.46,112.93Z"/><path class="cls-3" d="M102.51,113.22a3.13,3.13,0,0,1-3-2.33L80.4,39.36a3.15,3.15,0,0,1,3-4h84.63a3.14,3.14,0,1,1,0,6.28H87.53l16.66,62.49,64.2-60.45a3.14,3.14,0,1,1,4.3,4.57l-68,64.07A3.2,3.2,0,0,1,102.51,113.22Z"/><path class="cls-2" d="M187.06,109.73a8.81,8.81,0,1,0,8.8-8.8A8.81,8.81,0,0,0,187.06,109.73Z"/><path class="cls-2" d="M34.24,109.73a8.8,8.8,0,1,0,8.8-8.8A8.81,8.81,0,0,0,34.24,109.73Z"/><path class="cls-4" d="M83.47,40.86a3.13,3.13,0,0,1-3.14-3.14V22.86a3.14,3.14,0,1,1,6.28,0V37.72A3.14,3.14,0,0,1,83.47,40.86Z"/><path class="cls-3" d="M179.34,57l-14-37.31a3.14,3.14,0,0,0-5.89,2.2l14.06,37.62A23.22,23.22,0,0,1,179.34,57Z"/><path class="cls-5" d="M42.62,66.44a42.62,42.62,0,1,0,42.63,42.62A42.62,42.62,0,0,0,42.62,66.44Zm0,76.57a33.95,33.95,0,1,1,33.95-33.95A34,34,0,0,1,42.62,143Z"/><path class="cls-5" d="M195.86,66.44a42.62,42.62,0,1,0,42.63,42.62A42.62,42.62,0,0,0,195.86,66.44Zm0,76.57a33.95,33.95,0,1,1,33.95-33.95A34,34,0,0,1,195.86,143Z"/><path class="cls-3" d="M83.47,40.86a3.13,3.13,0,0,1-3.14-3.14V22.86a3.14,3.14,0,1,1,6.28,0V37.72A3.14,3.14,0,0,1,83.47,40.86Z"/><path class="cls-2" d="M107.91,133a2.18,2.18,0,0,1-2.11-1.65l-5.32-21.1a2.18,2.18,0,1,1,4.22-1.06l5.32,21.1a2.18,2.18,0,0,1-1.58,2.64A2,2,0,0,1,107.91,133Z"/><path class="cls-2" d="M114.36,126.61l-14.13,3.75a3.66,3.66,0,0,0-2.59,4.47h0a3.65,3.65,0,0,0,4.46,2.58l14.13-3.75a3.65,3.65,0,0,0,2.59-4.46h0A3.65,3.65,0,0,0,114.36,126.61Z"/><rect class="cls-6" x="159.11" y="13.11" width="5.31" height="12.52" rx="2.39" transform="translate(128.81 -140.18) rotate(71.5)"/><rect class="cls-6" x="173.69" y="51.51" width="5.31" height="12.52" rx="2.39" transform="translate(175.15 -127.79) rotate(71.49)"/><path class="cls-1" d="M60.05,16a2.74,2.74,0,0,1,3.16-4.17A36.16,36.16,0,0,0,77,13.64l1.43,0,5.15-.08,17.29-.3a2.68,2.68,0,0,1,1.54.43c2.36,1.62,4.09,6.64,4.09,6.64H96.33A22,22,0,0,0,84.73,23,12.38,12.38,0,0,0,83,24.23a12.41,12.41,0,0,1-3,1.22C69.86,28,60.12,16.13,60.12,16.13Z"/></g></g></svg>