<svg xmlns="http://www.w3.org/2000/svg" viewBox="0 0 358.12 503.27"><defs><style>.cls-1,.cls-2{fill:none;stroke-miterlimit:10;}.cls-1{stroke:#f7931e;stroke-width:4.13px;}.cls-2{stroke:#fff;stroke-width:2.78px;}.cls-3{fill:#e57d15;}.cls-4{fill:#ffb655;}.cls-5{fill:#fff;}.cls-6{fill:#f5f5f5;}</style></defs><title>FINAL_TOPPER</title><g id="Layer_2" data-name="Layer 2"><g id="Layer_1-2" data-name="Layer 1"><line class="cls-1" x1="164.37" y1="99.95" x2="156.67" y2="71.19"/><line class="cls-1" x1="139.22" y1="114.56" x2="118.17" y2="93.51"/><line class="cls-1" x1="124.75" y1="139.78" x2="95.99" y2="132.08"/><line class="cls-1" x1="124.83" y1="168.87" x2="96.07" y2="176.58"/><line class="cls-1" x1="139.44" y1="194.02" x2="118.39" y2="215.07"/><line class="cls-1" x1="164.67" y1="208.49" x2="156.96" y2="237.25"/><line class="cls-1" x1="193.75" y1="208.41" x2="201.46" y2="237.17"/><line class="cls-1" x1="218.9" y1="193.8" x2="239.95" y2="214.85"/><line class="cls-1" x1="233.37" y1="168.57" x2="262.13" y2="176.28"/><line class="cls-1" x1="233.29" y1="139.49" x2="262.05" y2="131.78"/><line class="cls-1" x1="218.68" y1="114.34" x2="239.73" y2="93.29"/><line class="cls-1" x1="193.46" y1="99.87" x2="201.16" y2="71.11"/><line class="cls-2" x1="178.91" y1="51.39" x2="178.91" y2="97.99"/><line class="cls-2" x1="127.54" y1="65.24" x2="150.83" y2="105.6"/><line class="cls-2" x1="89.97" y1="102.92" x2="130.33" y2="126.22"/><line class="cls-2" x1="76.28" y1="154.33" x2="122.87" y2="154.33"/><line class="cls-2" x1="90.12" y1="205.7" x2="130.48" y2="182.41"/><line class="cls-2" x1="127.8" y1="243.27" x2="151.1" y2="202.91"/><line class="cls-2" x1="179.22" y1="256.96" x2="179.22" y2="210.37"/><line class="cls-2" x1="230.59" y1="243.12" x2="207.29" y2="202.76"/><line class="cls-2" x1="268.15" y1="205.44" x2="227.8" y2="182.14"/><line class="cls-2" x1="281.85" y1="154.02" x2="235.25" y2="154.02"/><line class="cls-2" x1="268" y1="102.65" x2="227.64" y2="125.95"/><line class="cls-2" x1="230.32" y1="65.09" x2="207.02" y2="105.44"/><path class="cls-3" d="M33.79,308.09c0-.36,0-.81,0-1.35s0-1.18,0-1.93,0-1.42,0-2,0-1,0-1.35a10.5,10.5,0,0,1,1-4.28,8.25,8.25,0,0,1,2.42-3,9.94,9.94,0,0,1,3.52-1.7,16.71,16.71,0,0,1,4.32-.54,20,20,0,0,1,2.74.2,13.87,13.87,0,0,1,2.72.67A11.51,11.51,0,0,1,53,294.12,7.83,7.83,0,0,1,55,296a5.9,5.9,0,0,1,1.41,3.57.73.73,0,0,1-.22.54.85.85,0,0,1-.57.25H50a1.33,1.33,0,0,1-.57-.14,3.05,3.05,0,0,1-.36-.36A3.52,3.52,0,0,0,47.5,298a5,5,0,0,0-2.45-.56q-4.14,0-4.32,4.28c0,.34,0,.76,0,1.28s0,1.12,0,1.82,0,1.3,0,1.82,0,.95,0,1.31a5.17,5.17,0,0,0,1.19,3.4q1.08,1.14,3.75,1.14a10.47,10.47,0,0,0,1.4-.08,4.77,4.77,0,0,0,.92-.19,2.91,2.91,0,0,0,.66-.33,4.77,4.77,0,0,0,.58-.45,3.14,3.14,0,0,0,1-1.76,2.47,2.47,0,0,1,.47-1,3.3,3.3,0,0,1,.7-.61,3.44,3.44,0,0,1,.74-.34,2.32,2.32,0,0,1,.61-.11H46.42a.88.88,0,0,1-.65-.29.87.87,0,0,1-.28-.64v-.62a3.18,3.18,0,0,1,.21-1.13,3.58,3.58,0,0,1,.61-1,3,3,0,0,1,1-.72,3.07,3.07,0,0,1,1.33-.27H54a2.41,2.41,0,0,1,1.92.7,2.82,2.82,0,0,1,.6,1.89v2.52a9.79,9.79,0,0,1-.92,4.4,8.44,8.44,0,0,1-2.49,3,10.58,10.58,0,0,1-3.63,1.76,16,16,0,0,1-4.38.58,15.75,15.75,0,0,1-4.39-.58,10,10,0,0,1-3.51-1.76,8.46,8.46,0,0,1-2.37-3A11.06,11.06,0,0,1,33.79,308.09Z"/><path class="cls-3" d="M60.57,316.48V295.42a2.94,2.94,0,0,1,.94-2.25,3.07,3.07,0,0,1,2.19-.88H78.39a.9.9,0,0,1,.65.28.92.92,0,0,1,.29.65v3.57a.74.74,0,0,1-.29.61.88.88,0,0,1-.65.25H65.07a1.82,1.82,0,0,1,1.42.61,2,2,0,0,1,.56,1.33v1.52a1.2,1.2,0,0,0,.29.75,1,1,0,0,0,.83.36H76a.83.83,0,0,1,.93.94v3.24a.82.82,0,0,1-.93.93H65.07a1.92,1.92,0,0,1,1.4.58,1.77,1.77,0,0,1,.58,1.3v1.69a1.1,1.1,0,0,0,.31.75,1,1,0,0,0,.81.36H78.68a.9.9,0,0,1,.66.27.92.92,0,0,1,.27.67v3.53a.83.83,0,0,1-.28.65,1,1,0,0,1-.65.25H61.47a.92.92,0,0,1-.65-.25A.88.88,0,0,1,60.57,316.48Z"/><path class="cls-3" d="M83.57,316.44V295.38a3,3,0,0,1,.27-1.26,3.38,3.38,0,0,1,.71-1,3.26,3.26,0,0,1,1-.65,3.19,3.19,0,0,1,1.16-.23h14.43a1,1,0,0,1,.94.94V297a.71.71,0,0,1-.29.61.87.87,0,0,1-.65.26h-13a2,2,0,0,1,1.39.57,1.87,1.87,0,0,1,.59,1.37v3.06H98.8a.83.83,0,0,1,.94.94v3.78a.88.88,0,0,1-.25.66,1,1,0,0,1-.69.24H88.18a2,2,0,0,1,1.35.54,1.71,1.71,0,0,1,.63,1.36v6.05a.87.87,0,0,1-.25.65.8.8,0,0,1-.65.25H84.47a.84.84,0,0,1-.64-.25A.87.87,0,0,1,83.57,316.44Z"/><path class="cls-3" d="M105.68,316.48V295.42a3,3,0,0,1,.93-2.25,3.11,3.11,0,0,1,2.2-.88H123.5a1,1,0,0,1,.93.93v3.57a.73.73,0,0,1-.28.61.88.88,0,0,1-.65.25H110.18a1.83,1.83,0,0,1,1.42.61,2,2,0,0,1,.56,1.33v1.52a1.19,1.19,0,0,0,.28.75,1,1,0,0,0,.83.36h7.81a.83.83,0,0,1,.94.94v3.24a.83.83,0,0,1-.94.93h-10.9a1.92,1.92,0,0,1,1.4.58,1.81,1.81,0,0,1,.58,1.3v1.69a1.14,1.14,0,0,0,.3.75,1,1,0,0,0,.81.36h10.51a.9.9,0,0,1,.67.27.92.92,0,0,1,.27.67v3.53a.84.84,0,0,1-.29.65,1,1,0,0,1-.65.25h-17.2a.91.91,0,0,1-.65-.25A.88.88,0,0,1,105.68,316.48Z"/><path class="cls-3" d="M128.82,316.44V295.35a2.91,2.91,0,0,1,.27-1.26,3.09,3.09,0,0,1,.71-1,3.4,3.4,0,0,1,1-.63,3.19,3.19,0,0,1,1.16-.23h2.77a.81.81,0,0,1,.65.25.92.92,0,0,1,.25.65v17.46a1.24,1.24,0,0,0,.29.7.9.9,0,0,0,.79.42h9.68a1,1,0,0,1,.65.25.83.83,0,0,1,.29.65v3.81a.83.83,0,0,1-.29.65,1,1,0,0,1-.65.25H129.72a.92.92,0,0,1-.9-.9Z"/><path class="cls-3" d="M150.35,316.55V295.49a2.94,2.94,0,0,1,.94-2.25,3.07,3.07,0,0,1,2.19-.88h2.88a.8.8,0,0,1,.65.25.87.87,0,0,1,.25.65v23.29a.88.88,0,0,1-.25.65.8.8,0,0,1-.65.25h-5.11a.88.88,0,0,1-.65-.25A.92.92,0,0,1,150.35,316.55Z"/><path class="cls-3" d="M161.44,308.09c0-.34,0-.76,0-1.28V303c0-.52,0-1,0-1.29a10.74,10.74,0,0,1,.95-4.32,8.7,8.7,0,0,1,2.36-3,10.19,10.19,0,0,1,3.49-1.78,15.63,15.63,0,0,1,4.36-.59,16.76,16.76,0,0,1,4.05.5,11.18,11.18,0,0,1,3.58,1.59,8.67,8.67,0,0,1,2.58,2.71,7.65,7.65,0,0,1,1,3.91.73.73,0,0,1-.21.54.89.89,0,0,1-.58.22H178a1.14,1.14,0,0,1-.77-.22,1.51,1.51,0,0,1-.38-.72,4.24,4.24,0,0,0-1.46-2.41,4.59,4.59,0,0,0-2.75-.72c-2.71,0-4.12,1.5-4.21,4.5,0,.33,0,.74,0,1.22v3.53c0,.5,0,.92,0,1.26.12,3,1.52,4.54,4.21,4.54a4.86,4.86,0,0,0,2.7-.72,4.3,4.3,0,0,0,1.51-2.45,1.28,1.28,0,0,1,.4-.72,1.17,1.17,0,0,1,.75-.22H183a.84.84,0,0,1,.58.22.73.73,0,0,1,.21.54,7.72,7.72,0,0,1-1,4,8.58,8.58,0,0,1-2.61,2.72,11.39,11.39,0,0,1-3.58,1.54,16.47,16.47,0,0,1-4,.49,15.64,15.64,0,0,1-4.41-.58,9.72,9.72,0,0,1-3.47-1.76,8.28,8.28,0,0,1-2.34-3A10.9,10.9,0,0,1,161.44,308.09Z"/><path class="cls-3" d="M187.5,316.55V295.49a3,3,0,0,1,.94-2.25,3.09,3.09,0,0,1,2.2-.88h2.88a.79.79,0,0,1,.64.25.87.87,0,0,1,.26.65v23.29a.89.89,0,0,1-.26.65.79.79,0,0,1-.64.25H188.4a.84.84,0,0,1-.64-.25A.89.89,0,0,1,187.5,316.55Z"/><path class="cls-3" d="M218.1,292.25a.83.83,0,0,1,.94.94v4a.8.8,0,0,1-.25.65.93.93,0,0,1-.69.25h-8.31a2,2,0,0,1,1.4.58,1.72,1.72,0,0,1,.61,1.29v16.49a.87.87,0,0,1-.25.67,1,1,0,0,1-.68.23h-5a1,1,0,0,1-.65-.25.83.83,0,0,1-.29-.65V299.2a1,1,0,0,0-.34-.81,1.06,1.06,0,0,0-.74-.31h-5.22a.92.92,0,0,1-.68-.25.8.8,0,0,1-.25-.65v-1.83a2.82,2.82,0,0,1,1-2.25,3.19,3.19,0,0,1,2.16-.85Z"/><path class="cls-3" d="M222.24,316.48V295.42a2.94,2.94,0,0,1,.94-2.25,3.07,3.07,0,0,1,2.2-.88h14.68a.9.9,0,0,1,.65.28.92.92,0,0,1,.29.65v3.57a.74.74,0,0,1-.29.61.87.87,0,0,1-.65.25H226.74a1.85,1.85,0,0,1,1.43.61,1.94,1.94,0,0,1,.55,1.33v1.52a1.2,1.2,0,0,0,.29.75,1,1,0,0,0,.83.36h7.81a.83.83,0,0,1,.94.94v3.24a.83.83,0,0,1-.94.93H226.74a2,2,0,0,1,1.41.58,1.8,1.8,0,0,1,.57,1.3v1.69a1.15,1.15,0,0,0,.31.75,1,1,0,0,0,.81.36h10.51a.9.9,0,0,1,.67.27.92.92,0,0,1,.27.67v3.53a.84.84,0,0,1-.29.65,1,1,0,0,1-.65.25H223.14a.87.87,0,0,1-.9-.9Z"/><path class="cls-3" d="M245.35,316.48V295.42a3,3,0,0,1,.94-2.25,3.11,3.11,0,0,1,2.2-.88h14.69a1,1,0,0,1,.93.93v3.57a.71.71,0,0,1-.29.61.86.86,0,0,1-.64.25H249.85a1.85,1.85,0,0,1,1.43.61,1.94,1.94,0,0,1,.55,1.33v1.52a1.2,1.2,0,0,0,.29.75,1,1,0,0,0,.83.36h7.81a.83.83,0,0,1,.94.94v3.24a.83.83,0,0,1-.94.93H249.85a1.92,1.92,0,0,1,1.41.58,1.8,1.8,0,0,1,.57,1.3v1.69a1.15,1.15,0,0,0,.31.75,1,1,0,0,0,.81.36h10.51a.9.9,0,0,1,.67.27.92.92,0,0,1,.27.67v3.53a.84.84,0,0,1-.29.65,1,1,0,0,1-.65.25H246.25a.87.87,0,0,1-.9-.9Z"/><path class="cls-3" d="M289.63,317.16a.7.7,0,0,1-.54.22h-5a1.51,1.51,0,0,1-1.47-1l-3.64-7.2a1,1,0,0,0-1-.58h-4.75a1.79,1.79,0,0,1,1.46.65,2.06,2.06,0,0,1,.52,1.26v5.94a.87.87,0,0,1-.25.66,1,1,0,0,1-.69.24h-4.89a.91.91,0,0,1-.65-.25.88.88,0,0,1-.25-.65V295.42a3,3,0,0,1,.93-2.23,3.09,3.09,0,0,1,2.2-.9h7.63a15.88,15.88,0,0,1,3.83.45,9.19,9.19,0,0,1,3.19,1.42,7.25,7.25,0,0,1,2.2,2.54,8,8,0,0,1,.82,3.79,8.14,8.14,0,0,1-.91,3.93,7,7,0,0,1-2.9,2.77.6.6,0,0,0-.29.47.82.82,0,0,0,.07.39l4.5,8.18a.89.89,0,0,1,.11.39A.88.88,0,0,1,289.63,317.16Zm-7.3-16.7a2.9,2.9,0,0,0-.85-2.25,3.24,3.24,0,0,0-2.29-.78H273a1.77,1.77,0,0,1,1.41.63,2,2,0,0,1,.54,1.32v2.88a1.09,1.09,0,0,0,1.11,1.11h3.13a3.42,3.42,0,0,0,2.29-.72A2.73,2.73,0,0,0,282.33,300.46Z"/><path class="cls-3" d="M293.31,316.55V295.49a2.92,2.92,0,0,1,.95-2.25,3.11,3.11,0,0,1,2.18-.88h7.2a16.36,16.36,0,0,1,4.44.56,9.77,9.77,0,0,1,3.55,1.76,8.33,8.33,0,0,1,2.38,3.06,11.29,11.29,0,0,1,.93,4.41c0,.34,0,.74,0,1.21v3.07c0,.46,0,.86,0,1.19q-.31,9.83-11.12,9.83h-9.61a.87.87,0,0,1-.65-.25A.88.88,0,0,1,293.31,316.55Zm10.33-4.46A4.38,4.38,0,0,0,307,311a4.94,4.94,0,0,0,1.08-3.4c0-.34,0-.73.06-1.17s0-.94,0-1.49,0-1.05,0-1.5,0-.83-.06-1.17q-.11-4.5-4.64-4.5h-5.4a1.86,1.86,0,0,1,1.4.6,1.78,1.78,0,0,1,.58,1.27V311a1.11,1.11,0,0,0,.3.79,1.07,1.07,0,0,0,.81.33Z"/><path class="cls-3" d="M318.58,320.15a.65.65,0,0,1-.52-.23.71.71,0,0,1-.17-.56l1.12-7.24a1.69,1.69,0,0,1,.4-.88,1.15,1.15,0,0,1,.93-.38h4.36a.75.75,0,0,1,.72.72,1.24,1.24,0,0,1-.07.4l-2.81,7.16a1.38,1.38,0,0,1-1.33,1Z"/><path class="cls-3" d="M20.2,335.45a.83.83,0,0,1,.93.94v14.94a9.9,9.9,0,0,1-.83,4.24,8.26,8.26,0,0,1-2.26,3,9.61,9.61,0,0,1-3.39,1.77,14.75,14.75,0,0,1-4.17.57,15.32,15.32,0,0,1-3.82-.48,10.14,10.14,0,0,1-3.33-1.52A8.21,8.21,0,0,1,1,356.31,7.38,7.38,0,0,1,0,352.62a.82.82,0,0,1,.22-.57.7.7,0,0,1,.54-.22H5.87a1.17,1.17,0,0,1,.79.22,1.85,1.85,0,0,1,.47.79c.38,1.78,1.56,2.66,3.53,2.66a3.61,3.61,0,0,0,1.69-.36,3,3,0,0,0,1.08-.95A4.24,4.24,0,0,0,14,352.8a7.62,7.62,0,0,0,.18-1.69v-8.17a2.1,2.1,0,0,1,2-1.95H2.7a.88.88,0,0,1-.65-.25.85.85,0,0,1-.25-.65v-1.51A3.13,3.13,0,0,1,2,337.41a3.63,3.63,0,0,1,.63-1,3.06,3.06,0,0,1,1-.7,2.91,2.91,0,0,1,1.26-.27Z"/><path class="cls-3" d="M26,359.68V338.62a3,3,0,0,1,.93-2.25,3.11,3.11,0,0,1,2.2-.88H43.78a.87.87,0,0,1,.64.28.88.88,0,0,1,.29.65V340a.71.71,0,0,1-.29.61.84.84,0,0,1-.64.25H30.46a1.83,1.83,0,0,1,1.42.61,2,2,0,0,1,.56,1.33v1.52a1.19,1.19,0,0,0,.28.75,1,1,0,0,0,.83.36h7.81a.83.83,0,0,1,.94.94v3.24a.83.83,0,0,1-.94.93H30.46a1.92,1.92,0,0,1,1.4.58,1.81,1.81,0,0,1,.58,1.3v1.69a1.14,1.14,0,0,0,.3.75,1,1,0,0,0,.81.36H44.06a.9.9,0,0,1,.67.27.92.92,0,0,1,.27.67v3.53a.84.84,0,0,1-.29.65,1,1,0,0,1-.65.25H26.86a.91.91,0,0,1-.65-.25A.88.88,0,0,1,26,359.68Z"/><path class="cls-3" d="M56.59,359.64V338.58a2.87,2.87,0,0,1,.31-1.4,3.09,3.09,0,0,1,.77-1,2.85,2.85,0,0,1,1-.58,3.33,3.33,0,0,1,1-.18h8.86a16.64,16.64,0,0,1,3.46.34A8,8,0,0,1,74.88,337a5.9,5.9,0,0,1,1.94,2.22,7.38,7.38,0,0,1,.72,3.43,5.3,5.3,0,0,1-.77,2.81,5.78,5.78,0,0,1-2.14,2,5.1,5.1,0,0,1,2.54,2.21,6.38,6.38,0,0,1,.91,3.26,7.71,7.71,0,0,1-.73,3.53,6.75,6.75,0,0,1-2,2.36,8.41,8.41,0,0,1-2.94,1.33,15,15,0,0,1-3.54.41H57.49a.92.92,0,0,1-.9-.9Zm11.23-14.25a2.84,2.84,0,0,0,2-.67,2.42,2.42,0,0,0,.76-1.93,2.31,2.31,0,0,0-.77-1.89,3,3,0,0,0-2-.63H61.34a1.88,1.88,0,0,1,1.41.6,1.84,1.84,0,0,1,.57,1.31v2.16a1.14,1.14,0,0,0,.29.69,1,1,0,0,0,.79.36Zm.33,10.29a3,3,0,0,0,2.1-.72,2.59,2.59,0,0,0,.81-2,2.68,2.68,0,0,0-.83-2.07,2.89,2.89,0,0,0-2.08-.77H61.34a2,2,0,0,1,2,1.9v2.63a1.2,1.2,0,0,0,.27.72,1,1,0,0,0,.81.36Z"/><path class="cls-3" d="M82.08,359.68V338.62a3,3,0,0,1,.93-2.25,3.11,3.11,0,0,1,2.2-.88H99.9a1,1,0,0,1,.93.93V340a.73.73,0,0,1-.28.61.88.88,0,0,1-.65.25H86.58a1.83,1.83,0,0,1,1.42.61,2,2,0,0,1,.56,1.33v1.52a1.15,1.15,0,0,0,.29.75,1,1,0,0,0,.82.36h7.82a.83.83,0,0,1,.93.94v3.24a.82.82,0,0,1-.93.93H86.58a1.92,1.92,0,0,1,1.4.58,1.77,1.77,0,0,1,.58,1.3v1.69a1.14,1.14,0,0,0,.3.75,1,1,0,0,0,.81.36h10.52a.9.9,0,0,1,.66.27.92.92,0,0,1,.27.67v3.53a.81.81,0,0,1-.29.65,1,1,0,0,1-.64.25H83a.91.91,0,0,1-.65-.25A.88.88,0,0,1,82.08,359.68Z"/><path class="cls-3" d="M105.19,359.64V338.58a3,3,0,0,1,.9-2.19,3,3,0,0,1,2.23-.94h1.15a3.38,3.38,0,0,1,1,.16,2.36,2.36,0,0,1,1.11,1c1.42,2.2,2.69,4.2,3.82,6,.69,1.08,1.24,1.94,1.64,2.58s.76,1.22,1.11,1.76.64,1,.88,1.39l.44.68a.21.21,0,0,0,.18.07.16.16,0,0,0,.18-.18V338.58a3,3,0,0,1,.27-1.29,3.06,3.06,0,0,1,.7-1,3.45,3.45,0,0,1,1-.63,3.1,3.1,0,0,1,1.15-.23h2.34a.78.78,0,0,1,.61.25.93.93,0,0,1,.25.69v23.22a.84.84,0,0,1-.25.64.7.7,0,0,1-.61.29h-4.07a1.27,1.27,0,0,1-1.22-.68q-2.16-3.32-3.89-5.94c-.72-1.06-1.29-1.9-1.69-2.54l-1.14-1.76-.88-1.37-.43-.67a.3.3,0,0,0-.18-.11c-.15,0-.22.06-.22.18v12a.87.87,0,0,1-.25.67,1,1,0,0,1-.68.23h-4.54a.92.92,0,0,1-.9-.9Z"/><path class="cls-3" d="M149.65,335.45a.83.83,0,0,1,.94.94v4a.8.8,0,0,1-.26.65.89.89,0,0,1-.68.25h-8.32a2,2,0,0,1,1.41.58,1.72,1.72,0,0,1,.61,1.29v16.49a.87.87,0,0,1-.25.67,1,1,0,0,1-.69.23h-5a1,1,0,0,1-.65-.25.83.83,0,0,1-.29-.65V342.4a1,1,0,0,0-.34-.81,1.08,1.08,0,0,0-.74-.31h-5.22a.89.89,0,0,1-.68-.25.8.8,0,0,1-.26-.65v-1.83a2.82,2.82,0,0,1,1-2.25,3.16,3.16,0,0,1,2.16-.85Z"/><path class="cls-3" d="M161.35,359.68V338.62a2.94,2.94,0,0,1,.94-2.25,3.07,3.07,0,0,1,2.19-.88h14.69a.9.9,0,0,1,.65.28.92.92,0,0,1,.29.65V340a.74.74,0,0,1-.29.61.88.88,0,0,1-.65.25H165.85a1.82,1.82,0,0,1,1.42.61,2,2,0,0,1,.56,1.33v1.52a1.2,1.2,0,0,0,.29.75,1,1,0,0,0,.83.36h7.81a.83.83,0,0,1,.93.94v3.24a.82.82,0,0,1-.93.93H165.85a1.92,1.92,0,0,1,1.4.58,1.77,1.77,0,0,1,.58,1.3v1.69a1.1,1.1,0,0,0,.31.75,1,1,0,0,0,.81.36h10.51a.9.9,0,0,1,.66.27.92.92,0,0,1,.27.67v3.53a.83.83,0,0,1-.28.65,1,1,0,0,1-.65.25H162.25a.92.92,0,0,1-.65-.25A.88.88,0,0,1,161.35,359.68Z"/><path class="cls-3" d="M184.46,359.68V338.62a2.94,2.94,0,0,1,.94-2.25,3.07,3.07,0,0,1,2.19-.88h14.69a.9.9,0,0,1,.65.28.92.92,0,0,1,.29.65V340a.74.74,0,0,1-.29.61.87.87,0,0,1-.65.25H189a1.82,1.82,0,0,1,1.42.61,1.91,1.91,0,0,1,.56,1.33v1.52a1.2,1.2,0,0,0,.29.75,1,1,0,0,0,.83.36h7.81a.83.83,0,0,1,.94.94v3.24a.83.83,0,0,1-.94.93H189a2,2,0,0,1,1.41.58,1.8,1.8,0,0,1,.57,1.3v1.69a1.1,1.1,0,0,0,.31.75,1,1,0,0,0,.81.36h10.51a.92.92,0,0,1,.94.94v3.53a.84.84,0,0,1-.29.65,1,1,0,0,1-.65.25H185.36a.86.86,0,0,1-.9-.9Z"/><path class="cls-3" d="M207.57,359.64V338.58a3,3,0,0,1,.9-2.19,3,3,0,0,1,2.24-.94h1.15a3.32,3.32,0,0,1,1,.16,2.43,2.43,0,0,1,1.12,1l3.81,6c.7,1.08,1.24,1.94,1.64,2.58l1.12,1.76c.34.54.64,1,.88,1.39l.43.68a.24.24,0,0,0,.18.07.16.16,0,0,0,.18-.18V338.58a3,3,0,0,1,.27-1.29,3.06,3.06,0,0,1,.7-1,3.59,3.59,0,0,1,1-.63,3.14,3.14,0,0,1,1.15-.23h2.34a.77.77,0,0,1,.61.25.94.94,0,0,1,.26.69v23.22a.85.85,0,0,1-.26.64.69.69,0,0,1-.61.29h-4.07a1.28,1.28,0,0,1-1.22-.68q-2.16-3.32-3.89-5.94c-.72-1.06-1.28-1.9-1.69-2.54s-.79-1.22-1.13-1.76l-.89-1.37-.43-.67a.3.3,0,0,0-.18-.11q-.21,0-.21.18v12a.87.87,0,0,1-.26.67,1,1,0,0,1-.68.23h-4.54a.92.92,0,0,1-.9-.9Z"/><path class="cls-3" d="M241.05,359.68V338.62a2.94,2.94,0,0,1,.94-2.25,3.07,3.07,0,0,1,2.19-.88h14.69a.9.9,0,0,1,.65.28.92.92,0,0,1,.29.65V340a.74.74,0,0,1-.29.61.87.87,0,0,1-.65.25H245.55a1.82,1.82,0,0,1,1.42.61,1.91,1.91,0,0,1,.56,1.33v1.52a1.2,1.2,0,0,0,.29.75,1,1,0,0,0,.83.36h7.81a.83.83,0,0,1,.94.94v3.24a.83.83,0,0,1-.94.93H245.55a2,2,0,0,1,1.41.58,1.8,1.8,0,0,1,.57,1.3v1.69a1.1,1.1,0,0,0,.31.75,1,1,0,0,0,.81.36h10.51a.92.92,0,0,1,.94.94v3.53a.84.84,0,0,1-.29.65,1,1,0,0,1-.65.25H242a.86.86,0,0,1-.9-.9Z"/><path class="cls-3" d="M263.37,351.29c0-.34,0-.76,0-1.28v-3.8c0-.52,0-1,0-1.29a10.57,10.57,0,0,1,1-4.32,8.56,8.56,0,0,1,2.35-3,10.15,10.15,0,0,1,3.5-1.78,15.51,15.51,0,0,1,4.35-.59,16.76,16.76,0,0,1,4.05.5,11.18,11.18,0,0,1,3.58,1.59,8.67,8.67,0,0,1,2.58,2.71,7.65,7.65,0,0,1,1,3.91.73.73,0,0,1-.21.54.89.89,0,0,1-.58.22H279.9a1.17,1.17,0,0,1-.78-.22,1.6,1.6,0,0,1-.38-.72,4.23,4.23,0,0,0-1.45-2.41,4.62,4.62,0,0,0-2.76-.72q-4.06,0-4.21,4.5c0,.33,0,.74,0,1.22v3.53c0,.5,0,.92,0,1.26.12,3,1.52,4.54,4.21,4.54a4.86,4.86,0,0,0,2.7-.72,4.3,4.3,0,0,0,1.51-2.45,1.35,1.35,0,0,1,.4-.72,1.18,1.18,0,0,1,.76-.22H285a.84.84,0,0,1,.58.22.73.73,0,0,1,.21.54,7.72,7.72,0,0,1-1,4,8.58,8.58,0,0,1-2.61,2.72,11.39,11.39,0,0,1-3.58,1.54,16.41,16.41,0,0,1-4,.49,15.64,15.64,0,0,1-4.41-.58,9.72,9.72,0,0,1-3.47-1.76,8.28,8.28,0,0,1-2.34-3A10.9,10.9,0,0,1,263.37,351.29Z"/><path class="cls-3" d="M289.51,359.75V338.69a3,3,0,0,1,.93-2.23,3.09,3.09,0,0,1,2.2-.9h2.66a.92.92,0,0,1,.94.93v8.36a.86.86,0,0,0,.43.84,1.57,1.57,0,0,0,.69.24,17.61,17.61,0,0,0,3.72-.33,14.85,14.85,0,0,0,2.9-.93,1.61,1.61,0,0,0,.5-.4.93.93,0,0,0,.22-.65v-4.93a2.95,2.95,0,0,1,1-2.27,3.9,3.9,0,0,1,1-.63,3,3,0,0,1,1.13-.23h2.67a.92.92,0,0,1,.93.93v23.26a.87.87,0,0,1-.25.67,1,1,0,0,1-.68.23h-4.86a1,1,0,0,1-.65-.25.84.84,0,0,1-.29-.65v-8.53a.88.88,0,0,0-.34-.78,1.34,1.34,0,0,0-.74-.23,1,1,0,0,0-.36,0,20,20,0,0,1-3.55.66c-1.18.11-2.23.16-3.15.16h-1.22c-.34,0-.6,0-.79-.06a1.94,1.94,0,0,1,1.2.65,1.76,1.76,0,0,1,.49,1.22v6.88a.87.87,0,0,1-.25.67,1,1,0,0,1-.69.23h-4.89a.87.87,0,0,1-.65-.25A.88.88,0,0,1,289.51,359.75Z"/><path class="cls-3" d="M334.94,335.45a.83.83,0,0,1,.94.94v4a.8.8,0,0,1-.26.65.89.89,0,0,1-.68.25h-8.32a2,2,0,0,1,1.41.58,1.72,1.72,0,0,1,.61,1.29v16.49a.87.87,0,0,1-.25.67,1,1,0,0,1-.69.23h-5a1,1,0,0,1-.65-.25.83.83,0,0,1-.29-.65V342.4a1,1,0,0,0-.34-.81,1.08,1.08,0,0,0-.74-.31H315.5a.89.89,0,0,1-.68-.25.8.8,0,0,1-.26-.65v-1.83a2.82,2.82,0,0,1,1-2.25,3.16,3.16,0,0,1,2.16-.85Z"/><path class="cls-3" d="M339.08,359.68V338.62a2.94,2.94,0,0,1,.94-2.25,3.07,3.07,0,0,1,2.19-.88H356.9a.91.91,0,0,1,.65.28.92.92,0,0,1,.29.65V340a.74.74,0,0,1-.29.61.88.88,0,0,1-.65.25H343.58a1.82,1.82,0,0,1,1.42.61,2,2,0,0,1,.56,1.33v1.52a1.15,1.15,0,0,0,.29.75,1,1,0,0,0,.83.36h7.81a.83.83,0,0,1,.93.94v3.24a.82.82,0,0,1-.93.93H343.58a1.92,1.92,0,0,1,1.4.58,1.77,1.77,0,0,1,.58,1.3v1.69a1.1,1.1,0,0,0,.31.75,1,1,0,0,0,.81.36h10.51a.9.9,0,0,1,.66.27.92.92,0,0,1,.27.67v3.53a.83.83,0,0,1-.28.65,1,1,0,0,1-.65.25H340a.91.91,0,0,1-.65-.25A.88.88,0,0,1,339.08,359.68Z"/><path class="cls-4" d="M99.66,399.79a187.88,187.88,0,0,0-12.94,28.33c2.77-.74,5.28-1.23,7.08-1.82,6.19-1.78,7.42-1.57,7.25-.75s-2.62,6.09-9,8.2c-2.18.75-5.22,1.63-8.32,2.82-.81,2.41-1.74,4.75-2.58,7.57-9.27,28.85-9.2,35.6-9.76,39s-2.71,5.5-5.18,3.11-2.6-8.25-.64-15.33c1-4,4.28-17.6,7.74-31a38.84,38.84,0,0,1-4.59,1.22c-3.25.82-5.81-6.54-3.44-7.92s2-.8,5.22-1.62c.78-.12,2.8-.54,5.41-1,1.79-6.26,3.7-11.84,5.33-16,6-14.6,9.24-20.87,11.63-20.85,2.52.19,7.77,2.55,8.25,3.67C101.35,398.53,100.17,398.61,99.66,399.79Z"/><path class="cls-4" d="M113.06,446.05c-.9,8.2-9.7,15.47-16.23,15.11S89,453,91,448.85s6.53-12.19,9.91-13.52l1-.46a3.19,3.19,0,0,0-1.25-1c-3.51-2,.63-2.29,2.35-1.46C104.79,433.42,114,437.84,113.06,446.05Zm-8.5,1a8.53,8.53,0,0,0,.33-4.82c-2.42,3-5.24,7.79-5.37,8.81C99.51,452.28,103.13,450,104.56,447.09Z"/><path class="cls-4" d="M206.81,432.7c-2.26,1.45-7.08,3.71-10.77,5.58a36.47,36.47,0,0,1-7.09,7.4c-7.76,6.3-11.29,9.75-15.22,5.1s4.69-13.79,16.46-18.64c2.42-2.37,2.53-6.07.63-7.37-.68-.48-6.75,1.37-17.9,18.37l-1.13,1.67c-2.36,10.23-10.66,37-11.27,40.71-.8,4.41-.75,6.59-3.09,6.26-2.52-.2-6.39-3.27-3.4-10.81,2.29-5.63,8.87-33.85,11.47-45.12l-1.11.58c-2.16,1.43-10.47,6.14-14.57,9.17a36.47,36.47,0,0,1-7.09,7.4c-7.77,6.3-11.3,9.75-15.22,5.1s4.68-13.79,16.46-18.64c2.41-2.37,2.52-6.07.62-7.37-.67-.48-6.75,1.37-17.89,18.37l-1.13,1.67c-2.35,10.33-11.6,41.16-12.22,44.84-.79,4.41-.74,6.59-3.09,6.26-2.4-.11-5-6.18-3.4-10.81,2.17-7,13.2-53.06,14.26-56.41.77-3.31,2.52-6.07,3.64-6.55,3-1,5.42,1.53,6.77,2.51.23.17.22.76,0,1.8,3.49-3.74,5.16-7,11.06-8.72,8-2.36,11.62.45,12.33,6.81a11.08,11.08,0,0,1-.56,4.66c2.16-.84,7.85-3.23,12.1-4.7.05-.31,0-.4.12-.52.77-3.3,2.52-6.07,3.64-6.55,3-1,5.42,1.53,6.77,2.52.22.16.22.76,0,1.79,3.4-3.72,6.85-8.95,11.85-11.33,7.49-3.58,11.62.45,12.32,6.81a10.88,10.88,0,0,1-.55,4.66c3.18-1.3,10.72-2.69,13.16-1.78C216.51,428.57,210,430.8,206.81,432.7Z"/><path class="cls-4" d="M246.67,426.68C244.05,429,228.55,440.5,222,443.13c-6.75,2.66-10.42-2.33-10.26-6.34s2.77-12.68,7.23-18.46c4.21-5.45,8.18-6.77,10.27-6.81,2.77-.14,7.26,3.73,8.38,7.64.92,3.93-4.5,8.08-8.09,10.54s-6.43,5.29-9.6,1.61c-.61,1.2-1.74,4.76,3.27,3.67s15.75-6.78,21.92-11.83S249.2,424.39,246.67,426.68Zm-23.17-1.11c1.67-.76,5.28-3.12,5.38-5.63C226.05,421.58,225.07,422.93,223.5,425.57Z"/><path class="cls-4" d="M274.18,419.94c-1.75.27-6.45-.47-6.38-3.17-.12-2.67-2.07-3.06-3.94-1.67-.62.5-2.25,1.55-4,2.72a44.19,44.19,0,0,0-2.61,9.27c-1.3,5.58,1.46,7.93-4.68,12.59-2.48,1.89-4.59,2.42-6.09-.13-3.39-5.74,4.68-23.24,5.45-26.55s-.05-4.77,1.82-6.76c2.75-2.72,3.86-3.9,5.67-1.89,1.59,1.84,5.56-.78,3.22,5.86,3.46-3.33,7-6.68,8.85-7,3.21-.5,1.85,5.39,3,9.68C275.77,417.4,276,419.64,274.18,419.94Z"/><path class="cls-4" d="M283.52,430.62l-.64-4a4.09,4.09,0,0,1,.18-2.09,5.44,5.44,0,0,1,1-1.77,6.53,6.53,0,0,1,1.52-1.32,4.57,4.57,0,0,1,1.72-.66l3.73-.59a1.37,1.37,0,0,1,1.1.33,1.61,1.61,0,0,1,.6.95L294,429a1.52,1.52,0,0,1-.26,1.06,1.43,1.43,0,0,1-1,.57l-7.52,1.19a1.47,1.47,0,0,1-1.05-.25A1.26,1.26,0,0,1,283.52,430.62Zm6.88-13.09-7,1.11a1.58,1.58,0,0,1-1.11-.24,1.34,1.34,0,0,1-.64-1l-3.31-20.92a4.43,4.43,0,0,1,.13-2,5.68,5.68,0,0,1,2.4-3.16,4.7,4.7,0,0,1,1.86-.71l3.37-.54a1.48,1.48,0,0,1,1.12.24,1.31,1.31,0,0,1,.62.92l3.9,24.59a1.39,1.39,0,0,1-.3,1.12A1.59,1.59,0,0,1,290.4,417.53Z"/><path class="cls-5" d="M179,196.88c29.72.06,30.32-6.74,29.74-10.44s-2.48-16-3.89-47.47,7.06-53.65,9.6-66.66-.33-55.3-.33-55.3-26.47,1.28-34.75,1.26-35.18-1.4-35.18-1.4-2.61,42.28-.12,55.29,10.87,35.22,9.32,66.71-3.49,43.75-4.09,47.45S149.24,196.82,179,196.88Z"/><path class="cls-6" d="M179,193.91c-19.41,0-24.8-3-26.28-4.72a2.59,2.59,0,0,1-.49-2.4c1.69-10.45,3.08-26.53,4.13-47.78,1.21-24.83-3.54-43.64-7-57.37-1-3.85-1.82-7.18-2.37-10-2-10.56-.53-41.88,0-51.63,7.25.36,25.67,1.24,32.39,1.26s24.83-.8,32-1.13c.59,9.72,2.26,41.09.2,51.63-.56,2.85-1.41,6.17-2.41,10-3.53,13.71-8.36,32.5-7.25,57.34,1,21.25,2.28,37.33,3.93,47.8a2.58,2.58,0,0,1-.5,2.39C203.78,191,198.38,194,179,193.91Z"/><path class="cls-4" d="M179,193.91c-19.41,0-24.8-3-26.28-4.72a2.59,2.59,0,0,1-.49-2.4c1.69-10.45,3.08-26.53,4.13-47.78,1.21-24.83-3.54-43.64-7-57.37-1-3.85-1.82-7.18-2.37-10-2-10.56-1.18-27.31-.65-37.06,7.24.36,26.29,1.25,33,1.26S204.89,35,212,34.69c.58,9.71,1.52,26.51-.54,37.05-.56,2.85-1.41,6.17-2.41,10-3.53,13.71-8.36,32.5-7.25,57.34,1,21.25,2.28,37.33,3.93,47.8a2.58,2.58,0,0,1-.5,2.39C203.78,191,198.38,194,179,193.91Z"/><path class="cls-6" d="M150.76,174.85c-.67,6.29-1.22,9.78-1.5,11.47-.6,3.69,0,10.5,29.7,10.56s30.32-6.74,29.74-10.44c-.27-1.68-.81-5.15-1.45-11.4-10.42,4.29-20.95,4.41-28.25,4.39C171.91,179.42,159.83,178.33,150.76,174.85Z"/><path class="cls-5" d="M179,193.88c-19.41,0-24.8-3-26.28-4.73a2.58,2.58,0,0,1-.49-2.39c.2-1.22.94-6.69,1.44-10.93A94.78,94.78,0,0,0,179,179.29c7.73,0,16.25-.2,25.4-3.21.48,4.12,1.19,9.59,1.38,10.79a2.57,2.57,0,0,1-.5,2.39C203.78,191,198.38,193.92,179,193.88Z"/><path class="cls-5" d="M215.2,13.82c-3.77-7.08-11.58-6.29-14.6-5S193,10.08,187.76,5.56,180-.89,171.9.38,158.77,7.11,152.74,7.1c-4.56,0-11.42,2.87-11.44,11.53a9.73,9.73,0,0,0,6.33,9.55,12.43,12.43,0,0,1,3.61,2.36c.28.26.56.5.83.73a7.2,7.2,0,0,1,2.6,5.5l-.07,31.61A3.71,3.71,0,0,0,158,72.14a3.57,3.57,0,0,0,3.76-3.55l.06-30.15a8,8,0,0,1,3.46-6.54l0,0a.93.93,0,0,1,1.45.77l-.05,20.94a2.93,2.93,0,0,0,2.52,3,2.82,2.82,0,0,0,3.12-2.79l0-22.08A1.76,1.76,0,0,1,174.64,30c4.23,1.27,5.84,4.54,12.55,4.55,8.32,0,12.87-7.72,21.59-5.69S218.24,19.55,215.2,13.82Z"/></g></g></svg>