<svg xmlns="http://www.w3.org/2000/svg" viewBox="0 0 7159.9 1080"><defs><style>.cls-1{fill:#333;opacity:0.15;}.cls-2{fill:#999;}.cls-3{fill:#fff8ed;}.cls-4{fill:#666;}.cls-5,.cls-6{fill:none;stroke:#fff;stroke-linecap:round;stroke-linejoin:round;stroke-width:3.8px;}.cls-6{stroke-dasharray:47.48 47.48;}</style></defs><title>huis_1</title><g id="Layer_2" data-name="Layer 2"><g id="Layer_1-2" data-name="Layer 1"><rect class="cls-1" width="7157.4" height="798"/><path class="cls-2" d="M7038.31,724.89V666.18h-11.66V614.84h-61.93V334.68H6924V466.45H6818.18V426h-61.94v40.49h-10.1V417h-35.22v108.7h-21.47V307.05H6582.21v89.08h-33V205.75h-31.7V560.33h-9.66V394.21h-15.94V258.11h-70.52v97.25h-35V310.64h-27.44v44.72H6342.7V264.1h5.88c6.49,0,11.75-5.81,11.75-13v-8.48c0-7.16-5.26-13-11.75-13h-7.23c0-13.22-9.72-23.94-21.7-23.94s-21.7,10.72-21.7,23.94h-7.23c-6.5,0-11.76,5.8-11.76,13v8.48c0,7.16,5.26,13,11.76,13H6298v89.74h-22.24v80.23h-32.53v15.58h32.53V560.33h-42.86V450h-40.68V554.32h-23.31v48.84H6159V319H6040v85.06h-57.36v-8h-41.76v31.42H5930V444h-14.24v22.44H5930V627.66h-.7v38.52H5906V525.71h12.73V507.2H5906V493.62h-10.1V467.7h-3.95V396.13h-16.15l5.2-21.88h-67.81v21.88h-11v53.52h-7.28v-7.89h-22.6v7.89h-23.18V467.7h-9.49v35.85h-31.3V666.18h-11V556.32H5690V470.18h-29.84v-53.1h-74.23V485h-33.53v8.4h-31.53v54.55h-24.8V648.81H5413v75.8h-62.9v.28h-25.51v-54.6a29.84,29.84,0,0,0,3.64-6.39,31.28,31.28,0,1,0,54.7-28.72,17.56,17.56,0,0,0,2.43-27.89,34.92,34.92,0,0,0-34.19-58.43c0-.56,0-1.13,0-1.7a37.61,37.61,0,1,0-73.87,9.93,33.58,33.58,0,0,0-7.09,60.7,22.92,22.92,0,0,0,1.42,24.55,30.28,30.28,0,0,0,39.61,38.08v44.47h-72.85V666.18h-11.65V614.84h-61.94V334.68h-40.69V466.45H5018.31V426h-61.94v40.49h-10.1V417H4911v108.7h-21.46V307.05H4782.34v89.08h-33V205.75h-31.7V560.33H4708V394.21H4692V258.11h-70.52v97.25h-35V310.64h-27.45v44.72h-16.22V264.1h5.87c6.5,0,11.76-5.81,11.76-13v-8.48c0-7.16-5.26-13-11.76-13h-7.23c0-13.22-9.71-23.94-21.7-23.94s-21.7,10.72-21.7,23.94h-7.23c-6.49,0-11.75,5.8-11.75,13v8.48c0,7.16,5.26,13,11.75,13h7.23v89.74h-22.23v80.23H4443.3v15.58h32.54V560.33H4433V450h-40.69V554.32H4369v48.84h-9.83V319h-119v85.06h-57.36v-8H4141v31.42h-10.85V444h-14.25v22.44h14.25V627.66h-.71v38.52h-23.36V525.71h12.74V507.2h-12.74V493.62H4096V467.7h-3.94V396.13H4075.9l5.19-21.88h-67.81v21.88h-11v53.52h-7.28v-7.89h-22.6v7.89h-23.19V467.7h-9.48v35.85h-31.3V666.18h-11V556.32h-7.37V470.18h-29.84v-53.1H3786V485h-33.52v8.4H3721v54.55h-24.79V648.81h-83.07v76.08H3488.55V666.18H3476.9V614.84H3415V334.68h-40.68V466.45H3268.43V426h-61.94v40.49h-10.1V417h-35.23v108.7H3139.7V307.05H3032.46v89.08h-33V205.75h-31.7V560.33h-9.65V394.21h-15.94V258.11h-70.52v97.25h-35V310.64h-27.45v44.72H2793V264.1h5.88c6.49,0,11.75-5.81,11.75-13v-8.48c0-7.16-5.26-13-11.75-13h-7.24c0-13.22-9.71-23.94-21.7-23.94s-21.69,10.72-21.69,23.94H2741c-6.5,0-11.76,5.8-11.76,13v8.48c0,7.16,5.26,13,11.76,13h7.23v89.74H2726v80.23h-32.53v15.58H2726V560.33H2683.1V450h-40.69V554.32h-23.3v48.84h-9.82V319H2490.24v85.06h-57.36v-8h-41.75v31.42h-10.85V444H2366v22.44h14.24V627.66h-.7v38.52h-23.37V525.71H2369V507.2h-12.74V493.62h-10.1V467.7h-3.94V396.13H2326l5.2-21.88h-67.81v21.88h-11v53.52h-7.28v-7.89h-22.6v7.89h-23.19V467.7h-9.48v35.85h-31.3V666.18h-11V556.32h-7.37V470.18H2110.4v-53.1h-74.24V485h-33.52v8.4h-31.53v54.55h-24.8V648.81h-83.06v75.8h-62.9v.28h-16.52v-54.6a30.31,30.31,0,0,0,3.65-6.39,31.28,31.28,0,1,0,54.7-28.72,17.56,17.56,0,0,0,2.43-27.89,34.92,34.92,0,0,0-34.2-58.43c0-.56,0-1.13,0-1.7a37.61,37.61,0,1,0-73.88,9.93,33.57,33.57,0,0,0-7.08,60.7,22.86,22.86,0,0,0,1.42,24.55,30.28,30.28,0,0,0,39.6,38.08v44.47h-81.84V666.18H1677V614.84h-61.93V334.68H1574.4V466.45H1468.55V426h-61.93v40.49h-10.1V417h-35.23v108.7h-21.46V307.05H1232.58v89.08h-33V205.75h-31.7V560.33h-9.65V394.21h-15.94V258.11h-70.52v97.25h-35V310.64H1009.3v44.72H993.08V264.1H999c6.49,0,11.76-5.81,11.76-13v-8.48c0-7.16-5.27-13-11.76-13h-7.23c0-13.22-9.72-23.94-21.7-23.94s-21.7,10.72-21.7,23.94h-7.23c-6.49,0-11.75,5.8-11.75,13v8.48c0,7.16,5.26,13,11.75,13h7.23v89.74H926.09v80.23H893.55v15.58h32.54V560.33H883.22V450H842.54V554.32H819.23v48.84h-9.82V319h-119v85.06H633v-8H591.25v31.42H580.41V444H566.16v22.44h14.25V627.66h-.71v38.52H556.34V525.71h12.74V507.2H556.34V493.62h-10.1V467.7H542.3V396.13H526.14l5.2-21.88H463.53v21.88H452.58v53.52H445.3v-7.89H422.69v7.89H399.51V467.7H390v35.85h-31.3V666.18h-11V556.32h-7.37V470.18H310.52v-53.1H236.29V485H202.76v8.4H171.23v54.55H146.44V648.81H63.37V729.6H.48v65.83H140.83V798h1319.4l193.31-.29h164.83v-.2l122.33.49H3260.1v-1.49h193.32v1.2h164.83v-2.28h72.33V798H5010l193.31-.29h164.84v-.2l122.33.49h1319.4v-1.49h193.31v1.2H7157l1-72.82ZM307.76,680.58H296V667.64h11.78Zm.53-23.87H296V643.77h12.31Zm0-23.86H296V619.91h12.31Zm0-23.87H296V596.05h12.31Zm0-23.86H296V572.18h12.31Zm0-23.86H296V548.32h12.31ZM331,655.44h-9.2V643.77H331Zm0-28.92h-9.2v-6.61H331Zm0-28.93h-9.2v-1.54H331Zm0-12.47h-9.2v-3.21H331Zm0-23.86h-9.2V553H331Zm5-21.52H321.79V524.05H336Zm0-28.93H321.79V495.13H336Zm25.74,81.76h-8.61v-9.05h8.61Zm0-52.83h-8.61v-2.32h8.61Zm0-39.38h-8.61v-5.23h8.61Zm17.55,158.48h-7v-9.05h7Zm0-46.11h-7v-9.05h7Zm0-46.1h-7v-9h7Zm0-46.11h-7v-9h7Zm18.45,20.16h-6.26V537.8h6.26Zm0-103.68h-9.95V426h9.95Zm22.15,80.32H410v-11h9.86Zm0-55.89H410v-11h9.94ZM442,653.53h-6.17v-11H442Zm0-55.88h-6.17v-11H442Zm0-55.89h-6.17v-11H442Zm0-55.89H432.1v-11H442ZM464.2,615h-7.74v-3.85h7.74Zm0-48.76h0Zm0-55.89h-9.95v-11h9.95Zm19.66,147h-.5v-6.42h.5Zm0-14.12h-.5v-6.42h.5Zm0-14.11h-.5v-6.42h.5Zm0-14.12h-.5v-6.42h.5Zm0-14.11h-.5v-6.43h.5Zm0-14.12h-.5v-6.42h.5Zm0-14.11h-.5V566.2h.5Zm23.29,71.73h0v-7.79h0Zm0-17.11h0v-7.79h0Zm0-17.11h0v-7.79h0Zm0-17.11h0v-7.78h0Zm0-17.11h0v-7.79h0Zm0-17.11h0V551h0Zm0-17.11h0V533.9h0Zm0-17.11h0V516.8h0ZM533,644.35h-6.3v-7.79H533Zm0-17.11h-6.3v-7.79H533Zm0-17.11h-6.3v-7.79H533ZM533,593h-6.3v-7.78H533Zm0-17.11h-6.3v-7.79H533Zm0-17.11h-6.3V551H533Zm0-17.11h-6.3V533.9H533Zm0-17.11h-6.3V516.8H533Zm24.42,44.52H546.72v-14h10.72Zm0-77.79h-13.3v-14h13.3Zm38.14,0H588.3v-14h7.28Zm28.2,29H610.7V503.36h13.08Zm0-94.29H608.41V409.07h15.37ZM643.7,563.7h-8.84v-17h8.84Zm14.22-102h-4.83v2H642.55v-17h15.37ZM673.29,426H657.92V409.07h15.37Zm144,72.29H804v-14h13.31Zm0-47.73H804v-14h13.31ZM850,351.21h15.38v17H850Zm0,104h15.38v17H850Zm20.66,159.52h-13v-17h13Zm17.11-108.58H872.39v-2.78h15.37Zm36.17-71.64H908.56V417.55h15.37Zm0-57.85H908.56v-17h15.37Zm38.3,281.69h-9.82V638.68h9.82Zm66.59,2.16h-1.69v-12h1.69Zm59.32-155.2h-13.3v-14h13.3Zm3.18-61.71h-3.18v-14h3.18Zm0-60.9h-9.83v-14h9.83Zm61,171.64h-16.22V368.25h16.22Zm62.44-49h-19.29v-14h19.29Zm0-117.09h-6.39V461.7h-28.6V368.25h35Zm14.32-110.81h15.37v17h-15.37Zm23.06,90.77h-15.37v-17h15.37Zm140,74.81h-31.4V426h31.4Zm20.14-91.77h31.4v17h-31.4Zm47.1,125.45h-31.4v-17h31.4Zm35.3,77.67h-11.8V533.08h11.8Zm60.75,87.8h-15.86V564h15.86Zm1.3-138.77h-17.16v-26.7h17.16ZM1629.92,644h-24.2V617.29h24.2ZM1642,533.66h-24.2V507H1642Zm64.23-30.3h-24.2v-26.7h24.2Zm31.5,116.23h-24.2v-26.7h24.2Zm369.88,61h-11.78V667.64h11.78Zm.53-23.87h-12.31V643.77h12.31Zm0-23.86h-12.31V619.91h12.31Zm0-23.87h-12.31V596.05h12.31Zm0-23.86h-12.31V572.18h12.31Zm0-23.86h-12.31V548.32h12.31Zm22.7,94.18h-9.2V643.77h9.2Zm0-28.92h-9.2v-6.61h9.2Zm0-28.93h-9.2v-1.54h9.2Zm0-12.47h-9.2v-3.21h9.2Zm0-23.86h-9.2V553h9.2Zm5-21.52h-14.22V524.05h14.22Zm0-28.93h-14.22V495.13h14.22Zm25.73,81.76H2153v-9.05h8.61Zm0-52.83H2153v-2.32h8.61Zm0-39.38H2153v-5.23h8.61Zm17.55,158.48h-7v-9.05h7Zm0-46.11h-7v-9.05h7Zm0-46.1h-7v-9h7Zm0-46.11h-7v-9h7Zm18.45,20.16h-6.25V537.8h6.25Zm0-103.68h-9.94V426h9.94Zm22.16,80.32h-9.86v-11h9.86Zm0-55.89h-9.95v-11h9.95Zm22.15,192.1h-6.18v-11h6.18Zm0-55.88h-6.18v-11h6.18Zm0-55.89h-6.18v-11h6.18Zm0-55.89h-10v-11h10ZM2264.07,615h-7.74v-3.85h7.74Zm0-48.76h0Zm0-55.89h-10v-11h10Zm19.66,147h-.5v-6.42h.5Zm0-14.12h-.5v-6.42h.5Zm0-14.11h-.5v-6.42h.5Zm0-14.12h-.5v-6.42h.5Zm0-14.11h-.5v-6.43h.5Zm0-14.12h-.5v-6.42h.5Zm0-14.11h-.5V566.2h.5Zm23.3,71.73h0v-7.79h0Zm0-17.11h0v-7.79h0Zm0-17.11h0v-7.79h0Zm0-17.11h0v-7.78h0Zm0-17.11h0v-7.79h0Zm0-17.11h0V551h0Zm0-17.11h0V533.9h0Zm0-17.11h0V516.8h0Zm25.87,119.77h-6.3v-7.79h6.3Zm0-17.11h-6.3v-7.79h6.3Zm0-17.11h-6.3v-7.79h6.3Zm0-17.11h-6.3v-7.78h6.3Zm0-17.11h-6.3v-7.79h6.3Zm0-17.11h-6.3V551h6.3Zm0-17.11h-6.3V533.9h6.3Zm0-17.11h-6.3V516.8h6.3Zm24.42,44.52H2346.6v-14h10.72Zm0-77.79H2344v-14h13.31Zm38.13,0h-7.28v-14h7.28Zm28.21,29h-13.08V503.36h13.08Zm0-94.29h-15.37V409.07h15.37Zm19.91,137.68h-8.84v-17h8.84Zm14.22-102H2453v2h-10.54v-17h15.37ZM2473.16,426h-15.37V409.07h15.37Zm144,72.29h-13.3v-14h13.3Zm0-47.73h-13.3v-14h13.3Zm32.69-99.37h15.37v17h-15.37Zm0,104h15.37v17h-15.37Zm20.65,159.52h-13v-17h13Zm17.12-108.58h-15.37v-2.78h15.37Zm36.16-71.64h-15.37V417.55h15.37Zm0-57.85h-15.37v-17h15.37Zm38.31,281.69h-9.82V638.68h9.82Zm66.59,2.16H2827v-12h1.7ZM2888,505.3h-13.31v-14H2888Zm3.18-61.71H2888v-14h3.18Zm0-60.9h-9.84v-14h9.84Zm61,171.64H2936V368.25h16.22Zm62.44-49h-19.29v-14h19.29Zm0-117.09h-6.39V461.7h-28.6V368.25h35Zm14.33-110.81h15.37v17h-15.37Zm23,90.77h-15.37v-17H3052ZM3192,443h-31.4V426H3192Zm20.14-91.77h31.4v17h-31.4Zm47.1,125.45h-31.4v-17h31.4Zm35.31,77.67H3282.7V533.08h11.81Zm60.74,87.8h-15.86V564h15.86Zm1.3-138.77h-17.16v-26.7h17.16ZM3429.8,644h-24.2V617.29h24.2Zm12.1-110.32h-24.2V507h24.2Zm64.22-30.3h-24.2v-26.7h24.2Zm31.5,116.23h-24.2v-26.7h24.2Zm319.89,61h-11.78V667.64h11.78Zm.53-23.87h-12.31V643.77H3858Zm0-23.86h-12.31V619.91H3858Zm0-23.87h-12.31V596.05H3858Zm0-23.86h-12.31V572.18H3858Zm0-23.86h-12.31V548.32H3858Zm22.7,94.18h-9.2V643.77h9.2Zm0-28.92h-9.2v-6.61h9.2Zm0-28.93h-9.2v-1.54h9.2Zm0-12.47h-9.2v-3.21h9.2Zm0-23.86h-9.2V553h9.2Zm5-21.52h-14.22V524.05h14.22Zm0-28.93h-14.22V495.13h14.22Zm25.73,81.76h-8.61v-9.05h8.61Zm0-52.83h-8.61v-2.32h8.61Zm0-39.38h-8.61v-5.23h8.61ZM3929,658.84h-7v-9.05h7Zm0-46.11h-7v-9.05h7Zm0-46.1h-7v-9h7Zm0-46.11h-7v-9h7Zm18.45,20.16h-6.25V537.8h6.25Zm0-103.68h-9.94V426h9.94Zm22.15,80.32h-9.85v-11h9.85Zm0-55.89h-9.94v-11h9.94Zm22.16,192.1h-6.18v-11h6.18Zm0-55.88h-6.18v-11h6.18Zm0-55.89h-6.18v-11h6.18Zm0-55.89h-10v-11h10ZM4014,615h-7.74v-3.85H4014Zm0-48.76h0Zm0-55.89H4004v-11H4014Zm19.66,147h-.5v-6.42h.5Zm0-14.12h-.5v-6.42h.5Zm0-14.11h-.5v-6.42h.5Zm0-14.12h-.5v-6.42h.5Zm0-14.11h-.5v-6.43h.5Zm0-14.12h-.5v-6.42h.5Zm0-14.11h-.5V566.2h.5Zm23.29,71.73h0v-7.79h0Zm0-17.11h0v-7.79h0Zm0-17.11h0v-7.79h0Zm0-17.11h0v-7.78h0Zm0-17.11h0v-7.79h0Zm0-17.11h0V551h0Zm0-17.11h0V533.9h0Zm0-17.11h0V516.8h0Zm25.88,119.77h-6.31v-7.79h6.31Zm0-17.11h-6.31v-7.79h6.31Zm0-17.11h-6.31v-7.79h6.31Zm0-17.11h-6.31v-7.78h6.31Zm0-17.11h-6.31v-7.79h6.31Zm0-17.11h-6.31V551h6.31Zm0-17.11h-6.31V533.9h6.31Zm0-17.11h-6.31V516.8h6.31Zm24.42,44.52h-10.72v-14h10.72Zm0-77.79h-13.31v-14h13.31Zm38.13,0h-7.28v-14h7.28Zm28.21,29h-13.08V503.36h13.08Zm0-94.29h-15.38V409.07h15.38Zm19.91,137.68h-8.84v-17h8.84Zm14.22-102h-4.83v2H4192.3v-17h15.37ZM4223,426h-15.37V409.07H4223Zm144,72.29h-13.31v-14h13.31Zm0-47.73h-13.31v-14h13.31Zm32.69-99.37h15.37v17h-15.37Zm0,104h15.37v17h-15.37Zm20.65,159.52h-13v-17h13Zm17.12-108.58h-15.38v-2.78h15.38Zm36.16-71.64h-15.37V417.55h15.37Zm0-57.85h-15.37v-17h15.37ZM4512,658.34h-9.83V638.68H4512Zm66.59,2.16h-1.7v-12h1.7Zm59.32-155.2h-13.31v-14h13.31Zm3.17-61.71h-3.17v-14h3.17Zm0-60.9h-9.83v-14h9.83Zm61,171.64h-16.22V368.25h16.22Zm62.44-49H4745.2v-14h19.29Zm0-117.09h-6.39V461.7h-28.6V368.25h35Zm14.33-110.81h15.37v17h-15.37Zm23.05,90.77H4786.5v-17h15.37Zm140,74.81h-31.4V426h31.4ZM4962,351.21h31.4v17H4962Zm47.1,125.45h-31.4v-17h31.4Zm35.31,77.67h-11.81V533.08h11.81Zm60.74,87.8h-15.86V564h15.86Zm1.3-138.77h-17.16v-26.7h17.16ZM5179.68,644h-24.2V617.29h24.2Zm12.09-110.32h-24.2V507h24.2Zm64.23-30.3h-24.2v-26.7H5256Zm31.5,116.23h-24.2v-26.7h24.2Zm369.88,61h-11.77V667.64h11.77Zm.53-23.87h-12.3V643.77h12.3Zm0-23.86h-12.3V619.91h12.3Zm0-23.87h-12.3V596.05h12.3Zm0-23.86h-12.3V572.18h12.3Zm0-23.86h-12.3V548.32h12.3Zm22.71,94.18h-9.2V643.77h9.2Zm0-28.92h-9.2v-6.61h9.2Zm0-28.93h-9.2v-1.54h9.2Zm0-12.47h-9.2v-3.21h9.2Zm0-23.86h-9.2V553h9.2Zm5-21.52h-14.21V524.05h14.21Zm0-28.93h-14.21V495.13h14.21Zm25.73,81.76h-8.61v-9.05h8.61Zm0-52.83h-8.61v-2.32h8.61Zm0-39.38h-8.61v-5.23h8.61Zm17.56,158.48h-7v-9.05h7Zm0-46.11h-7v-9.05h7Zm0-46.1h-7v-9h7Zm0-46.11h-7v-9h7Zm18.45,20.16h-6.26V537.8h6.26Zm0-103.68h-9.95V426h9.95Zm22.15,80.32h-9.86v-11h9.86Zm0-55.89h-10v-11h10Zm22.15,192.1h-6.18v-11h6.18Zm0-55.88h-6.18v-11h6.18Zm0-55.89h-6.18v-11h6.18Zm0-55.89h-9.95v-11h9.95ZM5813.82,615h-7.73v-3.85h7.73Zm0-48.76h0Zm0-55.89h-9.94v-11h9.94Zm19.66,147H5833v-6.42h.49Zm0-14.12H5833v-6.42h.49Zm0-14.11H5833v-6.42h.49Zm0-14.12H5833v-6.42h.49Zm0-14.11H5833v-6.43h.49Zm0-14.12H5833v-6.42h.49Zm0-14.11H5833V566.2h.49Zm23.3,71.73h0v-7.79h0Zm0-17.11h0v-7.79h0Zm0-17.11h0v-7.79h0Zm0-17.11h0v-7.78h0Zm0-17.11h0v-7.79h0Zm0-17.11h0V551h0Zm0-17.11h0V533.9h0Zm0-17.11h0V516.8h0Zm25.87,119.77h-6.3v-7.79h6.3Zm0-17.11h-6.3v-7.79h6.3Zm0-17.11h-6.3v-7.79h6.3Zm0-17.11h-6.3v-7.78h6.3Zm0-17.11h-6.3v-7.79h6.3Zm0-17.11h-6.3V551h6.3Zm0-17.11h-6.3V533.9h6.3Zm0-17.11h-6.3V516.8h6.3Zm24.42,44.52h-10.72v-14h10.72Zm0-77.79h-13.31v-14h13.31Zm38.13,0h-7.28v-14h7.28Zm28.21,29h-13.08V503.36h13.08Zm0-94.29H5958V409.07h15.37Zm19.91,137.68h-8.83v-17h8.83Zm14.22-102h-4.82v2h-10.55v-17h15.37ZM6022.91,426h-15.37V409.07h15.37Zm144,72.29h-13.31v-14h13.31Zm0-47.73h-13.31v-14h13.31Zm32.68-99.37H6215v17h-15.37Zm0,104H6215v17h-15.37Zm20.66,159.52h-13v-17h13Zm17.11-108.58H6222v-2.78h15.37Zm36.17-71.64h-15.37V417.55h15.37Zm0-57.85h-15.37v-17h15.37Zm38.3,281.69H6302V638.68h9.82Zm66.59,2.16h-1.7v-12h1.7Zm59.32-155.2h-13.31v-14h13.31Zm3.18-61.71h-3.18v-14H6441Zm0-60.9h-9.83v-14H6441Zm61,171.64H6485.7V368.25h16.23Zm62.43-49h-19.29v-14h19.29Zm0-117.09H6558V461.7h-28.6V368.25h35Zm14.33-110.81h15.37v17h-15.37Zm23.06,90.77h-15.37v-17h15.37Zm140,74.81h-31.4V426h31.4Zm20.15-91.77h31.4v17h-31.4ZM6809,476.66h-31.4v-17H6809Zm35.3,77.67h-11.81V533.08h11.81Zm60.75,87.8h-15.87V564H6905Zm1.3-138.77h-17.17v-26.7h17.17ZM6979.55,644h-24.2V617.29h24.2Zm12.1-110.32h-24.2V507h24.2Zm64.23-30.3h-24.2v-26.7h24.2Zm31.49,116.23h-24.2v-26.7h24.2Z"/><path class="cls-3" d="M579,130.49a24.88,24.88,0,0,0-6.61.92,38.74,38.74,0,0,0-76.75-.79A24.75,24.75,0,0,0,498.08,180H579a24.76,24.76,0,1,0,0-49.51Z"/><path class="cls-3" d="M899,130.49a24.88,24.88,0,0,0-6.61.92,38.74,38.74,0,0,0-76.75-.79A24.75,24.75,0,0,0,818.08,180H899a24.76,24.76,0,1,0,0-49.51Z"/><path class="cls-3" d="M88.53,161.51a19.26,19.26,0,0,1,5.13.72,30.12,30.12,0,0,1,59.67-.62A19.24,19.24,0,0,1,151.4,200H88.53a19.25,19.25,0,1,1,0-38.49Z"/><path class="cls-3" d="M1802.64,128.49a24.88,24.88,0,0,0-6.61.92,38.74,38.74,0,0,0-76.75-.79,24.75,24.75,0,0,0,2.48,49.38h80.88a24.76,24.76,0,0,0,0-49.51Z"/><path class="cls-3" d="M1501.27,157.64a12.51,12.51,0,0,0,.68-3.89,12.57,12.57,0,0,0-18.39-11.23A30.1,30.1,0,0,0,1430,156.61,19.24,19.24,0,0,0,1432,195h62.87a19.23,19.23,0,0,0,6.44-37.36Z"/><path class="cls-3" d="M2477,173.94a24.88,24.88,0,0,0-6.61.92,38.74,38.74,0,0,0-76.75-.79,24.75,24.75,0,0,0,2.48,49.38H2477a24.76,24.76,0,1,0,0-49.51Z"/><path class="cls-3" d="M2880,200.49a24.88,24.88,0,0,0-6.61.92,38.74,38.74,0,0,0-76.75-.79,24.75,24.75,0,0,0,2.48,49.38H2880a24.76,24.76,0,1,0,0-49.51Z"/><path class="cls-3" d="M2069.53,231.51a19.26,19.26,0,0,1,5.13.72,30.12,30.12,0,0,1,59.67-.62A19.24,19.24,0,0,1,2132.4,270h-62.87a19.25,19.25,0,1,1,0-38.49Z"/><path class="cls-3" d="M2539.59,349.2a12.51,12.51,0,0,0,.68-3.89,12.57,12.57,0,0,0-18.39-11.23,30.1,30.1,0,0,0-53.53,14.09,19.24,19.24,0,0,0,1.93,38.39h62.87a19.23,19.23,0,0,0,6.44-37.36Z"/><path class="cls-3" d="M3993,104.94a24.88,24.88,0,0,0-6.61.92,38.74,38.74,0,0,0-76.75-.79,24.75,24.75,0,0,0,2.48,49.38H3993a24.76,24.76,0,1,0,0-49.51Z"/><path class="cls-3" d="M4396,131.49a24.88,24.88,0,0,0-6.61.92,38.74,38.74,0,0,0-76.75-.79,24.75,24.75,0,0,0,2.48,49.38H4396a24.76,24.76,0,1,0,0-49.51Z"/><path class="cls-3" d="M3585.53,162.51a19.26,19.26,0,0,1,5.13.72,30.12,30.12,0,0,1,59.67-.62A19.24,19.24,0,0,1,3648.4,201h-62.87a19.25,19.25,0,1,1,0-38.49Z"/><path class="cls-3" d="M4055.59,280.2a12.51,12.51,0,0,0,.68-3.89,12.57,12.57,0,0,0-18.39-11.23,30.1,30.1,0,0,0-53.53,14.09,19.24,19.24,0,0,0,1.93,38.39h62.87a19.23,19.23,0,0,0,6.44-37.36Z"/><path class="cls-3" d="M5407,104.94a24.88,24.88,0,0,0-6.61.92,38.74,38.74,0,0,0-76.75-.79,24.75,24.75,0,0,0,2.48,49.38H5407a24.76,24.76,0,1,0,0-49.51Z"/><path class="cls-3" d="M5810,131.49a24.88,24.88,0,0,0-6.61.92,38.74,38.74,0,0,0-76.75-.79,24.75,24.75,0,0,0,2.48,49.38H5810a24.76,24.76,0,1,0,0-49.51Z"/><path class="cls-3" d="M4999.53,162.51a19.26,19.26,0,0,1,5.13.72,30.12,30.12,0,0,1,59.67-.62A19.24,19.24,0,0,1,5062.4,201h-62.87a19.25,19.25,0,1,1,0-38.49Z"/><path class="cls-3" d="M5469.59,280.2a12.51,12.51,0,0,0,.68-3.89,12.57,12.57,0,0,0-18.39-11.23,30.1,30.1,0,0,0-53.53,14.09,19.24,19.24,0,0,0,1.93,38.39h62.87a19.23,19.23,0,0,0,6.44-37.36Z"/><rect class="cls-4" y="795" width="7157.1" height="285"/><line class="cls-5" x1="25.79" y1="901" x2="48.39" y2="901"/><line class="cls-6" x1="93.53" y1="901" x2="7112.83" y2="901"/><line class="cls-5" x1="7135.4" y1="901" x2="7158" y2="901"/></g></g></svg>