<svg xmlns="http://www.w3.org/2000/svg" viewBox="0 0 7168.02 592.83"><defs><style>.cls-1{fill:#333;opacity:0.44;}</style></defs><title>Asset 3</title><g id="Layer_2" data-name="Layer 2"><g id="Layer_1-2" data-name="Layer 1"><path class="cls-1" d="M7038.32,519.64V460.88h-11.66V409.49h-61.93V129.06H6924V261H6818.18V220.43h-61.94V261h-10.1v-49.5h-35.23V320.28h-21.47V101.4H6582.19v89.17h-33V0h-31.71V354.93h-9.65V188.65h-15.94V52.41h-70.52v97.35h-35V105h-27.45v44.77h-16.22V58.41h5.88c6.49,0,11.75-5.82,11.75-13V36.94c0-7.17-5.26-13-11.75-13h-7.24c0-13.23-9.71-24-21.7-24s-21.7,10.73-21.7,24h-7.23c-6.49,0-11.76,5.81-11.76,13v8.49c0,7.16,5.27,13,11.76,13h7.23v89.82h-22.24v80.31h-32.53v15.6h32.53V354.93h-42.86V244.48h-40.69V348.91h-23.31V397.8H6159V113.39H6039.94v85.15h-57.36v-8h-41.76V222H5930v16.47h-14.24V261H5930V422.33h-.7v38.55H5905.9V320.28h12.74V301.74H5905.9V288.15h-10.1V262.21h-3.94V190.57h-16.15l5.19-21.9h-67.81v21.9h-11v53.57h-7.28v-7.89h-22.6v7.89h-23.19v18.07h-9.49V298.1h-31.3V460.88h-11v-110h-7.37V264.69h-29.84V211.54h-74.24v68H5552.3v8.41h-31.53v54.6H5496v101H5412.9v75.87H5350v.27h-25.52V465a30.31,30.31,0,0,0,3.65-6.39,31.29,31.29,0,1,0,54.7-28.75,17.59,17.59,0,0,0,2.43-27.92,34.93,34.93,0,0,0-34.2-58.48c0-.57,0-1.14,0-1.71a37.61,37.61,0,1,0-73.88,9.94,33.62,33.62,0,0,0-7.09,60.76,23,23,0,0,0,1.42,24.58,30.27,30.27,0,0,0,39.61,38.11v44.51h-72.85V460.88h-11.66V409.49h-61.93V129.06H5124V261H5018.18V220.43h-61.94V261h-10.1v-49.5h-35.23V320.28h-21.47V101.4H4782.19v89.17h-33V0h-31.71V354.93h-9.65V188.65h-15.94V52.41h-70.52v97.35h-35V105h-27.45v44.77h-16.22V58.41h5.88c6.49,0,11.75-5.82,11.75-13V36.94c0-7.17-5.26-13-11.75-13h-7.24c0-13.23-9.71-24-21.7-24s-21.7,10.73-21.7,24h-7.23c-6.49,0-11.76,5.81-11.76,13v8.49c0,7.16,5.27,13,11.76,13h7.23v89.82h-22.24v80.31h-32.53v15.6h32.53V354.93h-42.86V244.48h-40.69V348.91h-23.31V397.8H4359V113.39H4239.94v85.15h-57.36v-8h-41.76V222H4130v16.47h-14.24V261H4130V422.33h-.7v38.55H4105.9V320.28h12.74V301.74H4105.9V288.15h-10.1V262.21h-3.94V190.57h-16.15l5.19-21.9h-67.81v21.9h-11v53.57h-7.28v-7.89h-22.6v7.89h-23.19v18.07h-9.49V298.1h-31.3V460.88h-11v-110h-7.37V264.69h-29.84V211.54h-74.24v68H3752.3v8.41h-31.53v54.6H3696v101H3612.9v76.14H3488.32V460.88h-11.66V409.49h-61.93V129.06H3374V261H3268.18V220.43h-61.94V261h-10.1v-49.5h-35.23V320.28h-21.47V101.4H3032.19v89.17h-33V0h-31.71V354.93h-9.65V188.65h-15.94V52.41h-70.52v97.35h-35V105h-27.45v44.77h-16.22V58.41h5.88c6.49,0,11.75-5.82,11.75-13V36.94c0-7.17-5.26-13-11.75-13h-7.24c0-13.23-9.71-24-21.7-24s-21.7,10.73-21.7,24h-7.23c-6.49,0-11.76,5.81-11.76,13v8.49c0,7.16,5.27,13,11.76,13h7.23v89.82h-22.24v80.31h-32.53v15.6h32.53V354.93h-42.86V244.48h-40.69V348.91h-23.31V397.8H2609V113.39h-119v85.15h-57.36v-8h-41.76V222H2380v16.47h-14.24V261H2380V422.33h-.7v38.55H2355.9V320.28h12.74V301.74H2355.9V288.15h-10.1V262.21h-3.94V190.57h-16.15l5.19-21.9h-67.81v21.9h-11v53.57h-7.28v-7.89h-22.6v7.89h-23.19v18.07h-9.49V298.1h-31.3V460.88h-11v-110h-7.37V264.69h-29.84V211.54h-74.24v68H2002.3v8.41h-31.53v54.6H1946v101H1862.9v75.87H1800v.27h-16.52V465a30.31,30.31,0,0,0,3.65-6.39,31.29,31.29,0,1,0,54.7-28.75,17.59,17.59,0,0,0,2.43-27.92,34.93,34.93,0,0,0-34.2-58.48c0-.57,0-1.14,0-1.71a37.61,37.61,0,1,0-73.88,9.94,33.62,33.62,0,0,0-7.09,60.76,23,23,0,0,0,1.42,24.58,30.27,30.27,0,0,0,39.61,38.11v44.51h-81.85V460.88h-11.66V409.49h-61.93V129.06H1574V261H1468.18V220.43h-61.94V261h-10.1v-49.5h-35.23V320.28h-21.47V101.4H1232.19v89.17h-33V0h-31.71V354.93h-9.65V188.65h-15.94V52.41h-70.52v97.35h-35V105h-27.45v44.77H992.67V58.41h5.88c6.49,0,11.75-5.82,11.75-13V36.94c0-7.17-5.26-13-11.75-13h-7.24c0-13.23-9.71-24-21.7-24s-21.7,10.73-21.7,24h-7.23c-6.49,0-11.76,5.81-11.76,13v8.49c0,7.16,5.27,13,11.76,13h7.23v89.82H925.67v80.31H893.14v15.6h32.53V354.93H882.81V244.48H842.12V348.91H818.81V397.8H809V113.39h-119v85.15H632.58v-8H590.82V222H580v16.47H565.73V261H580V422.33h-.7v38.55H555.9V320.28h12.74V301.74H555.9V288.15H545.8V262.21h-3.94V190.57H525.71l5.19-21.9H463.09v21.9h-11v53.57h-7.28v-7.89h-22.6v7.89H399.06v18.07h-9.49V298.1h-31.3V460.88h-11v-110h-7.37V264.69H310.07V211.54H235.83v68H202.3v8.41H170.77v54.6H146v101H62.9v80.87H0v65.89H140.36v2.57H1459.85l193.33-.29H1818v-.21l122.34.5H3259.85v-1.5h193.33v1.21H3618v-2.28h72.34v2.57H5009.85l193.33-.29H5368v-.21l122.34.5H6809.85v-1.5h193.33v1.21H7168v-72.9Zm-6874-38.35H152.51v-13h11.78Zm.53-23.88H152.51v-13h12.31Zm0-23.89H152.51V420.57h12.31Zm0-23.89H152.51V396.69h12.31Zm0-23.88H152.51V372.8h12.31Zm0-23.89H152.51V348.91h12.31Zm22.71,94.28h-9.21V444.46h9.21Zm0-29h-9.21v-6.61h9.21Zm0-28.95h-9.21v-1.54h9.21Zm0-12.48h-9.21v-3.22h9.21Zm0-23.89h-9.21v-8.28h9.21Zm5-21.54H178.32v-15.7h14.22Zm0-29H178.32V295.67h14.22Zm25.74,81.85h-8.62v-9.06h8.62Zm0-52.89h-8.62V338h8.62Zm0-39.41h-8.62v-5.24h8.62Zm17.55,158.63h-7v-9.06h7Zm0-46.15h-7v-9.06h7Zm0-46.15h-7v-9.06h7Zm0-46.15h-7V312h7Zm18.45,20.18H248v-2.89h6.25Zm0-103.79h-9.95v-11h9.95Zm22.15,80.4h-9.85v-11h9.85Zm0-55.94h-9.94V251h9.94Zm22.16,192.29h-6.18v-11h6.18Zm0-56h-6.18v-11h6.18Zm0-55.94h-6.18v-11h6.18Zm0-55.94h-9.95v-11h9.95Zm22.15,129.22H313v-3.86h7.74Zm0-48.81h0Zm0-55.95H310.8v-11h9.94ZM340.41,458h-.5v-6.42h.5Zm0-14.12h-.5v-6.43h.5Zm0-14.13h-.5v-6.43h.5Zm0-14.13h-.5v-6.43h.5Zm0-14.13h-.5v-6.43h.5Zm0-14.13h-.5v-6.43h.5Zm0-14.13h-.5V366.8h.5ZM363.7,445h0v-7.79h0Zm0-17.12h0v-7.79h0Zm0-17.13h0V403h0Zm0-17.13h0v-7.79h0Zm0-17.12h0v-7.8h0Zm0-17.13h0v-7.79h0Zm0-17.13h0v-7.79h0Zm0-17.12h0v-7.79h0ZM389.57,445h-6.3v-7.79h6.3Zm0-17.12h-6.3v-7.79h6.3Zm0-17.13h-6.3V403h6.3Zm0-17.13h-6.3v-7.79h6.3Zm0-17.12h-6.3v-7.8h6.3Zm0-17.13h-6.3v-7.79h6.3Zm0-17.13h-6.3v-7.79h6.3Zm0-17.12h-6.3v-7.79h6.3ZM414,369.71H403.28v-14H414Zm0-77.86H400.69v-14H414Zm38.13,0h-7.28v-14h7.28Zm28.21,29H467.26v-17h13.08Zm0-94.38H465v-17h15.37Zm19.91,137.81h-8.83v-17h8.83Zm14.23-102.1h-4.83v2H499.1v-17h15.38Zm15.37-35.71H514.48v-17h15.37Zm144,72.35H660.57v-14h13.31Zm0-47.78H660.57v-14h13.31Zm32.69-99.46h15.37v17H706.57Zm0,104.09h15.37v17H706.57Zm20.65,159.67h-13v-17h13Zm17.12-108.68H729V303.9h15.37ZM780.51,235H765.14V218h15.37Zm0-57.91H765.14v-17h15.37Zm38.3,282H809V439.36h9.82Zm66.6,2.16h-1.7v-12h1.7Zm59.32-155.35H931.42v-14h13.31Zm3.18-61.77h-3.18v-14h3.18Zm0-61h-9.83v-14h9.83Zm61,171.81H992.67V168.67h16.22Zm62.45-49.08H1052v-14h19.3Zm0-117.2h-6.4v73.56h-28.6V168.67h35Zm14.32-110.92H1101v17h-15.38Zm23.06,90.86h-15.37v-17h15.37Zm140,74.88h-31.41v-17h31.41Zm20.14-91.86h31.4v17h-31.4Zm47.1,125.57h-31.4v-17h31.4Zm35.31,77.75h-11.81V333.66h11.81ZM1412,442.81h-15.86V364.63H1412Zm1.3-138.91h-17.16V277.18h17.16Zm73.25,140.77h-24.2V417.94h24.2Zm12.1-110.43h-24.2V307.52h24.2Zm64.23-30.34h-24.2V277.18h24.2Zm31.5,116.35h-24.2V393.52h24.2Zm369.91,61h-11.78v-13h11.78Zm.53-23.88h-12.31v-13h12.31Zm0-23.89h-12.31V420.57h12.31Zm0-23.89h-12.31V396.69h12.31Zm0-23.88h-12.31V372.8h12.31Zm0-23.89h-12.31V348.91h12.31Zm22.71,94.28h-9.21V444.46h9.21Zm0-29h-9.21v-6.61h9.21Zm0-28.95h-9.21v-1.54h9.21Zm0-12.48h-9.21v-3.22h9.21Zm0-23.89h-9.21v-8.28h9.21Zm5-21.54h-14.22v-15.7h14.22Zm0-29h-14.22V295.67h14.22Zm25.74,81.85h-8.62v-9.06h8.62Zm0-52.89h-8.62V338h8.62Zm0-39.41h-8.62v-5.24h8.62Zm17.55,158.63h-7v-9.06h7Zm0-46.15h-7v-9.06h7Zm0-46.15h-7v-9.06h7Zm0-46.15h-7V312h7Zm18.45,20.18H2048v-2.89h6.25Zm0-103.79h-10v-11h10Zm22.16,80.4h-9.86v-11h9.86Zm0-55.94h-10V251h10Zm22.15,192.29h-6.18v-11h6.18Zm0-56h-6.18v-11h6.18Zm0-55.94h-6.18v-11h6.18Zm0-55.94h-10v-11h10Zm22.15,129.22H2113v-3.86h7.74Zm0-48.81h0Zm0-55.95h-9.94v-11h9.94ZM2140.41,458h-.5v-6.42h.5Zm0-14.12h-.5v-6.43h.5Zm0-14.13h-.5v-6.43h.5Zm0-14.13h-.5v-6.43h.5Zm0-14.13h-.5v-6.43h.5Zm0-14.13h-.5v-6.43h.5Zm0-14.13h-.5V366.8h.5ZM2163.7,445h0v-7.79h0Zm0-17.12h0v-7.79h0Zm0-17.13h0V403h0Zm0-17.13h0v-7.79h0Zm0-17.12h0v-7.8h0Zm0-17.13h0v-7.79h0Zm0-17.13h0v-7.79h0Zm0-17.12h0v-7.79h0ZM2189.57,445h-6.3v-7.79h6.3Zm0-17.12h-6.3v-7.79h6.3Zm0-17.13h-6.3V403h6.3Zm0-17.13h-6.3v-7.79h6.3Zm0-17.12h-6.3v-7.8h6.3Zm0-17.13h-6.3v-7.79h6.3Zm0-17.13h-6.3v-7.79h6.3Zm0-17.12h-6.3v-7.79h6.3ZM2214,369.71h-10.72v-14H2214Zm0-77.86h-13.31v-14H2214Zm38.13,0h-7.28v-14h7.28Zm28.21,29h-13.08v-17h13.08Zm0-94.38H2265v-17h15.37Zm19.91,137.81h-8.83v-17h8.83Zm14.23-102.1h-4.83v2H2299.1v-17h15.38Zm15.37-35.71h-15.37v-17h15.37Zm144,72.35h-13.31v-14h13.31Zm0-47.78h-13.31v-14h13.31Zm32.69-99.46h15.37v17h-15.37Zm0,104.09h15.37v17h-15.37Zm20.65,159.67h-13v-17h13Zm17.12-108.68H2529V303.9h15.37ZM2580.51,235h-15.37V218h15.37Zm0-57.91h-15.37v-17h15.37Zm38.3,282H2609V439.36h9.82Zm66.6,2.16h-1.7v-12h1.7Zm59.32-155.35h-13.31v-14h13.31Zm3.18-61.77h-3.18v-14h3.18Zm0-61h-9.83v-14h9.83Zm61,171.81h-16.22V168.67h16.22Zm62.45-49.08H2852v-14h19.3Zm0-117.2h-6.4v73.56h-28.6V168.67h35Zm14.32-110.92H2901v17h-15.38Zm23.06,90.86h-15.37v-17h15.37Zm140,74.88h-31.41v-17h31.41Zm20.14-91.86h31.4v17h-31.4Zm47.1,125.57h-31.4v-17h31.4Zm35.31,77.75h-11.81V333.66h11.81ZM3212,442.81h-15.86V364.63H3212Zm1.3-138.91h-17.16V277.18h17.16Zm73.25,140.77h-24.2V417.94h24.2Zm12.1-110.43h-24.2V307.52h24.2Zm64.23-30.34h-24.2V277.18h24.2Zm31.5,116.35h-24.2V393.52h24.2Zm319.91,61h-11.78v-13h11.78Zm.53-23.88h-12.31v-13h12.31Zm0-23.89h-12.31V420.57h12.31Zm0-23.89h-12.31V396.69h12.31Zm0-23.88h-12.31V372.8h12.31Zm0-23.89h-12.31V348.91h12.31Zm22.71,94.28h-9.21V444.46h9.21Zm0-29h-9.21v-6.61h9.21Zm0-28.95h-9.21v-1.54h9.21Zm0-12.48h-9.21v-3.22h9.21Zm0-23.89h-9.21v-8.28h9.21Zm5-21.54h-14.22v-15.7h14.22Zm0-29h-14.22V295.67h14.22Zm25.74,81.85h-8.62v-9.06h8.62Zm0-52.89h-8.62V338h8.62Zm0-39.41h-8.62v-5.24h8.62Zm17.55,158.63h-7v-9.06h7Zm0-46.15h-7v-9.06h7Zm0-46.15h-7v-9.06h7Zm0-46.15h-7V312h7Zm18.45,20.18H3798v-2.89h6.25Zm0-103.79h-10v-11h10Zm22.16,80.4h-9.86v-11h9.86Zm0-55.94h-10V251h10Zm22.15,192.29h-6.18v-11h6.18Zm0-56h-6.18v-11h6.18Zm0-55.94h-6.18v-11h6.18Zm0-55.94h-10v-11h10Zm22.15,129.22H3863v-3.86h7.74Zm0-48.81h0Zm0-55.95h-9.94v-11h9.94ZM3890.41,458h-.5v-6.42h.5Zm0-14.12h-.5v-6.43h.5Zm0-14.13h-.5v-6.43h.5Zm0-14.13h-.5v-6.43h.5Zm0-14.13h-.5v-6.43h.5Zm0-14.13h-.5v-6.43h.5Zm0-14.13h-.5V366.8h.5ZM3913.7,445h0v-7.79h0Zm0-17.12h0v-7.79h0Zm0-17.13h0V403h0Zm0-17.13h0v-7.79h0Zm0-17.12h0v-7.8h0Zm0-17.13h0v-7.79h0Zm0-17.13h0v-7.79h0Zm0-17.12h0v-7.79h0ZM3939.57,445h-6.3v-7.79h6.3Zm0-17.12h-6.3v-7.79h6.3Zm0-17.13h-6.3V403h6.3Zm0-17.13h-6.3v-7.79h6.3Zm0-17.12h-6.3v-7.8h6.3Zm0-17.13h-6.3v-7.79h6.3Zm0-17.13h-6.3v-7.79h6.3Zm0-17.12h-6.3v-7.79h6.3ZM3964,369.71h-10.72v-14H3964Zm0-77.86h-13.31v-14H3964Zm38.13,0h-7.28v-14h7.28Zm28.21,29h-13.08v-17h13.08Zm0-94.38H4015v-17h15.37Zm19.91,137.81h-8.83v-17h8.83Zm14.23-102.1h-4.83v2H4049.1v-17h15.38Zm15.37-35.71h-15.37v-17h15.37Zm144,72.35h-13.31v-14h13.31Zm0-47.78h-13.31v-14h13.31Zm32.69-99.46h15.37v17h-15.37Zm0,104.09h15.37v17h-15.37Zm20.65,159.67h-13v-17h13Zm17.12-108.68H4279V303.9h15.37ZM4330.51,235h-15.37V218h15.37Zm0-57.91h-15.37v-17h15.37Zm38.3,282H4359V439.36h9.82Zm66.6,2.16h-1.7v-12h1.7Zm59.32-155.35h-13.31v-14h13.31Zm3.18-61.77h-3.18v-14h3.18Zm0-61h-9.83v-14h9.83Zm61,171.81h-16.22V168.67h16.22Zm62.45-49.08H4602v-14h19.3Zm0-117.2h-6.4v73.56h-28.6V168.67h35Zm14.32-110.92H4651v17h-15.38Zm23.06,90.86h-15.37v-17h15.37Zm140,74.88h-31.41v-17h31.41Zm20.14-91.86h31.4v17h-31.4Zm47.1,125.57h-31.4v-17h31.4Zm35.31,77.75h-11.81V333.66h11.81ZM4962,442.81h-15.86V364.63H4962Zm1.3-138.91h-17.16V277.18h17.16Zm73.25,140.77h-24.2V417.94h24.2Zm12.1-110.43h-24.2V307.52h24.2Zm64.23-30.34h-24.2V277.18h24.2Zm31.5,116.35h-24.2V393.52h24.2Zm369.91,61h-11.78v-13h11.78Zm.53-23.88h-12.31v-13h12.31Zm0-23.89h-12.31V420.57h12.31Zm0-23.89h-12.31V396.69h12.31Zm0-23.88h-12.31V372.8h12.31Zm0-23.89h-12.31V348.91h12.31Zm22.71,94.28h-9.21V444.46h9.21Zm0-29h-9.21v-6.61h9.21Zm0-28.95h-9.21v-1.54h9.21Zm0-12.48h-9.21v-3.22h9.21Zm0-23.89h-9.21v-8.28h9.21Zm5-21.54h-14.22v-15.7h14.22Zm0-29h-14.22V295.67h14.22Zm25.74,81.85h-8.62v-9.06h8.62Zm0-52.89h-8.62V338h8.62Zm0-39.41h-8.62v-5.24h8.62Zm17.55,158.63h-7v-9.06h7Zm0-46.15h-7v-9.06h7Zm0-46.15h-7v-9.06h7Zm0-46.15h-7V312h7Zm18.45,20.18H5598v-2.89h6.25Zm0-103.79h-9.95v-11h9.95Zm22.16,80.4h-9.86v-11h9.86Zm0-55.94h-9.95V251h9.95Zm22.15,192.29h-6.18v-11h6.18Zm0-56h-6.18v-11h6.18Zm0-55.94h-6.18v-11h6.18Zm0-55.94h-9.95v-11h9.95Zm22.15,129.22H5663v-3.86h7.74Zm0-48.81h0Zm0-55.95h-9.94v-11h9.94ZM5690.41,458h-.5v-6.42h.5Zm0-14.12h-.5v-6.43h.5Zm0-14.13h-.5v-6.43h.5Zm0-14.13h-.5v-6.43h.5Zm0-14.13h-.5v-6.43h.5Zm0-14.13h-.5v-6.43h.5Zm0-14.13h-.5V366.8h.5ZM5713.7,445h0v-7.79h0Zm0-17.12h0v-7.79h0Zm0-17.13h0V403h0Zm0-17.13h0v-7.79h0Zm0-17.12h0v-7.8h0Zm0-17.13h0v-7.79h0Zm0-17.13h0v-7.79h0Zm0-17.12h0v-7.79h0ZM5739.57,445h-6.3v-7.79h6.3Zm0-17.12h-6.3v-7.79h6.3Zm0-17.13h-6.3V403h6.3Zm0-17.13h-6.3v-7.79h6.3Zm0-17.12h-6.3v-7.8h6.3Zm0-17.13h-6.3v-7.79h6.3Zm0-17.13h-6.3v-7.79h6.3Zm0-17.12h-6.3v-7.79h6.3ZM5764,369.71h-10.72v-14H5764Zm0-77.86h-13.31v-14H5764Zm38.13,0h-7.28v-14h7.28Zm28.21,29h-13.08v-17h13.08Zm0-94.38H5815v-17h15.37Zm19.91,137.81h-8.83v-17h8.83Zm14.23-102.1h-4.83v2H5849.1v-17h15.38Zm15.37-35.71h-15.37v-17h15.37Zm144,72.35h-13.31v-14h13.31Zm0-47.78h-13.31v-14h13.31Zm32.69-99.46h15.37v17h-15.37Zm0,104.09h15.37v17h-15.37Zm20.65,159.67h-13v-17h13Zm17.12-108.68H6079V303.9h15.37ZM6130.51,235h-15.37V218h15.37Zm0-57.91h-15.37v-17h15.37Zm38.3,282H6159V439.36h9.82Zm66.6,2.16h-1.7v-12h1.7Zm59.32-155.35h-13.31v-14h13.31Zm3.18-61.77h-3.18v-14h3.18Zm0-61h-9.83v-14h9.83Zm61,171.81h-16.22V168.67h16.22Zm62.45-49.08H6402v-14h19.3Zm0-117.2h-6.4v73.56h-28.6V168.67h35Zm14.32-110.92H6451v17h-15.38Zm23.06,90.86h-15.37v-17h15.37Zm140,74.88h-31.41v-17h31.41Zm20.14-91.86h31.4v17h-31.4Zm47.1,125.57h-31.4v-17h31.4Zm35.31,77.75h-11.81V333.66h11.81ZM6762,442.81h-15.86V364.63H6762Zm1.3-138.91h-17.16V277.18h17.16Zm73.25,140.77h-24.2V417.94h24.2Zm12.1-110.43h-24.2V307.52h24.2Zm64.23-30.34h-24.2V277.18h24.2Zm31.5,116.35h-24.2V393.52h24.2Z"/></g></g></svg>