<svg id="Layer_1" data-name="Layer 1" xmlns="http://www.w3.org/2000/svg" viewBox="0 0 1920 1080"><defs><style>.cls-1{fill:#333;opacity:0.15;}.cls-2{fill:#fff8ed;}.cls-3{fill:#999;}.cls-4{fill:#666;}.cls-5{fill:none;stroke:#fff;stroke-linecap:round;stroke-linejoin:round;stroke-width:3.8px;stroke-dasharray:47.48 47.48;}</style></defs><title>huis</title><rect class="cls-1" x="-2618.7" y="-9" width="7157.4" height="818"/><path class="cls-2" d="M196.26,101.94a24.88,24.88,0,0,0-6.61.92,38.74,38.74,0,0,0-76.75-.79,24.75,24.75,0,0,0,2.48,49.38h80.88a24.76,24.76,0,1,0,0-49.51Z"/><path class="cls-2" d="M599.26,128.49a24.88,24.88,0,0,0-6.61.92,38.74,38.74,0,0,0-76.75-.79A24.75,24.75,0,0,0,518.38,178h80.88a24.76,24.76,0,1,0,0-49.51Z"/><path class="cls-3" d="M4419.61,735.89V677.18H4408V625.84H4346V345.68h-40.69V477.45H4199.48V437h-61.94v40.49h-10.1V428h-35.22v108.7h-21.46V318.05H3963.51v89.08h-33V216.75h-31.7V571.33h-9.66V405.21h-15.93V269.11h-70.52v97.25h-35V321.64h-27.44v44.72H3724V275.1h5.87c6.49,0,11.75-5.81,11.75-13v-8.48c0-7.16-5.26-13-11.75-13h-7.23c0-13.22-9.72-23.94-21.7-23.94s-21.7,10.72-21.7,23.94H3672c-6.49,0-11.76,5.8-11.76,13v8.48c0,7.16,5.27,13,11.76,13h7.23v89.74H3657v80.23h-32.53v15.58H3657V571.33h-42.86V461h-40.68V565.32h-23.31v48.84h-9.82V330h-119v85.06h-57.36v-8h-41.76v31.42h-10.85V455h-14.24v22.44h14.24V638.66h-.7v38.52h-23.36V536.71H3300V518.2h-12.74V504.62h-10.1V478.7h-3.94V407.13h-16.16l5.2-21.88h-67.81v21.88h-11v53.52h-7.27v-7.89h-22.61v7.89h-23.18V478.7H3121v35.85h-31.3V677.18h-11V567.32h-7.37V481.18h-29.84v-53.1h-74.23V496h-33.53v8.4h-31.53v54.55h-24.79V659.81H2794.3v75.8h-62.9v.28h-25.51v-54.6a30.31,30.31,0,0,0,3.65-6.39,31.28,31.28,0,1,0,54.69-28.72,17.55,17.55,0,0,0,2.43-27.89,34.92,34.92,0,0,0-34.19-58.43c0-.56,0-1.13,0-1.7a37.61,37.61,0,1,0-73.87,9.93,33.58,33.58,0,0,0-7.09,60.7,22.92,22.92,0,0,0,1.42,24.55,30.28,30.28,0,0,0,39.61,38.08v44.47h-72.85V677.18h-11.65V625.84h-61.94V345.68h-40.68V477.45H2399.61V437h-61.94v40.49h-10.1V428h-35.23v108.7h-21.46V318.05H2163.64v89.08h-33V216.75h-31.7V571.33h-9.65V405.21h-15.94V269.11h-70.52v97.25h-35V321.64h-27.45v44.72h-16.22V275.1H1930c6.49,0,11.75-5.81,11.75-13v-8.48c0-7.16-5.26-13-11.75-13h-7.24c0-13.22-9.71-23.94-21.7-23.94s-21.7,10.72-21.7,23.94h-7.23c-6.49,0-11.75,5.8-11.75,13v8.48c0,7.16,5.26,13,11.75,13h7.24v89.74h-22.24v80.23h-32.53v15.58h32.53V571.33h-42.86V461h-40.69V565.32h-23.3v48.84h-9.82V330h-119v85.06h-57.36v-8h-41.75v31.42h-10.85V455h-14.24v22.44h14.24V638.66h-.7v38.52h-23.37V536.71h12.74V518.2h-12.74V504.62h-10.1V478.7h-3.94V407.13H1457.2l5.2-21.88h-67.81v21.88h-11v53.52h-7.28v-7.89h-22.6v7.89h-23.19V478.7h-9.48v35.85h-31.3V677.18h-11V567.32h-7.37V481.18h-29.83v-53.1h-74.24V496h-33.52v8.4h-31.53v54.55h-24.8V659.81H994.42v76.08H869.86V677.18H858.2V625.84H796.26V345.68H755.58V477.45H649.73V437H587.79v40.49h-10.1V428H542.47v108.7H521V318.05H413.76v89.08h-33V216.75H349V571.33h-9.66V405.21H323.43V269.11H252.91v97.25h-35V321.64H190.48v44.72H174.25V275.1h5.88c6.49,0,11.75-5.81,11.75-13v-8.48c0-7.16-5.26-13-11.75-13H172.9c0-13.22-9.72-23.94-21.7-23.94s-21.7,10.72-21.7,23.94h-7.23c-6.5,0-11.76,5.8-11.76,13v8.48c0,7.16,5.26,13,11.76,13h7.23v89.74H107.26v80.23H74.73v15.58h32.53V571.33H64.4V461H23.71V565.32H.41v48.84H-9.41V330h-119v85.06h-57.36v-8h-41.76v31.42h-10.85V455h-14.24v22.44h14.24V638.66h-.7v38.52h-23.36V536.71h12.73V518.2h-12.73V504.62h-10.1V478.7h-3.95V407.13h-16.15l5.2-21.88h-67.81v21.88h-11v53.52h-7.28v-7.89h-22.6v7.89h-23.19V478.7h-9.48v35.85h-31.3V677.18h-11V567.32h-7.37V481.18H-508.3v-53.1h-74.23V496h-33.53v8.4h-31.53v54.55h-24.8V659.81h-83.06v75.8h-62.9v.28h-16.51v-54.6a29.84,29.84,0,0,0,3.64-6.39,31.29,31.29,0,0,0,29.63,21.24,31.27,31.27,0,0,0,31.29-31.25,31.15,31.15,0,0,0-6.22-18.71,17.58,17.58,0,0,0,8.21-14.88,17.51,17.51,0,0,0-5.78-13,34.83,34.83,0,0,0,10.44-24.89,34.92,34.92,0,0,0-34.94-34.91,34.8,34.8,0,0,0-9.69,1.37c0-.56,0-1.13,0-1.7a37.59,37.59,0,0,0-37.61-37.57,37.58,37.58,0,0,0-37.6,37.57,37.83,37.83,0,0,0,1.33,9.93,33.6,33.6,0,0,0-23.3,32,33.57,33.57,0,0,0,16.22,28.74A22.76,22.76,0,0,0-892.1,640a22.79,22.79,0,0,0,4.32,13.39,30.21,30.21,0,0,0-1.66,9.88,30.27,30.27,0,0,0,30.28,30.26,30.27,30.27,0,0,0,11-2.06v44.47H-930V677.18h-11.65V625.84h-61.94V345.68h-40.69V477.45h-105.85V437h-61.93v40.49h-10.1V428h-35.23v108.7h-21.46V318.05h-107.24v89.08h-33V216.75h-31.7V571.33h-9.65V405.21h-15.94V269.11H-1547v97.25h-35V321.64h-27.45v44.72h-16.22V275.1h5.87c6.5,0,11.76-5.81,11.76-13v-8.48c0-7.16-5.26-13-11.76-13H-1627c0-13.22-9.71-23.94-21.7-23.94s-21.7,10.72-21.7,23.94h-7.23c-6.49,0-11.75,5.8-11.75,13v8.48c0,7.16,5.26,13,11.75,13h7.23v89.74h-22.23v80.23h-32.54v15.58h32.54V571.33h-42.86V461h-40.69V565.32h-23.3v48.84h-9.83V330h-119v85.06h-57.36v-8h-41.75v31.42h-10.85V455h-14.25v22.44h14.25V638.66h-.71v38.52h-23.36V536.71h12.74V518.2h-12.74V504.62h-10.1V478.7h-3.94V407.13h-16.15l5.19-21.88h-67.81v21.88h-10.95v53.52h-7.28v-7.89H-2196v7.89h-23.19V478.7h-9.49v35.85H-2260V677.18h-11V567.32h-7.37V481.18h-29.84v-53.1h-74.23V496h-33.52v8.4h-31.54v54.55h-24.79V659.81h-83.07V740.6h-62.89v65.83h140.35V809h1319.4l193.31-.29h164.83v-.2L-678,809H641.4v-1.49H834.72v1.2H999.55v-2.28h72.33V809h1319.4l193.32-.29h164.83v-.2l122.33.49h1319.4v-1.49h193.31v1.2H4538.3l1-72.82Zm-6730.55-44.31h-11.78V678.64h11.78Zm.53-23.87h-12.31V654.77h12.31Zm0-23.86h-12.31V630.91h12.31Zm0-23.87h-12.31V607.05h12.31Zm0-23.86h-12.31V583.18h12.31Zm0-23.86h-12.31V559.32h12.31Zm22.7,94.18h-9.2V654.77h9.2Zm0-28.92h-9.2v-6.61h9.2Zm0-28.93h-9.2v-1.54h9.2Zm0-12.47h-9.2v-3.21h9.2Zm0-23.86h-9.2V564h9.2Zm5-21.52h-14.22V535.05h14.22Zm0-28.93h-14.22V506.13h14.22Zm25.73,81.76h-8.61v-9.05h8.61Zm0-52.83h-8.61v-2.32h8.61Zm0-39.38h-8.61v-5.23h8.61Zm17.55,158.48h-7v-9.05h7Zm0-46.11h-7v-9.05h7Zm0-46.1h-7v-9h7Zm0-46.11h-7v-9h7Zm18.45,20.16h-6.25V548.8h6.25Zm0-103.68h-9.94V437h9.94Zm22.15,80.32h-9.85v-11h9.85Zm0-55.89h-9.94v-11h9.94Zm22.16,192.1h-6.18v-11h6.18Zm0-55.88h-6.18v-11h6.18Zm0-55.89h-6.18v-11h6.18Zm0-55.89h-9.95v-11h9.95ZM-2154.5,626h-7.74v-3.85h7.74Zm0-48.76h0Zm0-55.89h-9.95v-11h9.95Zm19.66,147h-.5v-6.42h.5Zm0-14.12h-.5v-6.42h.5Zm0-14.11h-.5v-6.42h.5Zm0-14.12h-.5v-6.42h.5Zm0-14.11h-.5v-6.43h.5Zm0-14.12h-.5v-6.42h.5Zm0-14.11h-.5V577.2h.5Zm23.29,71.73h0v-7.79h0Zm0-17.11h0v-7.79h0Zm0-17.11h0v-7.79h0Zm0-17.11h0v-7.78h0Zm0-17.11h0v-7.79h0Zm0-17.11h0V562h0Zm0-17.11h0V544.9h0Zm0-17.11h0V527.8h0Zm25.87,119.77h-6.3v-7.79h6.3Zm0-17.11h-6.3v-7.79h6.3Zm0-17.11h-6.3v-7.79h6.3Zm0-17.11h-6.3v-7.78h6.3Zm0-17.11h-6.3v-7.79h6.3Zm0-17.11h-6.3V562h6.3Zm0-17.11h-6.3V544.9h6.3Zm0-17.11h-6.3V527.8h6.3Zm24.43,44.52H-2072v-14h10.72Zm0-77.79h-13.31v-14h13.31Zm38.13,0h-7.28v-14h7.28Zm28.2,29H-2008V514.36h13.08Zm0-94.29h-15.37V420.07h15.37ZM-1975,574.7h-8.84v-17h8.84Zm14.22-102h-4.83v2h-10.54v-17h15.37Zm15.37-35.68h-15.37V420.07h15.37Zm144,72.29h-13.31v-14h13.31Zm0-47.73h-13.31v-14h13.31Zm32.69-99.37h15.37v17h-15.37Zm0,104h15.37v17h-15.37ZM-1748,625.72h-13v-17h13Zm17.12-108.58h-15.38v-2.78h15.38Zm36.16-71.64h-15.37V428.55h15.37Zm0-57.85h-15.37v-17h15.37Zm38.31,281.69h-9.83V649.68h9.83Zm66.58,2.16h-1.69v-12h1.69Zm59.33-155.2h-13.31v-14h13.31Zm3.17-61.71h-3.17v-14h3.17Zm0-60.9h-9.83v-14h9.83Zm61,171.64h-16.22V379.25h16.22Zm62.44-49h-19.29v-14H-1404Zm0-117.09h-6.39V472.7h-28.6V379.25h35Zm14.33-110.81h15.37v17h-15.37Zm23.05,90.77h-15.37v-17h15.37Zm140,74.81H-1258V437h31.4Zm20.14-91.77h31.4v17h-31.4Zm47.1,125.45h-31.4v-17h31.4Zm35.31,77.67h-11.81V544.08h11.81Zm60.74,87.8h-15.86V575h15.86Zm1.3-138.77h-17.16v-26.7H-1062ZM-988.78,655H-1013V628.29h24.2Zm12.1-110.32h-24.2V518h24.2Zm64.23-30.3h-24.2v-26.7h24.2Zm31.5,116.23h-24.2v-26.7h24.2Zm369.88,61h-11.77V678.64h11.77Zm.53-23.87h-12.3V654.77h12.3Zm0-23.86h-12.3V630.91h12.3Zm0-23.87h-12.3V607.05h12.3Zm0-23.86h-12.3V583.18h12.3Zm0-23.86h-12.3V559.32h12.3Zm22.71,94.18H-497V654.77h9.21Zm0-28.92H-497v-6.61h9.21Zm0-28.93H-497v-1.54h9.21Zm0-12.47H-497v-3.21h9.21Zm0-23.86H-497V564h9.21Zm5-21.52H-497V535.05h14.22Zm0-28.93H-497V506.13h14.22Zm25.73,81.76h-8.61v-9.05h8.61Zm0-52.83h-8.61v-2.32h8.61Zm0-39.38h-8.61v-5.23h8.61Zm17.56,158.48h-7v-9.05h7Zm0-46.11h-7v-9.05h7Zm0-46.1h-7v-9h7Zm0-46.11h-7v-9h7Zm18.45,20.16h-6.26V548.8h6.26Zm0-103.68H-431V437h9.95Zm22.15,80.32h-9.86v-11h9.86Zm0-55.89h-9.95v-11h9.95Zm22.15,192.1H-383v-11h6.18Zm0-55.88H-383v-11h6.18Zm0-55.89H-383v-11h6.18Zm0-55.89h-10v-11h10ZM-354.63,626h-7.73v-3.85h7.73Zm0-48.76h0Zm0-55.89h-9.94v-11h9.94Zm19.66,147h-.5v-6.42h.5Zm0-14.12h-.5v-6.42h.5Zm0-14.11h-.5v-6.42h.5Zm0-14.12h-.5v-6.42h.5Zm0-14.11h-.5v-6.43h.5Zm0-14.12h-.5v-6.42h.5Zm0-14.11h-.5V577.2h.5Zm23.3,71.73h0v-7.79h0Zm0-17.11h0v-7.79h0Zm0-17.11h0v-7.79h0Zm0-17.11h0v-7.78h0Zm0-17.11h0v-7.79h0Zm0-17.11h0V562h0Zm0-17.11h0V544.9h0Zm0-17.11h0V527.8h0Zm25.87,119.77h-6.3v-7.79h6.3Zm0-17.11h-6.3v-7.79h6.3Zm0-17.11h-6.3v-7.79h6.3Zm0-17.11h-6.3v-7.78h6.3Zm0-17.11h-6.3v-7.79h6.3Zm0-17.11h-6.3V562h6.3Zm0-17.11h-6.3V544.9h6.3Zm0-17.11h-6.3V527.8h6.3Zm24.42,44.52H-272.1v-14h10.72Zm0-77.79h-13.31v-14h13.31Zm38.13,0h-7.28v-14h7.28Zm28.21,29h-13.08V514.36H-195Zm0-94.29h-15.37V420.07H-195Zm19.91,137.68H-184v-17h8.83Zm14.22-102h-4.82v2h-10.55v-17h15.37ZM-145.54,437h-15.37V420.07h15.37Zm144,72.29h-13.3v-14h13.3Zm0-47.73h-13.3v-14h13.3Zm32.69-99.37H46.54v17H31.17Zm0,104H46.54v17H31.17ZM51.82,625.72h-13v-17h13ZM68.94,517.14H53.57v-2.78H68.94Zm36.17-71.64H89.74V428.55h15.37Zm0-57.85H89.74v-17h15.37Zm38.3,281.69h-9.82V649.68h9.82ZM210,671.5h-1.7v-12H210Zm59.32-155.2H256v-14h13.31Zm3.18-61.71h-3.18v-14h3.18Zm0-60.9h-9.83v-14h9.83Zm61,171.64H317.25V379.25h16.23Zm62.43-49H376.62v-14h19.29Zm0-117.09h-6.39V472.7h-28.6V379.25h35ZM410.24,288.4h15.37v17H410.24Zm23.06,90.77H417.93v-17H433.3Zm140,74.81h-31.4V437h31.4Zm20.15-91.77h31.4v17h-31.4Zm47.1,125.45h-31.4v-17h31.4Zm35.3,77.67H664V544.08h11.81Zm60.75,87.8H720.69V575h15.87Zm1.3-138.77H720.69v-26.7h17.17ZM811.1,655H786.9V628.29h24.2Zm12.1-110.32H799V518h24.2Zm64.23-30.3h-24.2v-26.7h24.2Zm31.49,116.23h-24.2v-26.7h24.2Zm319.89,61H1227V678.64h11.78Zm.53-23.87H1227V654.77h12.31Zm0-23.86H1227V630.91h12.31Zm0-23.87H1227V607.05h12.31Zm0-23.86H1227V583.18h12.31Zm0-23.86H1227V559.32h12.31Zm22.7,94.18h-9.2V654.77h9.2Zm0-28.92h-9.2v-6.61h9.2Zm0-28.93h-9.2v-1.54h9.2Zm0-12.47h-9.2v-3.21h9.2Zm0-23.86h-9.2V564h9.2Zm5-21.52h-14.22V535.05h14.22Zm0-28.93h-14.22V506.13h14.22Zm25.73,81.76h-8.61v-9.05h8.61Zm0-52.83h-8.61v-2.32h8.61Zm0-39.38h-8.61v-5.23h8.61Zm17.55,158.48h-7v-9.05h7Zm0-46.11h-7v-9.05h7Zm0-46.1h-7v-9h7Zm0-46.11h-7v-9h7Zm18.45,20.16h-6.25V548.8h6.25Zm0-103.68h-9.94V437h9.94ZM1351,528.32h-9.86v-11H1351Zm0-55.89h-10v-11h10Zm22.15,192.1h-6.18v-11h6.18Zm0-55.88h-6.18v-11h6.18Zm0-55.89h-6.18v-11h6.18Zm0-55.89h-9.95v-11h9.95ZM1395.25,626h-7.74v-3.85h7.74Zm0-48.76h0Zm0-55.89h-10v-11h10Zm19.66,147h-.5v-6.42h.5Zm0-14.12h-.5v-6.42h.5Zm0-14.11h-.5v-6.42h.5Zm0-14.12h-.5v-6.42h.5Zm0-14.11h-.5v-6.43h.5Zm0-14.12h-.5v-6.42h.5Zm0-14.11h-.5V577.2h.5Zm23.3,71.73h0v-7.79h0Zm0-17.11h0v-7.79h0Zm0-17.11h0v-7.79h0Zm0-17.11h0v-7.78h0Zm0-17.11h0v-7.79h0Zm0-17.11h0V562h0Zm0-17.11h0V544.9h0Zm0-17.11h0V527.8h0Zm25.87,119.77h-6.31v-7.79h6.31Zm0-17.11h-6.31v-7.79h6.31Zm0-17.11h-6.31v-7.79h6.31Zm0-17.11h-6.31v-7.78h6.31Zm0-17.11h-6.31v-7.79h6.31Zm0-17.11h-6.31V562h6.31Zm0-17.11h-6.31V544.9h6.31Zm0-17.11h-6.31V527.8h6.31Zm24.42,44.52h-10.72v-14h10.72Zm0-77.79h-13.31v-14h13.31Zm38.13,0h-7.28v-14h7.28Zm28.21,29h-13.08V514.36h13.08Zm0-94.29h-15.37V420.07h15.37Zm19.91,137.68h-8.84v-17h8.84Zm14.22-102h-4.83v2H1573.6v-17H1589ZM1604.34,437H1589V420.07h15.37Zm144,72.29h-13.31v-14h13.31Zm0-47.73h-13.31v-14h13.31Zm32.69-99.37h15.37v17h-15.37Zm0,104h15.37v17h-15.37Zm20.65,159.52h-13v-17h13Zm17.12-108.58h-15.37v-2.78h15.37ZM1855,445.5h-15.37V428.55H1855Zm0-57.85h-15.37v-17H1855Zm38.31,281.69h-9.82V649.68h9.82Zm66.59,2.16h-1.7v-12h1.7Zm59.32-155.2h-13.31v-14h13.31Zm3.18-61.71h-3.18v-14h3.18Zm0-60.9h-9.84v-14h9.84Zm61,171.64h-16.22V379.25h16.22Zm62.44-49H2126.5v-14h19.29Zm0-117.09h-6.39V472.7h-28.6V379.25h35Zm14.33-110.81h15.37v17h-15.37Zm23.05,90.77H2167.8v-17h15.37Zm140,74.81h-31.4V437h31.4Zm20.14-91.77h31.4v17h-31.4Zm47.1,125.45H2359v-17h31.4Zm35.31,77.67h-11.81V544.08h11.81Zm60.74,87.8h-15.86V575h15.86Zm1.3-138.77h-17.16v-26.7h17.16ZM2561,655h-24.2V628.29H2561Zm12.1-110.32h-24.2V518h24.2Zm64.22-30.3h-24.2v-26.7h24.2Zm31.5,116.23h-24.2v-26.7h24.2Zm369.88,61h-11.77V678.64h11.77Zm.53-23.87h-12.3V654.77h12.3Zm0-23.86h-12.3V630.91h12.3Zm0-23.87h-12.3V607.05h12.3Zm0-23.86h-12.3V583.18h12.3Zm0-23.86h-12.3V559.32h12.3Zm22.71,94.18h-9.2V654.77h9.2Zm0-28.92h-9.2v-6.61h9.2Zm0-28.93h-9.2v-1.54h9.2Zm0-12.47h-9.2v-3.21h9.2Zm0-23.86h-9.2V564h9.2Zm5-21.52h-14.21V535.05h14.21Zm0-28.93h-14.21V506.13h14.21Zm25.74,81.76h-8.62v-9.05h8.62Zm0-52.83h-8.62v-2.32h8.62Zm0-39.38h-8.62v-5.23h8.62Zm17.55,158.48h-7v-9.05h7Zm0-46.11h-7v-9.05h7Zm0-46.1h-7v-9h7Zm0-46.11h-7v-9h7Zm18.45,20.16h-6.26V548.8h6.26Zm0-103.68h-10V437h10Zm22.15,80.32H3141v-11h9.86Zm0-55.89h-10v-11h10ZM3173,664.53h-6.18v-11H3173Zm0-55.88h-6.18v-11H3173Zm0-55.89h-6.18v-11H3173Zm0-55.89H3163v-11H3173ZM3195.12,626h-7.73v-3.85h7.73Zm0-48.76h0Zm0-55.89h-9.94v-11h9.94Zm19.67,147h-.5v-6.42h.5Zm0-14.12h-.5v-6.42h.5Zm0-14.11h-.5v-6.42h.5Zm0-14.12h-.5v-6.42h.5Zm0-14.11h-.5v-6.43h.5Zm0-14.12h-.5v-6.42h.5Zm0-14.11h-.5V577.2h.5Zm23.29,71.73h0v-7.79h0Zm0-17.11h0v-7.79h0Zm0-17.11h0v-7.79h0Zm0-17.11h0v-7.78h0Zm0-17.11h0v-7.79h0Zm0-17.11h0V562h0Zm0-17.11h0V544.9h0Zm0-17.11h0V527.8h0ZM3264,655.35h-6.3v-7.79h6.3Zm0-17.11h-6.3v-7.79h6.3Zm0-17.11h-6.3v-7.79h6.3Zm0-17.11h-6.3v-7.78h6.3Zm0-17.11h-6.3v-7.79h6.3Zm0-17.11h-6.3V562h6.3Zm0-17.11h-6.3V544.9h6.3Zm0-17.11h-6.3V527.8h6.3Zm24.42,44.52h-10.72v-14h10.72Zm0-77.79h-13.31v-14h13.31Zm38.13,0h-7.27v-14h7.27Zm28.21,29h-13.08V514.36h13.08Zm0-94.29h-15.37V420.07h15.37Zm19.91,137.68h-8.83v-17h8.83Zm14.22-102H3384v2h-10.55v-17h15.37ZM3404.22,437h-15.38V420.07h15.38Zm144,72.29h-13.31v-14h13.31Zm0-47.73h-13.31v-14h13.31Zm32.68-99.37h15.37v17h-15.37Zm0,104h15.37v17h-15.37Zm20.66,159.52h-13v-17h13Zm17.11-108.58h-15.37v-2.78h15.37Zm36.17-71.64h-15.37V428.55h15.37Zm0-57.85h-15.37v-17h15.37Zm38.3,281.69h-9.82V649.68h9.82Zm66.59,2.16h-1.69v-12h1.69Zm59.32-155.2h-13.31v-14h13.31Zm3.18-61.71h-3.18v-14h3.18Zm0-60.9h-9.83v-14h9.83Zm61,171.64H3867V379.25h16.22Zm62.44-49h-19.3v-14h19.3Zm0-117.09h-6.4V472.7h-28.6V379.25h35ZM3960,288.4h15.37v17H3960Zm23.06,90.77h-15.37v-17h15.37ZM4123,454h-31.4V437H4123Zm20.15-91.77h31.4v17h-31.4Zm47.1,125.45h-31.4v-17h31.4Zm35.3,77.67h-11.8V544.08h11.8Zm60.75,87.8h-15.87V575h15.87Zm1.3-138.77h-17.17v-26.7h17.17ZM4360.85,655h-24.2V628.29h24.2ZM4373,544.66h-24.2V518H4373Zm64.23-30.3H4413v-26.7h24.2Zm31.49,116.23h-24.19v-26.7h24.19Z"/><path class="cls-2" d="M1374.26,115.94a24.88,24.88,0,0,0-6.61.92,38.74,38.74,0,0,0-76.75-.79,24.75,24.75,0,0,0,2.48,49.38h80.88a24.76,24.76,0,1,0,0-49.51Z"/><path class="cls-2" d="M1777.26,142.49a24.88,24.88,0,0,0-6.61.92,38.74,38.74,0,0,0-76.75-.79,24.75,24.75,0,0,0,2.48,49.38h80.88a24.76,24.76,0,1,0,0-49.51Z"/><path class="cls-2" d="M966.83,173.51a19.26,19.26,0,0,1,5.13.72,30.12,30.12,0,0,1,59.67-.62A19.24,19.24,0,0,1,1029.7,212H966.83a19.25,19.25,0,1,1,0-38.49Z"/><path class="cls-2" d="M1436.9,291.2a12.5,12.5,0,0,0,.67-3.89,12.57,12.57,0,0,0-18.39-11.23,30.1,30.1,0,0,0-53.53,14.09,19.24,19.24,0,0,0,1.93,38.39h62.87a19.23,19.23,0,0,0,6.45-37.36Z"/><rect class="cls-4" x="-2618.7" y="806" width="7157.1" height="285"/><line class="cls-5" x1="-2525.17" y1="912" x2="4494.14" y2="912"/></svg>