<svg xmlns="http://www.w3.org/2000/svg" viewBox="0 0 483 270"><defs><style>.cls-1{fill:#ffb655;}.cls-2{fill:#fff;}.cls-3{fill:#f5f5f5;}.cls-4{fill:#db6e0b;}.cls-5{fill:#e57d15;}</style></defs><title>Asset 36</title><g id="Layer_2" data-name="Layer 2"><g id="Layer_1-2" data-name="Layer 1"><rect class="cls-1" width="483" height="270" rx="27.79"/><path class="cls-2" d="M378.17,225.92c27.45.06,28-6.22,27.47-9.64s-2.29-14.75-3.59-43.84,6.52-49.56,8.87-61.57-.31-51.08-.31-51.08S386.17,61,378.52,61s-32.5-1.3-32.5-1.3-2.4,39.05-.11,51.07,10,32.52,8.61,61.61-3.22,40.41-3.77,43.83S350.73,225.86,378.17,225.92Z"/><path class="cls-3" d="M378.18,223.18c-17.93,0-22.91-2.75-24.28-4.37a2.39,2.39,0,0,1-.45-2.21c1.57-9.65,2.85-24.5,3.81-44.13,1.12-22.93-3.27-40.3-6.47-53-.91-3.56-1.68-6.64-2.19-9.27-1.86-9.75-.49-38.68,0-47.69,6.69.33,23.71,1.15,29.91,1.17s22.94-.74,29.54-1c.54,9,2.08,37.94.18,47.68-.52,2.63-1.31,5.7-2.22,9.26-3.26,12.67-7.73,30-6.7,53,.88,19.63,2.1,34.48,3.63,44.15a2.42,2.42,0,0,1-.46,2.21C401.1,220.52,396.11,223.22,378.18,223.18Z"/><path class="cls-1" d="M378.18,223.18c-17.93,0-22.91-2.75-24.28-4.37a2.39,2.39,0,0,1-.45-2.21c1.57-9.65,2.85-24.5,3.81-44.13,1.12-22.93-3.27-40.3-6.47-53-.91-3.56-1.68-6.64-2.19-9.27C346.74,100.47,347.51,85,348,76c6.69.33,24.28,1.15,30.48,1.17s23.65-.73,30.25-1c.54,9,1.4,24.48-.5,34.22-.52,2.63-1.31,5.7-2.22,9.26-3.26,12.67-7.73,30-6.7,53,.88,19.63,2.1,34.48,3.63,44.15a2.42,2.42,0,0,1-.46,2.21C401.1,220.52,396.11,223.22,378.18,223.18Z"/><path class="cls-3" d="M352.13,205.58c-.62,5.81-1.13,9-1.38,10.59-.56,3.41,0,9.69,27.42,9.75s28-6.22,27.47-9.64c-.24-1.56-.74-4.76-1.33-10.54-9.63,4-19.35,4.08-26.1,4.06C371.67,209.79,360.51,208.78,352.13,205.58Z"/><path class="cls-2" d="M378.18,223.15c-17.93,0-22.91-2.75-24.28-4.37a2.39,2.39,0,0,1-.45-2.21c.18-1.12.86-6.18,1.33-10.09a88.09,88.09,0,0,0,23.43,3.2c7.13,0,15-.19,23.45-3,.44,3.81,1.1,8.86,1.28,10a2.39,2.39,0,0,1-.47,2.21C401.1,220.49,396.11,223.18,378.18,223.15Z"/><path class="cls-2" d="M411.64,56.85C408.17,50.3,401,51,398.16,52.21s-7,1.18-11.86-3-7.2-6-14.65-4.79S359.53,50.65,354,50.64c-4.21,0-10.55,2.65-10.57,10.65a9,9,0,0,0,5.85,8.82,11.41,11.41,0,0,1,3.33,2.18c.26.24.52.46.77.67a6.67,6.67,0,0,1,2.4,5.08l-.06,29.19a3.41,3.41,0,0,0,3.1,3.48,3.29,3.29,0,0,0,3.47-3.28l.06-27.84a7.37,7.37,0,0,1,3.19-6l0,0a.86.86,0,0,1,1.34.71l0,19.33a2.71,2.71,0,0,0,2.33,2.75,2.61,2.61,0,0,0,2.88-2.59l0-20.39a1.63,1.63,0,0,1,2.1-1.54c3.9,1.17,5.39,4.19,11.59,4.2,7.68,0,11.88-7.13,19.94-5.25S414.45,62.14,411.64,56.85Z"/><path class="cls-4" d="M94.89,97.2c.14,1.39.35,3,.4,4.57,1.31-1.47,4.26-5.57,5.42-6.16,1.9-.81-1.2,4.28-2.15,6.67s-2.24,4.7-3.49,5.13a2.75,2.75,0,0,1-2.84-.47,5.88,5.88,0,0,1-.89-1.16l-.49-.76c-.33,1-1.76,4-3.58,4.63a2.78,2.78,0,0,1-2.93-.83c-.43-.24-1.16-2.08-.41-4.67a21.92,21.92,0,0,1,5-8.22,2.15,2.15,0,0,1,2.16-.49l.24-8.56A70.21,70.21,0,0,0,91.22,78c0-.74.3-1.41,2.2-1.31.76,0,1.75.67,1.69,1.25S93.89,90.07,94.89,97.2Zm-4.11,3.89.25-.48,0-2.08-.76.68c-.95,1-2.5,5.38-2.63,5.61A14.71,14.71,0,0,0,90.78,101.09Z"/><path class="cls-4" d="M113.89,92.94c-.82,1.36-5.93,8.52-8.41,10.58s-4.85.45-5.34-1.32a17.8,17.8,0,0,1,.56-9c1.07-3,2.6-4.08,3.51-4.39,1.18-.44,3.67.61,4.7,2.15s-.83,4.13-2,5.7-2.05,3.2-3.94,2c-.1.61-.09,2.31,1.93,1.14s5.89-5.14,7.86-8.2S114.66,91.59,113.89,92.94Zm-10.21,2.75c.62-.56,1.85-2.09,1.55-3.19A5.85,5.85,0,0,0,103.68,95.69Z"/><path class="cls-5" d="M105.92,123.13V102.07a2.92,2.92,0,0,1,1-2.25,3.11,3.11,0,0,1,2.18-.88h7.2a16.36,16.36,0,0,1,4.44.56,9.77,9.77,0,0,1,3.55,1.76,8.41,8.41,0,0,1,2.38,3.06,11.29,11.29,0,0,1,.93,4.41c0,.34,0,.74,0,1.21V113c0,.45,0,.85,0,1.18q-.31,9.83-11.12,9.83h-9.61a.86.86,0,0,1-.9-.9Zm10.33-4.46a4.38,4.38,0,0,0,3.38-1.14,4.94,4.94,0,0,0,1.08-3.4c0-.33,0-.72.06-1.17s0-.94,0-1.49,0-1,0-1.5,0-.83-.06-1.17q-.1-4.5-4.64-4.5h-5.4a1.86,1.86,0,0,1,1.4.6,1.78,1.78,0,0,1,.58,1.27v11.38a1.11,1.11,0,0,0,.3.79,1.07,1.07,0,0,0,.81.33Z"/><path class="cls-5" d="M129.86,123.82a.93.93,0,0,1-.22-.54.79.79,0,0,1,0-.33L138,100a1.44,1.44,0,0,1,1.44-1h5.58a1.46,1.46,0,0,1,1.44,1l8.35,23a1,1,0,0,1,0,.33.72.72,0,0,1-.24.52.73.73,0,0,1-.52.23h-4.64a1.22,1.22,0,0,1-1.23-.79l-1.87-5.08a19.09,19.09,0,0,1-2.63.83,23.57,23.57,0,0,1-2.57.49c-.83.1-1.6.18-2.32.21s-1.35.06-1.88.06h-.86a2.46,2.46,0,0,1-.54,0,1.46,1.46,0,0,1,1.1.7,1.55,1.55,0,0,1,.09,1.46l-.51,1.37A1.19,1.19,0,0,1,135,124H130.4A.92.92,0,0,1,129.86,123.82ZM139,114.6c.67,0,1.37-.13,2.09-.25s1.28-.24,2-.42a8.68,8.68,0,0,0,2-.77l-2.77-7.92Z"/><path class="cls-5" d="M176.48,98.83a.83.83,0,0,1,.93.94v4a.8.8,0,0,1-.25.65.92.92,0,0,1-.68.25h-8.32a2,2,0,0,1,1.4.58,1.75,1.75,0,0,1,.62,1.3V123a.87.87,0,0,1-.26.67.92.92,0,0,1-.68.23h-5a1,1,0,0,1-.65-.25.82.82,0,0,1-.28-.65V105.78A1,1,0,0,0,163,105a1.09,1.09,0,0,0-.73-.31H157a.93.93,0,0,1-.69-.25.8.8,0,0,1-.25-.65v-1.83a2.82,2.82,0,0,1,1-2.25,3.19,3.19,0,0,1,2.16-.85Z"/><path class="cls-5" d="M178.64,123.82a.93.93,0,0,1-.22-.54.79.79,0,0,1,0-.33l8.35-23a1.44,1.44,0,0,1,1.44-1h5.58a1.46,1.46,0,0,1,1.44,1l8.35,23a1,1,0,0,1,0,.33.72.72,0,0,1-.24.52.73.73,0,0,1-.52.23h-4.64a1.22,1.22,0,0,1-1.23-.79l-1.87-5.08a19.09,19.09,0,0,1-2.63.83,23.57,23.57,0,0,1-2.57.49c-.83.1-1.6.18-2.32.21s-1.35.06-1.88.06h-.86a2.46,2.46,0,0,1-.54,0,1.48,1.48,0,0,1,1.1.7,1.55,1.55,0,0,1,.09,1.46l-.51,1.37a1.19,1.19,0,0,1-1.22.79h-4.64A.92.92,0,0,1,178.64,123.82Zm9.14-9.22c.67,0,1.37-.13,2.09-.25s1.28-.24,2-.42a8.68,8.68,0,0,0,2-.77L191,105.24Z"/><path class="cls-5" d="M232.64,99.05a.84.84,0,0,1,.21.54v.21L229,122.74a1.15,1.15,0,0,1-.47.82,1.31,1.31,0,0,1-1,.36H224a1.46,1.46,0,0,1-.83-.23,1.22,1.22,0,0,1-.5-.7l-3.39-9.43c0-.08-.08-.11-.18-.11a.2.2,0,0,0-.18.11L215.53,123a1.38,1.38,0,0,1-1.36.93h-3.6a1.39,1.39,0,0,1-1.41-1.18L205.31,99.8a1.06,1.06,0,0,1,0-.45,1,1,0,0,1,.16-.3.88.88,0,0,1,.54-.22h4.68c.7,0,1.08.28,1.15.83l2,12.74c.05.12.12.18.22.18a.16.16,0,0,0,.18-.14l2.23-7.09a1.16,1.16,0,0,1,1.15-1h2.7a1.15,1.15,0,0,1,1.19,1l2.23,7.05a.18.18,0,0,0,.18.15c.12,0,.19,0,.19-.15l2.08-12.74a1.42,1.42,0,0,1,.33-.65,1.47,1.47,0,0,1,.79-.18h4.72A.73.73,0,0,1,232.64,99.05Z"/><path class="cls-5" d="M236,123.06V102a3,3,0,0,1,.93-2.25,3.11,3.11,0,0,1,2.2-.88h14.69a.88.88,0,0,1,.65.29.87.87,0,0,1,.28.64v3.57a.73.73,0,0,1-.28.61.88.88,0,0,1-.65.25H240.45a1.87,1.87,0,0,1,1.42.61,2,2,0,0,1,.56,1.33v1.52a1.15,1.15,0,0,0,.29.75,1,1,0,0,0,.82.36h7.81a.83.83,0,0,1,.94.94V113a.83.83,0,0,1-.94.94h-10.9a1.91,1.91,0,0,1,1.4.57,1.81,1.81,0,0,1,.58,1.3v1.69a1.18,1.18,0,0,0,.3.76,1,1,0,0,0,.81.36h10.52a.9.9,0,0,1,.66.27.88.88,0,0,1,.27.66v3.53a.84.84,0,0,1-.29.65,1,1,0,0,1-.64.25H236.85a.91.91,0,0,1-.65-.25A.88.88,0,0,1,236,123.06Z"/><path class="cls-5" d="M259.06,123.06V102a3,3,0,0,1,.93-2.25,3.11,3.11,0,0,1,2.2-.88h14.69a.88.88,0,0,1,.65.29.87.87,0,0,1,.28.64v3.57a.73.73,0,0,1-.28.61.88.88,0,0,1-.65.25H263.56a1.85,1.85,0,0,1,1.42.61,2,2,0,0,1,.56,1.33v1.52a1.15,1.15,0,0,0,.29.75,1,1,0,0,0,.82.36h7.82a.83.83,0,0,1,.93.94V113a.83.83,0,0,1-.93.94H263.56a1.91,1.91,0,0,1,1.4.57,1.77,1.77,0,0,1,.58,1.3v1.69a1.15,1.15,0,0,0,.31.76,1,1,0,0,0,.8.36h10.52a.9.9,0,0,1,.66.27.88.88,0,0,1,.27.66v3.53a.81.81,0,0,1-.29.65,1,1,0,0,1-.64.25H260a.91.91,0,0,1-.65-.25A.88.88,0,0,1,259.06,123.06Z"/><path class="cls-5" d="M292.21,110.86a3.17,3.17,0,0,1,1.23.23,5.42,5.42,0,0,1,1,.56,5.34,5.34,0,0,1,.78.64l.45.51,7.52,9.94a.56.56,0,0,1,.14.43.69.69,0,0,1-.21.5.72.72,0,0,1-.58.25H297a2,2,0,0,1-.81-.18,1.29,1.29,0,0,1-.63-.54l-3.06-4c-.56-.69-1-1.25-1.33-1.67s-.65-.82-.94-1.19l-.74-.95c-.2-.27-.33-.43-.38-.51s-.07-.07-.14-.07-.22.06-.22.18v8a.81.81,0,0,1-.25.61.74.74,0,0,1-.65.29H283a.86.86,0,0,1-.63-.27.89.89,0,0,1-.26-.63V102a3.11,3.11,0,0,1,.86-2.17,2.9,2.9,0,0,1,2.27-1h2.55a.83.83,0,0,1,.65.25.93.93,0,0,1,.25.69V107a.19.19,0,0,0,.22.22.14.14,0,0,0,.14-.11l6-7.56a1.5,1.5,0,0,1,1.4-.72H302a.7.7,0,0,1,.51.22.84.84,0,0,1,.21.54.62.62,0,0,1-.14.43l-3.32,4.28-1.42,1.84-.95,1.26-.74,1c-.2.27-.32.41-.34.43s-.17.22-.36.44a5.87,5.87,0,0,1-1.86,1.33A3.24,3.24,0,0,1,292.21,110.86Z"/><path class="cls-2" d="M69.85,163.62V142.56a3,3,0,0,1,.31-1.4,3.21,3.21,0,0,1,.77-1,3,3,0,0,1,1-.58,3.34,3.34,0,0,1,1-.18h8.85a16.58,16.58,0,0,1,3.46.34,8,8,0,0,1,2.84,1.17,6,6,0,0,1,2,2.22,7.51,7.51,0,0,1,.72,3.43A5.22,5.22,0,0,1,90,149.4a5.63,5.63,0,0,1-2.14,2,5.06,5.06,0,0,1,2.54,2.21,6.39,6.39,0,0,1,.92,3.26,7.71,7.71,0,0,1-.74,3.53,6.56,6.56,0,0,1-2,2.36,8.45,8.45,0,0,1-2.93,1.33,15.08,15.08,0,0,1-3.55.41H70.75a.92.92,0,0,1-.9-.9Zm11.24-14.25a2.88,2.88,0,0,0,2-.67,2.43,2.43,0,0,0,.75-1.93,2.31,2.31,0,0,0-.77-1.89,3,3,0,0,0-2-.63H74.61a2,2,0,0,1,2,1.91v2.16a1.12,1.12,0,0,0,.28.69,1,1,0,0,0,.8.36Zm.32,10.29a3.07,3.07,0,0,0,2.11-.72,2.59,2.59,0,0,0,.81-2.05,2.72,2.72,0,0,0-.83-2.07,2.94,2.94,0,0,0-2.09-.77h-6.8a2,2,0,0,1,2,1.91v2.62a1.2,1.2,0,0,0,.27.72,1,1,0,0,0,.81.36Z"/><path class="cls-2" d="M105.75,165q-5.11,0-8.07-2.48c-2-1.66-3-4.09-3.13-7.31,0-.67,0-1.7,0-3.1s0-2.43,0-3.13a9.49,9.49,0,0,1,3.15-7.33,12,12,0,0,1,8-2.57,12,12,0,0,1,8,2.57A9.52,9.52,0,0,1,116.9,149c0,1.39.08,2.44.08,3.13s0,1.76-.08,3.1c-.12,3.22-1.15,5.65-3.11,7.31S109.15,165,105.75,165Zm0-5.4a4,4,0,0,0,3-1.13,5,5,0,0,0,1.19-3.48c0-1.39.07-2.39.07-3s0-1.58-.07-2.92a5,5,0,0,0-1.19-3.48,4,4,0,0,0-3-1.13,4.07,4.07,0,0,0-3,1.13,5.06,5.06,0,0,0-1.19,3.48c0,.67,0,1.64,0,2.92s0,2.29,0,3a5.06,5.06,0,0,0,1.19,3.48A4.07,4.07,0,0,0,105.75,159.59Z"/><path class="cls-2" d="M142.28,164.34a.7.7,0,0,1-.54.22h-5a1.51,1.51,0,0,1-1.47-1l-3.64-7.2a1,1,0,0,0-1-.58h-4.75a1.79,1.79,0,0,1,1.46.65,2.06,2.06,0,0,1,.52,1.26v5.94a.91.91,0,0,1-.25.67,1,1,0,0,1-.69.23H122a.91.91,0,0,1-.65-.25.88.88,0,0,1-.25-.65V142.6a3,3,0,0,1,.93-2.23,3.09,3.09,0,0,1,2.2-.9h7.63a15.88,15.88,0,0,1,3.83.45,9.19,9.19,0,0,1,3.19,1.42,7.25,7.25,0,0,1,2.2,2.54,8,8,0,0,1,.82,3.79,8.14,8.14,0,0,1-.91,3.93,7,7,0,0,1-2.9,2.77.6.6,0,0,0-.29.47.82.82,0,0,0,.07.39l4.5,8.18a.89.89,0,0,1,.11.39A.88.88,0,0,1,142.28,164.34Zm-7.3-16.7a2.92,2.92,0,0,0-.85-2.25,3.24,3.24,0,0,0-2.29-.77h-6.19a1.77,1.77,0,0,1,1.41.63,2,2,0,0,1,.54,1.31v2.88a1.09,1.09,0,0,0,1.11,1.11h3.13a3.36,3.36,0,0,0,2.29-.72A2.72,2.72,0,0,0,135,147.64Z"/><path class="cls-2" d="M167.3,164.34a.7.7,0,0,1-.54.22h-5a1.51,1.51,0,0,1-1.47-1l-3.64-7.2a1,1,0,0,0-1-.58h-4.75a1.79,1.79,0,0,1,1.46.65,2.06,2.06,0,0,1,.52,1.26v5.94a.91.91,0,0,1-.25.67,1,1,0,0,1-.69.23H147a.91.91,0,0,1-.65-.25.88.88,0,0,1-.25-.65V142.6a3,3,0,0,1,.93-2.23,3.09,3.09,0,0,1,2.2-.9h7.63a15.88,15.88,0,0,1,3.83.45,9.19,9.19,0,0,1,3.19,1.42,7.25,7.25,0,0,1,2.2,2.54,8,8,0,0,1,.82,3.79,8.14,8.14,0,0,1-.91,3.93,7,7,0,0,1-2.9,2.77.6.6,0,0,0-.29.47.82.82,0,0,0,.07.39l4.5,8.18a.89.89,0,0,1,.11.39A.88.88,0,0,1,167.3,164.34Zm-7.3-16.7a2.92,2.92,0,0,0-.85-2.25,3.24,3.24,0,0,0-2.29-.77h-6.19a1.77,1.77,0,0,1,1.41.63,2,2,0,0,1,.54,1.31v2.88a1.09,1.09,0,0,0,1.11,1.11h3.13a3.36,3.36,0,0,0,2.29-.72A2.72,2.72,0,0,0,160,147.64Z"/><path class="cls-2" d="M171,163.66V142.6a2.94,2.94,0,0,1,.94-2.25,3.07,3.07,0,0,1,2.19-.88h14.69a.9.9,0,0,1,.65.28.92.92,0,0,1,.29.65V144a.74.74,0,0,1-.29.61.87.87,0,0,1-.65.25H175.51a1.85,1.85,0,0,1,1.42.61,1.91,1.91,0,0,1,.56,1.33v1.52a1.2,1.2,0,0,0,.29.75,1,1,0,0,0,.83.36h7.81a.83.83,0,0,1,.94.94v3.24a.83.83,0,0,1-.94.93H175.51a2,2,0,0,1,1.41.58,1.8,1.8,0,0,1,.57,1.3v1.69a1.1,1.1,0,0,0,.31.75,1,1,0,0,0,.81.37h10.51a1,1,0,0,1,.67.26.92.92,0,0,1,.27.67v3.53a.84.84,0,0,1-.29.65,1,1,0,0,1-.65.25H171.91a.86.86,0,0,1-.9-.9Z"/><path class="cls-2" d="M194.16,163.62V142.53a2.91,2.91,0,0,1,.27-1.26,3.06,3.06,0,0,1,.7-1,3.35,3.35,0,0,1,1-.62,3,3,0,0,1,1.15-.24h2.77a.83.83,0,0,1,.65.25.88.88,0,0,1,.25.65v17.46a1.32,1.32,0,0,0,.29.7.91.91,0,0,0,.79.42h9.69a1,1,0,0,1,.65.25.82.82,0,0,1,.28.65v3.81a.82.82,0,0,1-.28.65,1,1,0,0,1-.65.25H195.06a.92.92,0,0,1-.9-.9Z"/><path class="cls-2" d="M224.45,150.57c1.48-.15,3.5.57,5.85.57,5.43,0,8.5,0,9.12-.29a1.49,1.49,0,0,1,2,.82c.38.86,1.92,1.87-2.59,2.74a37.16,37.16,0,0,1-7.63.57c-4,.19-6.49.67-7.69-.48C222.91,153.88,223,150.71,224.45,150.57Z"/><path class="cls-2" d="M206.09,193.3c-1.41.29-5.26-.15-5.3-2.34s-1.79-2.42-3.26-1.22c-.49.43-1.77,1.34-3.12,2.35a36.07,36.07,0,0,0-1.79,7.63c-.86,4.59,1.47,6.4-3.35,10.41-2,1.62-3.65,2.13-5,.11-3-4.54,3-19.06,3.48-21.78s-.22-3.88,1.24-5.56c2.14-2.32,3-3.31,4.54-1.74,1.36,1.43,4.49-.84,2.83,4.65,2.69-2.84,5.45-5.69,6.94-6,2.59-.53,1.7,4.31,2.81,7.76S207.58,193,206.09,193.3Z"/><path class="cls-2" d="M218.32,189.59c.78-.16,11.45-8.3,12.14-8.11,1.36.62,2.16,2.17,1.43,3.38-.95,1.75-2.37,4.41-.59,2.74,1.63-1.64,14.85-9.72,17.55-11.26s1,2.65-2.45,6a190.51,190.51,0,0,1-15.7,12.75c-2.17,1.34-7.18,1.22-6.55-3.32a51.45,51.45,0,0,1-7.17,4.89c-1.68,1-7.46.29-7.66-5.14s7.64-12.58,10-13.72,6.58-2.15,9.18-.23c.66.43.12,1.77-1,1.74C226.63,179.48,217.82,187.16,218.32,189.59Z"/><path class="cls-2" d="M263.29,167.85c1.75,2.18,1.55,3.6.2,3.8-1.17.24-1.66-2.52-4.59.28s-8.14,11.78-8.71,15.41,1.06,6,6.4,2.94c5.58-3.09,16.25-11.64,22.71-18.42,1.29-1.25,2-.17.35,3.35s-21.42,21.11-26.15,22.73a7.93,7.93,0,0,1-9.07-3.22c-1.77-2.66-2.92-5.12-1.82-8.94.93-3.86,8.58-17.18,12.39-18.93C257.1,165.93,261.52,165.6,263.29,167.85Z"/><path class="cls-2" d="M303.3,175.46c-2.05,2-14.24,11.88-19.47,14.26-5.39,2.4-8.56-1.53-8.57-4.79s1.8-10.41,5.22-15.27c3.23-4.58,6.41-5.8,8.1-5.9,2.25-.21,6,2.77,7.09,5.9.89,3.17-3.37,6.73-6.2,8.86s-5,4.54-7.75,1.66c-.45,1-1.24,3.93,2.79,2.86s12.56-6.07,17.4-10.4S305.27,173.51,303.3,175.46Zm-18.88-.07c1.33-.68,4.18-2.73,4.17-4.77A10.56,10.56,0,0,0,284.42,175.39Z"/></g></g></svg>