<svg xmlns="http://www.w3.org/2000/svg" viewBox="0 0 620.64 384"><defs><style>.cls-1{fill:#333;}.cls-10,.cls-11,.cls-12,.cls-13,.cls-2,.cls-8,.cls-9{font-size:20.8px;font-family:Raleway-Regular, Raleway;}.cls-14,.cls-15,.cls-2{fill:#fff;}.cls-3{letter-spacing:0em;}.cls-11,.cls-4{letter-spacing:-0.02em;}.cls-12,.cls-5{letter-spacing:-0.03em;}.cls-6{letter-spacing:-0.02em;}.cls-14,.cls-7{font-size:31.21px;}.cls-7{font-family:Karma-Regular, Karma;}.cls-8{letter-spacing:-0.01em;}.cls-10{letter-spacing:-0.03em;}.cls-13{letter-spacing:-0.02em;}.cls-14{font-family:Karma-Light, Karma Light;font-weight:300;}</style></defs><title>WJD_Auto03</title><g id="Layer_2" data-name="Layer 2"><g id="Layer_1-2" data-name="Layer 1"><rect class="cls-1" width="620.64" height="384" rx="32.54"/><text class="cls-2" transform="translate(185.11 266.75)"><tspan class="cls-3">M</tspan><tspan x="18.14" y="0">aa</tspan><tspan class="cls-4" x="40.82" y="0">r</tspan><tspan x="47.62" y="0" xml:space="preserve"> e</tspan><tspan class="cls-4" x="65.14" y="0">r</tspan><tspan x="71.94" y="0" xml:space="preserve"> is</tspan><tspan class="cls-5" x="91.91" y="0"> </tspan><tspan class="cls-6" x="96.65" y="0">w</tspan><tspan x="113.17" y="0">ee</tspan><tspan class="cls-4" x="137.59" y="0">r</tspan><tspan x="144.4" y="0" xml:space="preserve"> een file op </tspan><tspan class="cls-7"><tspan x="-50.36" y="37.45">Weesperplein... </tspan><tspan class="cls-8" x="159.14" y="37.45">w</tspan><tspan class="cls-9" x="175.79" y="37.45">aa</tspan><tspan class="cls-10" x="198.46" y="37.45">r</tspan><tspan class="cls-9" x="205.23" y="37.45">doo</tspan><tspan class="cls-11" x="242.92" y="37.45">r</tspan><tspan class="cls-9" x="249.72" y="37.45" xml:space="preserve"> jou</tspan><tspan class="cls-12" x="284.44" y="37.45">w</tspan><tspan class="cls-9" x="300.8" y="37.45"> </tspan><tspan x="5.03" y="74.89">biertje</tspan><tspan class="cls-9" x="92.22" y="74.89" xml:space="preserve"> nu</tspan><tspan class="cls-12" x="122.01" y="74.89"> </tspan><tspan class="cls-8" x="126.75" y="74.89">w</tspan><tspan class="cls-9" x="143.4" y="74.89">arm</tspan><tspan class="cls-12" x="181.16" y="74.89"> </tspan><tspan class="cls-13" x="185.9" y="74.89">w</tspan><tspan class="cls-9" x="202.42" y="74.89">o</tspan><tspan class="cls-10" x="214.79" y="74.89">r</tspan><tspan class="cls-9" x="221.56" y="74.89">dt. </tspan></tspan></text><text class="cls-14" transform="translate(204.4 66.52)">Je bent er bijna!</text><path class="cls-15" d="M333.91,155.41h-4.26a5.42,5.42,0,0,1-5.42-5.42v-1.66a5.42,5.42,0,0,1,5.42-5.42h4.26a5.42,5.42,0,0,1,5.42,5.42V150A5.42,5.42,0,0,1,333.91,155.41Zm-4.26-7.75a.67.67,0,0,0-.67.67V150a.66.66,0,0,0,.67.67h4.26a.67.67,0,0,0,.67-.67v-1.66a.67.67,0,0,0-.67-.67Z"/><path class="cls-15" d="M261.67,192.08a6.8,6.8,0,1,1,6.81-6.8A6.8,6.8,0,0,1,261.67,192.08Zm0-8.85a2.05,2.05,0,1,0,2.06,2.05A2.05,2.05,0,0,0,261.67,183.23Z"/><path class="cls-15" d="M354.23,192.08a6.8,6.8,0,1,1,6.8-6.8A6.81,6.81,0,0,1,354.23,192.08Zm0-8.85a2.05,2.05,0,1,0,2,2.05A2.05,2.05,0,0,0,354.23,183.23Z"/><path class="cls-15" d="M387,166.85H380a6.27,6.27,0,0,1-4.89-2c-2.12-2.37-1.79-5.81-1.75-6.19v-8.51a2.37,2.37,0,1,1,4.74,0v8.78a4.14,4.14,0,0,0,.57,2.77c.11.12.39.43,1.34.43H387a2.38,2.38,0,1,1,0,4.75Z"/><path class="cls-15" d="M293.18,151.53H235.8a2.38,2.38,0,1,1,0-4.75h55V128.33a2.37,2.37,0,0,1,4.74,0v20.83A2.37,2.37,0,0,1,293.18,151.53Z"/><path class="cls-15" d="M326.6,151.53H289.17a2.38,2.38,0,1,1,0-4.75H326.6a2.38,2.38,0,1,1,0,4.75Z"/><path class="cls-15" d="M250.33,151.53a2.37,2.37,0,0,1-1.73-4l19.49-20.82a2.38,2.38,0,0,1,3.47,3.25l-19.5,20.82A2.37,2.37,0,0,1,250.33,151.53Z"/><path class="cls-15" d="M261.68,201.51a16.23,16.23,0,1,1,16.22-16.23A16.25,16.25,0,0,1,261.68,201.51Zm0-27.7a11.48,11.48,0,1,0,11.48,11.47A11.48,11.48,0,0,0,261.68,173.81Z"/><path class="cls-15" d="M354.23,201.51a16.23,16.23,0,1,1,16.22-16.23A16.25,16.25,0,0,1,354.23,201.51Zm0-27.7a11.48,11.48,0,1,0,11.48,11.47A11.48,11.48,0,0,0,354.23,173.81Z"/><path class="cls-15" d="M384.28,189.6H367.89a2.36,2.36,0,0,1-2.35-2.69,12.51,12.51,0,0,0,.17-1.63,11.48,11.48,0,0,0-22.95,0,6.37,6.37,0,0,0,.08,1,2.37,2.37,0,0,1-2.17,3.34H275.33a2.38,2.38,0,0,1-2.35-2.69,11.22,11.22,0,0,0,.18-1.63,11.48,11.48,0,0,0-23,0,6.37,6.37,0,0,0,.08,1,2.38,2.38,0,0,1-2.17,3.34h-6.85c-7.88,0-10-8.41-10-12.85V151.31a2.41,2.41,0,0,1,.68-1.66l22.53-23a2.38,2.38,0,0,1,1.7-.72h67.59a2.39,2.39,0,0,1,1.87.91l15.85,20.06h26.68c19.27,0,21,12,21.1,12.56l0,20.6a2.24,2.24,0,0,1-.16.84l-2.67,7.14A2.37,2.37,0,0,1,384.28,189.6Zm-13.83-4.74h12.18l1.95-5.2V159.79s-1.47-8.12-16.37-8.12H340.38a2.36,2.36,0,0,1-1.86-.9l-15.85-20.06H257.21l-21.15,21.57v24.47c0,.32.1,8.11,5.21,8.11h4.19a16.23,16.23,0,0,1,32.44,0H338a16.23,16.23,0,0,1,32.44,0Z"/><path class="cls-15" d="M341.12,183.23H274.79a2.37,2.37,0,1,1,0-4.74h66.33a2.37,2.37,0,1,1,0,4.74Z"/><path class="cls-15" d="M310.32,159.67h-9.76a2.38,2.38,0,0,1,0-4.75h9.76a2.38,2.38,0,0,1,0,4.75Z"/><path class="cls-15" d="M269.37,159.67h-9.76a2.38,2.38,0,0,1,0-4.75h9.76a2.38,2.38,0,0,1,0,4.75Z"/><path class="cls-15" d="M242.52,173.81h-8.83a2.38,2.38,0,0,1-2.38-2.38V155.85a2.38,2.38,0,0,1,2.38-2.38h8.83a2.38,2.38,0,0,1,2.37,2.38v15.58A2.38,2.38,0,0,1,242.52,173.81Zm-6.46-4.75h4.08V158.22h-4.08Z"/></g></g></svg>