<svg xmlns="http://www.w3.org/2000/svg" viewBox="0 0 514.23 487.74"><defs><style>.cls-1,.cls-2{fill:none;stroke-miterlimit:10;}.cls-1{stroke:#ffb655;stroke-width:8.62px;}.cls-2{stroke:#fff;stroke-width:5.8px;}.cls-3{font-size:43.8px;font-family:CoHeadline-Regular, Co Headline;}.cls-3,.cls-5{fill:#fff;}.cls-4{fill:#e5a045;}.cls-6{fill:#ffb655;}.cls-7{fill:#263138;}.cls-8{fill:#f5f5f5;}</style></defs><title>AssetBier-o-meter_final_auto_1</title><g id="Layer_2" data-name="Layer 2"><g id="Layer_1-2" data-name="Layer 1"><line class="cls-1" x1="244.67" y1="135.6" x2="228.58" y2="75.54"/><line class="cls-1" x1="192.15" y1="166.11" x2="148.18" y2="122.14"/><line class="cls-1" x1="161.92" y1="218.8" x2="101.86" y2="202.71"/><line class="cls-1" x1="162.09" y1="279.54" x2="102.03" y2="295.63"/><line class="cls-1" x1="192.6" y1="332.06" x2="148.63" y2="376.03"/><line class="cls-1" x1="245.29" y1="362.29" x2="229.2" y2="422.35"/><line class="cls-1" x1="306.03" y1="362.12" x2="322.12" y2="422.18"/><line class="cls-1" x1="358.55" y1="331.61" x2="402.52" y2="375.57"/><line class="cls-1" x1="388.78" y1="278.92" x2="448.84" y2="295.01"/><line class="cls-1" x1="388.61" y1="218.18" x2="448.67" y2="202.08"/><line class="cls-1" x1="358.1" y1="165.66" x2="402.07" y2="121.69"/><line class="cls-1" x1="305.41" y1="135.43" x2="321.5" y2="75.37"/><line class="cls-2" x1="275.03" y1="34.19" x2="275.03" y2="131.51"/><line class="cls-2" x1="167.74" y1="63.11" x2="216.4" y2="147.4"/><line class="cls-2" x1="89.28" y1="141.8" x2="173.57" y2="190.46"/><line class="cls-2" x1="60.68" y1="249.18" x2="158" y2="249.18"/><line class="cls-2" x1="89.6" y1="356.47" x2="173.89" y2="307.81"/><line class="cls-2" x1="168.29" y1="434.93" x2="216.96" y2="350.64"/><line class="cls-2" x1="275.67" y1="463.53" x2="275.67" y2="366.2"/><line class="cls-2" x1="382.96" y1="434.61" x2="334.3" y2="350.32"/><line class="cls-2" x1="461.42" y1="355.92" x2="377.13" y2="307.25"/><line class="cls-2" x1="490.02" y1="248.54" x2="392.7" y2="248.54"/><line class="cls-2" x1="461.1" y1="141.25" x2="376.81" y2="189.91"/><line class="cls-2" x1="382.41" y1="62.79" x2="333.74" y2="147.07"/><text class="cls-3" transform="translate(36.36 235.45) rotate(-83.24)">B</text><text class="cls-3" transform="translate(40.24 206.05) rotate(-78.47)">i</text><text class="cls-3" transform="matrix(0.27, -0.96, 0.96, 0.27, 41.99, 196.15)">e</text><text class="cls-3" transform="translate(48.4 173.54) rotate(-69.45)">r</text><text class="cls-3" transform="translate(54.47 157.43) rotate(-65.75)">-</text><text class="cls-3" transform="translate(59.87 144.72) rotate(-60.87)">o</text><text class="cls-3" transform="translate(73.13 121.44) rotate(-56.01)">-</text><text class="cls-3" transform="translate(80.11 109.7) rotate(-49.62)">m</text><text class="cls-3" transform="matrix(0.74, -0.67, 0.67, 0.74, 106.23, 79.72)">e</text><text class="cls-3" transform="translate(123.74 64.04) rotate(-37.3)">t</text><text class="cls-3" transform="matrix(0.84, -0.54, 0.54, 0.84, 136.47, 54.1)">e</text><text class="cls-3" transform="matrix(0.89, -0.47, 0.47, 0.89, 156.33, 41.5)">r</text><path class="cls-4" d="M485.43,384a515.05,515.05,0,0,1-94.61,28.9q-6.29-30.94-12.56-61.9a450.63,450.63,0,0,0,83-25.35q-1.74,17.82-4.66,35.75Q470.51,373,485.43,384Z"/><path class="cls-5" d="M429.44,386.49Q411,400.42,390.82,412.86l-3.24-16Q408.67,392.62,429.44,386.49Z"/><path class="cls-4" d="M91.63,384a514.92,514.92,0,0,0,94.62,28.9q6.27-30.94,12.55-61.9a450.86,450.86,0,0,1-83-25.35q1.74,17.82,4.66,35.75Q106.56,373,91.63,384Z"/><path class="cls-5" d="M147.62,386.49q18.45,13.93,38.63,26.37,1.62-8,3.23-16Q168.39,392.62,147.62,386.49Z"/><path class="cls-6" d="M429.44,386.49a498.26,498.26,0,0,1-281.82,0q7.37-25,14.75-50a446.13,446.13,0,0,0,252.32,0Q422.07,361.47,429.44,386.49Z"/><path class="cls-7" d="M182.51,358.32a1.56,1.56,0,0,1,.87-1.16,2.64,2.64,0,0,1,1.62-.07,4.28,4.28,0,0,1,1.12.43c.33.18.54.3.64.37l-1.86,8.22q5.94,1.35,11.9,2.54l1.38-6.92a1.54,1.54,0,0,1,.8-1.19,2.46,2.46,0,0,1,1.6-.13,4,4,0,0,1,1.17.39,4.64,4.64,0,0,1,.65.38q-2,10.59-4,21.19c-1.39-.26-2.77-.53-4.15-.81l1.89-9.49q-6-1.2-12-2.55c-.71,3.15-1.43,6.29-2.14,9.44l-4.12-.95Q180.2,368.17,182.51,358.32Z"/><path class="cls-7" d="M218.74,384.6c-.2.08-.51.18-.94.31a9.42,9.42,0,0,1-1.56.32,18.91,18.91,0,0,1-2.14.13,16.38,16.38,0,0,1-2.6-.22,12.16,12.16,0,0,1-3.57-1.15,8.67,8.67,0,0,1-2.69-2.1,7.64,7.64,0,0,1-1.53-2.95,8.19,8.19,0,0,1-.09-3.64A8.48,8.48,0,0,1,205,372a8.14,8.14,0,0,1,2.41-2.34,9.16,9.16,0,0,1,3.21-1.23,11.08,11.08,0,0,1,3.77,0,10.62,10.62,0,0,1,3,.92,7.56,7.56,0,0,1,2.11,1.49,4.9,4.9,0,0,1,1.17,1.87,4.66,4.66,0,0,1,.18,2.1,4.51,4.51,0,0,1-.74,2A3.81,3.81,0,0,1,218.3,378a9.93,9.93,0,0,1-3.23.54,26.22,26.22,0,0,1-5-.43c-.46-.07-.89-.15-1.29-.23l-1.29-.27a3.92,3.92,0,0,0,1.27,2.9,7.21,7.21,0,0,0,3.95,1.67,10.39,10.39,0,0,0,1.69.14,10.24,10.24,0,0,0,1.43-.1A10,10,0,0,0,217,382l.69-.18Zm-11-9.44c.52.11,1,.21,1.5.29l1.44.24a16.92,16.92,0,0,0,3.09.28,6.5,6.5,0,0,0,1.91-.29,1.85,1.85,0,0,0,1-.65,2.13,2.13,0,0,0,.35-.89,2,2,0,0,0-.76-2,5.24,5.24,0,0,0-2.48-1,5.71,5.71,0,0,0-2.27,0,5,5,0,0,0-1.79.82,5.16,5.16,0,0,0-1.27,1.4A5.09,5.09,0,0,0,207.79,375.16Z"/><path class="cls-7" d="M225.4,364.6a1.51,1.51,0,0,1,.71-1.19,2.39,2.39,0,0,1,1.56-.21,3.89,3.89,0,0,1,1.08.29c.32.14.54.23.64.29l-3,23.07-4-.53Q223.91,375.46,225.4,364.6Z"/><path class="cls-7" d="M246.59,389c-.24,0-.61,0-1.12,0h-1.8c-.68,0-1.45,0-2.3-.07s-1.73-.11-2.65-.21a18.58,18.58,0,0,1-4.44-.91,7.93,7.93,0,0,1-2.61-1.47,3.77,3.77,0,0,1-1.16-1.81,5.27,5.27,0,0,1-.13-2,5.74,5.74,0,0,1,.71-2.24,4,4,0,0,1,1.62-1.49,7.43,7.43,0,0,1,2.68-.7,20.2,20.2,0,0,1,3.9.09c.87.09,1.7.2,2.47.33s1.36.23,1.75.31a4,4,0,0,0-.22-1.88,3,3,0,0,0-1-1.26,4.88,4.88,0,0,0-1.59-.74,13,13,0,0,0-2.1-.38,9.77,9.77,0,0,0-3.17.07,6.81,6.81,0,0,0-1.64.52,4.06,4.06,0,0,1-.5-.67,1.72,1.72,0,0,1-.23-1.13,1.82,1.82,0,0,1,.36-.84,2.19,2.19,0,0,1,1-.66,6.12,6.12,0,0,1,1.79-.32,16.37,16.37,0,0,1,2.77.11,17.67,17.67,0,0,1,3.62.74,8.23,8.23,0,0,1,2.73,1.44,5.52,5.52,0,0,1,1.68,2.27,7,7,0,0,1,.39,3.22Zm-3.3-7.45-1.28-.31a23.82,23.82,0,0,0-2.85-.42,7.09,7.09,0,0,0-3.5.28,2.25,2.25,0,0,0-1.31,1.93,2.41,2.41,0,0,0,.11,1.08,1.83,1.83,0,0,0,.69.9,4.59,4.59,0,0,0,1.47.68,13,13,0,0,0,2.38.43,22.93,22.93,0,0,0,2.56.15c.64,0,1.07,0,1.28-.06Z"/><path class="cls-7" d="M266.66,390.31c-.24,0-.61.06-1.12.09s-1.11.06-1.79.08l-2.31,0c-.85,0-1.73,0-2.65-.1a18.37,18.37,0,0,1-4.47-.73,7.94,7.94,0,0,1-2.66-1.35,3.7,3.7,0,0,1-1.24-1.77,5,5,0,0,1-.21-2,5.63,5.63,0,0,1,.62-2.27,3.91,3.91,0,0,1,1.55-1.55A7.47,7.47,0,0,1,255,380a20.15,20.15,0,0,1,3.89-.08c.88.06,1.7.13,2.48.23l1.76.24a3.9,3.9,0,0,0-.3-1.88,3,3,0,0,0-1-1.21,4.82,4.82,0,0,0-1.61-.67,12.78,12.78,0,0,0-2.12-.29,9.76,9.76,0,0,0-3.16.2,6.42,6.42,0,0,0-1.62.59,4.62,4.62,0,0,1-.52-.65,1.69,1.69,0,0,1-.27-1.12,1.72,1.72,0,0,1,.32-.86,2.26,2.26,0,0,1,1-.7,6.45,6.45,0,0,1,1.78-.4,18.11,18.11,0,0,1,2.77,0A17.74,17.74,0,0,1,262,374a8.64,8.64,0,0,1,2.78,1.32,5.65,5.65,0,0,1,1.77,2.21,7.07,7.07,0,0,1,.53,3.2Q266.88,385.5,266.66,390.31Zm-3.61-7.3c-.23-.06-.66-.14-1.29-.26a23,23,0,0,0-2.86-.3,6.88,6.88,0,0,0-3.48.43,2.24,2.24,0,0,0-1.23,2,2.38,2.38,0,0,0,.15,1.07,1.93,1.93,0,0,0,.73.87,4.64,4.64,0,0,0,1.49.62,13.48,13.48,0,0,0,2.4.33,21,21,0,0,0,2.57,0c.63,0,1.06-.08,1.27-.11C262.88,386.12,263,384.57,263.05,383Z"/><path class="cls-7" d="M271.39,386.56a6.06,6.06,0,0,0,.86.45c.41.18.93.37,1.54.57a15.95,15.95,0,0,0,4.71.78,8.39,8.39,0,0,0,3-.38,1.52,1.52,0,0,0,1.17-1.47,1.5,1.5,0,0,0-.71-1.37,6.57,6.57,0,0,0-2.61-.7l-2.71-.35a13.33,13.33,0,0,1-2.55-.54,6.59,6.59,0,0,1-2-1,4.22,4.22,0,0,1-1.25-1.48,4.14,4.14,0,0,1-.39-2.05,4.57,4.57,0,0,1,.51-1.92,4.45,4.45,0,0,1,1.41-1.57,6.85,6.85,0,0,1,2.44-1,14.4,14.4,0,0,1,3.62-.31,17,17,0,0,1,5.5.82c1.3.5,2,1.15,2,1.94a1.33,1.33,0,0,1-.16.67,3.23,3.23,0,0,1-.34.51,2.28,2.28,0,0,1-.4.37,1.45,1.45,0,0,1-.31.17,4,4,0,0,0-.6-.41,7.28,7.28,0,0,0-1.25-.55,13.85,13.85,0,0,0-1.88-.51,14.2,14.2,0,0,0-2.54-.26c-2.65-.06-4,.55-4,1.85a1.36,1.36,0,0,0,.72,1.29,5.82,5.82,0,0,0,2.17.65l3.52.49a10,10,0,0,1,4.45,1.51,3.7,3.7,0,0,1,1.59,3.26,4.4,4.4,0,0,1-2.11,3.83,10.49,10.49,0,0,1-6.08,1.36,20.78,20.78,0,0,1-3.45-.34,22,22,0,0,1-2.69-.67,14.41,14.41,0,0,1-1.83-.73,5.49,5.49,0,0,1-.89-.51Z"/><path class="cls-7" d="M291.26,388a2.78,2.78,0,0,1,.76-1.25,2.15,2.15,0,0,1,1.4-.43,3.48,3.48,0,0,1,.95.12,4.23,4.23,0,0,1,.74.28,2.85,2.85,0,0,1,.53.31,1.51,1.51,0,0,1,.28.25c-1.3,2.89-2.62,5.76-4,8.64l-3-1C289.75,392.64,290.51,390.35,291.26,388Z"/><path class="cls-7" d="M308.85,368.5a1.55,1.55,0,0,1,.48-1.3,2.42,2.42,0,0,1,1.5-.49,4,4,0,0,1,1.11.09l.68.17,1.23,23.24-4,.19Q309.34,379.45,308.85,368.5Z"/><path class="cls-7" d="M333.8,387.55c-.18.13-.46.3-.84.53a8.66,8.66,0,0,1-1.45.68,19.38,19.38,0,0,1-2,.63,15.58,15.58,0,0,1-2.57.4,11.73,11.73,0,0,1-3.73-.26,8.53,8.53,0,0,1-3.1-1.41,7.51,7.51,0,0,1-2.19-2.49,8.3,8.3,0,0,1-.94-3.53,8.58,8.58,0,0,1,.49-3.54,8.16,8.16,0,0,1,1.79-2.84,9,9,0,0,1,2.81-2,10.88,10.88,0,0,1,3.65-.91,10.76,10.76,0,0,1,3.17.17,7.5,7.5,0,0,1,2.41,1,4.82,4.82,0,0,1,1.57,1.54,4.5,4.5,0,0,1,.68,2,4.55,4.55,0,0,1-.26,2.07,3.71,3.71,0,0,1-1.44,1.71,10.08,10.08,0,0,1-3,1.3,26.65,26.65,0,0,1-4.91.76l-1.31.08-1.31,0A3.9,3.9,0,0,0,323.2,386a7.18,7.18,0,0,0,4.22.69,10.18,10.18,0,0,0,1.68-.27,11.28,11.28,0,0,0,1.35-.44,10,10,0,0,0,1-.48l.62-.34C332.65,385.94,333.22,386.75,333.8,387.55ZM320.94,381c.53,0,1,0,1.52-.07l1.46-.11a16.24,16.24,0,0,0,3.06-.47,6.52,6.52,0,0,0,1.78-.72,1.87,1.87,0,0,0,.8-.88,2.16,2.16,0,0,0,.12-.94,2,2,0,0,0-1.2-1.73,5.25,5.25,0,0,0-2.64-.39,5.61,5.61,0,0,0-2.2.59,4.88,4.88,0,0,0-1.53,1.22,5.1,5.1,0,0,0-.9,1.65A5.36,5.36,0,0,0,320.94,381Z"/><path class="cls-7" d="M353.12,385.33c-.17.13-.44.32-.82.56a9,9,0,0,1-1.41.74,16.7,16.7,0,0,1-2,.71,15.05,15.05,0,0,1-2.56.51,11.92,11.92,0,0,1-3.74-.11,8.59,8.59,0,0,1-3.16-1.28,7.41,7.41,0,0,1-2.28-2.41,8.06,8.06,0,0,1-1.09-3.48,8.55,8.55,0,0,1,.35-3.56,8.11,8.11,0,0,1,1.67-2.91A8.92,8.92,0,0,1,340.8,372a11.78,11.78,0,0,1,6.79-1,7.71,7.71,0,0,1,2.44.85,4.9,4.9,0,0,1,1.64,1.48,4.43,4.43,0,0,1,.75,2,4.37,4.37,0,0,1-.17,2.08,3.79,3.79,0,0,1-1.37,1.77,10,10,0,0,1-2.95,1.41,25,25,0,0,1-4.88,1c-.46.06-.9.1-1.3.14l-1.31.09a3.89,3.89,0,0,0,2,2.44,7.18,7.18,0,0,0,4.26.51,9.56,9.56,0,0,0,1.66-.33,12,12,0,0,0,1.34-.49c.39-.18.72-.36,1-.52l.6-.37Zm-13.13-6,1.53-.14L343,379a16.45,16.45,0,0,0,3-.58,6.57,6.57,0,0,0,1.75-.8,1.85,1.85,0,0,0,.76-.91,2.19,2.19,0,0,0,.09-.95,2,2,0,0,0-1.27-1.67,5.07,5.07,0,0,0-2.66-.29,5.65,5.65,0,0,0-2.17.68,4.75,4.75,0,0,0-1.48,1.28,5,5,0,0,0-.84,1.69A5.37,5.37,0,0,0,340,379.29Z"/><path class="cls-7" d="M359.54,388.4l.65.15c.34.07.75.12,1.25.17a15.8,15.8,0,0,0,1.74,0,16.69,16.69,0,0,0,2.12-.21,10.88,10.88,0,0,0,2.32-.62,5.57,5.57,0,0,0,1.94-1.2,4.5,4.5,0,0,0,1.19-2,6.22,6.22,0,0,0,.09-2.95c0-.12,0-.25-.07-.37a8.2,8.2,0,0,1-5.57,3.36,10.62,10.62,0,0,1-3.69,0,8.51,8.51,0,0,1-3.08-1.23,7.44,7.44,0,0,1-2.22-2.28,8.12,8.12,0,0,1-1.12-3.21,7.85,7.85,0,0,1,.23-3.43,8.16,8.16,0,0,1,1.54-2.91,9.33,9.33,0,0,1,2.67-2.19,11.09,11.09,0,0,1,3.64-1.22,11.88,11.88,0,0,1,3.66-.06,7.92,7.92,0,0,1,3.14,1.15,7.67,7.67,0,0,1,2.41,2.46,11,11,0,0,1,1.41,3.88c.27,1.52.55,3,.83,4.54a11.08,11.08,0,0,1,0,4.41,7.58,7.58,0,0,1-1.57,3.29,8.35,8.35,0,0,1-2.91,2.22,15.11,15.11,0,0,1-4,1.19,23.27,23.27,0,0,1-2.66.27c-.81,0-1.53,0-2.17,0a15.49,15.49,0,0,1-1.59-.19c-.42-.08-.73-.14-.93-.2C359.07,390.31,359.31,389.36,359.54,388.4Zm5.77-6.73a6,6,0,0,0,2.09-.73,5.18,5.18,0,0,0,1.49-1.33,5,5,0,0,0,.81-1.76,5,5,0,0,0,.05-2.09,5.29,5.29,0,0,0-.74-1.94,5,5,0,0,0-1.36-1.42,4.85,4.85,0,0,0-1.81-.79,6.05,6.05,0,0,0-2.17,0,5.88,5.88,0,0,0-2.1.74,5.11,5.11,0,0,0-1.49,1.35,5.23,5.23,0,0,0-.81,1.78,5.06,5.06,0,0,0-.08,2,4.82,4.82,0,0,0,2,3.44A5.45,5.45,0,0,0,365.31,381.67Z"/><path class="cls-7" d="M380.12,377.72a2.73,2.73,0,0,1,2,.33,2.2,2.2,0,0,1,.66,3.32,2.74,2.74,0,0,1-1.72,1.07,2.79,2.79,0,0,1-2-.34,2.16,2.16,0,0,1-.64-3.32A2.82,2.82,0,0,1,380.12,377.72Zm-5-15.32a1.46,1.46,0,0,1,.31-1.36,2.33,2.33,0,0,1,1.36-.69,3.76,3.76,0,0,1,1.15-.06c.36,0,.6.06.72.08l2.85,14.27-3.91.76Q376.35,368.91,375.12,362.4Z"/><path class="cls-5" d="M275.18,336.83c27.45.06,28-6.22,27.47-9.64s-2.29-14.75-3.6-43.84,6.52-49.56,8.87-61.57-.3-51.07-.3-51.07-24.45,1.17-32.1,1.16-32.5-1.3-32.5-1.3-2.4,39.05-.1,51.07,10,32.53,8.61,61.61-3.23,40.42-3.78,43.83S247.73,336.77,275.18,336.83Z"/><path class="cls-8" d="M275.18,334.09c-17.93,0-22.9-2.75-24.28-4.36a2.39,2.39,0,0,1-.45-2.21c1.57-9.66,2.85-24.51,3.81-44.13,1.13-22.94-3.26-40.31-6.47-53-.9-3.56-1.68-6.64-2.18-9.27-1.86-9.75-.49-38.68,0-47.69,6.7.34,23.72,1.16,29.92,1.17s22.93-.73,29.53-1c.54,9,2.08,38,.18,47.68-.51,2.63-1.3,5.71-2.22,9.26-3.26,12.67-7.72,30-6.7,53,.89,19.64,2.1,34.49,3.63,44.15a2.42,2.42,0,0,1-.46,2.21C298.1,331.44,293.11,334.13,275.18,334.09Z"/><path class="cls-6" d="M298,310.06c.59,7,1.25,12.9,2,17.56a2.42,2.42,0,0,1-.46,2.21c-1.38,1.61-6.37,4.3-24.3,4.26s-22.9-2.75-24.28-4.36a2.39,2.39,0,0,1-.45-2.21c.8-4.93,1.53-9.79,2.17-17.37Z"/><ellipse class="cls-5" cx="275.25" cy="170.72" rx="31.96" ry="2.82"/><path class="cls-5" d="M275.25,173.9c-.32,0-32.31,0-32.31-3.18s32-3.18,32.31-3.18,32.31,0,32.31,3.18S275.58,173.9,275.25,173.9Zm0-5.65c-19.54,0-31.1,1.48-31.61,2.5.51,1,12.07,2.44,31.61,2.44,19.34,0,30.86-1.45,31.6-2.47C306.11,169.7,294.59,168.25,275.25,168.25Z"/></g></g></svg>