<svg xmlns="http://www.w3.org/2000/svg" viewBox="0 0 514.23 487.74"><defs><style>.cls-1,.cls-2{fill:none;stroke-miterlimit:10;}.cls-1{stroke:#ffb655;stroke-width:8.62px;}.cls-2{stroke:#fff;stroke-width:5.8px;}.cls-3{font-size:43.8px;font-family:CoHeadline-Regular, Co Headline;}.cls-3,.cls-4{fill:#fff;}.cls-5{fill:#f5f5f5;}.cls-6{fill:#ffb655;}.cls-7{fill:#e5a045;}.cls-8{fill:#263138;}</style></defs><title>Bier-o-meter_final_fiets</title><g id="Layer_2" data-name="Layer 2"><g id="Layer_1-2" data-name="Layer 1"><line class="cls-1" x1="244.67" y1="135.6" x2="228.58" y2="75.54"/><line class="cls-1" x1="192.15" y1="166.11" x2="148.18" y2="122.14"/><line class="cls-1" x1="161.92" y1="218.8" x2="101.86" y2="202.71"/><line class="cls-1" x1="162.09" y1="279.54" x2="102.03" y2="295.63"/><line class="cls-1" x1="192.6" y1="332.06" x2="148.63" y2="376.03"/><line class="cls-1" x1="245.29" y1="362.29" x2="229.2" y2="422.35"/><line class="cls-1" x1="306.03" y1="362.12" x2="322.12" y2="422.18"/><line class="cls-1" x1="358.55" y1="331.61" x2="402.52" y2="375.57"/><line class="cls-1" x1="388.78" y1="278.92" x2="448.84" y2="295.01"/><line class="cls-1" x1="388.61" y1="218.18" x2="448.67" y2="202.08"/><line class="cls-1" x1="358.1" y1="165.66" x2="402.07" y2="121.69"/><line class="cls-1" x1="305.41" y1="135.43" x2="321.5" y2="75.37"/><line class="cls-2" x1="275.03" y1="34.19" x2="275.03" y2="131.51"/><line class="cls-2" x1="167.74" y1="63.11" x2="216.4" y2="147.4"/><line class="cls-2" x1="89.28" y1="141.8" x2="173.57" y2="190.46"/><line class="cls-2" x1="60.68" y1="249.18" x2="158" y2="249.18"/><line class="cls-2" x1="89.6" y1="356.47" x2="173.89" y2="307.81"/><line class="cls-2" x1="168.29" y1="434.93" x2="216.96" y2="350.64"/><line class="cls-2" x1="275.67" y1="463.53" x2="275.67" y2="366.2"/><line class="cls-2" x1="382.96" y1="434.61" x2="334.3" y2="350.32"/><line class="cls-2" x1="461.42" y1="355.92" x2="377.13" y2="307.25"/><line class="cls-2" x1="490.02" y1="248.54" x2="392.7" y2="248.54"/><line class="cls-2" x1="461.1" y1="141.25" x2="376.81" y2="189.91"/><line class="cls-2" x1="382.41" y1="62.79" x2="333.74" y2="147.07"/><text class="cls-3" transform="translate(36.36 235.45) rotate(-83.24)">B</text><text class="cls-3" transform="translate(40.24 206.05) rotate(-78.47)">i</text><text class="cls-3" transform="matrix(0.27, -0.96, 0.96, 0.27, 41.99, 196.15)">e</text><text class="cls-3" transform="translate(48.4 173.54) rotate(-69.45)">r</text><text class="cls-3" transform="translate(54.47 157.43) rotate(-65.75)">-</text><text class="cls-3" transform="translate(59.87 144.72) rotate(-60.87)">o</text><text class="cls-3" transform="translate(73.13 121.44) rotate(-56.01)">-</text><text class="cls-3" transform="translate(80.11 109.7) rotate(-49.62)">m</text><text class="cls-3" transform="matrix(0.74, -0.67, 0.67, 0.74, 106.23, 79.72)">e</text><text class="cls-3" transform="translate(123.74 64.04) rotate(-37.3)">t</text><text class="cls-3" transform="matrix(0.84, -0.54, 0.54, 0.84, 136.47, 54.1)">e</text><text class="cls-3" transform="matrix(0.89, -0.47, 0.47, 0.89, 156.33, 41.5)">r</text><path class="cls-4" d="M276.92,337c27.45.06,28-6.22,27.47-9.64s-2.29-14.75-3.6-43.84S307.31,234,309.66,222s-.3-51.08-.3-51.08-24.45,1.18-32.1,1.17-32.49-1.3-32.49-1.3-2.41,39.05-.11,51.07,10,32.52,8.61,61.61-3.23,40.41-3.78,43.83S249.47,337,276.92,337Z"/><path class="cls-5" d="M276.92,334.28c-17.93,0-22.9-2.75-24.27-4.37a2.36,2.36,0,0,1-.45-2.21c1.56-9.65,2.84-24.5,3.81-44.13,1.12-22.93-3.27-40.3-6.48-53-.9-3.56-1.68-6.64-2.18-9.27-1.86-9.75-.49-38.68,0-47.69,6.69.33,23.71,1.15,29.91,1.16s22.93-.73,29.53-1c.54,9,2.09,37.94.18,47.68-.51,2.63-1.3,5.7-2.22,9.26-3.26,12.67-7.72,30-6.69,53,.88,19.63,2.1,34.48,3.62,44.15a2.36,2.36,0,0,1-.46,2.21C299.84,331.62,294.86,334.32,276.92,334.28Z"/><path class="cls-6" d="M276.92,334.28c-17.93,0-22.9-2.75-24.27-4.37a2.36,2.36,0,0,1-.45-2.21c1.56-9.65,2.84-24.5,3.81-44.13,1.12-22.93-3.27-40.3-6.48-53-.9-3.56-1.68-6.64-2.18-9.27-1.86-9.75-1.09-25.22-.61-34.23,6.7.33,24.29,1.15,30.49,1.17s23.64-.73,30.24-1c.54,9,1.41,24.48-.5,34.22-.51,2.63-1.3,5.7-2.22,9.26-3.26,12.67-7.72,30-6.69,53,.88,19.63,2.1,34.48,3.62,44.15a2.36,2.36,0,0,1-.46,2.21C299.84,331.62,294.86,334.32,276.92,334.28Z"/><path class="cls-5" d="M250.88,316.68c-.62,5.81-1.14,9-1.39,10.59-.55,3.41,0,9.69,27.43,9.75s28-6.22,27.47-9.64c-.25-1.56-.75-4.76-1.34-10.54-9.62,4-19.35,4.08-26.1,4.06C270.41,320.89,259.26,319.88,250.88,316.68Z"/><path class="cls-4" d="M276.92,334.25c-17.93,0-22.9-2.75-24.27-4.37a2.39,2.39,0,0,1-.46-2.21c.19-1.12.87-6.18,1.34-10.09a88.07,88.07,0,0,0,23.42,3.2c7.13,0,15-.19,23.45-3,.45,3.81,1.11,8.86,1.28,10a2.36,2.36,0,0,1-.46,2.21C299.84,331.59,294.86,334.28,276.92,334.25Z"/><path class="cls-4" d="M310.39,168c-3.48-6.55-10.69-5.82-13.49-4.64s-7,1.18-11.85-3-7.2-6-14.65-4.79-12.13,6.22-17.7,6.21c-4.21,0-10.55,2.65-10.56,10.65a9,9,0,0,0,5.85,8.82,11.34,11.34,0,0,1,3.33,2.18c.26.24.51.46.76.67a6.6,6.6,0,0,1,2.4,5.08l-.06,29.19a3.43,3.43,0,0,0,3.11,3.48,3.3,3.3,0,0,0,3.47-3.28l.05-27.84a7.42,7.42,0,0,1,3.19-6.05l.05,0a.86.86,0,0,1,1.34.71l0,19.33a2.71,2.71,0,0,0,2.33,2.75,2.6,2.6,0,0,0,2.87-2.59l0-20.39a1.62,1.62,0,0,1,2.09-1.54c3.9,1.17,5.39,4.19,11.59,4.2,7.68,0,11.88-7.13,19.94-5.25S313.2,173.24,310.39,168Z"/><path class="cls-7" d="M485.43,384a515.05,515.05,0,0,1-94.61,28.9q-6.29-30.94-12.56-61.9a450.63,450.63,0,0,0,83-25.35q-1.74,17.82-4.66,35.75Q470.51,373,485.43,384Z"/><path class="cls-4" d="M429.44,386.49Q411,400.42,390.82,412.86l-3.24-16Q408.67,392.62,429.44,386.49Z"/><path class="cls-7" d="M91.63,384a514.92,514.92,0,0,0,94.62,28.9q6.27-30.94,12.55-61.9a450.86,450.86,0,0,1-83-25.35q1.74,17.82,4.66,35.75Q106.56,373,91.63,384Z"/><path class="cls-4" d="M147.62,386.49q18.45,13.93,38.63,26.37,1.62-8,3.23-16Q168.39,392.62,147.62,386.49Z"/><path class="cls-6" d="M429.44,386.49a498.26,498.26,0,0,1-281.82,0q7.37-25,14.75-50a446.13,446.13,0,0,0,252.32,0Q422.07,361.47,429.44,386.49Z"/><path class="cls-8" d="M169.09,355a1.57,1.57,0,0,1,.91-1.14,2.6,2.6,0,0,1,1.62,0,4.3,4.3,0,0,1,1.11.46l.64.4L168,375.56c-1.37-.35-2.74-.71-4.1-1.08Z"/><path class="cls-8" d="M166.21,378.51a5.33,5.33,0,0,0,1,.61,7.33,7.33,0,0,0,1.41.51,7,7,0,0,0,1.19.19,2.59,2.59,0,0,0,1.12-.17,2.16,2.16,0,0,0,.9-.68,3.41,3.41,0,0,0,.62-1.38q1.83-7.41,3.67-14.81a1.49,1.49,0,0,1,.84-1.13,2.6,2.6,0,0,1,1.6,0,4.11,4.11,0,0,1,1.07.41c.31.17.52.29.62.36l-3.78,15.87a7.18,7.18,0,0,1-1.23,2.77,5,5,0,0,1-1.9,1.48A5.74,5.74,0,0,1,171,383a10.88,10.88,0,0,1-2.51-.33,10,10,0,0,1-1.34-.44l-1.19-.52a7.78,7.78,0,0,1-.93-.51c-.25-.17-.44-.3-.56-.4Zm13.92-23.92a2.36,2.36,0,0,1,1.47,1,2.17,2.17,0,0,1-.73,3.06,2.34,2.34,0,0,1-1.78.23,2.39,2.39,0,0,1-1.48-1,2.16,2.16,0,0,1,.76-3.05A2.33,2.33,0,0,1,180.13,354.59Z"/><path class="cls-8" d="M182.17,374.89a5.51,5.51,0,0,0,.76.6,16.4,16.4,0,0,0,1.42.86,18,18,0,0,0,2,.92,15.88,15.88,0,0,0,2.51.73,8.66,8.66,0,0,0,3,.2,1.54,1.54,0,0,0,1.44-1.23,1.5,1.5,0,0,0-.45-1.48,6.43,6.43,0,0,0-2.44-1.18l-2.61-.86a13.13,13.13,0,0,1-2.42-1,6.83,6.83,0,0,1-1.76-1.33,4.18,4.18,0,0,1-1-1.68,4.1,4.1,0,0,1,0-2.09,4.27,4.27,0,0,1,2.54-3.07,7.21,7.21,0,0,1,2.61-.55,14.61,14.61,0,0,1,3.62.38,16.87,16.87,0,0,1,5.28,1.84c1.2.74,1.72,1.5,1.57,2.27a1.31,1.31,0,0,1-.28.63,3,3,0,0,1-.44.44,2.34,2.34,0,0,1-.46.29,2.05,2.05,0,0,1-.34.11,5,5,0,0,0-.52-.51,7.37,7.37,0,0,0-1.13-.79,15.4,15.4,0,0,0-1.76-.85,13.67,13.67,0,0,0-2.46-.73c-2.6-.56-4-.22-4.33,1.06a1.36,1.36,0,0,0,.47,1.4,5.83,5.83,0,0,0,2,1l3.39,1.15a10.29,10.29,0,0,1,4.12,2.32,3.71,3.71,0,0,1,1,3.5,4.41,4.41,0,0,1-2.8,3.37,10.51,10.51,0,0,1-6.25.19,21.22,21.22,0,0,1-3.35-1,22.78,22.78,0,0,1-2.53-1.17,14.31,14.31,0,0,1-1.67-1.05,6.7,6.7,0,0,1-.79-.67Z"/><path class="cls-8" d="M203.94,361.11a1.53,1.53,0,0,1,.77-1.16,2.47,2.47,0,0,1,1.57-.13,4,4,0,0,1,1.07.34c.31.15.52.26.62.32q-1.14,6.45-2.29,12.89c.33-.13.79-.34,1.39-.61l2-.9,2.28-1,2.22-1a9.4,9.4,0,0,1,1.48-.56,4,4,0,0,1,1.63,0,2.57,2.57,0,0,1,1.49.7,2.8,2.8,0,0,1,.7.9c-.54.32-1.26.72-2.18,1.17s-1.86.89-2.82,1.33-1.86.84-2.72,1.21l-1.86.8a45.75,45.75,0,0,1,4.63,5.2,51.9,51.9,0,0,1,3.44,5.06c-1.66-.24-3.32-.5-5-.77-.44-.67-.94-1.39-1.49-2.14s-1.16-1.51-1.81-2.25-1.3-1.49-2-2.2-1.32-1.38-2-2c-.42,2.38-.84,4.77-1.27,7.15l-4-.73Q201.94,371.89,203.94,361.11Z"/><path class="cls-8" d="M230,370.64a10.85,10.85,0,0,1,3.61,1.09,9.51,9.51,0,0,1,2.78,2.11,8.45,8.45,0,0,1,1.69,2.9,7.88,7.88,0,0,1,.36,3.44,7.59,7.59,0,0,1-1.08,3.25,8.09,8.09,0,0,1-2.32,2.45,9.46,9.46,0,0,1-3.28,1.43,10.72,10.72,0,0,1-3.89.18,10.58,10.58,0,0,1-3.72-1.15,9.3,9.3,0,0,1-2.82-2.2,8,8,0,0,1-1.64-2.95,7.71,7.71,0,0,1-.24-3.42,7.87,7.87,0,0,1,1.21-3.24,8.36,8.36,0,0,1,2.36-2.38,9.56,9.56,0,0,1,3.22-1.35A11,11,0,0,1,230,370.64Zm-1.72,13.64a6,6,0,0,0,2.25-.12,5.05,5.05,0,0,0,1.86-.91,5.28,5.28,0,0,0,1.3-1.52,5.33,5.33,0,0,0,.64-2,5.61,5.61,0,0,0-.16-2.13,5.08,5.08,0,0,0-.9-1.8,5.21,5.21,0,0,0-1.56-1.3,6.17,6.17,0,0,0-4.33-.55,5.2,5.2,0,0,0-1.82.87,5.11,5.11,0,0,0-1.32,1.52,5.49,5.49,0,0,0-.69,2,5.2,5.2,0,0,0,1,3.9,5,5,0,0,0,1.56,1.34A5.88,5.88,0,0,0,228.27,384.28Z"/><path class="cls-8" d="M242.38,374.2a1.51,1.51,0,0,1,.67-1.24,2.61,2.61,0,0,1,1.57-.25,4.11,4.11,0,0,1,1.11.25l.67.27q-.39,4.2-.76,8.39a4.83,4.83,0,0,0,7.67,4,4.49,4.49,0,0,0,1.35-3.22l.51-7.07a1.49,1.49,0,0,1,.63-1.25,2.57,2.57,0,0,1,1.53-.3,4.27,4.27,0,0,1,1.15.22l.67.25c-.19,3.07-.39,6.14-.58,9.21a6.71,6.71,0,0,1-.8,2.89,5.8,5.8,0,0,1-1.9,2.07,7.78,7.78,0,0,1-2.82,1.17,12.31,12.31,0,0,1-3.53.19,12.12,12.12,0,0,1-3.45-.76,7.58,7.58,0,0,1-2.58-1.6,6.26,6.26,0,0,1-1.55-2.35,6.79,6.79,0,0,1-.34-3Z"/><path class="cls-8" d="M277.2,368.81a1.57,1.57,0,0,1,.55-1.27,2.4,2.4,0,0,1,1.51-.38,4.31,4.31,0,0,1,1.11.16l.66.22q-.11,7.23-.23,14.46a10.54,10.54,0,0,1-.79,4.05,7.66,7.66,0,0,1-2,2.85,8.08,8.08,0,0,1-3,1.65,11.34,11.34,0,0,1-3.79.46,10.73,10.73,0,0,1-3.81-.8,9,9,0,0,1-2.93-1.9,7.85,7.85,0,0,1-1.84-2.79,8.19,8.19,0,0,1-.53-3.43,8.44,8.44,0,0,1,.87-3.37,8.23,8.23,0,0,1,2-2.59,8.52,8.52,0,0,1,2.86-1.63,9.65,9.65,0,0,1,3.49-.49,8.09,8.09,0,0,1,3.45.84,7,7,0,0,1,2.32,1.81C277.07,374,277.14,371.43,277.2,368.81Zm-.34,13.87a5.29,5.29,0,0,0-.35-2.06,5.21,5.21,0,0,0-1-1.69,5,5,0,0,0-1.64-1.16,5.83,5.83,0,0,0-2.13-.47,5.65,5.65,0,0,0-2.18.32,5.3,5.3,0,0,0-1.72,1,4.68,4.68,0,0,0-1.16,1.6,5.76,5.76,0,0,0-.48,2.06,5.44,5.44,0,0,0,.29,2.08,4.72,4.72,0,0,0,1,1.69,5.33,5.33,0,0,0,1.65,1.16,6.33,6.33,0,0,0,4.4.17,4.94,4.94,0,0,0,1.73-1,4.82,4.82,0,0,0,1.15-1.6A5.52,5.52,0,0,0,276.86,382.68Z"/><path class="cls-8" d="M292.61,368.93a1.52,1.52,0,0,1,.53-1.28,2.4,2.4,0,0,1,1.51-.44,4.33,4.33,0,0,1,1.11.13l.68.2.15,9.19a7,7,0,0,1,2.33-1.79,8.1,8.1,0,0,1,3.43-.81,9.5,9.5,0,0,1,3.49.51,8.65,8.65,0,0,1,2.84,1.65,8.28,8.28,0,0,1,2,2.61,8.58,8.58,0,0,1,.83,3.37,8.33,8.33,0,0,1-.53,3.43,7.81,7.81,0,0,1-1.84,2.78,9.37,9.37,0,0,1-2.95,1.88,10.81,10.81,0,0,1-3.81.76,11.93,11.93,0,0,1-3.85-.48,8.06,8.06,0,0,1-3-1.68,7.5,7.5,0,0,1-2-2.86,10.66,10.66,0,0,1-.74-4.06Zm9.59,18.89a5.74,5.74,0,0,0,2.18-.46,5.57,5.57,0,0,0,1.68-1.15,4.68,4.68,0,0,0,1-1.68,5.25,5.25,0,0,0,.31-2.08,5.6,5.6,0,0,0-.47-2.06,4.69,4.69,0,0,0-1.15-1.61,5.12,5.12,0,0,0-1.72-1,5.63,5.63,0,0,0-2.16-.34,6,6,0,0,0-2.17.46,4.87,4.87,0,0,0-1.65,1.14A5.13,5.13,0,0,0,297,380.7a5.27,5.27,0,0,0-.37,2.06,5.56,5.56,0,0,0,.44,2.11,4.69,4.69,0,0,0,1.15,1.61,5.19,5.19,0,0,0,1.74,1A5.86,5.86,0,0,0,302.2,387.82Z"/><path class="cls-8" d="M316.1,366.74a2.38,2.38,0,0,1,1.68.54,2.16,2.16,0,0,1,.2,3.14,2.48,2.48,0,0,1-3.32.2,2.17,2.17,0,0,1-.17-3.14A2.32,2.32,0,0,1,316.1,366.74Zm-1.42,9a1.49,1.49,0,0,1,.47-1.33,2.63,2.63,0,0,1,1.51-.49,4.2,4.2,0,0,1,1.14.08c.35.07.58.13.69.16l1,15.71-4,.24Z"/><path class="cls-8" d="M339.43,387l-.83.54a9.78,9.78,0,0,1-1.44.69,17.46,17.46,0,0,1-2,.65,15.73,15.73,0,0,1-2.58.44,11.77,11.77,0,0,1-3.73-.22,8.64,8.64,0,0,1-3.12-1.37,7.61,7.61,0,0,1-2.21-2.47,8.37,8.37,0,0,1-1-3.51,8.46,8.46,0,0,1,.46-3.55,8,8,0,0,1,1.75-2.87,9,9,0,0,1,2.79-2,11,11,0,0,1,3.64-.95,10.49,10.49,0,0,1,3.17.14,7.53,7.53,0,0,1,2.42.91,4.93,4.93,0,0,1,1.59,1.52,4.71,4.71,0,0,1,.47,4.06,3.72,3.72,0,0,1-1.43,1.73,9.69,9.69,0,0,1-3,1.33,25.82,25.82,0,0,1-4.9.82l-1.31.1-1.31.06a3.93,3.93,0,0,0,1.95,2.49,7.12,7.12,0,0,0,4.23.63,9.85,9.85,0,0,0,1.67-.28,10.09,10.09,0,0,0,1.35-.46,8.75,8.75,0,0,0,1-.49l.62-.35Zm-12.94-6.42c.53,0,1-.05,1.52-.1l1.46-.12a16.62,16.62,0,0,0,3-.5,6.32,6.32,0,0,0,1.78-.75,1.86,1.86,0,0,0,.78-.88,2.21,2.21,0,0,0,.12-1,2,2,0,0,0-1.23-1.71,5,5,0,0,0-2.64-.36,5.61,5.61,0,0,0-2.19.61,5,5,0,0,0-1.52,1.24,5.1,5.1,0,0,0-.88,1.66A5.42,5.42,0,0,0,326.49,380.57Z"/><path class="cls-8" d="M342,377.48a5.67,5.67,0,0,1,1.4-4.76,8.2,8.2,0,0,1,5.12-2.27,9.49,9.49,0,0,1,3.55.09c.95.25,1.48.75,1.58,1.51a2,2,0,0,1-.17,1.1,2.15,2.15,0,0,1-.44.7,11.39,11.39,0,0,0-1.5-.27,8.29,8.29,0,0,0-2,0c-2.66.35-3.83,1.82-3.51,4.45.37,3.08.75,6.15,1.13,9.23l-4,.47Z"/><path class="cls-8" d="M355.43,367.08a1.54,1.54,0,0,1,.35-1.37,2.49,2.49,0,0,1,1.42-.61,4.4,4.4,0,0,1,1.14,0c.37,0,.6.08.72.1.22,1.38.43,2.77.64,4.15,1.64-.25,3.28-.51,4.91-.78a2.3,2.3,0,0,1,1.64.16,1.61,1.61,0,0,1,.67,1.17,2.91,2.91,0,0,1,0,1,5.08,5.08,0,0,1-.16.7q-3.27.56-6.54,1.06c.36,2.35.73,4.7,1.09,7.06a3.15,3.15,0,0,0,.45,1.31,2.09,2.09,0,0,0,.81.73,2.7,2.7,0,0,0,1.08.29,5.66,5.66,0,0,0,1.22-.07,6.24,6.24,0,0,0,1.83-.59,5.82,5.82,0,0,0,1.16-.75c.67.71,1.33,1.42,2,2.13-.17.16-.4.36-.71.61a7.17,7.17,0,0,1-1.15.75,12.25,12.25,0,0,1-1.57.7,10.51,10.51,0,0,1-2,.49,6.7,6.7,0,0,1-4.88-.72,4.94,4.94,0,0,1-2.12-3.56Z"/><path class="cls-8" d="M367.14,387.77a5.56,5.56,0,0,0,1.16.15,7,7,0,0,0,1.49-.11,5.67,5.67,0,0,0,1.16-.31,2.57,2.57,0,0,0,.95-.6,2.28,2.28,0,0,0,.55-1,3.51,3.51,0,0,0,0-1.52q-1.32-7.5-2.65-15a1.48,1.48,0,0,1,.32-1.37,2.56,2.56,0,0,1,1.45-.67,4.46,4.46,0,0,1,1.14-.06l.71.08,3,16a7.13,7.13,0,0,1,0,3,4.9,4.9,0,0,1-1.12,2.13,5.69,5.69,0,0,1-1.93,1.35,10,10,0,0,1-2.41.71,9.62,9.62,0,0,1-1.4.14h-1.29a7.62,7.62,0,0,1-1.05-.09c-.3-.05-.53-.09-.68-.13C366.72,389.61,366.93,388.69,367.14,387.77Zm3-27.51a2.29,2.29,0,0,1,1.74.33,2.07,2.07,0,0,1,.95,1.42,2,2,0,0,1-.38,1.67,2.36,2.36,0,0,1-1.52.93,2.29,2.29,0,0,1-1.76-.34,2.06,2.06,0,0,1-.94-1.42,2.08,2.08,0,0,1,.39-1.67A2.35,2.35,0,0,1,370.15,360.26Z"/><path class="cls-8" d="M395.8,377.58c-.16.14-.41.35-.76.63a9,9,0,0,1-1.36.86,16.58,16.58,0,0,1-1.95.89,14.34,14.34,0,0,1-2.51.74,11.7,11.7,0,0,1-3.74.23,8.54,8.54,0,0,1-3.28-1,7.45,7.45,0,0,1-2.49-2.19,8.12,8.12,0,0,1-1.41-3.36,8.49,8.49,0,0,1,0-3.59,8.24,8.24,0,0,1,1.4-3.05,9,9,0,0,1,2.56-2.31,11,11,0,0,1,3.51-1.38,10.82,10.82,0,0,1,3.18-.24,7.52,7.52,0,0,1,2.52.62,5,5,0,0,1,1.77,1.32,4.53,4.53,0,0,1,.93,1.89,4.43,4.43,0,0,1,0,2.08,3.65,3.65,0,0,1-1.22,1.89,9.86,9.86,0,0,1-2.81,1.68,26.42,26.42,0,0,1-4.8,1.4l-1.29.25-1.29.21a4,4,0,0,0,2.23,2.25,7.25,7.25,0,0,0,4.3.12,10.86,10.86,0,0,0,1.63-.48,11.23,11.23,0,0,0,1.29-.61,10.67,10.67,0,0,0,.95-.61l.58-.43Zm-13.66-4.83c.53-.09,1-.18,1.51-.28l1.43-.29a15.76,15.76,0,0,0,3-.87,6.71,6.71,0,0,0,1.69-.95,1.84,1.84,0,0,0,.67-1,2.18,2.18,0,0,0,0-.95,2,2,0,0,0-1.43-1.56,5.12,5.12,0,0,0-2.68,0,5.52,5.52,0,0,0-2.11.87,4.79,4.79,0,0,0-1.36,1.41,5,5,0,0,0-.69,1.76A5.35,5.35,0,0,0,382.14,372.75Z"/><path class="cls-8" d="M400.8,373.21a2.79,2.79,0,0,1,2,.23,2.19,2.19,0,0,1,.8,3.29,2.76,2.76,0,0,1-1.68,1.15,2.81,2.81,0,0,1-2-.25,2.19,2.19,0,0,1-1.18-1.45,2.14,2.14,0,0,1,.4-1.84A2.77,2.77,0,0,1,400.8,373.21Zm-5.67-15.09a1.48,1.48,0,0,1,.25-1.38,2.39,2.39,0,0,1,1.34-.74,3.76,3.76,0,0,1,1.14-.12l.73.05q1.74,7.06,3.47,14.13l-3.88.94Q396.65,364.56,395.13,358.12Z"/></g></g></svg>