<svg xmlns="http://www.w3.org/2000/svg" viewBox="0 0 434.1 169.53"><defs><style>.cls-1{fill:#60a8a1;}.cls-2{fill:#84dccf;}.cls-3{fill:#fff;}.cls-4{fill:#333;}.cls-5{fill:#f04925;}.cls-6{fill:#fcef58;}</style></defs><title>Asset 1</title><g id="Layer_2" data-name="Layer 2"><g id="Layer_1-2" data-name="Layer 1"><path class="cls-1" d="M388.44,134.38V87.26H44.14v47.12H56.46c0-.22,0-.44,0-.67h87.62c0,.23,0,.45,0,.67H281.15c0-.22,0-.44,0-.67h87.62v.67Z"/><path class="cls-2" d="M434.1,86l-.23,13.87-.5,30.54a4,4,0,0,1-4,4H368.76v-.67a43.81,43.81,0,0,0-87.62,0c0,.23,0,.45,0,.67H144.06c0-.22,0-.44,0-.67a43.81,43.81,0,1,0-87.62,0c0,.23,0,.45,0,.67h-47A9.49,9.49,0,0,1,0,124.9v-42A26.3,26.3,0,0,1,26.32,56.58H68.67L113.9,10.19A33.75,33.75,0,0,1,138.07,0H255.15a33.74,33.74,0,0,1,24.4,10.43L318,50.59l93.64,8.78A26.43,26.43,0,0,1,434.1,86Z"/><path class="cls-3" d="M212.91,56.22h98.42l-38-39.79a25.2,25.2,0,0,0-18.14-7.76H212.91Z"/><path class="cls-3" d="M202,8.67H146.86a25.25,25.25,0,0,0-18,7.58l-39,40H202Z"/><circle class="cls-4" cx="100.27" cy="134.39" r="35.13"/><circle class="cls-3" cx="100.27" cy="134.39" r="21.08"/><circle class="cls-4" cx="100.27" cy="134.39" r="10.28" transform="translate(-20.23 17.8) rotate(-9.22)"/><circle class="cls-4" cx="324.96" cy="134.39" r="35.13" transform="translate(-15.13 223.82) rotate(-37.2)"/><circle class="cls-3" cx="324.96" cy="134.39" r="21.08" transform="translate(-11.36 31.67) rotate(-5.48)"/><circle class="cls-4" cx="324.96" cy="134.39" r="10.28" transform="translate(44.98 347.16) rotate(-59.7)"/><path class="cls-5" d="M18.05,67.65V82.09A16.82,16.82,0,0,1,1.24,98.91H0v-16A26.2,26.2,0,0,1,4.86,67.65Z"/><path class="cls-6" d="M434.1,86l-.23,13.87H423.73a19.4,19.4,0,0,1-19.4-19.4V69.75a5,5,0,0,1,5-5h14.74A26.39,26.39,0,0,1,434.1,86Z"/></g></g></svg>