<svg xmlns="http://www.w3.org/2000/svg" viewBox="0 0 620.64 411"><defs><style>.cls-1{fill:#333;}.cls-11,.cls-12,.cls-2{font-size:20.8px;font-family:Raleway-Regular, Raleway;}.cls-13,.cls-14,.cls-2{fill:#fff;}.cls-3{letter-spacing:-0.01em;}.cls-4{letter-spacing:-0.02em;}.cls-5{letter-spacing:-0.03em;}.cls-6{letter-spacing:-0.02em;}.cls-7{letter-spacing:-0.03em;}.cls-12,.cls-8{letter-spacing:-0.01em;}.cls-9{letter-spacing:-0.02em;}.cls-10,.cls-13{font-size:31.21px;}.cls-10{font-family:Karma-Regular, Karma;}.cls-13{font-family:Karma-Light, Karma Light;font-weight:300;}</style></defs><title>WJD_Fiets02.svgWJD_Fiets02</title><g id="Layer_2" data-name="Layer 2"><g id="Layer_1-2" data-name="Layer 1"><rect class="cls-1" width="620.64" height="384" rx="32.54"/><text class="cls-2" transform="translate(134.05 273.34)"><tspan class="cls-3">P</tspan><tspan x="12.75" y="0">e</tspan><tspan class="cls-4" x="24.96" y="0">r</tspan><tspan x="31.77" y="0" xml:space="preserve"> jaa</tspan><tspan class="cls-4" x="64.43" y="0">r</tspan><tspan class="cls-5" x="71.23" y="0"> </tspan><tspan class="cls-6" x="75.98" y="0">w</tspan><tspan x="92.49" y="0">o</tspan><tspan class="cls-7" x="104.87" y="0">r</tspan><tspan x="111.63" y="0">den e</tspan><tspan class="cls-4" x="166.43" y="0">r</tspan><tspan x="173.23" y="0" xml:space="preserve"> ong</tspan><tspan class="cls-8" x="215.9" y="0">e</tspan><tspan class="cls-9" x="227.82" y="0">v</tspan><tspan x="238.53" y="0">ee</tspan><tspan class="cls-4" x="262.96" y="0">r</tspan><tspan x="269.76" y="0"> </tspan><tspan class="cls-10" x="275.06" y="0">15.000 </tspan><tspan class="cls-10"><tspan x="16.37" y="37.45">fietsen</tspan><tspan class="cls-11" x="107.37" y="37.45" xml:space="preserve"> uit </tspan><tspan x="141.84" y="37.45">de gracht</tspan><tspan class="cls-11" x="269.43" y="37.45" xml:space="preserve"> g</tspan><tspan class="cls-12" x="287.6" y="37.45">e</tspan><tspan class="cls-11" x="299.52" y="37.45">vist.</tspan></tspan></text><text class="cls-13" transform="translate(149.35 66.52)">Let wel op waar je fietst!</text><path class="cls-14" d="M243,172.56c0,24.73,29.94,36.88,47.29,19.52,13.88-13.88,9.54-36.88-7.81-44.69.43-1.73,1.3-3.9,1.74-5.64,10.41,12.15,20.39,24.3,30.37,36.45,2.6-.44,5.2-.44,7.81-.87,3.9,21.69,30.8,30.8,46.85,14.75,21.69-21.26-2.6-56.83-30.37-45.12-2.17-4.77-4.34-10-6.51-14.75a32.22,32.22,0,0,0,2.17-6.94h-.43a24.13,24.13,0,0,0,1.73-5.21c11.72,0,8.25-6.94,5.21-6.94-3.9,0-4.34,1.74-10.85.87-8.24-.87-3,4.34,3.91,6.07-.43,1.3-1.3,3-1.74,4.34H332c-.43,1.74-1.3,3-1.74,4.77H289c2.17-6.07,3.47-7.37,3.47-12.58H276.43v3h13c-3.47,9.11-6.51,17.79-9.54,26.46C261.67,140.45,243,153.47,243,172.56Zm3,0a24.78,24.78,0,0,1,32.54-23.43l-9.12,24.3c0,.43,1.31,3.9,4.34-3.91,2.61-6.51,4.78-13,7.38-19.09,24.29,11.28,15.62,46.86-10.41,46.86A24.72,24.72,0,0,1,246.06,172.56Zm39.48-33.84c.86-2.17,1.3-4.34,2.17-6.51h41.21c-4.77,13.45-10,27.33-14.75,40.78C304.63,161.71,295.08,150,285.54,138.72Zm31.23,36c4.78-13,9.55-25.6,14.32-38.62,1.74,4.34,3.47,8.25,5.21,12.15-10.85,6.08-14.32,14.32-14.32,26C320.25,174.29,318.51,174.73,316.77,174.73Zm8.68-.87c0-10,3-17.35,12.15-22.56,3,6.94,6.51,13.88,9.55,20.82C339.77,172.56,332.39,173.43,325.45,173.86Zm0,3.47,26-2.6c-3.47-8.25-7.37-16.49-11.28-24.73,24.73-10.41,46,20.82,26.9,39.91C353.22,204.23,329.36,196.42,325.45,177.33Z"/></g></g></svg>