<svg xmlns="http://www.w3.org/2000/svg" xmlns:xlink="http://www.w3.org/1999/xlink" viewBox="0 0 699 557"><defs><style>.cls-1{fill:none;}.cls-2{fill:#333;}.cls-3{fill:#58585a;}.cls-4{fill:#ccc;}.cls-5{fill:#975a45;}.cls-6{fill:#e8d9bc;}.cls-7{fill:#fff;}.cls-8{fill:#5b5b5d;}.cls-9{clip-path:url(#clip-path);}.cls-10{clip-path:url(#clip-path-2);}.cls-11{clip-path:url(#clip-path-3);}</style><clipPath id="clip-path" transform="translate(0 -15)"><rect class="cls-1" x="474.5" y="481" width="14" height="26"/></clipPath><clipPath id="clip-path-2" transform="translate(0 -15)"><rect class="cls-1" x="477.5" width="249" height="570" transform="translate(1204 570) rotate(-180)"/></clipPath><clipPath id="clip-path-3" transform="translate(0 -15)"><rect class="cls-1" x="210.5" y="481" width="14" height="26" transform="translate(435 988) rotate(-180)"/></clipPath></defs><title>Asset 4</title><g id="Layer_2" data-name="Layer 2"><g id="Layer_1-2" data-name="Layer 1"><polygon class="cls-2" points="7 185.5 0 204.5 11 204.5 11 222.5 17 204.5 24 185.5 7 185.5"/><path class="cls-3" d="M75.68,145.5H75.5V112c-9,0-9-9-9-9h3V99h-3V74H60V57.75a5,5,0,0,0,0-9.5V15H57V48.25a5,5,0,0,0,0,9.5V74H52.5V99h-3v4h3s0,9-9,9v33.5h-.14L5.24,253H113.76Z" transform="translate(0 -15)"/><polygon class="cls-2" points="112.5 186 119.5 205 108.5 205 108.5 223 102.5 205 95.5 186 112.5 186"/><rect class="cls-4" x="55.5" y="207" width="8" height="13"/><polygon class="cls-2" points="59.5 184 73.5 202 45.5 202 59.5 184"/><path class="cls-2" d="M69.41,241.91H50.59V216.09H69.41Zm-16-2.82H66.59V218.91H53.41Z" transform="translate(0 -15)"/><polygon class="cls-5" points="210.75 298 210.75 343 116.5 343 116.5 238 3.5 238 3.5 556 116.5 556 140.5 556 489.5 556 489.5 463 489.5 343 489.5 298 210.75 298"/><rect class="cls-6" x="115.5" y="342" width="373" height="4"/><rect class="cls-6" x="210.5" y="322" width="278" height="4"/><rect class="cls-6" x="130" y="392.5" width="163" height="4" transform="translate(606 168) rotate(90)"/><rect class="cls-6" x="0.5" y="367" width="488" height="4"/><rect class="cls-6" x="115.5" y="391" width="373" height="4"/><rect class="cls-6" x="115.5" y="416" width="373" height="4"/><path class="cls-2" d="M256,335h0a25.5,25.5,0,0,1,25.5,25.5V463a0,0,0,0,1,0,0h-51a0,0,0,0,1,0,0V360.5A25.5,25.5,0,0,1,256,335Z"/><path class="cls-2" d="M349,335h0a25.5,25.5,0,0,1,25.5,25.5V463a0,0,0,0,1,0,0h-51a0,0,0,0,1,0,0V360.5A25.5,25.5,0,0,1,349,335Z"/><path class="cls-2" d="M443,335h0a25.5,25.5,0,0,1,25.5,25.5V463a0,0,0,0,1,0,0h-51a0,0,0,0,1,0,0V360.5A25.5,25.5,0,0,1,443,335Z"/><rect class="cls-7" x="159.5" y="495" width="1" height="59"/><rect class="cls-7" x="159.5" y="520" width="1" height="27" transform="translate(693.5 358.5) rotate(90)"/><path class="cls-2" d="M179,422v-2h2.5v-4H179v-2h-4.5v-5H170a4,4,0,0,0-4-4H153.56a3.56,3.56,0,0,0-3.56,3.56V409h-4.5v5H141v2h-2.5v4H141v2h4.5v10H141v2h-2.5v4H141v2h4.5v8H141v2h-2.5v4H141v2h4.5v8H141v2h-2.5v4H141v2h38v-2h2.5v-4H179v-2h-4.5v-8H179v-2h2.5v-4H179v-2h-4.5v-8H179v-2h2.5v-4H179v-2h-4.5V422Z" transform="translate(0 -15)"/><rect class="cls-7" x="256" y="494.5" width="1" height="59"/><rect class="cls-7" x="256" y="519.5" width="1" height="27" transform="translate(789.5 261.5) rotate(90)"/><rect class="cls-7" x="349" y="494.5" width="1" height="59"/><rect class="cls-7" x="349" y="519.5" width="1" height="27" transform="translate(882.5 168.5) rotate(90)"/><rect class="cls-7" x="442" y="493.5" width="1" height="59"/><rect class="cls-7" x="442" y="518.5" width="1" height="27" transform="translate(974.5 74.5) rotate(90)"/><rect class="cls-6" x="0.5" y="460" width="488" height="4"/><rect class="cls-6" x="117.5" y="493" width="372" height="4"/><rect class="cls-6" x="117.5" y="515" width="372" height="4"/><polygon class="cls-8" points="474.5 298 211.5 298 282.5 193 415.5 193 474.5 298"/><path class="cls-2" d="M395.5,266v3h-7l-24-41V189c-9,0-9-9-9-9h3v-4h-3V151H349V134.75a5,5,0,0,0,0-9.5V92h-3v33.25a5,5,0,0,0,0,9.5V151h-4.5v25h-3v4h3s0,9-9,9v39l-24,41h-7v-3h-3v44h100V266Z" transform="translate(0 -15)"/><path class="cls-4" d="M368.49,282.5c-.14-3.07-1-10-5.89-15.1-3.74-3.91-9-5.9-15.6-5.9-6.79,0-12.05,2-15.62,5.94-4.34,4.8-4.92,11.11-4.93,14.06H314.5v25h68v-24Zm11,21H358v-18a11.5,11.5,0,0,0-23,0v18H317.5v-19h12.16l-.17-1.65c0-.08-.74-8,4.12-13.39,3-3.29,7.48-5,13.39-5,5.75,0,10.27,1.67,13.41,5,5.42,5.66,5.1,14.38,5.09,14.47l-.07,1.57H379.5Z" transform="translate(0 -15)"/><rect class="cls-6" x="201.5" y="296" width="295" height="4"/><circle class="cls-6" cx="209.5" cy="479" r="3"/><path class="cls-6" d="M209.5,501.37a7.37,7.37,0,1,1,7.37-7.37A7.38,7.38,0,0,1,209.5,501.37Zm0-13a5.63,5.63,0,1,0,5.63,5.63A5.63,5.63,0,0,0,209.5,488.37Z" transform="translate(0 -15)"/><path class="cls-6" d="M209.5,505.5A11.5,11.5,0,1,1,221,494,11.51,11.51,0,0,1,209.5,505.5Zm0-20.3a8.8,8.8,0,1,0,8.8,8.8A8.81,8.81,0,0,0,209.5,485.2Z" transform="translate(0 -15)"/><circle class="cls-6" cx="303.5" cy="479" r="3"/><path class="cls-6" d="M303.5,501.37a7.37,7.37,0,1,1,7.37-7.37A7.38,7.38,0,0,1,303.5,501.37Zm0-13a5.63,5.63,0,1,0,5.63,5.63A5.63,5.63,0,0,0,303.5,488.37Z" transform="translate(0 -15)"/><path class="cls-6" d="M303.5,505.5A11.5,11.5,0,1,1,315,494,11.51,11.51,0,0,1,303.5,505.5Zm0-20.3a8.8,8.8,0,1,0,8.8,8.8A8.81,8.81,0,0,0,303.5,485.2Z" transform="translate(0 -15)"/><circle class="cls-6" cx="396.5" cy="479" r="3"/><path class="cls-6" d="M396.5,501.37a7.37,7.37,0,1,1,7.37-7.37A7.38,7.38,0,0,1,396.5,501.37Zm0-13a5.63,5.63,0,1,0,5.63,5.63A5.63,5.63,0,0,0,396.5,488.37Z" transform="translate(0 -15)"/><path class="cls-6" d="M396.5,505.5A11.5,11.5,0,1,1,408,494,11.51,11.51,0,0,1,396.5,505.5Zm0-20.3a8.8,8.8,0,1,0,8.8,8.8A8.81,8.81,0,0,0,396.5,485.2Z" transform="translate(0 -15)"/><g class="cls-9"><circle class="cls-6" cx="488.5" cy="479" r="3"/><path class="cls-6" d="M488.5,501.37a7.37,7.37,0,1,1,7.37-7.37A7.38,7.38,0,0,1,488.5,501.37Zm0-13a5.63,5.63,0,1,0,5.63,5.63A5.63,5.63,0,0,0,488.5,488.37Z" transform="translate(0 -15)"/><path class="cls-6" d="M488.5,505.5A11.5,11.5,0,1,1,500,494,11.51,11.51,0,0,1,488.5,505.5Zm0-20.3a8.8,8.8,0,1,0,8.8,8.8A8.81,8.81,0,0,0,488.5,485.2Z" transform="translate(0 -15)"/></g><path class="cls-2" d="M84,398a12.5,12.5,0,0,0-12.5,12.5,12.5,12.5,0,0,0-25,0,12.5,12.5,0,0,0-25,0V475h75V410.5A12.5,12.5,0,0,0,84,398Z" transform="translate(0 -15)"/><path class="cls-2" d="M84,493a12.5,12.5,0,0,0-12.5,12.5,12.5,12.5,0,0,0-25,0,12.5,12.5,0,0,0-25,0V570h75V505.5A12.5,12.5,0,0,0,84,493Z" transform="translate(0 -15)"/><rect class="cls-2" x="31.5" y="277" width="57" height="57"/><circle class="cls-4" cx="60" cy="305.5" r="25.5"/><path class="cls-6" d="M29.73,305.47H16.26V292H29.72ZM18.78,303H27.2v-8.42H18.78Z" transform="translate(0 -15)"/><path class="cls-6" d="M29.74,320H16.26V306.51H29.73Zm-10.95-2.52h8.42V309H18.78Z" transform="translate(0 -15)"/><path class="cls-6" d="M29.74,334.49H16.27V321H29.74ZM18.79,332h8.43v-8.42H18.79Z" transform="translate(0 -15)"/><path class="cls-6" d="M29.75,349H16.28V335.53H29.74ZM18.8,346.48h8.42v-8.42H18.8Z" transform="translate(0 -15)"/><path class="cls-6" d="M29,374H17V351H29Zm-9.72-4.31h7.48V355.31H19.26Z" transform="translate(0 -15)"/><path class="cls-6" d="M103.73,305.47H90.26V292h13.47Zm-11-2.52h8.42v-8.42H92.78Z" transform="translate(0 -15)"/><path class="cls-6" d="M103.74,320H90.26V306.51h13.47Zm-10.95-2.52h8.42V309H92.78Z" transform="translate(0 -15)"/><path class="cls-6" d="M103.74,334.49H90.27V321h13.48ZM92.79,332h8.43v-8.42H92.79Z" transform="translate(0 -15)"/><path class="cls-6" d="M103.75,349H90.28V335.53h13.47Zm-11-2.52h8.42v-8.42H92.8Z" transform="translate(0 -15)"/><path class="cls-6" d="M103,374H91V351h12Zm-9.72-4.31h7.48V355.31H93.26Z" transform="translate(0 -15)"/><path class="cls-6" d="M89,374H77V351H89Zm-9.72-4.31h7.48V355.31H79.26Z" transform="translate(0 -15)"/><path class="cls-6" d="M75,374H63V351H75Zm-9.72-4.31h7.48V355.31H65.26Z" transform="translate(0 -15)"/><path class="cls-6" d="M60,374H48V351H60Zm-9.72-4.31h7.48V355.31H50.26Z" transform="translate(0 -15)"/><path class="cls-6" d="M44,374H32V351H44Zm-9.72-4.31h7.48V355.31H34.26Z" transform="translate(0 -15)"/><path class="cls-6" d="M29,290H17V267H29Zm-9.72-4.31h7.48V271.31H19.26Z" transform="translate(0 -15)"/><path class="cls-6" d="M103,290H91V267h12Zm-9.72-4.31h7.48V271.31H93.26Z" transform="translate(0 -15)"/><path class="cls-6" d="M89,290H77V267H89Zm-9.72-4.31h7.48V271.31H79.26Z" transform="translate(0 -15)"/><path class="cls-6" d="M75,290H63V267H75Zm-9.72-4.31h7.48V271.31H65.26Z" transform="translate(0 -15)"/><path class="cls-6" d="M60,290H48V267H60Zm-9.72-4.31h7.48V271.31H50.26Z" transform="translate(0 -15)"/><path class="cls-6" d="M44,290H32V267H44Zm-9.72-4.31h7.48V271.31H34.26Z" transform="translate(0 -15)"/><rect class="cls-6" x="11" y="463.5" width="213" height="4" transform="translate(583 333) rotate(90)"/><path class="cls-2" d="M179,521v-2h2.5v-4H179v-2h-4.5v-5H170a4,4,0,0,0-4-4H153.56a3.56,3.56,0,0,0-3.56,3.56V508h-4.5v5H141v2h-2.5v4H141v2h4.5v10H141v2h-2.5v4H141v2h4.5v8H141v2h-2.5v4H141v2h4.5v8H141v2h-2.5v4H141v2h38v-2h2.5v-4H179v-2h-4.5v-8H179v-2h2.5v-4H179v-2h-4.5v-8H179v-2h2.5v-4H179v-2h-4.5V521Z" transform="translate(0 -15)"/><path class="cls-2" d="M275.5,520.5v-2H278v-4h-2.5v-2H271v-5h-4.5a4,4,0,0,0-4-4H250.06a3.56,3.56,0,0,0-3.56,3.56v.44H242v5h-4.5v2H235v4h2.5v2H242v10h-4.5v2H235v4h2.5v2H242v8h-4.5v2H235v4h2.5v2H242v8h-4.5v2H235v4h2.5v2h38v-2H278v-4h-2.5v-2H271v-8h4.5v-2H278v-4h-2.5v-2H271v-8h4.5v-2H278v-4h-2.5v-2H271v-10Z" transform="translate(0 -15)"/><path class="cls-2" d="M368.5,520.5v-2H371v-4h-2.5v-2H364v-5h-4.5a4,4,0,0,0-4-4H343.06a3.56,3.56,0,0,0-3.56,3.56v.44H335v5h-4.5v2H328v4h2.5v2H335v10h-4.5v2H328v4h2.5v2H335v8h-4.5v2H328v4h2.5v2H335v8h-4.5v2H328v4h2.5v2h38v-2H371v-4h-2.5v-2H364v-8h4.5v-2H371v-4h-2.5v-2H364v-8h4.5v-2H371v-4h-2.5v-2H364v-10Z" transform="translate(0 -15)"/><path class="cls-2" d="M461.5,519.5v-2H464v-4h-2.5v-2H457v-5h-4.5a4,4,0,0,0-4-4H436.06a3.56,3.56,0,0,0-3.56,3.56v.44H428v5h-4.5v2H421v4h2.5v2H428v10h-4.5v2H421v4h2.5v2H428v8h-4.5v2H421v4h2.5v2H428v8h-4.5v2H421v4h2.5v2h38v-2H464v-4h-2.5v-2H457v-8h4.5v-2H464v-4h-2.5v-2H457v-8h4.5v-2H464v-4h-2.5v-2H457v-10Z" transform="translate(0 -15)"/><g class="cls-10"><polygon class="cls-2" points="692 185.5 699 204.5 688 204.5 688 222.5 682 204.5 675 185.5 692 185.5"/><path class="cls-3" d="M623.32,145.5h.18V112c9,0,9-9,9-9h-3V99h3V74H639V57.75a5,5,0,0,1,0-9.5V15h3V48.25a5,5,0,0,1,0,9.5V74h4.5V99h3v4h-3s0,9,9,9v33.5h.14L693.76,253H585.24Z" transform="translate(0 -15)"/><polygon class="cls-2" points="586.5 186 579.5 205 590.5 205 590.5 223 596.5 205 603.5 186 586.5 186"/><rect class="cls-4" x="635.5" y="222" width="8" height="13" transform="translate(1279 442) rotate(-180)"/><polygon class="cls-2" points="639.5 184 625.5 202 653.5 202 639.5 184"/><path class="cls-2" d="M629.59,216.09h18.82v25.82H629.59Zm16,2.82H632.41v20.18h13.18Z" transform="translate(0 -15)"/><polygon class="cls-5" points="488.25 298 488.25 343 582.5 343 582.5 238 695.5 238 695.5 556 582.5 556 558.5 556 209.5 556 209.5 463 209.5 343 209.5 298 488.25 298"/><rect class="cls-6" x="210.5" y="357" width="373" height="4" transform="translate(794 703) rotate(-180)"/><rect class="cls-6" x="210.5" y="337" width="278" height="4" transform="translate(699 663) rotate(-180)"/><rect class="cls-6" x="406" y="392.5" width="163" height="4" transform="translate(882 -108) rotate(90)"/><rect class="cls-6" x="210.5" y="382" width="488" height="4" transform="translate(909 753) rotate(-180)"/><rect class="cls-6" x="210.5" y="406" width="373" height="4" transform="translate(794 801) rotate(-180)"/><rect class="cls-6" x="210.5" y="431" width="373" height="4" transform="translate(794 851) rotate(-180)"/><path class="cls-2" d="M417.5,350h51a0,0,0,0,1,0,0V452.5A25.5,25.5,0,0,1,443,478h0a25.5,25.5,0,0,1-25.5-25.5V350a0,0,0,0,1,0,0Z" transform="translate(886 813) rotate(-180)"/><path class="cls-2" d="M324.5,350h51a0,0,0,0,1,0,0V452.5A25.5,25.5,0,0,1,350,478h0a25.5,25.5,0,0,1-25.5-25.5V350A0,0,0,0,1,324.5,350Z" transform="translate(700 813) rotate(-180)"/><path class="cls-2" d="M230.5,350h51a0,0,0,0,1,0,0V452.5A25.5,25.5,0,0,1,256,478h0a25.5,25.5,0,0,1-25.5-25.5V350a0,0,0,0,1,0,0Z" transform="translate(512 813) rotate(-180)"/><rect class="cls-7" x="538.5" y="510" width="1" height="59" transform="translate(1078 1064) rotate(-180)"/><rect class="cls-7" x="538.5" y="520" width="1" height="27" transform="translate(1072.5 -20.5) rotate(90)"/><path class="cls-2" d="M520,422v-2h-2.5v-4H520v-2h4.5v-5H529a4,4,0,0,1,4-4h12.44a3.56,3.56,0,0,1,3.56,3.56V409h4.5v5H558v2h2.5v4H558v2h-4.5v10H558v2h2.5v4H558v2h-4.5v8H558v2h2.5v4H558v2h-4.5v8H558v2h2.5v4H558v2H520v-2h-2.5v-4H520v-2h4.5v-8H520v-2h-2.5v-4H520v-2h4.5v-8H520v-2h-2.5v-4H520v-2h4.5V422Z" transform="translate(0 -15)"/><rect class="cls-7" x="442" y="509.5" width="1" height="59" transform="translate(885 1063) rotate(-180)"/><rect class="cls-7" x="442" y="519.5" width="1" height="27" transform="translate(975.5 75.5) rotate(90)"/><rect class="cls-7" x="349" y="509.5" width="1" height="59" transform="translate(699 1063) rotate(-180)"/><rect class="cls-7" x="349" y="519.5" width="1" height="27" transform="translate(882.5 168.5) rotate(90)"/><rect class="cls-7" x="256" y="508.5" width="1" height="59" transform="translate(513 1061) rotate(-180)"/><rect class="cls-7" x="256" y="518.5" width="1" height="27" transform="translate(788.5 260.5) rotate(90)"/><rect class="cls-6" x="210.5" y="475" width="488" height="4" transform="translate(909 939) rotate(-180)"/><rect class="cls-6" x="209.5" y="508" width="372" height="4" transform="translate(791 1005) rotate(-180)"/><rect class="cls-6" x="209.5" y="530" width="372" height="4" transform="translate(791 1049) rotate(-180)"/><polygon class="cls-8" points="224.5 298 487.5 298 416.5 193 283.5 193 224.5 298"/><path class="cls-2" d="M303.5,266v3h7l24-41V189c9,0,9-9,9-9h-3v-4h3V151H350V134.75a5,5,0,0,1,0-9.5V92h3v33.25a5,5,0,0,1,0,9.5V151h4.5v25h3v4h-3s0,9,9,9v39l24,41h7v-3h3v44h-100V266Z" transform="translate(0 -15)"/><path class="cls-4" d="M316.5,282.5v24h68v-25H372.55c0-2.95-.59-9.26-4.93-14.06-3.57-3.94-8.83-5.94-15.62-5.94-6.62,0-11.86,2-15.6,5.9-4.87,5.11-5.75,12-5.89,15.1Zm3,3h14.07l-.07-1.57c0-.09-.33-8.81,5.09-14.47,3.14-3.29,7.66-5,13.41-5,5.91,0,10.42,1.67,13.39,5,4.86,5.36,4.13,13.31,4.12,13.39l-.17,1.65H381.5v19H364v-18a11.5,11.5,0,0,0-23,0v18H319.5Z" transform="translate(0 -15)"/><rect class="cls-6" x="202.5" y="311" width="295" height="4" transform="translate(700 611) rotate(-180)"/><circle class="cls-6" cx="489.5" cy="479" r="3"/><path class="cls-6" d="M482.13,494a7.37,7.37,0,1,1,7.37,7.37A7.38,7.38,0,0,1,482.13,494Zm1.74,0a5.63,5.63,0,1,0,5.63-5.63A5.63,5.63,0,0,0,483.87,494Z" transform="translate(0 -15)"/><path class="cls-6" d="M478,494a11.5,11.5,0,1,1,11.5,11.5A11.51,11.51,0,0,1,478,494Zm2.7,0a8.8,8.8,0,1,0,8.8-8.8A8.81,8.81,0,0,0,480.7,494Z" transform="translate(0 -15)"/><circle class="cls-6" cx="395.5" cy="479" r="3"/><path class="cls-6" d="M388.13,494a7.37,7.37,0,1,1,7.37,7.37A7.38,7.38,0,0,1,388.13,494Zm1.74,0a5.63,5.63,0,1,0,5.63-5.63A5.63,5.63,0,0,0,389.87,494Z" transform="translate(0 -15)"/><path class="cls-6" d="M384,494a11.5,11.5,0,1,1,11.5,11.5A11.51,11.51,0,0,1,384,494Zm2.7,0a8.8,8.8,0,1,0,8.8-8.8A8.81,8.81,0,0,0,386.7,494Z" transform="translate(0 -15)"/><circle class="cls-6" cx="302.5" cy="479" r="3"/><path class="cls-6" d="M295.13,494a7.37,7.37,0,1,1,7.37,7.37A7.38,7.38,0,0,1,295.13,494Zm1.74,0a5.63,5.63,0,1,0,5.63-5.63A5.63,5.63,0,0,0,296.87,494Z" transform="translate(0 -15)"/><path class="cls-6" d="M291,494a11.5,11.5,0,1,1,11.5,11.5A11.51,11.51,0,0,1,291,494Zm2.7,0a8.8,8.8,0,1,0,8.8-8.8A8.81,8.81,0,0,0,293.7,494Z" transform="translate(0 -15)"/><g class="cls-11"><circle class="cls-6" cx="210.5" cy="479" r="3"/><path class="cls-6" d="M203.13,494a7.37,7.37,0,1,1,7.37,7.37A7.38,7.38,0,0,1,203.13,494Zm1.74,0a5.63,5.63,0,1,0,5.63-5.63A5.63,5.63,0,0,0,204.87,494Z" transform="translate(0 -15)"/><path class="cls-6" d="M199,494a11.5,11.5,0,1,1,11.5,11.5A11.51,11.51,0,0,1,199,494Zm2.7,0a8.8,8.8,0,1,0,8.8-8.8A8.81,8.81,0,0,0,201.7,494Z" transform="translate(0 -15)"/></g><path class="cls-2" d="M615,398a12.5,12.5,0,0,1,12.5,12.5,12.5,12.5,0,0,1,25,0,12.5,12.5,0,0,1,25,0V475h-75V410.5A12.5,12.5,0,0,1,615,398Z" transform="translate(0 -15)"/><path class="cls-2" d="M615,493a12.5,12.5,0,0,1,12.5,12.5,12.5,12.5,0,0,1,25,0,12.5,12.5,0,0,1,25,0V570h-75V505.5A12.5,12.5,0,0,1,615,493Z" transform="translate(0 -15)"/><rect class="cls-2" x="610.5" y="292" width="57" height="57" transform="translate(1278 626) rotate(-180)"/><circle class="cls-4" cx="639" cy="305.5" r="25.5"/><path class="cls-6" d="M669.28,292h13.47v13.48H669.27Zm10.94,2.53H671.8v8.42h8.42Z" transform="translate(0 -15)"/><path class="cls-6" d="M669.27,306.51h13.47V320H669.26Zm11,2.53h-8.43v8.42h8.42Z" transform="translate(0 -15)"/><path class="cls-6" d="M669.26,321h13.48v13.47H669.26Zm11,2.53h-8.42V332h8.43Z" transform="translate(0 -15)"/><path class="cls-6" d="M669.26,335.52h13.47V349H669.25Zm10.94,2.54h-8.42v8.42h8.42Z" transform="translate(0 -15)"/><path class="cls-6" d="M670,351h12v23H670Zm9.72,4.31h-7.48v14.38h7.48Z" transform="translate(0 -15)"/><path class="cls-6" d="M595.28,292h13.47v13.48H595.27Zm10.94,2.53H597.8v8.42h8.42Z" transform="translate(0 -15)"/><path class="cls-6" d="M595.27,306.51h13.47V320H595.26Zm11,2.53h-8.43v8.42h8.42Z" transform="translate(0 -15)"/><path class="cls-6" d="M595.26,321h13.48v13.47H595.26Zm11,2.53h-8.42V332h8.43Z" transform="translate(0 -15)"/><path class="cls-6" d="M595.26,335.52h13.47V349H595.25Zm10.94,2.54h-8.42v8.42h8.42Z" transform="translate(0 -15)"/><path class="cls-6" d="M596,351h12v23H596Zm9.72,4.31h-7.48v14.38h7.48Z" transform="translate(0 -15)"/><path class="cls-6" d="M610,351h12v23H610Zm9.72,4.31h-7.48v14.38h7.48Z" transform="translate(0 -15)"/><path class="cls-6" d="M624,351h12v23H624Zm9.72,4.31h-7.48v14.38h7.48Z" transform="translate(0 -15)"/><path class="cls-6" d="M639,351h12v23H639Zm9.72,4.31h-7.48v14.38h7.48Z" transform="translate(0 -15)"/><path class="cls-6" d="M655,351h12v23H655Zm9.72,4.31h-7.48v14.38h7.48Z" transform="translate(0 -15)"/><path class="cls-6" d="M670,267h12v23H670Zm9.72,4.31h-7.48v14.38h7.48Z" transform="translate(0 -15)"/><path class="cls-6" d="M596,267h12v23H596Zm9.72,4.31h-7.48v14.38h7.48Z" transform="translate(0 -15)"/><path class="cls-6" d="M610,267h12v23H610Zm9.72,4.31h-7.48v14.38h7.48Z" transform="translate(0 -15)"/><path class="cls-6" d="M624,267h12v23H624Zm9.72,4.31h-7.48v14.38h7.48Z" transform="translate(0 -15)"/><path class="cls-6" d="M639,267h12v23H639Zm9.72,4.31h-7.48v14.38h7.48Z" transform="translate(0 -15)"/><path class="cls-6" d="M655,267h12v23H655Zm9.72,4.31h-7.48v14.38h7.48Z" transform="translate(0 -15)"/><rect class="cls-6" x="475" y="463.5" width="213" height="4" transform="translate(1047 -131) rotate(90)"/><path class="cls-2" d="M520,521v-2h-2.5v-4H520v-2h4.5v-5H529a4,4,0,0,1,4-4h12.44a3.56,3.56,0,0,1,3.56,3.56V508h4.5v5H558v2h2.5v4H558v2h-4.5v10H558v2h2.5v4H558v2h-4.5v8H558v2h2.5v4H558v2h-4.5v8H558v2h2.5v4H558v2H520v-2h-2.5v-4H520v-2h4.5v-8H520v-2h-2.5v-4H520v-2h4.5v-8H520v-2h-2.5v-4H520v-2h4.5V521Z" transform="translate(0 -15)"/><path class="cls-2" d="M423.5,520.5v-2H421v-4h2.5v-2H428v-5h4.5a4,4,0,0,1,4-4h12.44a3.56,3.56,0,0,1,3.56,3.56v.44H457v5h4.5v2H464v4h-2.5v2H457v10h4.5v2H464v4h-2.5v2H457v8h4.5v2H464v4h-2.5v2H457v8h4.5v2H464v4h-2.5v2h-38v-2H421v-4h2.5v-2H428v-8h-4.5v-2H421v-4h2.5v-2H428v-8h-4.5v-2H421v-4h2.5v-2H428v-10Z" transform="translate(0 -15)"/><path class="cls-2" d="M330.5,520.5v-2H328v-4h2.5v-2H335v-5h4.5a4,4,0,0,1,4-4h12.44a3.56,3.56,0,0,1,3.56,3.56v.44H364v5h4.5v2H371v4h-2.5v2H364v10h4.5v2H371v4h-2.5v2H364v8h4.5v2H371v4h-2.5v2H364v8h4.5v2H371v4h-2.5v2h-38v-2H328v-4h2.5v-2H335v-8h-4.5v-2H328v-4h2.5v-2H335v-8h-4.5v-2H328v-4h2.5v-2H335v-10Z" transform="translate(0 -15)"/><path class="cls-2" d="M237.5,519.5v-2H235v-4h2.5v-2H242v-5h4.5a4,4,0,0,1,4-4h12.44a3.56,3.56,0,0,1,3.56,3.56v.44H271v5h4.5v2H278v4h-2.5v2H271v10h4.5v2H278v4h-2.5v2H271v8h4.5v2H278v4h-2.5v2H271v8h4.5v2H278v4h-2.5v2h-38v-2H235v-4h2.5v-2H242v-8h-4.5v-2H235v-4h2.5v-2H242v-8h-4.5v-2H235v-4h2.5v-2H242v-10Z" transform="translate(0 -15)"/></g></g></g></svg>