<svg xmlns="http://www.w3.org/2000/svg" viewBox="0 0 358.12 487.36"><defs><style>.cls-1,.cls-2{fill:none;stroke-miterlimit:10;}.cls-1{stroke:#f7931e;stroke-width:4.13px;}.cls-2{stroke:#fff;stroke-width:2.78px;}.cls-3{fill:#fff;}.cls-4{fill:#f5f5f5;}.cls-5{fill:#ffb655;}.cls-6{fill:#e57d15;}</style></defs><title>FINAL_SOEPKIP</title><g id="Layer_2" data-name="Layer 2"><g id="Layer_1-2" data-name="Layer 1"><line class="cls-1" x1="164.37" y1="78.74" x2="156.67" y2="49.98"/><line class="cls-1" x1="139.22" y1="93.35" x2="118.17" y2="72.3"/><line class="cls-1" x1="124.75" y1="118.58" x2="95.99" y2="110.87"/><line class="cls-1" x1="124.83" y1="147.66" x2="96.07" y2="155.37"/><line class="cls-1" x1="139.44" y1="172.81" x2="118.39" y2="193.86"/><line class="cls-1" x1="164.67" y1="187.28" x2="156.96" y2="216.04"/><line class="cls-1" x1="193.75" y1="187.2" x2="201.46" y2="215.96"/><line class="cls-1" x1="218.9" y1="172.59" x2="239.95" y2="193.64"/><line class="cls-1" x1="233.37" y1="147.36" x2="262.13" y2="155.07"/><line class="cls-1" x1="233.29" y1="118.28" x2="262.05" y2="110.57"/><line class="cls-1" x1="218.68" y1="93.13" x2="239.73" y2="72.08"/><line class="cls-1" x1="193.46" y1="78.66" x2="201.16" y2="49.9"/><line class="cls-2" x1="178.91" y1="30.18" x2="178.91" y2="76.78"/><line class="cls-2" x1="127.54" y1="44.03" x2="150.83" y2="84.39"/><line class="cls-2" x1="89.97" y1="81.71" x2="130.33" y2="105.01"/><line class="cls-2" x1="76.28" y1="133.12" x2="122.87" y2="133.12"/><line class="cls-2" x1="90.12" y1="184.5" x2="130.48" y2="161.2"/><line class="cls-2" x1="127.8" y1="222.06" x2="151.1" y2="181.71"/><line class="cls-2" x1="179.22" y1="235.76" x2="179.22" y2="189.16"/><line class="cls-2" x1="230.59" y1="221.91" x2="207.29" y2="181.55"/><line class="cls-2" x1="268.15" y1="184.23" x2="227.8" y2="160.93"/><line class="cls-2" x1="281.85" y1="132.82" x2="235.25" y2="132.82"/><line class="cls-2" x1="268" y1="81.44" x2="227.64" y2="104.74"/><line class="cls-2" x1="230.32" y1="43.88" x2="207.02" y2="84.23"/><path class="cls-3" d="M178.82,175.27c28.42.06,29-6.45,28.44-10s-2.37-15.27-3.72-45.39,6.75-51.31,9.18-63.74-.31-52.88-.31-52.88S187.1,4.5,179.18,4.48s-33.64-1.34-33.64-1.34-2.49,40.43-.11,52.87,10.39,33.67,8.91,63.79-3.34,41.84-3.91,45.37S150.41,175.21,178.82,175.27Z"/><path class="cls-4" d="M178.83,172.43c-18.56,0-23.72-2.85-25.14-4.52a2.49,2.49,0,0,1-.46-2.29c1.62-10,3-25.36,3.94-45.69,1.17-23.74-3.38-41.72-6.7-54.85-.93-3.69-1.74-6.87-2.26-9.6-1.93-10.09-.51-40,0-49.37,6.93.35,24.55,1.19,31,1.21s23.74-.76,30.57-1.08c.56,9.29,2.16,39.29.19,49.37-.53,2.72-1.35,5.9-2.3,9.59-3.37,13.11-8,31.07-6.93,54.83.91,20.32,2.17,35.7,3.75,45.7A2.46,2.46,0,0,1,204,168C202.56,169.68,197.39,172.47,178.83,172.43Z"/><path class="cls-5" d="M202.4,147.55c.61,7.28,1.3,13.36,2.06,18.18A2.46,2.46,0,0,1,204,168c-1.42,1.66-6.59,4.45-25.15,4.41s-23.72-2.85-25.14-4.52a2.49,2.49,0,0,1-.46-2.29c.82-5.1,1.58-10.13,2.24-18Z"/><ellipse class="cls-3" cx="178.9" cy="3.29" rx="33.09" ry="2.92"/><path class="cls-3" d="M178.9,6.58c-.33,0-33.45,0-33.45-3.29S178.57,0,178.9,0s33.45,0,33.45,3.29S179.24,6.58,178.9,6.58Zm0-5.85c-20.23,0-32.19,1.53-32.73,2.59.54,1,12.5,2.53,32.73,2.53,20,0,31.95-1.5,32.71-2.56C210.85,2.23,198.93.73,178.9.73Z"/><path class="cls-6" d="M103.19,295.31V274.25a3,3,0,0,1,.94-2.24,3.05,3.05,0,0,1,2.2-.9H109a.84.84,0,0,1,.94.94v8.35a.88.88,0,0,0,.43.85,1.63,1.63,0,0,0,.68.23,20.76,20.76,0,0,0,3.73-.34,14.37,14.37,0,0,0,2.9-.92,1.58,1.58,0,0,0,.5-.39,1,1,0,0,0,.22-.65v-4.93a3,3,0,0,1,.27-1.3,3.23,3.23,0,0,1,.72-1,3,3,0,0,1,1-.63,3.25,3.25,0,0,1,1.14-.22h2.66a.83.83,0,0,1,.94.94v23.26a.88.88,0,0,1-.25.66,1,1,0,0,1-.69.24h-4.86a1,1,0,0,1-.65-.26.8.8,0,0,1-.28-.64v-8.54A.92.92,0,0,0,118,286a1.19,1.19,0,0,0-.73-.25,1.08,1.08,0,0,0-.36.07,18.3,18.3,0,0,1-3.55.65c-1.19.1-2.24.14-3.15.14H109c-.34,0-.6,0-.8,0a2,2,0,0,1,1.21.63,1.78,1.78,0,0,1,.49,1.24v6.88a.85.85,0,0,1-.26.66.92.92,0,0,1-.68.24h-4.9a.89.89,0,0,1-.9-.9Z"/><path class="cls-6" d="M130.08,295.27V274.21A3,3,0,0,1,131,272a3.09,3.09,0,0,1,2.2-.88H147.9a.87.87,0,0,1,.65.29.88.88,0,0,1,.29.64v3.57a.72.72,0,0,1-.29.61.87.87,0,0,1-.65.25H134.58a1.89,1.89,0,0,1,1.43.61,2,2,0,0,1,.55,1.34v1.51a1.2,1.2,0,0,0,.29.75,1,1,0,0,0,.83.36h7.81a.83.83,0,0,1,.94.94v3.24a.83.83,0,0,1-.94.94H134.58a1.93,1.93,0,0,1,1.41.57,1.82,1.82,0,0,1,.57,1.3v1.69a1.2,1.2,0,0,0,.31.76,1,1,0,0,0,.81.36h10.51a.92.92,0,0,1,.94.93v3.53a.84.84,0,0,1-.29.65,1,1,0,0,1-.65.25H131a.84.84,0,0,1-.64-.25A.89.89,0,0,1,130.08,295.27Z"/><path class="cls-6" d="M153.23,295.23V274.14a2.91,2.91,0,0,1,.27-1.26,3.06,3.06,0,0,1,.7-1,3.19,3.19,0,0,1,1-.63,3,3,0,0,1,1.15-.24h2.78a.82.82,0,0,1,.64.25.89.89,0,0,1,.26.65V289.4a1.29,1.29,0,0,0,.28.7.93.93,0,0,0,.8.42h9.68a1,1,0,0,1,.65.25.83.83,0,0,1,.29.65v3.81a.83.83,0,0,1-.29.65,1,1,0,0,1-.65.25H154.13a.92.92,0,0,1-.9-.9Z"/><path class="cls-6" d="M172.82,296a.93.93,0,0,1-.22-.54.79.79,0,0,1,0-.33l8.35-23a1.44,1.44,0,0,1,1.44-1H188a1.46,1.46,0,0,1,1.44,1l8.35,23a1,1,0,0,1,0,.33.72.72,0,0,1-.24.52.73.73,0,0,1-.52.23h-4.64a1.22,1.22,0,0,1-1.23-.79l-1.87-5.08a19.09,19.09,0,0,1-2.63.83,23.57,23.57,0,0,1-2.57.49c-.83.11-1.6.18-2.32.21s-1.35.06-1.88.06h-.86a2.46,2.46,0,0,1-.54,0,1.46,1.46,0,0,1,1.1.7,1.55,1.55,0,0,1,.09,1.46l-.51,1.37a1.19,1.19,0,0,1-1.22.79h-4.64A.92.92,0,0,1,172.82,296Zm9.14-9.22c.67-.05,1.37-.13,2.09-.25s1.28-.24,2-.42a8.68,8.68,0,0,0,2-.77l-2.77-7.92Z"/><path class="cls-6" d="M198.74,296a.93.93,0,0,1-.22-.54.79.79,0,0,1,0-.33l8.35-23a1.44,1.44,0,0,1,1.44-1h5.58a1.46,1.46,0,0,1,1.44,1l8.35,23a1,1,0,0,1,0,.33.72.72,0,0,1-.24.52.73.73,0,0,1-.52.23h-4.64a1.22,1.22,0,0,1-1.23-.79l-1.87-5.08a19.09,19.09,0,0,1-2.63.83,23.57,23.57,0,0,1-2.57.49c-.83.11-1.6.18-2.32.21s-1.35.06-1.88.06H205a2.46,2.46,0,0,1-.54,0,1.46,1.46,0,0,1,1.1.7,1.55,1.55,0,0,1,.09,1.46l-.51,1.37a1.19,1.19,0,0,1-1.22.79h-4.64A.92.92,0,0,1,198.74,296Zm9.14-9.22c.67-.05,1.37-.13,2.09-.25s1.28-.24,2-.42a8.68,8.68,0,0,0,2-.77l-2.77-7.92Z"/><path class="cls-6" d="M247,288.61a6.66,6.66,0,0,1-1,3.73,7.56,7.56,0,0,1-2.59,2.44,11.86,11.86,0,0,1-3.53,1.34,18.44,18.44,0,0,1-3.78.41,21.77,21.77,0,0,1-2.62-.16,12.92,12.92,0,0,1-2.65-.6,11.05,11.05,0,0,1-2.41-1.13,6.83,6.83,0,0,1-1.93-1.78,5.87,5.87,0,0,1-1.33-3.57.73.73,0,0,1,.22-.54,1,1,0,0,1,.57-.21h4.75a1.68,1.68,0,0,1,.74.14,2,2,0,0,1,.56.51,3.31,3.31,0,0,0,1.75,1.56,6.49,6.49,0,0,0,2.35.42,9.62,9.62,0,0,0,1.23-.09,5.55,5.55,0,0,0,1.29-.33,3,3,0,0,0,1-.66,1.57,1.57,0,0,0,.43-1.16,1.49,1.49,0,0,0-.76-1.38,7.29,7.29,0,0,0-1.51-.7c-.38-.12-.86-.26-1.42-.4l-2-.47a25.14,25.14,0,0,1-3.21-.83,10,10,0,0,1-2.75-1.36,6.8,6.8,0,0,1-2-2.18,6.61,6.61,0,0,1-.73-3.26,6.38,6.38,0,0,1,.92-3.51,7.63,7.63,0,0,1,2.35-2.38,10.47,10.47,0,0,1,3.22-1.33,16,16,0,0,1,3.55-.41,15.34,15.34,0,0,1,2.5.21,12.91,12.91,0,0,1,2.47.69,10.44,10.44,0,0,1,2.21,1.19,8.48,8.48,0,0,1,1.82,1.72,5.77,5.77,0,0,1,1.3,3.21,1,1,0,0,1-.22.57.7.7,0,0,1-.54.22h-5a1.4,1.4,0,0,1-1.23-.65,1.75,1.75,0,0,0-.5-.84,2.57,2.57,0,0,0-.85-.54,4.32,4.32,0,0,0-1-.29,5.47,5.47,0,0,0-1-.09,8.23,8.23,0,0,0-1.1.07,2.86,2.86,0,0,0-1,.31,2.05,2.05,0,0,0-.76.64,1.72,1.72,0,0,0-.31,1.07,1.85,1.85,0,0,0,1.08,1.65,16.78,16.78,0,0,0,4,1.19,30.35,30.35,0,0,1,3.4.76,10.85,10.85,0,0,1,3,1.29,6,6,0,0,1,2.88,5.51Z"/><path class="cls-6" d="M250,298.94a.67.67,0,0,1-.52-.23.7.7,0,0,1-.16-.56l1.11-7.24a1.69,1.69,0,0,1,.4-.88,1.18,1.18,0,0,1,.94-.38h4.35a.74.74,0,0,1,.51.22.69.69,0,0,1,.21.5,1,1,0,0,1-.07.4l-2.81,7.16a1.36,1.36,0,0,1-1.33,1Z"/><path class="cls-6" d="M20.2,314.24a.83.83,0,0,1,.93.94v14.94a10,10,0,0,1-.83,4.25,8.22,8.22,0,0,1-2.26,3,9.45,9.45,0,0,1-3.39,1.77,14.75,14.75,0,0,1-4.17.57,15.32,15.32,0,0,1-3.82-.48,10.34,10.34,0,0,1-3.33-1.51A8.36,8.36,0,0,1,1,335.1,7.38,7.38,0,0,1,0,331.41a.83.83,0,0,1,.22-.57.7.7,0,0,1,.54-.22H5.87a1.17,1.17,0,0,1,.79.22,1.85,1.85,0,0,1,.47.79c.38,1.78,1.56,2.66,3.53,2.66a3.61,3.61,0,0,0,1.69-.36,2.93,2.93,0,0,0,1.08-.95,4.24,4.24,0,0,0,.57-1.39,7.55,7.55,0,0,0,.18-1.69v-8.17a1.87,1.87,0,0,1,.6-1.33,1.85,1.85,0,0,1,1.38-.61H2.7a.89.89,0,0,1-.65-.26.84.84,0,0,1-.25-.64v-1.52A3.17,3.17,0,0,1,2,316.2a3.63,3.63,0,0,1,.63-1,3.23,3.23,0,0,1,1-.7,2.91,2.91,0,0,1,1.26-.27Z"/><path class="cls-6" d="M26,338.47V317.41a3,3,0,0,1,.93-2.25,3.11,3.11,0,0,1,2.2-.88H43.78a1,1,0,0,1,.93.93v3.57a.7.7,0,0,1-.29.61.84.84,0,0,1-.64.25H30.46a1.87,1.87,0,0,1,1.42.61,2,2,0,0,1,.56,1.34v1.51a1.19,1.19,0,0,0,.28.75,1,1,0,0,0,.83.36h7.81a.83.83,0,0,1,.94.94v3.24a.83.83,0,0,1-.94.94H30.46a1.91,1.91,0,0,1,1.4.57,1.83,1.83,0,0,1,.58,1.3v1.69a1.18,1.18,0,0,0,.3.76,1,1,0,0,0,.81.36H44.06a.92.92,0,0,1,.94.93v3.53a.84.84,0,0,1-.29.65,1,1,0,0,1-.65.25H26.86a.87.87,0,0,1-.65-.25A.88.88,0,0,1,26,338.47Z"/><path class="cls-6" d="M56.59,338.43V317.37a2.87,2.87,0,0,1,.31-1.4,3.21,3.21,0,0,1,.77-1,2.85,2.85,0,0,1,1-.58,3.33,3.33,0,0,1,1-.18h8.86a17.35,17.35,0,0,1,3.46.34,8,8,0,0,1,2.84,1.17A6,6,0,0,1,76.82,318a7.39,7.39,0,0,1,.72,3.44,5.29,5.29,0,0,1-.77,2.8,5.7,5.7,0,0,1-2.14,2,5.1,5.1,0,0,1,2.54,2.21,6.38,6.38,0,0,1,.91,3.26,7.71,7.71,0,0,1-.73,3.53,6.66,6.66,0,0,1-2,2.36,8.41,8.41,0,0,1-2.94,1.33,14.49,14.49,0,0,1-3.54.41H57.49a.92.92,0,0,1-.9-.9Zm11.23-14.25a2.84,2.84,0,0,0,2-.67,2.39,2.39,0,0,0,.76-1.92,2.31,2.31,0,0,0-.77-1.89,3,3,0,0,0-2-.63H61.34a2,2,0,0,1,2,1.9v2.16a1.14,1.14,0,0,0,.29.69,1,1,0,0,0,.79.36Zm.33,10.29a3,3,0,0,0,2.1-.72,2.59,2.59,0,0,0,.81-2.05,2.68,2.68,0,0,0-.83-2.07,2.94,2.94,0,0,0-2.08-.77H61.34a1.91,1.91,0,0,1,1.41.59,1.88,1.88,0,0,1,.57,1.32v2.62a1.2,1.2,0,0,0,.27.72,1,1,0,0,0,.81.36Z"/><path class="cls-6" d="M82.08,338.47V317.41a3,3,0,0,1,.93-2.25,3.11,3.11,0,0,1,2.2-.88H99.9a.88.88,0,0,1,.65.29.87.87,0,0,1,.28.64v3.57a.72.72,0,0,1-.28.61.88.88,0,0,1-.65.25H86.58a1.87,1.87,0,0,1,1.42.61,2,2,0,0,1,.56,1.34v1.51a1.15,1.15,0,0,0,.29.75,1,1,0,0,0,.82.36h7.82a.83.83,0,0,1,.93.94v3.24a.83.83,0,0,1-.93.94H86.58a1.91,1.91,0,0,1,1.4.57,1.79,1.79,0,0,1,.58,1.3v1.69a1.18,1.18,0,0,0,.3.76,1,1,0,0,0,.81.36h10.52a.92.92,0,0,1,.93.93v3.53a.81.81,0,0,1-.29.65.92.92,0,0,1-.64.25H83a.87.87,0,0,1-.65-.25A.88.88,0,0,1,82.08,338.47Z"/><path class="cls-6" d="M105.19,338.43V317.37a3,3,0,0,1,.9-2.19,3,3,0,0,1,2.23-.94h1.15a3.76,3.76,0,0,1,1,.16,2.36,2.36,0,0,1,1.11,1l3.82,6c.69,1.08,1.24,1.94,1.64,2.58s.76,1.22,1.11,1.76.64,1,.88,1.39l.44.68a.21.21,0,0,0,.18.07.16.16,0,0,0,.18-.18V317.37a3,3,0,0,1,.27-1.29,2.92,2.92,0,0,1,.7-1,3.08,3.08,0,0,1,1-.63,2.93,2.93,0,0,1,1.15-.24h2.34a.78.78,0,0,1,.61.25.93.93,0,0,1,.25.69V338.4a.88.88,0,0,1-.25.65.72.72,0,0,1-.61.28h-4.07a1.25,1.25,0,0,1-1.22-.68q-2.16-3.31-3.89-5.94c-.72-1.06-1.29-1.9-1.69-2.54l-1.14-1.76-.88-1.37-.43-.67a.28.28,0,0,0-.18-.1c-.15,0-.22.06-.22.18v12a.87.87,0,0,1-.25.67,1,1,0,0,1-.68.23h-4.54a.92.92,0,0,1-.9-.9Z"/><path class="cls-6" d="M149.65,314.24a.83.83,0,0,1,.94.94v4a.8.8,0,0,1-.26.65.89.89,0,0,1-.68.25h-8.32a2,2,0,0,1,1.41.58,1.74,1.74,0,0,1,.61,1.3v16.48a.87.87,0,0,1-.25.67,1,1,0,0,1-.69.23h-5a1,1,0,0,1-.65-.25.83.83,0,0,1-.29-.65V321.19a1,1,0,0,0-.34-.81,1.13,1.13,0,0,0-.74-.31h-5.22a.89.89,0,0,1-.68-.25.8.8,0,0,1-.26-.65v-1.83a2.82,2.82,0,0,1,1-2.25,3.16,3.16,0,0,1,2.16-.85Z"/><path class="cls-6" d="M161.35,338.47V317.41a2.94,2.94,0,0,1,.94-2.25,3.07,3.07,0,0,1,2.19-.88h14.69a.87.87,0,0,1,.65.29.88.88,0,0,1,.29.64v3.57a.72.72,0,0,1-.29.61.88.88,0,0,1-.65.25H165.85a1.85,1.85,0,0,1,1.42.61,2,2,0,0,1,.56,1.34v1.51a1.2,1.2,0,0,0,.29.75,1,1,0,0,0,.83.36h7.81a.83.83,0,0,1,.93.94v3.24a.83.83,0,0,1-.93.94H165.85a1.91,1.91,0,0,1,1.4.57,1.79,1.79,0,0,1,.58,1.3v1.69a1.15,1.15,0,0,0,.31.76,1,1,0,0,0,.81.36h10.51a.92.92,0,0,1,.93.93v3.53a.83.83,0,0,1-.28.65,1,1,0,0,1-.65.25H162.25a.86.86,0,0,1-.9-.9Z"/><path class="cls-6" d="M184.46,338.47V317.41a2.94,2.94,0,0,1,.94-2.25,3.07,3.07,0,0,1,2.19-.88h14.69a.87.87,0,0,1,.65.29.88.88,0,0,1,.29.64v3.57a.72.72,0,0,1-.29.61.87.87,0,0,1-.65.25H189a1.85,1.85,0,0,1,1.42.61,1.93,1.93,0,0,1,.56,1.34v1.51a1.2,1.2,0,0,0,.29.75,1,1,0,0,0,.83.36h7.81a.84.84,0,0,1,.94.94v3.24a.84.84,0,0,1-.94.94H189a2,2,0,0,1,1.41.57,1.82,1.82,0,0,1,.57,1.3v1.69a1.15,1.15,0,0,0,.31.76,1,1,0,0,0,.81.36h10.51a.92.92,0,0,1,.67.27.9.9,0,0,1,.27.66v3.53a.84.84,0,0,1-.29.65,1,1,0,0,1-.65.25H185.36a.88.88,0,0,1-.65-.25A.92.92,0,0,1,184.46,338.47Z"/><path class="cls-6" d="M207.57,338.43V317.37a3,3,0,0,1,.9-2.19,3,3,0,0,1,2.24-.94h1.15a3.69,3.69,0,0,1,1,.16,2.43,2.43,0,0,1,1.12,1l3.81,6c.7,1.08,1.24,1.94,1.64,2.58l1.12,1.76c.34.54.64,1,.88,1.39l.43.68a.24.24,0,0,0,.18.07.16.16,0,0,0,.18-.18V317.37a3,3,0,0,1,.27-1.29,2.92,2.92,0,0,1,.7-1,3.19,3.19,0,0,1,1-.63,3,3,0,0,1,1.15-.24h2.34a.77.77,0,0,1,.61.25.94.94,0,0,1,.26.69V338.4a.89.89,0,0,1-.26.65.7.7,0,0,1-.61.28h-4.07a1.26,1.26,0,0,1-1.22-.68q-2.16-3.31-3.89-5.94c-.72-1.06-1.28-1.9-1.69-2.54s-.79-1.22-1.13-1.76l-.89-1.37-.43-.67a.28.28,0,0,0-.18-.1q-.21,0-.21.18v12a.87.87,0,0,1-.26.67.92.92,0,0,1-.68.23h-4.54a.92.92,0,0,1-.9-.9Z"/><path class="cls-6" d="M241.05,338.47V317.41a2.94,2.94,0,0,1,.94-2.25,3.07,3.07,0,0,1,2.19-.88h14.69a.87.87,0,0,1,.65.29.88.88,0,0,1,.29.64v3.57a.72.72,0,0,1-.29.61.87.87,0,0,1-.65.25H245.55a1.85,1.85,0,0,1,1.42.61,1.93,1.93,0,0,1,.56,1.34v1.51a1.2,1.2,0,0,0,.29.75,1,1,0,0,0,.83.36h7.81a.84.84,0,0,1,.94.94v3.24a.84.84,0,0,1-.94.94H245.55a2,2,0,0,1,1.41.57,1.82,1.82,0,0,1,.57,1.3v1.69a1.15,1.15,0,0,0,.31.76,1,1,0,0,0,.81.36h10.51a.92.92,0,0,1,.67.27.9.9,0,0,1,.27.66v3.53a.84.84,0,0,1-.29.65,1,1,0,0,1-.65.25H242a.88.88,0,0,1-.65-.25A.92.92,0,0,1,241.05,338.47Z"/><path class="cls-6" d="M263.37,330.08c0-.33,0-.76,0-1.28V325c0-.53,0-1,0-1.3a10.57,10.57,0,0,1,1-4.32,8.52,8.52,0,0,1,2.35-3,10,10,0,0,1,3.5-1.79,15.51,15.51,0,0,1,4.35-.59,16.76,16.76,0,0,1,4.05.5,11.18,11.18,0,0,1,3.58,1.59,8.59,8.59,0,0,1,2.58,2.72,7.59,7.59,0,0,1,1,3.9.73.73,0,0,1-.21.54.84.84,0,0,1-.58.22H279.9a1.12,1.12,0,0,1-.78-.22,1.6,1.6,0,0,1-.38-.72,4.23,4.23,0,0,0-1.45-2.41,4.62,4.62,0,0,0-2.76-.72q-4.06,0-4.21,4.5c0,.34,0,.74,0,1.22v3.53c0,.51,0,.93,0,1.26q.18,4.55,4.21,4.54a4.86,4.86,0,0,0,2.7-.72,4.3,4.3,0,0,0,1.51-2.45,1.44,1.44,0,0,1,.4-.72,1.25,1.25,0,0,1,.76-.22H285a.89.89,0,0,1,.58.22.73.73,0,0,1,.21.54,7.67,7.67,0,0,1-1,4,8.58,8.58,0,0,1-2.61,2.72,11.4,11.4,0,0,1-3.58,1.55,16.9,16.9,0,0,1-4,.48,16,16,0,0,1-4.41-.57,9.91,9.91,0,0,1-3.47-1.77,8.28,8.28,0,0,1-2.34-3A10.9,10.9,0,0,1,263.37,330.08Z"/><path class="cls-6" d="M289.51,338.54V317.48a3,3,0,0,1,.93-2.23,3.09,3.09,0,0,1,2.2-.9h2.66a.92.92,0,0,1,.94.94v8.35a.85.85,0,0,0,.43.84,1.57,1.57,0,0,0,.69.24,17.61,17.61,0,0,0,3.72-.33,14.85,14.85,0,0,0,2.9-.93,1.61,1.61,0,0,0,.5-.4.93.93,0,0,0,.22-.65v-4.93a3,3,0,0,1,1-2.27,3.9,3.9,0,0,1,1-.63,3,3,0,0,1,1.13-.23h2.67a.92.92,0,0,1,.93.94v23.25a.87.87,0,0,1-.25.67,1,1,0,0,1-.68.23h-4.86a1,1,0,0,1-.65-.25.83.83,0,0,1-.29-.65V330a.85.85,0,0,0-.34-.77,1.28,1.28,0,0,0-.74-.24,1,1,0,0,0-.36,0,19.11,19.11,0,0,1-3.55.66c-1.18.11-2.23.17-3.15.17l-1.22,0a6.56,6.56,0,0,1-.79-.06,2,2,0,0,1,1.2.65,1.76,1.76,0,0,1,.49,1.23v6.87a.87.87,0,0,1-.25.67,1,1,0,0,1-.69.23h-4.89a.86.86,0,0,1-.9-.9Z"/><path class="cls-6" d="M334.94,314.24a.83.83,0,0,1,.94.94v4a.8.8,0,0,1-.26.65.89.89,0,0,1-.68.25h-8.32a2,2,0,0,1,1.41.58,1.74,1.74,0,0,1,.61,1.3v16.48a.87.87,0,0,1-.25.67,1,1,0,0,1-.69.23h-5a1,1,0,0,1-.65-.25.83.83,0,0,1-.29-.65V321.19a1,1,0,0,0-.34-.81,1.13,1.13,0,0,0-.74-.31H315.5a.89.89,0,0,1-.68-.25.8.8,0,0,1-.26-.65v-1.83a2.82,2.82,0,0,1,1-2.25,3.16,3.16,0,0,1,2.16-.85Z"/><path class="cls-6" d="M339.08,338.47V317.41a2.94,2.94,0,0,1,.94-2.25,3.07,3.07,0,0,1,2.19-.88H356.9a1,1,0,0,1,.94.93v3.57a.72.72,0,0,1-.29.61.88.88,0,0,1-.65.25H343.58a1.85,1.85,0,0,1,1.42.61,2,2,0,0,1,.56,1.34v1.51a1.15,1.15,0,0,0,.29.75,1,1,0,0,0,.83.36h7.81a.83.83,0,0,1,.93.94v3.24a.83.83,0,0,1-.93.94H343.58a1.91,1.91,0,0,1,1.4.57,1.79,1.79,0,0,1,.58,1.3v1.69a1.15,1.15,0,0,0,.31.76,1,1,0,0,0,.81.36h10.51a.92.92,0,0,1,.93.93v3.53a.83.83,0,0,1-.28.65,1,1,0,0,1-.65.25H340a.87.87,0,0,1-.65-.25A.88.88,0,0,1,339.08,338.47Z"/><path class="cls-5" d="M86.49,429.63a132.59,132.59,0,0,0-14.83,13.3,9.54,9.54,0,0,0,.77,2.15c2.08,5.06,2,10.32-1,13.53-2.78,3.09-7.07,3.59-9.77,1.89-1.15-.55-2.14-1.8-3-2.31s-1.1-3.9,0-6.78c1-2.47,3.14-5.25,6.28-8.4-.46-1-1.09-1.8-1.55-2.77a11.92,11.92,0,0,1,.84-12.56c2.87-4.15,8.9-5.06,10.61-4.61s2.09,2.57,1.51,3.06c-.37.55-.65.6-1.48.75-2.31.42-3.85,2.42-4.64,5.91a13.17,13.17,0,0,0,0,5.52c2.23-1.93,4.56-3.79,6.49-5.2C83.06,428.63,88.8,428.15,86.49,429.63Zm-19.68,18.1-.39.46c-4,4.44-3.36,7.2-3.17,8.21a2.26,2.26,0,0,0,1.07,1.14,4.84,4.84,0,0,0,3.84-4C68.35,451.94,67.55,450.18,66.81,447.73Z"/><path class="cls-5" d="M101.06,438.31c-.66,7.85-8.9,15-15.13,14.79s-7.7-7.65-5.85-11.61,6-11.78,9.14-13.13l1-.46A3,3,0,0,0,89,427c-3.39-1.86.55-2.2,2.22-1.46C92.87,426.45,101.72,430.46,101.06,438.31ZM93,439.5a8.18,8.18,0,0,0,.2-4.61c-2.24,2.89-4.82,7.56-4.92,8.53C88.27,444.56,91.68,442.32,93,439.5Z"/><path class="cls-5" d="M135.33,433.75c-2.45,2.26-17,13.6-23.16,16.26-6.38,2.7-10-2-9.94-5.81s2.35-12.17,6.47-17.79c3.9-5.29,7.66-6.65,9.65-6.73,2.63-.19,7,3.39,8.17,7.09,1,3.74-4.11,7.82-7.48,10.25s-6,5.2-9.12,1.76c-.55,1.15-1.54,4.58,3.2,3.42s14.88-6.82,20.65-11.79S137.69,431.5,135.33,433.75Zm-22.13-.53c1.57-.76,5-3.1,5-5.49C115.54,429.36,114.64,430.67,113.2,433.22Z"/><path class="cls-5" d="M176.82,425.86c-2.12,1.43-6.66,3.7-10.14,5.57a34.59,34.59,0,0,1-6.59,7.22c-7.26,6.2-10.56,9.57-14.41,5.22s4.15-13.26,15.28-18.16c2.24-2.32,2.27-5.85.42-7-.65-.46-6.41,1.46-16.65,17.93a9.54,9.54,0,0,1-1,1.62c-2,9.91-10.12,39.55-10.61,43.07-.66,4.23-.57,6.31-2.81,6-2.3-.06-4.88-5.78-3.5-10.24,1.92-6.74,11.37-50.93,12.31-54.16.66-3.17,2.27-5.85,3.32-6.33,2.87-1,5.21,1.34,6.52,2.24q.33.22,0,1.71c3.24-3.64,4.76-6.78,10.35-8.57,7.57-2.44,11.1.16,11.92,6.21a10.37,10.37,0,0,1-.42,4.47c3-1.32,10.17-2.82,12.51-2C186,421.7,179.82,424,176.82,425.86Z"/><path class="cls-5" d="M208.49,407.08c-1.56.28-7.71,4.75-12.91,9.71,1,2.1,2,4.78,3.69,7.62s4.77,4.66,8.18,3c2.19-1.07,5.06-3.6,7.27-5.63s2,2.59-1.72,7.28c-3.52,4.75-5.36,5.66-8.13,6.17-5.44,1-13.25-7.78-14.15-12.67a13.78,13.78,0,0,1-2.24,2.89c-1.92,8.75-3.19,14.32-5.36,14.43-2.64.2-5-6.15-4-9.1s8.64-31.45,12.68-44.78c2.42-8.17,2.54-14.3,2.93-15.8s2.46-2.74,6.41-1.47c1.52.49,3.11,2.39,2.65,3.53-.53.76-9.85,26.42-13.07,42.18,7.12-7.51,16.66-15.84,21-16.34S210.3,407,208.49,407.08Z"/><path class="cls-5" d="M243.13,410.17c-2.56,3.24-17,18.86-20.32,20.33-3.33,1.66-7.52-.91-8-6.26-.45-5.07,1.91-15.61,3.86-19s2.58-3.62,3.32-3.75c1.75-.32,6.08,3,6.07,4.51.18,1.5-.45,1.71-2,3-1.35,1.49-5.32,14.24-2.77,13s15.47-11.9,18.25-14.41S245.66,406.85,243.13,410.17ZM221.84,396c-1.59-1.9-3.21-5.51-1.91-6.23a43.84,43.84,0,0,1,5.18-2.48c1.51-.56,3.27,2.27,4.73,3.43s-.2,2-1.46,3.51S223.26,398.07,221.84,396Z"/><path class="cls-5" d="M280.58,406.84c-2.12,1.44-6.66,3.7-10.14,5.58a34.84,34.84,0,0,1-6.59,7.22c-7.26,6.2-10.56,9.57-14.41,5.22s4.16-13.26,15.28-18.17c2.25-2.31,2.27-5.85.43-7-.66-.45-6.41,1.46-16.66,17.94a10,10,0,0,1-1,1.62c-2,9.91-10.12,39.54-10.61,43.07-.66,4.22-.57,6.3-2.81,6-2.3-.05-4.87-5.78-3.5-10.23,1.92-6.74,11.37-50.94,12.31-54.16.66-3.17,2.27-5.85,3.32-6.33,2.87-1,5.21,1.33,6.52,2.24q.33.23,0,1.71c3.24-3.65,4.77-6.79,10.35-8.58,7.57-2.43,11.1.16,11.92,6.21a10.37,10.37,0,0,1-.42,4.47c3-1.31,10.17-2.82,12.51-2C289.74,402.68,283.58,405,280.58,406.84Z"/><path class="cls-5" d="M290.22,414.73l-.7-3.82a4,4,0,0,1,.12-2,5.45,5.45,0,0,1,.94-1.72A6.46,6.46,0,0,1,292,405.9a4.43,4.43,0,0,1,1.62-.67l3.54-.65a1.28,1.28,0,0,1,1.06.29,1.53,1.53,0,0,1,.59.9l1.31,7.14a1.48,1.48,0,0,1-.21,1,1.41,1.41,0,0,1-.93.57l-7.14,1.31a1.43,1.43,0,0,1-1-.22A1.22,1.22,0,0,1,290.22,414.73Zm6.27-12.66-6.71,1.23a1.48,1.48,0,0,1-1.06-.2,1.27,1.27,0,0,1-.63-.92l-3.64-19.88a4.18,4.18,0,0,1,.07-1.93,5.32,5.32,0,0,1,.83-1.73,5.21,5.21,0,0,1,1.39-1.34,4.57,4.57,0,0,1,1.75-.73l3.21-.58a1.35,1.35,0,0,1,1.07.2,1.26,1.26,0,0,1,.62.86l4.28,23.38a1.25,1.25,0,0,1-.26,1.07A1.45,1.45,0,0,1,296.49,402.07Z"/></g></g></svg>