<svg xmlns="http://www.w3.org/2000/svg" viewBox="0 0 343.29 181.84"><defs><style>.cls-1{fill:#fff;}.cls-2{fill:#f5f5f5;}.cls-3{fill:#ffb655;}.cls-4{fill:#db6e0b;}.cls-5{fill:#e57d15;}</style></defs><title>Asset 37</title><g id="Layer_2" data-name="Layer 2"><g id="Layer_1-2" data-name="Layer 1"><path class="cls-1" d="M308.32,181.84c27.45,0,28-6.23,27.47-9.64s-2.29-14.75-3.6-43.84,6.52-49.56,8.87-61.57-.3-51.08-.3-51.08-24.45,1.18-32.1,1.16-32.49-1.29-32.49-1.29-2.41,39.05-.11,51.07,10,32.52,8.61,61.61-3.23,40.41-3.78,43.82S280.87,181.78,308.32,181.84Z"/><path class="cls-2" d="M308.32,179.1c-17.93,0-22.9-2.75-24.27-4.37a2.36,2.36,0,0,1-.45-2.21c1.56-9.65,2.84-24.5,3.81-44.13,1.12-22.93-3.27-40.3-6.48-53-.9-3.57-1.68-6.64-2.18-9.27-1.86-9.75-.49-38.68,0-47.69,6.69.33,23.71,1.15,29.91,1.16s22.93-.73,29.53-1c.54,9,2.09,37.94.18,47.68-.51,2.63-1.3,5.7-2.22,9.26-3.26,12.67-7.72,30-6.69,53,.88,19.63,2.1,34.48,3.62,44.15a2.36,2.36,0,0,1-.46,2.21C331.24,176.44,326.26,179.14,308.32,179.1Z"/><path class="cls-3" d="M308.32,179.1c-17.93,0-22.9-2.75-24.27-4.37a2.36,2.36,0,0,1-.45-2.21c1.56-9.65,2.84-24.5,3.81-44.13,1.12-22.93-3.27-40.3-6.48-53-.9-3.57-1.68-6.64-2.18-9.27-1.86-9.75-1.09-25.22-.61-34.23,6.7.33,24.29,1.15,30.49,1.16s23.64-.73,30.24-1c.54,9,1.41,24.48-.5,34.22-.51,2.63-1.3,5.7-2.22,9.26-3.26,12.67-7.72,30-6.69,53,.88,19.63,2.1,34.48,3.62,44.15a2.36,2.36,0,0,1-.46,2.21C331.24,176.44,326.26,179.14,308.32,179.1Z"/><path class="cls-2" d="M282.28,161.49c-.62,5.82-1.14,9-1.39,10.59-.55,3.42,0,9.7,27.43,9.76s28-6.23,27.47-9.64c-.25-1.56-.75-4.76-1.34-10.54-9.62,4-19.35,4.08-26.1,4.06C301.81,165.71,290.66,164.7,282.28,161.49Z"/><path class="cls-1" d="M308.32,179.07c-17.93,0-22.9-2.75-24.27-4.37a2.36,2.36,0,0,1-.45-2.21c.18-1.12.86-6.18,1.33-10.09a88.07,88.07,0,0,0,23.42,3.2c7.13,0,15-.19,23.46-3,.44,3.81,1.1,8.86,1.27,10a2.36,2.36,0,0,1-.46,2.21C331.24,176.41,326.26,179.1,308.32,179.07Z"/><path class="cls-1" d="M341.79,12.77C338.31,6.22,331.1,7,328.3,8.13s-7,1.18-11.85-3-7.2-6-14.65-4.79-12.13,6.22-17.69,6.21c-4.22,0-10.56,2.65-10.57,10.65A9,9,0,0,0,279.39,26a11.21,11.21,0,0,1,3.33,2.18c.26.23.51.46.76.67a6.6,6.6,0,0,1,2.4,5.08l-.06,29.19a3.43,3.43,0,0,0,3.11,3.48,3.3,3.3,0,0,0,3.47-3.28l.05-27.84a7.4,7.4,0,0,1,3.2-6l0,0a.85.85,0,0,1,1.34.71l0,19.33a2.71,2.71,0,0,0,2.33,2.75,2.6,2.6,0,0,0,2.87-2.59l.05-20.39a1.62,1.62,0,0,1,2.09-1.54c3.9,1.17,5.39,4.19,11.59,4.2,7.68,0,11.88-7.13,19.94-5.25S344.6,18.06,341.79,12.77Z"/><path class="cls-4" d="M25,53.12c.15,1.39.36,3,.4,4.57,1.32-1.47,4.27-5.57,5.43-6.16,1.9-.81-1.21,4.28-2.16,6.67s-2.24,4.7-3.48,5.13a2.77,2.77,0,0,1-2.85-.47,6.76,6.76,0,0,1-.89-1.16L21,60.94c-.34,1-1.76,4-3.59,4.63a2.79,2.79,0,0,1-2.93-.83c-.42-.24-1.15-2.08-.4-4.67a21.9,21.9,0,0,1,5-8.22,2.15,2.15,0,0,1,2.16-.49l.24-8.56a73.11,73.11,0,0,0-.14-8.92c0-.74.29-1.41,2.2-1.32.76,0,1.74.68,1.69,1.26S24,46,25,53.12ZM20.92,57l.26-.48.05-2.09-.76.69c-1,1-2.5,5.38-2.64,5.61A14.3,14.3,0,0,0,20.92,57Z"/><path class="cls-4" d="M44,48.86c-.81,1.36-5.93,8.52-8.4,10.58s-4.85.45-5.34-1.32a17.9,17.9,0,0,1,.55-9c1.07-3,2.61-4.08,3.51-4.39,1.18-.44,3.67.61,4.7,2.15s-.82,4.13-2,5.7-2.05,3.2-3.94,2c-.1.6-.09,2.31,1.93,1.14s5.88-5.15,7.85-8.2S44.81,47.51,44,48.86ZM33.82,51.61c.62-.56,1.86-2.09,1.55-3.19A5.92,5.92,0,0,0,33.82,51.61Z"/><path class="cls-5" d="M36.06,79.05V58a2.93,2.93,0,0,1,1-2.25,3.09,3.09,0,0,1,2.17-.88h7.2a16.48,16.48,0,0,1,4.45.56,9.77,9.77,0,0,1,3.55,1.76,8.31,8.31,0,0,1,2.37,3.06,11.11,11.11,0,0,1,.94,4.41c0,.34,0,.74,0,1.21v3.07c0,.46,0,.86,0,1.19Q57.37,79.94,46.57,80H37a.88.88,0,0,1-.65-.25A.92.92,0,0,1,36.06,79.05Zm10.33-4.46a4.42,4.42,0,0,0,3.39-1.14,5,5,0,0,0,1.08-3.4c0-.34,0-.73,0-1.17s0-.94,0-1.49,0-1,0-1.5,0-.83,0-1.17q-.11-4.5-4.65-4.5h-5.4a1.88,1.88,0,0,1,1.41.6,1.8,1.8,0,0,1,.57,1.27V73.47a1.12,1.12,0,0,0,.31.79,1,1,0,0,0,.81.33Z"/><path class="cls-5" d="M60,79.73a.92.92,0,0,1-.21-.54,1.08,1.08,0,0,1,0-.32l8.35-23a1.46,1.46,0,0,1,1.44-1h5.58a1.44,1.44,0,0,1,1.44,1l8.36,23a1.08,1.08,0,0,1,0,.32.79.79,0,0,1-.75.76H79.62a1.19,1.19,0,0,1-1.22-.79l-1.87-5.08a21.07,21.07,0,0,1-2.63.83,23.74,23.74,0,0,1-2.58.49c-.82.1-1.6.18-2.32.21s-1.34.06-1.87.06h-.86a3.31,3.31,0,0,1-.54,0,1.44,1.44,0,0,1,1.09.7,1.5,1.5,0,0,1,.09,1.46l-.5,1.37a1.2,1.2,0,0,1-1.22.79H60.54A.88.88,0,0,1,60,79.73Zm9.15-9.21c.67,0,1.36-.13,2.08-.25s1.28-.24,2-.42a8.87,8.87,0,0,0,2-.77l-2.77-7.92Z"/><path class="cls-5" d="M106.62,54.75a.83.83,0,0,1,.94.94v4a.83.83,0,0,1-.25.65.93.93,0,0,1-.69.25H98.31a2,2,0,0,1,1.4.58,1.72,1.72,0,0,1,.61,1.29V78.94a.87.87,0,0,1-.25.67,1,1,0,0,1-.68.23h-5a1,1,0,0,1-.65-.25.83.83,0,0,1-.29-.65V61.7a1,1,0,0,0-.34-.81,1.06,1.06,0,0,0-.74-.31H87.18a.91.91,0,0,1-.68-.25.8.8,0,0,1-.25-.65V57.85a2.82,2.82,0,0,1,1-2.25,3.19,3.19,0,0,1,2.16-.85Z"/><path class="cls-5" d="M108.78,79.73a.92.92,0,0,1-.21-.54,1.08,1.08,0,0,1,0-.32l8.35-23a1.46,1.46,0,0,1,1.44-1H124a1.44,1.44,0,0,1,1.44,1l8.36,23a1.08,1.08,0,0,1,0,.32.79.79,0,0,1-.75.76H128.4a1.19,1.19,0,0,1-1.22-.79l-1.87-5.08a21.07,21.07,0,0,1-2.63.83,23.74,23.74,0,0,1-2.58.49c-.82.1-1.6.18-2.32.21s-1.34.06-1.87.06h-.86a3.21,3.21,0,0,1-.54,0,1.44,1.44,0,0,1,1.09.7,1.5,1.5,0,0,1,.09,1.46l-.5,1.37A1.2,1.2,0,0,1,114,80h-4.65A.88.88,0,0,1,108.78,79.73Zm9.15-9.21c.67,0,1.36-.13,2.08-.25s1.28-.24,2-.42a8.87,8.87,0,0,0,2-.77l-2.77-7.92Z"/><path class="cls-5" d="M162.78,55a.81.81,0,0,1,.22.54v.21l-3.85,22.93a1.23,1.23,0,0,1-.47.83,1.32,1.32,0,0,1-1,.36h-3.6a1.52,1.52,0,0,1-.83-.23,1.28,1.28,0,0,1-.51-.7l-3.38-9.44c0-.07-.09-.1-.18-.1a.21.21,0,0,0-.18.1l-3.35,9.44a1.39,1.39,0,0,1-1.37.93h-3.6a1.37,1.37,0,0,1-1.4-1.19l-3.85-22.93a1.09,1.09,0,0,1,0-.45,1.11,1.11,0,0,1,.17-.3.88.88,0,0,1,.54-.22h4.68c.69,0,1.08.28,1.15.83l2.05,12.74c.05.12.12.18.22.18a.18.18,0,0,0,.18-.14l2.23-7.09a1.15,1.15,0,0,1,1.15-1h2.7a1.15,1.15,0,0,1,1.19,1l2.23,7a.17.17,0,0,0,.18.15q.18,0,.18-.15l2.09-12.74a1.36,1.36,0,0,1,.32-.65,1.51,1.51,0,0,1,.8-.18h4.71A.7.7,0,0,1,162.78,55Z"/><path class="cls-5" d="M166.09,79V57.92a2.94,2.94,0,0,1,.94-2.25,3.07,3.07,0,0,1,2.2-.88h14.68a.9.9,0,0,1,.65.28.92.92,0,0,1,.29.65v3.57a.74.74,0,0,1-.29.61.87.87,0,0,1-.65.25H170.59a1.82,1.82,0,0,1,1.42.61,1.91,1.91,0,0,1,.56,1.33v1.52a1.2,1.2,0,0,0,.29.75,1,1,0,0,0,.83.36h7.81a.83.83,0,0,1,.94.94V68.9a.83.83,0,0,1-.94.93H170.59a2,2,0,0,1,1.41.58,1.8,1.8,0,0,1,.57,1.3V73.4a1.1,1.1,0,0,0,.31.75,1,1,0,0,0,.81.36H184.2a.92.92,0,0,1,.94.94V79a.84.84,0,0,1-.29.65,1,1,0,0,1-.65.25H167a.86.86,0,0,1-.9-.9Z"/><path class="cls-5" d="M189.21,79V57.92a3,3,0,0,1,.93-2.25,3.09,3.09,0,0,1,2.2-.88H207a1,1,0,0,1,.93.93v3.57a.71.71,0,0,1-.29.61.86.86,0,0,1-.64.25H193.71a1.85,1.85,0,0,1,1.42.61,1.94,1.94,0,0,1,.55,1.33v1.52a1.2,1.2,0,0,0,.29.75,1,1,0,0,0,.83.36h7.81a.83.83,0,0,1,.94.94V68.9a.83.83,0,0,1-.94.93h-10.9a1.93,1.93,0,0,1,1.4.58,1.8,1.8,0,0,1,.57,1.3V73.4a1.15,1.15,0,0,0,.31.75,1,1,0,0,0,.81.36h10.51a.9.9,0,0,1,.67.27.92.92,0,0,1,.27.67V79a.84.84,0,0,1-.29.65,1,1,0,0,1-.65.25H190.1a.86.86,0,0,1-.89-.9Z"/><path class="cls-5" d="M222.36,66.77a3.12,3.12,0,0,1,1.22.24,5.22,5.22,0,0,1,1,.56,4.75,4.75,0,0,1,.77.64,6.29,6.29,0,0,1,.45.51l7.53,9.93a.63.63,0,0,1,.14.44.66.66,0,0,1-.22.5.7.7,0,0,1-.57.25h-5.62a2.05,2.05,0,0,1-.81-.18,1.39,1.39,0,0,1-.63-.54l-3.06-4-1.33-1.67c-.34-.42-.65-.82-.94-1.19l-.73-1c-.21-.27-.33-.44-.38-.51a.15.15,0,0,0-.15-.07q-.21,0-.21.18v8a.85.85,0,0,1-.25.61.75.75,0,0,1-.65.29h-4.79a.92.92,0,0,1-.9-.9V57.88a3.2,3.2,0,0,1,.86-2.18,3,3,0,0,1,2.27-1H218a.81.81,0,0,1,.65.25,1,1,0,0,1,.25.69v7.23c0,.15.07.22.21.22a.15.15,0,0,0,.15-.11l6-7.56a1.49,1.49,0,0,1,1.4-.72h5.51a.66.66,0,0,1,.5.22.81.81,0,0,1,.22.54.58.58,0,0,1-.15.43l-3.31,4.28L228,62.06l-1,1.26-.73,1c-.21.26-.32.41-.35.43a3,3,0,0,1-.36.43,5.19,5.19,0,0,1-.75.69,6,6,0,0,1-1.1.65A3.23,3.23,0,0,1,222.36,66.77Z"/><path class="cls-3" d="M0,119.54V98.48a2.87,2.87,0,0,1,.31-1.4,3.09,3.09,0,0,1,.77-1,2.85,2.85,0,0,1,1-.58,3.33,3.33,0,0,1,1-.18H12a16.55,16.55,0,0,1,3.45.34,8.08,8.08,0,0,1,2.85,1.17,5.9,5.9,0,0,1,1.94,2.22,7.38,7.38,0,0,1,.72,3.43,5.3,5.3,0,0,1-.77,2.81,5.78,5.78,0,0,1-2.14,2,5,5,0,0,1,2.53,2.21,6.3,6.3,0,0,1,.92,3.26,7.58,7.58,0,0,1-.74,3.53,6.62,6.62,0,0,1-2,2.36A8.41,8.41,0,0,1,15.82,120a15,15,0,0,1-3.54.41H.9a.86.86,0,0,1-.63-.27A.86.86,0,0,1,0,119.54Zm11.23-14.25a2.89,2.89,0,0,0,2-.67,2.42,2.42,0,0,0,.76-1.93,2.29,2.29,0,0,0-.78-1.89,3,3,0,0,0-2-.63H4.75a1.9,1.9,0,0,1,1.41.6,1.84,1.84,0,0,1,.57,1.31v2.16a1.14,1.14,0,0,0,.29.69,1,1,0,0,0,.79.36Zm.33,10.29a3,3,0,0,0,2.1-.72,2.59,2.59,0,0,0,.81-2,2.68,2.68,0,0,0-.83-2.07,2.89,2.89,0,0,0-2.08-.77H4.75a1.89,1.89,0,0,1,1.41.59,1.86,1.86,0,0,1,.57,1.31v2.63a1.2,1.2,0,0,0,.27.72,1,1,0,0,0,.81.36Z"/><path class="cls-3" d="M35.89,120.91q-5.12,0-8.06-2.48t-3.13-7.31c0-.67,0-1.71,0-3.1s0-2.43,0-3.13a9.52,9.52,0,0,1,3.14-7.33A12,12,0,0,1,35.89,95a11.91,11.91,0,0,1,8,2.57,9.49,9.49,0,0,1,3.15,7.33c.05,1.39.07,2.44.07,3.13s0,1.75-.07,3.1q-.18,4.81-3.11,7.31T35.89,120.91Zm0-5.4a4,4,0,0,0,3-1.13,5.06,5.06,0,0,0,1.19-3.48c0-1.39.07-2.39.07-3s0-1.57-.07-2.91a5.06,5.06,0,0,0-1.19-3.48,4,4,0,0,0-3-1.13,4.06,4.06,0,0,0-3,1.13A5,5,0,0,0,31.68,105c0,.67,0,1.64,0,2.91s0,2.3,0,3a5,5,0,0,0,1.19,3.48A4.06,4.06,0,0,0,35.89,115.51Z"/><path class="cls-3" d="M72.43,120.26a.7.7,0,0,1-.54.22h-5a1.49,1.49,0,0,1-1.47-1l-3.64-7.2a1,1,0,0,0-1-.58H56a1.77,1.77,0,0,1,1.46.65,2,2,0,0,1,.52,1.26v5.94a.83.83,0,0,1-.25.66.94.94,0,0,1-.68.24h-4.9a.86.86,0,0,1-.9-.9V98.52a3,3,0,0,1,.94-2.23,3,3,0,0,1,2.19-.9H62a15.88,15.88,0,0,1,3.83.45,9.36,9.36,0,0,1,3.19,1.42,7.12,7.12,0,0,1,2.19,2.54,8,8,0,0,1,.83,3.79,8.15,8.15,0,0,1-.92,3.93,7,7,0,0,1-2.9,2.77.59.59,0,0,0-.28.47.82.82,0,0,0,.07.39l4.5,8.18a.89.89,0,0,1,.11.39A.94.94,0,0,1,72.43,120.26Zm-7.31-16.7a2.89,2.89,0,0,0-.84-2.25,3.26,3.26,0,0,0-2.29-.78H55.8a1.75,1.75,0,0,1,1.4.63,2,2,0,0,1,.54,1.32v2.88a1.07,1.07,0,0,0,.33.79,1,1,0,0,0,.79.32H62a3.43,3.43,0,0,0,2.29-.72A2.73,2.73,0,0,0,65.12,103.56Z"/><path class="cls-3" d="M97.45,120.26a.7.7,0,0,1-.54.22h-5a1.52,1.52,0,0,1-1.48-1l-3.63-7.2a1,1,0,0,0-1-.58H81a1.77,1.77,0,0,1,1.46.65,2,2,0,0,1,.52,1.26v5.94a.83.83,0,0,1-.25.66.94.94,0,0,1-.68.24h-4.9a.86.86,0,0,1-.9-.9V98.52a3,3,0,0,1,.94-2.23,3,3,0,0,1,2.19-.9h7.64a15.88,15.88,0,0,1,3.83.45,9.36,9.36,0,0,1,3.19,1.42,7.12,7.12,0,0,1,2.19,2.54,8,8,0,0,1,.83,3.79,8.15,8.15,0,0,1-.92,3.93,7,7,0,0,1-2.9,2.77.59.59,0,0,0-.28.47.82.82,0,0,0,.07.39l4.5,8.18a.89.89,0,0,1,.11.39A.94.94,0,0,1,97.45,120.26Zm-7.31-16.7a2.89,2.89,0,0,0-.84-2.25,3.26,3.26,0,0,0-2.29-.78H80.82a1.76,1.76,0,0,1,1.4.63,2,2,0,0,1,.54,1.32v2.88a1.07,1.07,0,0,0,.33.79,1,1,0,0,0,.79.32H87a3.43,3.43,0,0,0,2.29-.72A2.73,2.73,0,0,0,90.14,103.56Z"/><path class="cls-3" d="M101.16,119.58V98.52a3,3,0,0,1,.93-2.25,3.11,3.11,0,0,1,2.2-.88H119a1,1,0,0,1,.93.93v3.57a.73.73,0,0,1-.28.61.88.88,0,0,1-.65.25H105.66a1.83,1.83,0,0,1,1.42.61,2,2,0,0,1,.56,1.33v1.52a1.15,1.15,0,0,0,.29.75,1,1,0,0,0,.82.36h7.82a.83.83,0,0,1,.93.94v3.24a.82.82,0,0,1-.93.93H105.66a1.92,1.92,0,0,1,1.4.58,1.77,1.77,0,0,1,.58,1.3V114a1.16,1.16,0,0,0,.3.75,1,1,0,0,0,.81.36h10.52a.9.9,0,0,1,.66.27.92.92,0,0,1,.27.67v3.53a.81.81,0,0,1-.29.65,1,1,0,0,1-.64.25H102.06a.91.91,0,0,1-.65-.25A.88.88,0,0,1,101.16,119.58Z"/><path class="cls-3" d="M124.31,119.54V98.45a2.91,2.91,0,0,1,.27-1.26,3.06,3.06,0,0,1,.7-1,3.45,3.45,0,0,1,1-.63,3.1,3.1,0,0,1,1.15-.23h2.77a.81.81,0,0,1,.65.25.88.88,0,0,1,.25.65v17.46a1.32,1.32,0,0,0,.29.7.9.9,0,0,0,.79.42h9.68a1,1,0,0,1,.65.25.83.83,0,0,1,.29.65v3.81a.83.83,0,0,1-.29.65,1,1,0,0,1-.65.25H125.21a.85.85,0,0,1-.63-.27A.86.86,0,0,1,124.31,119.54Z"/><path class="cls-3" d="M154.59,106.48c1.49-.14,3.51.58,5.86.58,5.42,0,8.5,0,9.12-.29a1.49,1.49,0,0,1,2,.82c.38.86,1.92,1.87-2.6,2.74a37.07,37.07,0,0,1-7.63.57c-4,.19-6.48.67-7.68-.48C153.06,109.8,153.1,106.63,154.59,106.48Z"/><path class="cls-3" d="M136.24,149.22c-1.41.29-5.26-.15-5.3-2.35-.2-2.16-1.8-2.41-3.27-1.21-.48.43-1.77,1.34-3.11,2.35a36.17,36.17,0,0,0-1.8,7.63c-.86,4.59,1.47,6.4-3.35,10.4-2,1.63-3.65,2.14-5,.12-3-4.54,3-19.06,3.49-21.78s-.22-3.88,1.23-5.56c2.14-2.32,3-3.31,4.55-1.74,1.35,1.43,4.48-.84,2.82,4.65,2.69-2.84,5.46-5.69,7-6,2.59-.53,1.69,4.31,2.81,7.76C137.44,147.1,137.73,148.92,136.24,149.22Z"/><path class="cls-3" d="M148.46,145.51c.79-.16,11.46-8.3,12.15-8.11,1.35.62,2.16,2.17,1.43,3.38-1,1.75-2.37,4.41-.59,2.74,1.62-1.64,14.84-9.73,17.55-11.26s1,2.65-2.46,6A190.55,190.55,0,0,1,160.85,151c-2.18,1.34-7.19,1.22-6.56-3.32a50.86,50.86,0,0,1-7.17,4.89c-1.67,1-7.45.29-7.66-5.14s7.65-12.58,10-13.72,6.58-2.15,9.18-.23c.66.43.11,1.77-.95,1.74C156.78,135.4,148,143.08,148.46,145.51Z"/><path class="cls-3" d="M193.44,123.77c1.75,2.18,1.55,3.6.2,3.8-1.18.24-1.66-2.52-4.6.28s-8.13,11.78-8.7,15.41,1.06,6,6.4,2.94c5.57-3.09,16.25-11.64,22.7-18.42,1.3-1.25,2-.17.36,3.35s-21.42,21.11-26.16,22.73a7.91,7.91,0,0,1-9.06-3.22c-1.77-2.66-2.93-5.12-1.83-8.94.93-3.86,8.59-17.18,12.4-18.94C187.25,121.85,191.67,121.52,193.44,123.77Z"/><path class="cls-3" d="M233.45,131.38c-2,2-14.24,11.88-19.48,14.26s-8.55-1.53-8.56-4.79,1.79-10.41,5.21-15.27c3.23-4.58,6.42-5.8,8.11-5.9,2.24-.22,6,2.77,7.08,5.9.89,3.17-3.36,6.73-6.2,8.86s-5,4.54-7.74,1.66c-.45,1-1.24,3.93,2.79,2.86s12.56-6.07,17.39-10.4S235.41,129.43,233.45,131.38Zm-18.88-.07c1.33-.68,4.18-2.73,4.17-4.77A10.45,10.45,0,0,0,214.57,131.31Z"/></g></g></svg>