<svg xmlns="http://www.w3.org/2000/svg" viewBox="0 0 182.67 449.61"><defs><style>.cls-1{fill:#506391;}.cls-2{fill:#393e70;}.cls-2,.cls-3,.cls-7,.cls-8{stroke:#393e70;stroke-miterlimit:10;}.cls-3{fill:#2e315e;}.cls-4{fill:#e6e6e6;}.cls-5{fill:#2e325b;}.cls-6{fill:#0d0d34;}.cls-7{fill:#ed1c24;}.cls-8{fill:#39b54a;}</style></defs><title>Asset 7</title><g id="Layer_2" data-name="Layer 2"><g id="Layer_1-2" data-name="Layer 1"><rect class="cls-1" x="83.96" y="438.13" width="21.97" height="7.49"/><rect class="cls-1" x="77.85" y="443.87" width="34.2" height="5.74"/><rect class="cls-1" x="88.62" width="13.98" height="438.23"/><rect class="cls-2" x="83.37" y="14.38" width="22.96" height="153.03"/><rect class="cls-3" x="106.33" y="28.63" width="40.27" height="12.65"/><rect class="cls-3" x="106.33" y="142.45" width="40.27" height="12.65"/><rect class="cls-4" x="127.05" width="48.92" height="177.72"/><rect class="cls-2" x="123.31" y="4.54" width="56.41" height="168.65"/><path class="cls-5" d="M182.67,49.44c0,17.21-14,28.05-31.17,28.05s-31.16-10.84-31.16-28a31.17,31.17,0,0,1,62.33,0Z"/><path class="cls-6" d="M151.5,34.52c13.18,0,24.71,5.28,31.12,13.19a31.16,31.16,0,0,0-62.23,0C126.79,39.8,138.33,34.52,151.5,34.52Z"/><path class="cls-7" d="M179.55,49.44a28,28,0,1,1-28.05-28A28.05,28.05,0,0,1,179.55,49.44Z"/><path class="cls-5" d="M182.67,127.52c0,17.21-14,28.05-31.17,28.05s-31.16-10.84-31.16-28a31.17,31.17,0,0,1,62.33,0Z"/><path class="cls-6" d="M151.5,112.61c13.18,0,24.71,5.28,31.12,13.19a31.16,31.16,0,0,0-62.23,0C126.79,117.89,138.33,112.61,151.5,112.61Z"/><path class="cls-8" d="M179.55,127.52a28,28,0,1,1-28.05-28A28.05,28.05,0,0,1,179.55,127.52Z"/><rect class="cls-3" x="45" y="28.63" width="40.27" height="12.65"/><rect class="cls-3" x="45" y="142.45" width="40.27" height="12.65"/><polygon class="cls-6" points="34.13 55.36 14.54 55.36 0 18.73 34.13 18.73 34.13 55.36"/><rect class="cls-5" x="30.22" y="17.51" width="8.34" height="39.06"/><polygon class="cls-6" points="34.13 107.17 14.54 107.17 0 70.54 34.13 70.54 34.13 107.17"/><rect class="cls-5" x="30.22" y="69.33" width="8.34" height="39.06"/><polygon class="cls-6" points="34.13 158.81 14.54 158.81 0 122.18 34.13 122.18 34.13 158.81"/><rect class="cls-5" x="30.22" y="120.96" width="8.34" height="39.06"/><rect class="cls-4" x="38.56" width="27.63" height="177.72"/><rect class="cls-2" x="36.44" y="4.54" width="31.86" height="168.65"/></g></g></svg>