<svg xmlns="http://www.w3.org/2000/svg" viewBox="0 0 429.52 373.41"><defs><style>.cls-1{fill:#333;}.cls-2{fill:#e8e8e8;}.cls-3{fill:#1a1a1a;}</style></defs><title>Asset 5</title><g id="Layer_2" data-name="Layer 2"><g id="Layer_1-2" data-name="Layer 1"><rect class="cls-1" x="145.52" y="15" width="245" height="40"/><rect class="cls-2" x="101.52" y="43" width="328" height="287"/><rect class="cls-2" x="137.52" width="268" height="27"/><rect class="cls-1" x="114.52" y="55" width="302" height="26"/><rect class="cls-1" x="114.52" y="95" width="302" height="26"/><rect class="cls-1" x="114.52" y="135" width="302" height="26"/><rect class="cls-1" x="114.52" y="175" width="302" height="26"/><rect class="cls-1" x="114.52" y="215" width="302" height="26"/><rect class="cls-1" x="114.52" y="255" width="302" height="26"/><rect class="cls-1" x="114.52" y="295" width="37" height="26"/><rect class="cls-1" x="164.52" y="295" width="37" height="26"/><rect class="cls-1" x="218.52" y="295" width="37" height="26"/><rect class="cls-1" x="271.52" y="295" width="37" height="26"/><rect class="cls-1" x="325.52" y="295" width="37" height="26"/><rect class="cls-1" x="380.52" y="295" width="37" height="26"/><rect class="cls-3" x="76.39" y="227.31" width="5.19" height="146.1"/><rect class="cls-2" y="169.46" width="153.52" height="76.39"/><polygon class="cls-3" points="38.19 155.74 19.65 155.74 19.65 163.53 26.33 163.53 26.33 175.76 31.15 175.76 31.15 163.53 38.19 163.53 38.19 155.74"/><polygon class="cls-3" points="133.12 155.74 114.58 155.74 114.58 163.53 121.26 163.53 121.26 175.76 126.08 175.76 126.08 163.53 133.12 163.53 133.12 155.74"/><path class="cls-1" d="M27.27,214c-.37-.74-.74-1.51-1.12-2.33S25.39,210,25,209.19s-.72-1.6-1.05-2.37-.63-1.48-.9-2.13L22.39,203,22,202c-.16-.38-.3-.74-.41-1.07a2.93,2.93,0,0,1-.16-.93,1.1,1.1,0,0,1,.32-.84,1.34,1.34,0,0,1,1-.31,2.23,2.23,0,0,1,.84.14l.42.17c.26.78.59,1.67,1,2.67s.79,2,1.23,3.14.87,2.17,1.33,3.24.89,2.08,1.3,3c.32-.71.67-1.53,1.06-2.47s.78-1.9,1.18-2.9.79-2,1.17-3,.72-1.85,1-2.63a3.11,3.11,0,0,1,.66-1.09,1.57,1.57,0,0,1,1.08-.32,2,2,0,0,1,1,.21l.49.28c-.12.31-.3.78-.56,1.43s-.56,1.39-.91,2.23-.74,1.75-1.15,2.73l-1.25,2.93-1.24,2.84c-.41.91-.78,1.73-1.12,2.45Z"/><path class="cls-1" d="M42.36,202.6a6.51,6.51,0,0,1,2.39.44,5.94,5.94,0,0,1,1.92,1.22A5.68,5.68,0,0,1,48,206.11a5.75,5.75,0,0,1,.46,2.32,5.69,5.69,0,0,1-.46,2.3,5.58,5.58,0,0,1-1.28,1.85,6,6,0,0,1-1.92,1.23,6.55,6.55,0,0,1-4.77,0,5.91,5.91,0,0,1-1.93-1.23,5.73,5.73,0,0,1-1.28-1.85,5.87,5.87,0,0,1-.46-2.3,5.93,5.93,0,0,1,.46-2.32A5.68,5.68,0,0,1,40,203,6.45,6.45,0,0,1,42.36,202.6Zm0,9.44a3.55,3.55,0,0,0,1.39-.27,3.27,3.27,0,0,0,1.09-.77,3.62,3.62,0,0,0,.7-1.15,3.82,3.82,0,0,0,.25-1.42,4,4,0,0,0-.25-1.44,3.41,3.41,0,0,0-.7-1.15,3.11,3.11,0,0,0-1.09-.76,3.39,3.39,0,0,0-1.39-.28,3.29,3.29,0,0,0-1.39.28,3.07,3.07,0,0,0-1.08.76,3.43,3.43,0,0,0-.71,1.15,4,4,0,0,0-.25,1.44,3.82,3.82,0,0,0,.25,1.42,3.65,3.65,0,0,0,.71,1.15,3.23,3.23,0,0,0,1.08.77A3.45,3.45,0,0,0,42.36,212Z"/><path class="cls-1" d="M50.63,198.91A1,1,0,0,1,51,198a1.52,1.52,0,0,1,1-.29,2.37,2.37,0,0,1,.72.1l.44.14v16H50.63Z"/><path class="cls-1" d="M55.83,198.91a1,1,0,0,1,.35-.88,1.52,1.52,0,0,1,1-.29,2.37,2.37,0,0,1,.72.1l.44.14v9l.81-.58,1.15-.85q.65-.45,1.32-1l1.3-.94a4.65,4.65,0,0,1,.88-.54,2.34,2.34,0,0,1,1-.19,1.65,1.65,0,0,1,1,.32,1.79,1.79,0,0,1,.52.54c-.3.28-.73.62-1.26,1L63.46,206l-1.58,1.12-1.08.75a27.47,27.47,0,0,1,3.41,3A30.94,30.94,0,0,1,66.8,214H63.68c-.34-.42-.72-.85-1.13-1.29s-.87-.89-1.35-1.33-1-.85-1.45-1.25-1-.78-1.42-1.12v5h-2.5Z"/><path class="cls-1" d="M68.36,211.21a4.68,4.68,0,0,0,.56.28,8.5,8.5,0,0,0,1,.36,9.8,9.8,0,0,0,1.34.32,9.09,9.09,0,0,0,1.62.13,4.93,4.93,0,0,0,1.87-.29,1,1,0,0,0,.73-1,1.05,1.05,0,0,0-.46-.94,3.93,3.93,0,0,0-1.65-.45l-1.72-.2a7.88,7.88,0,0,1-1.62-.32,4.12,4.12,0,0,1-1.26-.62,2.9,2.9,0,0,1-.83-1,3.18,3.18,0,0,1-.29-1.4,3.33,3.33,0,0,1,.27-1.33,3,3,0,0,1,.87-1.11,4.16,4.16,0,0,1,1.55-.76,8.61,8.61,0,0,1,2.32-.28,9.87,9.87,0,0,1,3.56.51q1.26.51,1.26,1.32a1,1,0,0,1-.1.46,1.74,1.74,0,0,1-.22.35,1.25,1.25,0,0,1-.25.26l-.2.12a3.39,3.39,0,0,0-.38-.28,4.5,4.5,0,0,0-.81-.37,6.93,6.93,0,0,0-1.21-.33,7.92,7.92,0,0,0-1.63-.14c-1.7,0-2.55.44-2.55,1.34a1,1,0,0,0,.49.87,3.55,3.55,0,0,0,1.38.4l2.25.29a6,6,0,0,1,2.84,1,2.63,2.63,0,0,1,1,2.23,3.15,3.15,0,0,1-1.31,2.64,6.17,6.17,0,0,1-3.78,1,12.76,12.76,0,0,1-2.15-.17,13.82,13.82,0,0,1-1.68-.41,7.44,7.44,0,0,1-1.16-.45,4.4,4.4,0,0,1-.57-.33Z"/><path class="cls-1" d="M80.16,198.91a1,1,0,0,1,.35-.88,1.52,1.52,0,0,1,1-.29,2.43,2.43,0,0,1,.73.1l.44.14V204A4.35,4.35,0,0,1,84,203a5,5,0,0,1,2.29-.46,5.76,5.76,0,0,1,1.86.29,4.18,4.18,0,0,1,1.47.84,3.72,3.72,0,0,1,.94,1.4,5.33,5.33,0,0,1,.33,2V214H88.36v-6.14a3.45,3.45,0,0,0-.6-2.2,2.55,2.55,0,0,0-2.08-.75,2.85,2.85,0,0,0-2.26.87,3.39,3.39,0,0,0-.75,2.3V214H80.16Z"/><path class="cls-1" d="M99,202.6a6.51,6.51,0,0,1,2.39.44,6.1,6.1,0,0,1,1.93,1.22,5.81,5.81,0,0,1,1.27,1.85,5.75,5.75,0,0,1,.46,2.32,5.72,5.72,0,0,1-1.73,4.15,6.12,6.12,0,0,1-1.93,1.23,6.55,6.55,0,0,1-4.77,0,5.91,5.91,0,0,1-1.93-1.23,5.73,5.73,0,0,1-1.28-1.85,5.87,5.87,0,0,1-.46-2.3,5.93,5.93,0,0,1,.46-2.32A5.68,5.68,0,0,1,96.65,203,6.45,6.45,0,0,1,99,202.6ZM99,212a3.55,3.55,0,0,0,1.39-.27,3.27,3.27,0,0,0,1.09-.77,3.62,3.62,0,0,0,.7-1.15,3.82,3.82,0,0,0,.26-1.42,4,4,0,0,0-.26-1.44,3.41,3.41,0,0,0-.7-1.15,3.11,3.11,0,0,0-1.09-.76A3.39,3.39,0,0,0,99,204.8a3.29,3.29,0,0,0-1.39.28,3.07,3.07,0,0,0-1.08.76,3.43,3.43,0,0,0-.71,1.15,4.27,4.27,0,0,0-.25,1.44,4,4,0,0,0,.25,1.42,3.65,3.65,0,0,0,.71,1.15,3.23,3.23,0,0,0,1.08.77A3.45,3.45,0,0,0,99,212Z"/><path class="cls-1" d="M107.26,201a1.08,1.08,0,0,1,.35-.89,1.57,1.57,0,0,1,1-.27,2.55,2.55,0,0,1,.74.1l.45.14v2.88H113a1.41,1.41,0,0,1,1,.3,1.18,1.18,0,0,1,.3.87,2.17,2.17,0,0,1-.11.69,2.92,2.92,0,0,1-.18.45h-4.22v4.91a2.44,2.44,0,0,0,.15.93,1.53,1.53,0,0,0,.43.59,1.72,1.72,0,0,0,.64.3,3.1,3.1,0,0,0,.76.09,3.58,3.58,0,0,0,1.19-.2,3.28,3.28,0,0,0,.79-.37l1,1.67c-.12.09-.28.2-.49.33a4.5,4.5,0,0,1-.79.37,6.31,6.31,0,0,1-1,.3,6.1,6.1,0,0,1-1.25.12,3.94,3.94,0,0,1-2.93-1,3.58,3.58,0,0,1-1-2.63Z"/><path class="cls-1" d="M125.43,213.14c-.12.07-.3.18-.55.31a5.28,5.28,0,0,1-.93.37,10.86,10.86,0,0,1-1.3.31,9,9,0,0,1-1.62.13,6.89,6.89,0,0,1-2.3-.37,5.43,5.43,0,0,1-1.87-1.11A5.25,5.25,0,0,1,115.6,211a6.05,6.05,0,0,1-.46-2.45,6.27,6.27,0,0,1,.45-2.41,5.63,5.63,0,0,1,1.25-1.87,5.83,5.83,0,0,1,1.89-1.21,6.64,6.64,0,0,1,2.39-.43,6.33,6.33,0,0,1,2,.3,4.73,4.73,0,0,1,1.48.79,3.26,3.26,0,0,1,.91,1.16,3.42,3.42,0,0,1,0,2.8,2.47,2.47,0,0,1-1,1.08,5.79,5.79,0,0,1-2,.7,15.92,15.92,0,0,1-3.13.26h-.82l-.83,0a2.74,2.74,0,0,0,1.09,1.82,4.27,4.27,0,0,0,2.61.69,5.71,5.71,0,0,0,1-.09,5.5,5.5,0,0,0,.87-.22,5.69,5.69,0,0,0,.66-.26l.41-.2Zm-7.72-5.21,1,0h.92a9.46,9.46,0,0,0,2-.16,4,4,0,0,0,1.17-.39,1.26,1.26,0,0,0,.55-.55,1.78,1.78,0,0,0,.13-.64,1.37,1.37,0,0,0-.67-1.25,3.08,3.08,0,0,0-1.66-.42,3.25,3.25,0,0,0-2.47,1,3.63,3.63,0,0,0-.65,1.09A4.21,4.21,0,0,0,117.71,207.93Z"/><path class="cls-1" d="M127.83,198.91a1.07,1.07,0,0,1,.35-.88,1.56,1.56,0,0,1,1-.29,2.39,2.39,0,0,1,.73.1l.44.14v16h-2.51Z"/></g></g></svg>