<svg xmlns="http://www.w3.org/2000/svg" viewBox="0 0 514.23 487.74"><defs><style>.cls-1,.cls-2{fill:none;stroke-miterlimit:10;}.cls-1{stroke:#ffb655;stroke-width:8.62px;}.cls-2{stroke:#fff;stroke-width:5.8px;}.cls-3{font-size:43.8px;font-family:CoHeadline-Regular, Co Headline;}.cls-3,.cls-4{fill:#fff;}.cls-5{fill:#f5f5f5;}.cls-6{fill:#ffb655;}</style></defs><title>Bier-o-meter_07</title><g id="Layer_2" data-name="Layer 2"><g id="Layer_1-2" data-name="Layer 1"><line class="cls-1" x1="244.67" y1="135.6" x2="228.58" y2="75.54"/><line class="cls-1" x1="192.15" y1="166.11" x2="148.18" y2="122.14"/><line class="cls-1" x1="161.92" y1="218.8" x2="101.86" y2="202.71"/><line class="cls-1" x1="162.09" y1="279.54" x2="102.03" y2="295.63"/><line class="cls-1" x1="192.6" y1="332.06" x2="148.63" y2="376.03"/><line class="cls-1" x1="245.29" y1="362.29" x2="229.2" y2="422.35"/><line class="cls-1" x1="306.03" y1="362.12" x2="322.12" y2="422.18"/><line class="cls-1" x1="358.55" y1="331.61" x2="402.52" y2="375.57"/><line class="cls-1" x1="388.78" y1="278.92" x2="448.84" y2="295.01"/><line class="cls-1" x1="388.61" y1="218.18" x2="448.67" y2="202.08"/><line class="cls-1" x1="358.1" y1="165.66" x2="402.07" y2="121.69"/><line class="cls-1" x1="305.41" y1="135.43" x2="321.5" y2="75.37"/><line class="cls-2" x1="275.03" y1="34.19" x2="275.03" y2="131.51"/><line class="cls-2" x1="167.74" y1="63.11" x2="216.4" y2="147.4"/><line class="cls-2" x1="89.28" y1="141.8" x2="173.57" y2="190.46"/><line class="cls-2" x1="60.68" y1="249.18" x2="158" y2="249.18"/><line class="cls-2" x1="89.6" y1="356.47" x2="173.89" y2="307.81"/><line class="cls-2" x1="168.29" y1="434.93" x2="216.96" y2="350.64"/><line class="cls-2" x1="275.67" y1="463.53" x2="275.67" y2="366.2"/><line class="cls-2" x1="382.96" y1="434.61" x2="334.3" y2="350.32"/><line class="cls-2" x1="461.42" y1="355.92" x2="377.13" y2="307.25"/><line class="cls-2" x1="490.02" y1="248.54" x2="392.7" y2="248.54"/><line class="cls-2" x1="461.1" y1="141.25" x2="376.81" y2="189.91"/><line class="cls-2" x1="382.41" y1="62.79" x2="333.74" y2="147.07"/><text class="cls-3" transform="translate(36.36 235.45) rotate(-83.24)">B</text><text class="cls-3" transform="translate(40.24 206.05) rotate(-78.47)">i</text><text class="cls-3" transform="matrix(0.27, -0.96, 0.96, 0.27, 41.99, 196.15)">e</text><text class="cls-3" transform="translate(48.4 173.54) rotate(-69.45)">r</text><text class="cls-3" transform="translate(54.47 157.43) rotate(-65.75)">-</text><text class="cls-3" transform="translate(59.87 144.72) rotate(-60.87)">o</text><text class="cls-3" transform="translate(73.13 121.44) rotate(-56.01)">-</text><text class="cls-3" transform="translate(80.11 109.7) rotate(-49.62)">m</text><text class="cls-3" transform="matrix(0.74, -0.67, 0.67, 0.74, 106.23, 79.72)">e</text><text class="cls-3" transform="translate(123.74 64.04) rotate(-37.3)">t</text><text class="cls-3" transform="matrix(0.84, -0.54, 0.54, 0.84, 136.47, 54.1)">e</text><text class="cls-3" transform="matrix(0.89, -0.47, 0.47, 0.89, 156.33, 41.5)">r</text><path class="cls-4" d="M277.29,337c27.45.06,28-6.22,27.47-9.64s-2.29-14.75-3.6-43.84S307.68,234,310,222s-.3-51.08-.3-51.08-24.45,1.18-32.1,1.17-32.49-1.3-32.49-1.3-2.41,39.05-.11,51.07,10,32.52,8.61,61.61-3.23,40.41-3.78,43.83S249.84,337,277.29,337Z"/><path class="cls-5" d="M277.29,334.28c-17.93,0-22.9-2.75-24.27-4.37a2.39,2.39,0,0,1-.46-2.21c1.57-9.65,2.85-24.5,3.82-44.13,1.12-22.93-3.27-40.3-6.48-53-.9-3.56-1.68-6.64-2.18-9.27-1.86-9.75-.49-38.68,0-47.69,6.69.33,23.71,1.15,29.91,1.16s22.93-.73,29.53-1c.54,9,2.08,37.94.18,47.68-.51,2.63-1.3,5.7-2.22,9.26-3.26,12.67-7.72,30-6.69,53,.88,19.63,2.1,34.48,3.62,44.15a2.39,2.39,0,0,1-.46,2.21C300.21,331.62,295.23,334.32,277.29,334.28Z"/><path class="cls-6" d="M277.29,334.28c-17.93,0-22.9-2.75-24.27-4.37a2.39,2.39,0,0,1-.46-2.21c1.57-9.65,2.85-24.5,3.82-44.13,1.12-22.93-3.27-40.3-6.48-53-.9-3.56-1.68-6.64-2.18-9.27-1.86-9.75-1.09-25.22-.61-34.23,6.7.33,24.29,1.15,30.49,1.17s23.64-.73,30.24-1c.54,9,1.4,24.48-.5,34.22-.51,2.63-1.3,5.7-2.22,9.26-3.26,12.67-7.72,30-6.69,53,.88,19.63,2.1,34.48,3.62,44.15a2.39,2.39,0,0,1-.46,2.21C300.21,331.62,295.23,334.32,277.29,334.28Z"/><path class="cls-5" d="M251.25,316.68c-.62,5.81-1.14,9-1.39,10.59-.55,3.41,0,9.69,27.43,9.75s28-6.22,27.47-9.64c-.25-1.56-.75-4.76-1.34-10.54-9.62,4-19.35,4.08-26.1,4.06C270.78,320.89,259.63,319.88,251.25,316.68Z"/><path class="cls-4" d="M277.29,334.25c-17.93,0-22.9-2.75-24.27-4.37a2.39,2.39,0,0,1-.46-2.21c.19-1.12.87-6.18,1.34-10.09a88.07,88.07,0,0,0,23.42,3.2c7.13,0,15-.19,23.45-3,.45,3.81,1.11,8.86,1.28,10a2.38,2.38,0,0,1-.46,2.21C300.21,331.59,295.22,334.28,277.29,334.25Z"/><ellipse class="cls-4" cx="277.54" cy="170.72" rx="32.13" ry="2.82"/><path class="cls-4" d="M277.54,173.9c-.33,0-32.49,0-32.49-3.18s32.16-3.18,32.49-3.18,32.49,0,32.49,3.18S277.86,173.9,277.54,173.9Zm0-5.65c-19.65,0-31.27,1.48-31.79,2.5.52,1,12.14,2.44,31.79,2.44,19.45,0,31-1.45,31.77-2.47C308.57,169.7,297,168.25,277.54,168.25Z"/></g></g></svg>